<?xml version="1.0" encoding="UTF-8"?>
<!DOCTYPE svg PUBLIC "-//W3C//DTD SVG 1.1//EN" "http://www.w3.org/Graphics/SVG/1.1/DTD/svg11.dtd">
<!-- Creator: CorelDRAW 2018 (64-Bit) -->
<svg xmlns="http://www.w3.org/2000/svg" xml:space="preserve" width="8.4666mm" height="8.4666mm" version="1.1" style="shape-rendering:geometricPrecision; text-rendering:geometricPrecision; image-rendering:optimizeQuality; fill-rule:evenodd; clip-rule:evenodd"
viewBox="0 0 846.66 846.66"
 xmlns:xlink="http://www.w3.org/1999/xlink">
 <defs>
  <style type="text/css">
   <![CDATA[
    .fil0 {fill:#010101}
   ]]>
  </style>
 </defs>
 <g id="Layer_x0020_1">
  <metadata id="CorelCorpID_0Corel-Layer"/>
  <path class="fil0" d="M12.08 480.26c-4.33,-50.92 -14.69,-187.71 10.72,-228.75 20.03,-32.34 54.54,-27.59 99.02,-30.02 96.67,-5.29 149.8,-4.78 246.17,-0.12 109.79,5.3 133.21,-2.21 113.32,258.87l-469.23 0.02zm233.8 133.26c-0.25,0.25 0.17,10.68 -12.67,4.84 -7,-3.18 -5.83,-5.72 -5.72,-14.51 -2.01,-45.37 -49.11,-82.79 -101.63,-78.61 -46.97,3.74 -82.25,42.46 -86.42,91.32 -39.17,0.21 -39.49,0.71 -39.02,-38.73 0.28,-22.34 -2.49,-50.81 3.27,-68.97 25.38,-6.45 811.45,-6.75 839.04,-0.1 4.17,14.07 7.08,91.52 -2.31,101.4 -6.01,6.45 4.36,3.3 -13.95,6.37 -2.03,0.35 -12.46,0.38 -15.1,0.36 -10.12,-0.06 -20.33,-0.32 -30.48,-0.4l-4.41 -11.78c-13.17,-44.1 -39.72,-79.57 -94.08,-79.78 -79.5,-0.31 -90.26,76.58 -98.48,91.66l-143.93 0.26c-4.99,-8.74 -5.66,-24.16 -12.59,-37.78 -41.62,-81.73 -166.11,-71.33 -181.52,34.45zm496.11 -216.86c4.61,2.76 5.59,0.45 1.65,3.38 -0.82,0.34 -2.03,0.03 -2.47,1.01l-32.25 1.53c-22.2,-0.27 -108.55,3.55 -122.02,-1.37 -11.78,3.11 -3.99,2.4 -3.45,-28.01 0.33,-18.72 -4.68,-74.12 4,-87.6l95.61 0.54c3.92,13.05 20.47,40.21 28.6,53.97 8.8,14.89 25.2,42.74 30.33,56.55zm-45.23 233.48c4.58,-28.8 -9.67,-32.73 -30.42,-18.31l0.84 19.52c15.45,7.64 15.84,7.59 29.58,-1.21zm-549.38 -24.62l-22.56 0.77c-6.91,26.81 6.42,35.08 27.72,25.86 3.2,-17.16 3.2,-14.48 -5.16,-26.63zm182.12 1.94c-11.19,33.6 17.08,35.75 27.09,23.14 9.48,-11.94 -1.2,-32.24 -27.09,-23.14zm1.52 -415.35l-146.56 -0.26c1.62,-41.3 14.94,-33.18 73.72,-33.22 42.26,-0.03 71.35,-11.49 72.84,33.48zm-22.92 442.44c18.72,46.41 92.05,15.79 68.09,-30.83 -21.39,-41.59 -86.4,-14.55 -68.09,30.83zm103.34 -3.79c-11.31,83.92 -151.49,73.13 -137.38,-21.87 12.32,-83.07 149.94,-71.34 137.38,21.87zm-264.1 -46.46c-47.39,-14.59 -62.16,59.01 -23.61,71.1 53.93,16.9 69.25,-57.05 23.61,-71.1zm59.53 46.46c-11.52,83.7 -151.62,73.66 -137.15,-21.85 13.21,-87.25 149.94,-71.04 137.15,21.85zm484.7 -45.3c-45.48,-17.47 -65.88,56.64 -22.54,70.22 43.3,13.58 78.03,-48.9 22.54,-70.22zm58.84 49.09c-16.85,88.36 -155.67,63.69 -136.19,-29.8 17.78,-85.35 154.02,-63.67 136.19,29.8zm-186.95 -210.41c45.78,7.59 145.43,4.09 187.13,4.08 14.72,0 20.89,-1.68 29.26,-6.57 1.03,-21.51 -44.05,-92.71 -59.97,-119.95 -26.87,-46 3.97,-41.57 -132.17,-41.24 -37.43,0.09 -29.06,10.38 -28.88,86.22l4.63 77.46zm-62.09 55.14c8.88,-286.22 -50.83,-263.94 165.89,-264.41 73.7,-0.15 62.54,-1.83 117.11,98.05 40.68,74.48 50.09,64.09 49.41,167.36l-332.41 -1z"/>
 </g>
</svg>
