<?xml version="1.0" encoding="UTF-8"?>
<!DOCTYPE svg PUBLIC "-//W3C//DTD SVG 1.1//EN" "http://www.w3.org/Graphics/SVG/1.1/DTD/svg11.dtd">
<!-- Creator: CorelDRAW 2018 (64-Bit) -->
<svg xmlns="http://www.w3.org/2000/svg" xml:space="preserve" width="8.4666mm" height="8.4666mm" version="1.1" style="shape-rendering:geometricPrecision; text-rendering:geometricPrecision; image-rendering:optimizeQuality; fill-rule:evenodd; clip-rule:evenodd"
viewBox="0 0 846.66 846.66"
 xmlns:xlink="http://www.w3.org/1999/xlink">
 <defs>
  <style type="text/css">
   <![CDATA[
    .fil0 {fill:#1f5baa}
   ]]>
  </style>
 </defs>
 <g id="Layer_x0020_1">
  <metadata id="CorelCorpID_0Corel-Layer"/>
  <path class="fil0" d="M203.22 382.43l273.99 98.6c21.69,18.68 -6.53,23.24 20.62,52.77 12.74,13.86 24.81,20.81 30.4,42.99 8.09,32.11 -0.97,34.73 13.7,65.32 56.23,13.1 145.13,-16.93 208.88,-16.93 -25.49,-38.07 -36.28,-10.31 -70.52,-31.1l-124.7 -112.4c-14.13,-39.66 32.02,-22.85 -114.61,-71.68 -26.03,-8.66 -50.38,-18.68 -79.03,-28.22l-158.73 -55.8 0 56.45zm56.45 -129.83l5.65 0c20.47,0 22.13,30.53 22.58,50.8l-50.81 0c1.66,-19.91 2.2,-50.8 22.58,-50.8zm107.26 0l73.39 0c0.57,25.46 6.4,29.82 11.29,50.8l-73.39 0c-0.84,-10.13 -8.23,-43.96 -11.29,-50.8zm-67.74 0l45.16 0c5.9,12.29 10.88,32.47 11.29,50.8l-45.16 0c-1.17,-14.04 -6.46,-40.73 -11.29,-50.8zm-33.87 -56.46c3.87,16.61 5.64,17.23 5.64,39.52l-22.58 0c12.7,-26.45 -5,-23.44 16.94,-39.52zm90.32 0l67.74 0c3.14,13.45 5.95,28.39 11.3,39.52l-73.39 0c-0.43,-19.24 -3.42,-22.12 -5.65,-39.52zm-67.74 0l45.16 0c3.87,16.61 5.65,17.23 5.65,39.52l-45.16 0c-0.43,-19.24 -3.42,-22.12 -5.65,-39.52zm-84.68 112.91c20.28,9.72 33.08,15.38 62.32,16.71 63.67,2.9 7.78,18.77 56.23,22.8l0 -22.58 39.52 0c14.56,30.34 -2.34,42.37 33.87,50.81 -1.17,-14.04 -6.46,-40.73 -11.29,-50.81l73.39 0c17.11,73.48 13.33,89.37 56.45,90.33l-50.07 -181.92c-22.6,-89.73 103.69,-77.76 -215.26,-77.76 -31.94,0 -20.61,101.25 -45.16,152.42zm400.81 112.9c0,18.07 -5.1,21.43 -12.16,33 -6.67,10.91 -10.32,18.24 -16.06,29.1 17.79,11.91 114.71,107.26 124.19,107.26 29.98,0 18.44,-13.93 46.9,9.28 23.73,19.35 20.84,13.84 20.84,52.81 52.35,0 36.91,3.08 67.74,5.65 22.03,-94.54 4.92,-43.18 3.75,-102.27 -0.2,-10.16 14.28,-51.59 -33.36,-88.28 -13.19,-10.16 -33.4,-12.68 -55.06,-12.68 0,-21.1 3.31,-73.39 -28.23,-73.39 -24.41,0 -22.75,11.3 -39.51,11.3 -32.95,0 -48.66,-10.62 -79.04,-11.3l0 39.52zm-171.9 149.51c19.71,0 35.69,15.98 35.69,35.69 0,19.71 -15.98,35.69 -35.69,35.69 -19.71,0 -35.69,-15.98 -35.69,-35.69 0,-19.71 15.98,-35.69 35.69,-35.69zm0 -47.73c-46.07,0 -83.42,37.35 -83.42,83.42 0,46.07 37.35,83.42 83.42,83.42 46.07,0 83.42,-37.35 83.42,-83.42 0,-46.07 -37.35,-83.42 -83.42,-83.42zm-251.1 47.73c19.71,0 35.69,15.98 35.69,35.69 0,19.71 -15.98,35.69 -35.69,35.69 -19.71,0 -35.69,-15.98 -35.69,-35.69 0,-19.71 15.98,-35.69 35.69,-35.69zm-90.71 -256.77l16.93 0 0 16.94 -16.93 0 0 -16.94zm-90.32 225.81c35.18,23.56 23.33,34.41 84.67,39.52 9.99,-42.89 49.42,-72.23 101.62,-73.39l0 -197.58c-43.81,-10.21 -69.97,-33.87 -124.2,-33.87 0,20.71 -3.9,47.45 -6.31,72.71 -8.5,88.95 -37.63,-25.54 -55.78,192.61zm181.03 -16.77c-46.07,0 -83.42,37.35 -83.42,83.42 0,46.07 37.35,83.42 83.42,83.42 46.07,0 83.42,-37.35 83.42,-83.42 0,-46.07 -37.35,-83.42 -83.42,-83.42zm22.19 -11.46c80.51,18.76 73.39,84.79 73.39,129.84l62.1 0c-10.42,-44.72 -7.98,-85.16 36.87,-115.54 43.46,-29.45 49.79,-14.3 98.61,-14.3 -2.32,-27.89 -4.47,-21.49 -57.2,-38.76 -36.67,-12.01 -191.44,-72.28 -213.77,-74.14l0 112.9z"/>
 </g>
</svg>
