<svg xmlns="http://www.w3.org/2000/svg" viewBox="0 0 3333 2017" shape-rendering="geometricPrecision" text-rendering="geometricPrecision" image-rendering="optimizeQuality" fill-rule="evenodd" clip-rule="evenodd" style="fill:#0779e4;"><path d="M2561 508l-488-3V177c0-49-20-93-52-125s-76-52-125-52H544c-49 0-93 20-125 52s-52 76-52 125c0 27 21 48 48 48s48-21 48-48c0-22 9-43 24-57 15-15 35-24 57-24h1352c22 0 42 9 57 24s24 35 24 57v1503h-271c-27 0-48 21-48 48 0 26 21 48 48 48h319c27 0 48-21 48-48v-55h290c22-500 739-569 812 0h158l-49-521-517-198-206-446zM72 1018c-40 0-72-22-72-48 0-27 32-48 72-48h648c40 0 72 22 72 48 0 27-32 48-72 48H72zm148-260c-30 0-54-22-54-48 0-27 24-48 54-48h500c30 0 54 22 54 48 0 27-24 48-54 48H220zm69-260c-30 0-54-22-54-48 0-27 24-48 54-48h431c30 0 54 22 54 48 0 27-24 48-54 48H289zm429 1182c26 0 48 21 48 48 0 26-21 48-48 48H545c-49 0-93-21-125-54s-52-79-52-127v-353c0-26 21-48 48-48s48 21 48 48v353c0 23 10 45 25 61 15 15 34 25 56 25h173zm488-314c-180 0-325 146-325 325 0 180 146 325 325 325 180 0 325-146 325-325 0-180-146-325-325-325zm0 200c-69 0-125 56-125 125s56 125 125 125 125-56 125-125-56-125-125-125zm1563-200c-180 0-325 146-325 325 0 180 146 325 325 325 180 0 325-146 325-325 0-180-146-325-325-325zm0 200c-69 0-125 56-125 125s56 125 125 125 125-56 125-125-56-125-125-125zm-333-921l-242-3v312h406l-164-309z"/></svg>