<?xml version="1.0" encoding="utf-8"?>
<!-- Svg Vector Icons : http://www.onlinewebfonts.com/icon -->
<!DOCTYPE svg PUBLIC "-//W3C//DTD SVG 1.1//EN" "http://www.w3.org/Graphics/SVG/1.1/DTD/svg11.dtd">
<svg version="1.1" xmlns="http://www.w3.org/2000/svg" xmlns:xlink="http://www.w3.org/1999/xlink" x="0px" y="0px" viewBox="0 0 1000 1000" enable-background="new 0 0 1000 1000" xml:space="preserve" style="fill:#0779e4">
<metadata> Svg Vector Icons : http://www.onlinewebfonts.com/icon </metadata>
<g><g><g><path d="M829.4,603.1c-24.8,23.4-55.2,40.6-89.1,49.6c31.7,50.3,53.4,107.8,61.4,169.9c1.5,12-0.7,23.7-5.8,34.2h174.2c5.6,0,11-2.6,14.9-7c3.7-4.2,5.5-9.6,4.8-14.8C977,735,914.1,649.6,829.4,603.1z"/><path d="M628.5,534.5c7,5,13.7,10.2,20.3,15.6c6.7,5.4,13.3,10.9,19.6,16.7c18,16.4,34.5,34.3,49.4,53.7c28.2-5.1,54-17.2,75.6-34.3c5.4-4.3,10.6-8.9,15.5-13.8c4.6-4.6,8.8-9.5,12.8-14.6c23-29.2,36.8-65.9,36.8-105.8c0-94.5-76.9-171.5-171.5-171.5c-19.9,0-38.9,3.6-56.6,9.8c6.2,21.8,9.7,44.8,9.7,68.6c0,56.7-19,108.9-50.7,151.1C602.8,517.4,615.9,525.5,628.5,534.5z"/><path d="M371.8,856.9h32h333c8.7,0,16.9-3.6,22.4-9.9c4.9-5.5,7.1-12.5,6.1-19.6c-8-62.2-30.9-119.3-64.6-168.1c-4.1-6-8.3-11.9-12.8-17.7c-5.1-6.5-10.5-12.8-16-19c-15.8-17.8-33.1-34-51.8-48.6c-6.4-5-13-9.7-19.7-14.3c-6.6-4.5-13.1-8.8-19.9-12.9c-5.1-3-10.4-5.8-15.7-8.6c-5.2,5.1-10.5,10-16.2,14.7c-4.7,3.9-9.7,7.5-14.6,11c-4.9,3.5-10,6.8-15.2,10c-2.5,1.5-4.9,3.1-7.5,4.5c-0.8,0.4-1.5,0.9-2.2,1.4c-36,19.9-77.4,31.2-121.3,31.2c-69,0-131.5-27.9-177.1-72.9c-106.5,56.6-184.2,162.3-200.5,289c-0.9,7.2,1.3,14.2,6.2,19.8c5.5,6.3,13.7,9.9,22.3,9.9h312.8L371.8,856.9L371.8,856.9z"/><path d="M232.3,507.8c4.5,4.7,9.3,9.2,14.2,13.5c37.9,33,87.2,53.1,141.3,53.1c41.1,0,79.5-11.8,112.2-31.9c5.2-3.2,10.3-6.6,15.3-10.3c4.8-3.5,9.4-7.1,13.8-11c0.3-0.3,0.6-0.6,0.9-0.8c4.6-4,9-8.2,13.3-12.7c4.5-4.7,8.8-9.5,12.8-14.6c29.6-36.9,47.4-83.6,47.4-134.5c0-18.1-2.5-35.6-6.7-52.5c-1.6-6.2-3.3-12.2-5.4-18.2c-2-5.8-4.3-11.6-6.8-17.2c-33.7-75.2-109.1-127.8-196.8-127.8c-118.9,0-215.6,96.7-215.6,215.7c0,50.9,17.8,97.6,47.3,134.5C223.5,498.3,227.8,503.2,232.3,507.8z"/></g></g><g></g><g></g><g></g><g></g><g></g><g></g><g></g><g></g><g></g><g></g><g></g><g></g><g></g><g></g><g></g></g>
</svg>