<?xml version="1.0" encoding="UTF-8"?>
<!DOCTYPE svg PUBLIC "-//W3C//DTD SVG 1.1//EN" "http://www.w3.org/Graphics/SVG/1.1/DTD/svg11.dtd">
<!-- Creator: CorelDRAW 2018 (64-Bit) -->
<svg xmlns="http://www.w3.org/2000/svg" xml:space="preserve" width="8.4666mm" height="8.4666mm" version="1.1" style="shape-rendering:geometricPrecision; text-rendering:geometricPrecision; image-rendering:optimizeQuality; fill-rule:evenodd; clip-rule:evenodd"
viewBox="0 0 846.66 846.66"
 xmlns:xlink="http://www.w3.org/1999/xlink">
 <defs>
  <style type="text/css">
   <![CDATA[
    .fil0 {fill:#1eb15d}
   ]]>
  </style>
 </defs>
 <g id="Layer_x0020_1">
  <metadata id="CorelCorpID_0Corel-Layer"/>
  <path class="fil0" d="M846.66 575.56c0,6.05 -4.9,10.95 -10.94,10.95l-156.76 0c-6.04,0 -10.94,-4.9 -10.94,-10.95l0 -156.76c0,-6.04 4.9,-10.94 10.94,-10.94l156.76 0c6.04,0 10.94,4.9 10.94,10.94l0 156.76zm-322.73 -105.01c-47.57,-77.73 -172.64,-286.04 -173.89,-288.12 -6.37,-10.66 -18.04,-17.28 -30.46,-17.28l-202.59 0c-19.56,0 -35.47,15.91 -35.47,35.47l0 195.22 -57.01 0c-13.52,0 -24.52,10.99 -24.52,24.51l0 226.17c0,13.51 11,24.51 24.52,24.51l25.67 0c3.33,0 6.02,-2.7 6.02,-6.02 0,-46.53 37.85,-84.38 84.37,-84.38 46.52,0 84.37,37.85 84.37,84.38 0,1.59 0.64,3.12 1.77,4.25 1.13,1.13 2.66,1.77 4.25,1.77l67.66 0c3.32,0 6.02,-2.7 6.02,-6.02 0,-46.53 37.84,-84.38 84.37,-84.38 46.52,0 84.37,37.85 84.37,84.38 0,3.32 2.7,6.02 6.02,6.02l18.36 0c17.55,0 31.83,-14.28 31.83,-31.82l0 -152.64c0,-6.24 -2.92,-11.54 -5.66,-16.02zm-201.3 -0.38l0 -32.98c0,-5.66 -4.59,-10.25 -10.26,-10.25l-58.13 0 0 -97.09c0,-5.67 -4.6,-10.26 -10.26,-10.26l-32.49 0c-5.67,0 -10.26,4.59 -10.26,10.26l0 140.32 -48.76 0 -0.01 -234.07 146.99 0 139.87 234.07 -116.69 0 0 0zm-129.29 194.83c0,-29.14 -23.62,-52.77 -52.77,-52.77 -29.14,0 -52.77,23.63 -52.77,52.77 0,29.15 23.63,52.78 52.77,52.78 29.15,0 52.77,-23.63 52.77,-52.78zm248.44 0c0,-29.14 -23.63,-52.77 -52.77,-52.77 -29.15,0 -52.77,23.63 -52.77,52.77 0,29.15 23.62,52.78 52.77,52.78 29.14,0 52.77,-23.63 52.77,-52.78zm381.89 3.57l-213.06 0c-12.7,0 -22.99,-10.3 -22.99,-23l0 -493.69c0,-12.7 10.29,-22.99 22.99,-22.99 12.7,0 22.99,10.29 22.99,22.99l0 470.7 190.07 0c12.7,0 23,10.3 23,22.99 -0.01,12.7 -10.3,23 -23,23zm22.99 -316.46c0,6.04 -4.9,10.94 -10.94,10.94l-156.76 0c-6.04,0 -10.94,-4.9 -10.94,-10.94l0 -156.76c0,-6.05 4.9,-10.94 10.94,-10.94l156.76 0c6.04,0 10.94,4.89 10.94,10.94l0 156.76z"/>
 </g>
</svg>
