<?xml version="1.0" encoding="utf-8"?>
<!-- Svg Vector Icons : http://www.onlinewebfonts.com/icon -->
<!DOCTYPE svg PUBLIC "-//W3C//DTD SVG 1.1//EN" "http://www.w3.org/Graphics/SVG/1.1/DTD/svg11.dtd">
<svg version="1.1" xmlns="http://www.w3.org/2000/svg" xmlns:xlink="http://www.w3.org/1999/xlink" x="0px" y="0px" viewBox="0 0 1000 1000"  fill="gray" xml:space="preserve">
<metadata> Svg Vector Icons : http://www.onlinewebfonts.com/icon </metadata>
<g><g><path d="M678.6,664.3H321.4l-31.7,77l-5.5,13.3h68.9c-0.1-0.6-0.2-1.2-0.2-1.8v-11.5v-21.9c0-6.5,5.2-11.7,11.7-11.7c6.5,0,11.7,5.2,11.7,11.7v21.9v11.5c0,0.6-0.1,1.2-0.2,1.8h112.3c-0.1-0.6-0.2-1.2-0.2-1.8v-11.5v-21.9c0-6.5,5.2-11.7,11.7-11.7c6.5,0,11.7,5.2,11.7,11.7v21.9v11.5c0,0.6-0.1,1.2-0.2,1.8h112.3c-0.1-0.6-0.2-1.2-0.2-1.8v-11.5v-21.9c0-6.5,5.2-11.7,11.7-11.7c6.5,0,11.7,5.2,11.7,11.7v21.9v11.5c0,0.6-0.1,1.2-0.2,1.8h68.9l-5.5-13.3L678.6,664.3z"/><path d="M983.2,363.9c-2.3-6.8-10.6-12.1-17.5-12.1c-29.8,0-59.7,0-89.5,0c-6.9,0-15.2,5.3-17.5,12.1c-3.2,9.3-5.3,17.2-6.2,24.7c-39.4-75.8-83-160.2-83-160.2c-4.3-12-14.6-20.8-27.2-23c-80.7-14.6-162.2-22-242.3-22c-80.1,0-161.6,7.4-242.4,22c-12.5,2.3-22.9,11-27.2,23c0,0-43.6,84.4-83,160.2c-0.9-7.5-3-15.4-6.2-24.7c-2.3-6.8-10.6-12.1-17.5-12.1c-29.8,0-59.7,0-89.5,0c-6.9,0-15.1,5.3-17.5,12.1c-9.1,26.4-9.1,41.5,0,67.9c2.3,6.8,10.6,12.1,17.5,12.1c29.8,0,59.6,0,89.4,0c0,1.1,0.1,2.2,0.2,3.3c-18.8,5.7-32.6,23.2-32.6,43.9v192.7v11.4v99.2c0,12.2,9.9,22.1,22.1,22.1h111.1c12.2,0,22.1-9.9,22.1-22.1v-53.3h18l38.3-93.1c1.8-4.4,6.1-7.2,10.8-7.2h372.8c4.7,0,9,2.9,10.8,7.2l38.3,93.1h18v53.3c0,12.2,9.9,22.1,22.1,22.1h111.1c12.2,0,22.1-9.9,22.1-22.1v-99.2v-11.4V491.2c0-20.7-13.7-38.2-32.6-43.9c0.1-1.1,0.2-2.2,0.2-3.3c29.8,0,59.6,0,89.4,0c6.9,0,15.1-5.3,17.5-12.1C992.3,405.5,992.3,390.3,983.2,363.9z M279.7,254.4c0,0,53.3-13.5,220.3-13.5c166.9,0,220.3,13.5,220.3,13.5l78.3,189.5H201.5L279.7,254.4z M182.4,582.3v-62.3h134.8l40.1,62.3H182.4z M817.6,582.3H642.6l40.1-62.3h134.8V582.3L817.6,582.3z"/></g><g></g><g></g><g></g><g></g><g></g><g></g><g></g><g></g><g></g><g></g><g></g><g></g><g></g><g></g><g></g></g>
</svg>