<?xml version="1.0" encoding="UTF-8"?>
<!DOCTYPE svg PUBLIC "-//W3C//DTD SVG 1.1//EN" "http://www.w3.org/Graphics/SVG/1.1/DTD/svg11.dtd">
<!-- Creator: CorelDRAW 2018 (64-Bit) -->
<svg xmlns="http://www.w3.org/2000/svg" xml:space="preserve" width="8.4666mm" height="8.4666mm" version="1.1" style="shape-rendering:geometricPrecision; text-rendering:geometricPrecision; image-rendering:optimizeQuality; fill-rule:evenodd; clip-rule:evenodd"
viewBox="0 0 846.66 846.66"
 xmlns:xlink="http://www.w3.org/1999/xlink">
 <defs>
  <style type="text/css">
   <![CDATA[
    .fil0 {fill:#838496}
   ]]>
  </style>
 </defs>
 <g id="Layer_x0020_1">
  <metadata id="CorelCorpID_0Corel-Layer"/>
  <path class="fil0" d="M267.33 223.54l-79.36 0c-11.55,17.25 -11.55,18.32 0,35.58l101.26 0 82.1 142.31 -145.05 0c-6.26,-11.84 -48.76,-88.57 -57.68,-95.72 -14.87,-11.92 -29.89,0.99 -29.89,13.62 0,11.66 15,32.44 20.74,42.2 8.29,14.11 14.61,27.3 23.05,39.9 -20.07,0 -40.16,0.08 -60.22,-0.01 -27,-0.12 -43.78,-1.16 -43.78,24.64 0,35.05 66.03,24.63 101.26,24.63 -5.04,9.53 -41.05,69.02 -41.05,73.89 0,26.94 25.86,28.73 39.96,4.39l44.88 -78.28 150.52 0 -76.63 131.36c-22.81,0 -45.61,0.03 -68.42,0 -22.8,-0.03 -49.26,-3.24 -49.26,19.16 0,18.83 18.42,19.37 38.27,19.2 19.16,-0.17 38.36,-0.04 57.52,-0.04 -21.02,39.72 -54.22,72.31 -32.82,95.76 6.47,7.09 16.81,8.23 27.34,8.23 22.2,0 40.2,-65.06 57.47,-76.63 2.92,12.52 36.8,73.9 49.26,73.9 10.24,0 21.9,-6.76 21.9,-19.16 0,-12.79 -36.56,-66.61 -45.82,-83.04 -8.13,-14.46 -4.33,-13.97 3.87,-27.28 13.05,-21.17 48.82,-91.33 63.84,-108.62 2.22,8.29 11.98,23.15 16.27,30.26 9.16,15.2 46.96,75.73 52.46,90.14 3.87,10.14 -6.24,21.04 -11.4,29.98l-34.3 58.98c-7.82,15.79 2.32,28.74 15.29,28.74 26.22,0 38.33,-59.87 57.47,-73.9 2.96,12.71 15.93,30.17 22.83,42.86 8.35,15.34 17.2,33.77 37.38,33.77 14.01,0 27.37,-14.39 27.37,-27.36 0,-16.08 -36.08,-60.74 -41.06,-79.37 13.65,0 65.89,7.6 75.93,4.89 9.53,-2.56 14.39,-11.28 14.39,-21.31 0,-22.79 -77.58,-20.11 -101.3,-21.86 -16.86,-1.24 -17.24,-7.93 -23.77,-20.02 -5.16,-9.56 -10.05,-16.16 -15.35,-25.69 -11.2,-20.12 -41.11,-63.33 -45.68,-82.95l155.99 0c2.62,11.24 10.11,21 15.93,30.6 6.46,10.67 11.68,20.08 17.85,31.41 5.28,9.68 10.73,23.18 20.04,29.45 14.97,10.08 28.28,-3.32 28.28,-14.83 0,-23.89 -32.86,-53.25 -38.31,-76.63 63.68,0 101.26,11.2 101.26,-30.11 0,-19.94 -29.49,-19.27 -43.77,-19.17 -20.97,0.14 -41.98,0.02 -62.96,0.02 2.36,-8.83 9.77,-17.98 14.53,-26.52 6.34,-11.4 27.43,-42.31 28.46,-53.29 1.72,-18.41 -23.33,-34.38 -41.22,-0.53 -10.38,19.64 -40.87,62.76 -45.56,80.34l-150.52 0c24.38,-46.08 54.95,-90.7 79.36,-136.84l106.74 0c11.55,-17.25 11.55,-18.32 0,-35.58l-84.84 0c5.14,-19.25 41.05,-63.32 41.05,-79.36 0,-15.16 -15.13,-27.37 -30.1,-27.37 -31.27,0 -40.9,61.86 -62.95,76.63 -3.76,-14.1 -36.34,-73.89 -52,-73.89 -33.92,0 -13.68,34.14 -4.93,48.71l32.45 55.44c4.34,7.38 5.14,7.24 2.6,13.52 -4.22,10.46 -68.2,122.44 -76.64,128.63 -5.52,-20.65 -26.81,-47.25 -37.38,-66.62l-39.25 -67.47 39.86 -69.61c3.86,-6.29 12.14,-18.68 12.14,-26.18 0,-11.83 -12.81,-18.24 -21.54,-17.67 -11.21,0.74 -15.69,10.88 -20.39,19.53 -7.09,13.06 -26.21,41.58 -29.23,52.87l-5.48 0c-1.89,-7.09 -36.61,-73.89 -51.99,-73.89 -60.76,0 -23.47,54.13 -12.53,72.74 5.37,9.13 12.96,18.61 15.26,28.52z"/>
 </g>
</svg>
