<?xml version="1.0" encoding="UTF-8"?>
<!DOCTYPE svg PUBLIC "-//W3C//DTD SVG 1.1//EN" "http://www.w3.org/Graphics/SVG/1.1/DTD/svg11.dtd">
<!-- Creator: CorelDRAW 2018 (64-Bit) -->
<svg xmlns="http://www.w3.org/2000/svg" xml:space="preserve" width="8.4666mm" height="8.4666mm" version="1.1" style="shape-rendering:geometricPrecision; text-rendering:geometricPrecision; image-rendering:optimizeQuality; fill-rule:evenodd; clip-rule:evenodd"
viewBox="0 0 846.66 846.66"
 xmlns:xlink="http://www.w3.org/1999/xlink">
 <defs>
  <style type="text/css">
   <![CDATA[
    .fil0 {fill:#ff0000}
   ]]>
  </style>
 </defs>
 <g id="Layer_x0020_1">
  <metadata id="CorelCorpID_0Corel-Layer"/>
  <path class="fil0" d="M277.21 805.13l292.3 0c12.71,0 23.52,-6.49 30.26,-13 6.3,-6.07 14.49,-18.69 14.49,-30.25l0 -629.34c0,-11.15 -7.83,-23.61 -13.74,-29.52 -19.2,-19.2 -46.81,-13.73 -81.71,-13.73l0 -47.72 -190.89 0 0 47.72c-33.97,0 -61.97,-5.32 -80.96,12.99 -6.3,6.08 -14.48,18.7 -14.48,30.26l0 629.34c0,19.7 20.76,43.25 44.73,43.25zm38.16 -83.54l0 -448.4 211.69 0 0 448.4 -211.69 0zm-39.16 37.66l0 -614.27 290.01 0 0 614.27 -290.01 0z"/>
 </g>
</svg>
