<?xml version="1.0" encoding="UTF-8"?>
<!DOCTYPE svg PUBLIC "-//W3C//DTD SVG 1.1//EN" "http://www.w3.org/Graphics/SVG/1.1/DTD/svg11.dtd">
<!-- Creator: CorelDRAW 2018 (64-Bit) -->
<svg xmlns="http://www.w3.org/2000/svg" xml:space="preserve" width="8.4666mm" height="8.4666mm" version="1.1" style="shape-rendering:geometricPrecision; text-rendering:geometricPrecision; image-rendering:optimizeQuality; fill-rule:evenodd; clip-rule:evenodd"
viewBox="0 0 846.66 846.66"
 xmlns:xlink="http://www.w3.org/1999/xlink">
 <defs>
  <style type="text/css">
   <![CDATA[
    .fil0 {fill:#838496}
   ]]>
  </style>
 </defs>
 <g id="Layer_x0020_1">
  <metadata id="CorelCorpID_0Corel-Layer"/>
  <path class="fil0" d="M345.38 609.27l155.96 0c16.44,0 13.29,31.17 14.11,41.86 4.42,57.65 15.34,63.31 -38.45,69.76 -44.39,5.32 -90.5,7.16 -134.42,-4.85 -24.92,-6.82 -12.97,-28.06 -11.2,-64.79 0.52,-10.81 -2.36,-41.98 14,-41.98zm-45.98 27.99l0 -103.97c-0.01,-7.28 -2.77,-31.99 3.99,-31.99 6.98,0 16,2.86 16,9.99l0 67.98c0,17.41 -11.11,51.48 -19.99,57.99zm249.92 -63.98c0,10.18 -1.7,13.08 -1.9,20.11 -0.22,7.53 1.9,11.38 1.9,21.87 0,11.1 -2,11.86 -2,22 -26.4,-30.38 -19.99,-86.74 -19.99,-125.97 0,-7.13 9.02,-9.99 16,-9.99 8.82,0 4.17,49.43 4.09,52.1 -0.23,7.95 1.9,9.53 1.9,19.88zm-249.92 -235.94c0.31,0.36 0.75,0.48 0.87,1.13l3.16 4.83c8.69,15.53 15.96,35.28 15.96,54.03l0 81.97c0,8.82 -5.51,5.78 -19.94,3.66l-0.05 -145.62zm249.92 35.99c0,10.18 -1.7,13.09 -1.9,20.11 -0.23,7.96 1.9,9.53 1.9,19.88 0,10.18 -1.7,13.09 -1.9,20.11 -0.23,7.96 1.9,9.53 1.9,19.88 0,12.68 -2,16.69 -2,29.99 -25.3,0 -19.99,23.98 -19.99,-89.97 0,-11.31 3.56,-19.95 6.72,-29.28 3.59,-10.6 9.16,-17.63 11.27,-26.71l4 0c0,10.12 -2.15,9.32 -1.9,17.88 0.21,7.13 1.9,8.21 1.9,18.11zm-127.96 -15.99c-16.34,0 -79.77,5.26 -87.08,1.24 -13.22,-7.25 -12.32,-45.54 -15.77,-70.35 -10.2,-73.3 -10.26,-65.77 34.7,-71.02 40.38,-4.72 56.07,-3.83 96.14,-3.83 14.23,0 70.8,5.34 78.73,9.27 10.9,5.4 4.82,19.19 2.68,32.15l-12.9 75.07c-8.44,44.08 -12.33,27.47 -96.5,27.47zm-255.93 101.97c7.91,4.18 16.37,10.88 24,15.99 5.25,-9.93 13.58,-22.14 20.55,-31.42l59.84 -88.12c1.7,-2.3 2.14,-2.75 3.58,-4.42l0.02 123.98c0.17,22.7 -0.21,18.32 -9.61,32.38 -4,5.96 -64.51,92.52 -66.39,99.57 4.54,6.18 15.29,11.5 22,15.99l53.98 -77.98 -0.07 212.02c-0.09,23.49 12.3,37.91 34.06,37.91l233.94 0c21.97,0 32.14,-17.14 32.06,-37.91l-0.07 -212.02 53.98 77.98c5.82,-3.89 18.31,-10.97 22,-15.99 -1.61,-6.02 -3.97,-7.84 -7.44,-12.56 -3.45,-4.71 -4.43,-7.19 -7.97,-12.02l-50.86 -75.11c-8.57,-11.55 -9.94,-10.57 -9.75,-30.24l0.04 -126 5.22 6.77c2.14,3.09 3.07,4.65 4.77,7.23 3.63,5.52 6.89,9.38 10.63,15.36 6.85,10.95 13.79,20.25 20.97,31.02 6.99,10.49 12.93,19.53 19.97,30.01 4.03,6 6.66,9.41 10.54,15.46 3.56,5.53 7.94,8.85 9.87,16.11 9.22,-0.76 19.29,-9.5 26,-13.99 -11.05,-16.49 -21.79,-31.69 -33.19,-48.79 -5.86,-8.78 -10.17,-15.2 -15.99,-24 -3.23,-4.86 -5.03,-7.24 -8.26,-11.74 -3.63,-5.06 -5.14,-8.16 -8.83,-13.16 -11.65,-15.79 -21.61,-32.33 -32.91,-49.07 -10.13,-15.02 -8.92,-9.6 -8.8,-33.18l0.01 -123.97c0,-29.75 -1.11,-83.32 -28.19,-95.79 -6.47,-2.98 -102.93,-8.19 -117.77,-8.19l-117.54 6.43c-34.81,4.51 -36.42,63.1 -36.42,89.55l0.12 146.08c-0.76,13.63 -45.46,72.87 -57.3,90.65l-50.79 75.18z"/>
 </g>
</svg>
