<?xml version="1.0" encoding="UTF-8"?>
<!DOCTYPE svg PUBLIC "-//W3C//DTD SVG 1.1//EN" "http://www.w3.org/Graphics/SVG/1.1/DTD/svg11.dtd">
<!-- Creator: CorelDRAW 2018 (64-Bit) -->
<svg xmlns="http://www.w3.org/2000/svg" xml:space="preserve" width="8.4666mm" height="8.4666mm" version="1.1" style="shape-rendering:geometricPrecision; text-rendering:geometricPrecision; image-rendering:optimizeQuality; fill-rule:evenodd; clip-rule:evenodd"
viewBox="0 0 846.66 846.66"
 xmlns:xlink="http://www.w3.org/1999/xlink">
 <defs>
  <style type="text/css">
   <![CDATA[
    .fil0 {fill:#838496}
   ]]>
  </style>
 </defs>
 <g id="Layer_x0020_1">
  <metadata id="CorelCorpID_0Corel-Layer"/>
  <path class="fil0" d="M165.12 401.54l0 49.33 -26.1 0c0,-60.61 8.3,-87.04 -46.42,-87.04 -22,0 -40.62,7.53 -40.62,29.02l0 200.18c0,35.79 40.35,29.01 58.03,29.01 36.08,0 29.01,-50.57 29.01,-84.13l26.1 0c0,53.22 -8.69,84.73 40.5,84.25 46.67,-0.45 32.07,-1.57 92.23,58.63 13.08,13.08 22.08,28.29 47.15,28.29l185.68 0c27.74,0 59.09,-40.24 84.86,-66 54.85,-54.87 66,-52.46 66,-105.17l26.11 0c0,87.18 -1.39,84.13 63.82,84.13 8.85,0 23.21,-13.34 23.21,-29.01l0 -200.18c0,-27.48 -27.55,-29.02 -49.32,-29.02 -46.38,0 -37.71,41.46 -37.71,87.04l-26.11 0 0 -136.35c0,-18.74 -10.86,-34.82 -29.02,-34.82l-316.23 0c-17.1,0 -63.87,53.56 -77.6,67.46 -23.42,23.7 -14.1,15.69 -56.03,16.5 -25.11,0.48 -37.54,12.93 -37.54,37.88zm171.17 -223.39c0,11.46 0.65,21.02 5.19,29.63 11.05,20.98 38.23,13.9 81.85,13.9l0 29.01 87.04 0 0 -29.01c84.48,0 84.13,7.01 84.13,-58.03 0,-14.35 -11.77,-26.11 -26.11,-26.11l-208.89 0c-15.99,0 -23.21,22.93 -23.21,40.61z"/>
 </g>
</svg>
