<?xml version="1.0" encoding="UTF-8"?>
<!DOCTYPE svg PUBLIC "-//W3C//DTD SVG 1.1//EN" "http://www.w3.org/Graphics/SVG/1.1/DTD/svg11.dtd">
<!-- Creator: CorelDRAW 2018 (64-Bit) -->
<svg xmlns="http://www.w3.org/2000/svg" xml:space="preserve" width="8.4666mm" height="8.4666mm" version="1.1" style="shape-rendering:geometricPrecision; text-rendering:geometricPrecision; image-rendering:optimizeQuality; fill-rule:evenodd; clip-rule:evenodd"
viewBox="0 0 846.66 846.66"
 xmlns:xlink="http://www.w3.org/1999/xlink">
 <defs>
  <style type="text/css">
   <![CDATA[
    .fil0 {fill:#838496}
   ]]>
  </style>
 </defs>
 <g id="Layer_x0020_1">
  <metadata id="CorelCorpID_0Corel-Layer"/>
  <path class="fil0" d="M155.53 659.7c15.73,0 23.6,-15.64 23.6,-46.84 0,-32.35 -7.69,-48.62 -23.07,-48.62 -16.17,0 -24.3,16.45 -24.3,49.41 0,30.67 7.95,46.05 23.77,46.05zm368.78 -281.22c3.98,5.95 15.01,15.42 21.4,19.09 30.33,17.44 70.47,9.45 86.57,-14.59l-12.1 -12.64c-14.15,9.68 -17.45,18.26 -40.76,18.26 -24.59,0 -33.39,-16.98 -41.61,-22.49 -3.87,1.03 -11.25,9.01 -13.5,12.37zm-287.94 29.24c0,47.17 52.94,56.09 75.12,32.38 27.39,-29.28 2.86,-62.22 -17.27,-89.1 -2.79,-3.71 -11.8,-13.56 -12.86,-17.51 -3.34,0.89 -1.37,-0.39 -4.08,2.66l-22.46 30.41c-5.91,8.86 -18.45,27.99 -18.45,41.16zm44.99 -265.44c0.44,5.3 5.26,19.59 7.17,25.45 8.74,26.83 -3.11,21.16 39.14,15.23 34.53,-4.84 55.19,-7.41 89.79,9.94 15.05,7.55 29.09,15.8 43.86,23.62 3.11,-2.09 36.98,-34.64 38.24,-39.37 -14.39,-7.61 -69.88,-35.92 -85.04,-40.93 -32.94,-10.89 -59.13,-5.91 -91.37,-0.52 -6.48,1.08 -13.79,2.11 -20.42,3.21 -6.48,1.08 -14.86,2.83 -21.37,3.37zm408.28 259.82c13.83,26.13 23.62,43.32 23.62,77.6l0 127.1 44.99 0 0 -156.34c0,-37.43 -28.56,-72.88 -31.49,-85.48 -4.25,2.25 -17.02,16.3 -21.25,20.36 -0.17,0.16 -0.42,0.4 -0.58,0.56l-15.29 16.2zm-251.94 -129.34c0,15.69 0.54,21.51 13.77,34.59 8.42,8.33 54.6,55.58 59.34,58.76 5.01,-1.34 10.09,-8.41 13.78,-12.09 10.06,-10.07 28.23,-31.06 40.21,-37.4 0,9.75 0,19.49 0,29.24 -0.01,16.68 -2.41,22.5 11.24,22.5 3.87,0 6.39,-3.98 6.79,-7.84l-0.04 -45.03c10.95,2.55 55.72,50.67 66.65,61.58 5.46,5.47 17.43,16.2 21.08,21.66 7.01,-4.7 23.42,-22.86 30.65,-30.09 16.3,-16.3 24.46,-20.44 24.46,-43.02 0,-17.8 -19.18,-32.12 -34.02,-46.96 -13.96,-13.96 -27.09,-27.1 -41.05,-41.05 -13.96,-13.96 -27.1,-27.1 -41.06,-41.06 -16.31,-16.31 -25.91,-30.65 -54.83,-30.65 -8.31,0 -15.82,2.37 -21.76,5.23 -13.83,6.65 -32.89,28.62 -44.32,40.05 -9.64,9.64 -18.46,18.47 -28.11,28.12 -7.94,7.93 -22.78,18.95 -22.78,33.46zm-349.25 236.07l133.1 0 0 208.14 -133.1 0 0 -208.14zm29.96 105.44c0,18.3 3.18,32.17 9.46,41.9 6.36,9.63 15.11,14.49 26.34,14.49 12.01,0 21.39,-5.04 28.1,-15.21 6.72,-10.15 10.08,-24.74 10.08,-44.01 0,-38.8 -11.85,-58.15 -35.62,-58.15 -12.47,0 -21.92,5.04 -28.46,15.46 -6.63,10.26 -9.9,25.46 -9.9,45.52zm120.64 -105.44l130.72 0 0 208.14 -130.72 0 0 -208.14zm34.3 157.14c5.21,3.1 13.08,4.69 23.59,4.69 12.46,0 22.27,-3.36 29.34,-10.07 7.16,-6.72 10.79,-15.56 10.79,-26.52 0,-10.6 -3.36,-19 -9.99,-25.1 -6.63,-6.1 -16.09,-9.1 -28.19,-9.1 -3.01,0 -6.19,0.08 -9.64,0.26l0 -33.23 42.69 0 0 -11.76 -54.98 0 0 57.01c8.67,-0.71 14.68,-0.97 17.77,-0.97 9.37,0 16.53,2.03 21.57,6.27 5.04,4.16 7.51,9.99 7.51,17.42 0,7.5 -2.39,13.52 -7.33,18.02 -4.96,4.6 -11.41,6.81 -19.45,6.81 -8.04,0 -15.91,-2.48 -23.68,-7.51l0 13.78 0 0zm109.94 -157.14l131.43 0 0 208.14 -131.43 0 0 -208.14zm32.7 105.44c0,18.3 3.1,32.17 9.46,41.9 6.28,9.63 15.11,14.49 26.34,14.49 12.02,0 21.39,-5.04 28.1,-15.21 6.72,-10.15 10.08,-24.74 10.08,-44.01 0,-38.8 -11.93,-58.15 -35.71,-58.15 -12.37,0 -21.83,5.04 -28.46,15.46 -6.54,10.26 -9.81,25.46 -9.81,45.52zm37.13 45.43c15.73,0 23.5,-15.64 23.5,-46.84 0,-32.35 -7.6,-48.62 -22.98,-48.62 -16.26,0 -24.3,16.45 -24.3,49.41 -0.09,30.67 7.86,46.05 23.78,46.05z"/>
 </g>
</svg>
