<?xml version="1.0" encoding="UTF-8"?>
<!DOCTYPE svg PUBLIC "-//W3C//DTD SVG 1.1//EN" "http://www.w3.org/Graphics/SVG/1.1/DTD/svg11.dtd">
<!-- Creator: CorelDRAW 2018 (64-Bit) -->
<svg xmlns="http://www.w3.org/2000/svg" xml:space="preserve" width="8.4666mm" height="8.4666mm" version="1.1" style="shape-rendering:geometricPrecision; text-rendering:geometricPrecision; image-rendering:optimizeQuality; fill-rule:evenodd; clip-rule:evenodd"
viewBox="0 0 846.66 846.66"
 xmlns:xlink="http://www.w3.org/1999/xlink">
 <defs>
  <style type="text/css">
   <![CDATA[
    .fil0 {fill:#ff0000}
   ]]>
  </style>
 </defs>
 <g id="Layer_x0020_1">
  <metadata id="CorelCorpID_0Corel-Layer"/>
  <path class="fil0" d="M585.96 635.17c85.83,-125.76 129.3,-229.96 129.3,-309.66 0,-160.96 -130.93,-291.9 -291.89,-291.9 -160.96,0 -291.98,130.94 -291.98,291.9 0,79.7 43.47,183.9 129.3,309.66 61.33,89.97 121.97,157.94 124.47,160.78 9.74,10.87 23.63,17.08 38.21,17.08 14.58,0 28.38,-6.21 38.12,-17.08 2.51,-2.84 63.15,-70.81 124.47,-160.78zm-162.59 -173.98c-74.87,0 -135.68,-60.9 -135.68,-135.68 0,-74.79 60.81,-135.69 135.68,-135.69 74.78,0 135.6,60.9 135.6,135.69 0,74.78 -60.82,135.68 -135.6,135.68z"/>
 </g>
</svg>
