<?xml version="1.0" encoding="UTF-8"?>
<!DOCTYPE svg PUBLIC "-//W3C//DTD SVG 1.1//EN" "http://www.w3.org/Graphics/SVG/1.1/DTD/svg11.dtd">
<!-- Creator: CorelDRAW 2018 (64-Bit) -->
<svg xmlns="http://www.w3.org/2000/svg" xml:space="preserve" width="8.4666mm" height="8.4666mm" version="1.1" style="shape-rendering:geometricPrecision; text-rendering:geometricPrecision; image-rendering:optimizeQuality; fill-rule:evenodd; clip-rule:evenodd"
viewBox="0 0 846.66 846.66"
 xmlns:xlink="http://www.w3.org/1999/xlink">
 <defs>
  <style type="text/css">
   <![CDATA[
    .fil0 {fill:#838496}
   ]]>
  </style>
 </defs>
 <g id="Layer_x0020_1">
  <metadata id="CorelCorpID_0Corel-Layer"/>
  <path class="fil0" d="M273.84 700.03c0,10.28 3.11,13.39 13.38,13.39l124.95 0 0 -98.17 -138.33 0 0 84.78zm182.96 -232.05l0 232.05c0,10.28 3.1,13.39 13.39,13.39l124.95 0 0 -258.82 -124.95 0c-10.29,0 -13.39,3.1 -13.39,13.38zm-254.36 245.44l40.16 0 0 -374.85c0,-24.95 99.44,-157.07 124.95,-205.27l-298.98 0 104.46 163.29c21.32,30.97 16.17,25.19 16.03,73.22l-0.39 312.76c-0.13,16.63 -3.44,30.85 13.77,30.85zm21.17 -403.47l-111.3 -159.72 203.51 0 -92.21 159.72zm420.61 403.47l133.87 0 0 -401.62c0,-10.29 -3.1,-13.39 -13.37,-13.39l-120.5 0 0 415.01z"/>
 </g>
</svg>
