<?xml version="1.0" encoding="UTF-8"?>
<!DOCTYPE svg PUBLIC "-//W3C//DTD SVG 1.1//EN" "http://www.w3.org/Graphics/SVG/1.1/DTD/svg11.dtd">
<!-- Creator: CorelDRAW 2018 (64-Bit) -->
<svg xmlns="http://www.w3.org/2000/svg" xml:space="preserve" width="8.4666mm" height="8.4666mm" version="1.1" style="shape-rendering:geometricPrecision; text-rendering:geometricPrecision; image-rendering:optimizeQuality; fill-rule:evenodd; clip-rule:evenodd"
viewBox="0 0 846.66 846.66"
 xmlns:xlink="http://www.w3.org/1999/xlink">
 <defs>
  <style type="text/css">
   <![CDATA[
    .fil0 {fill:#ff0000}
   ]]>
  </style>
 </defs>
 <g id="Layer_x0020_1">
  <metadata id="CorelCorpID_0Corel-Layer"/>
  <path class="fil0" d="M359.75 119.1c14.33,3.84 18.9,11.65 30.89,23.53l135.01 135.09c17.3,17.39 32.55,44.94 22.63,80.31 -4.37,15.62 -11.14,24.67 -19.89,34.14 -20.72,22.4 -58.29,58.35 -80.99,81.07 -17.96,17.98 -35.59,36.77 -54.01,54.02 -9.33,8.74 -17.91,15.61 -33.61,20.39 -30.69,9.34 -59.57,-0.34 -80.89,-21.18l-135.09 -134.99c-6.6,-6.61 -21.1,-18.48 -24.3,-29.67 -5.38,-18.88 7.38,-29.7 15.02,-37.38l185.75 -185.39c1.73,-1.73 1.87,-2.25 3.35,-3.66l6.48 -6.52c8.07,-7.75 17.62,-12.98 29.65,-9.76zm66.58 242.81c17.22,9.18 -5.47,25.84 -19.46,39.78 -6.08,6.07 -11.45,11.44 -17.51,17.52 -3.93,3.94 -12.72,16.46 -22.36,12.19 -9.17,-4.05 -7.49,-13.52 1.35,-22.22 6.3,-6.2 11.75,-11.77 18.01,-18 6.09,-6.07 11.43,-11.4 17.49,-17.5 3.95,-3.96 13.2,-16.72 22.48,-11.77zm-147.13 -204.69c-6.39,5.07 -17,18.61 -22.98,21.84 -21.43,-15.01 -8.79,-26.89 -56.34,20.65 -47.31,47.31 -35.79,34.87 -20.63,56.34 -3.18,5.94 -16.84,16.56 -21.85,22.99 -3.12,-1.56 -3.34,-1.9 -5.64,-4.54 -4.22,-4.82 -8.85,-6.88 -14.04,-17.95 -4.73,-10.1 -5.34,-24.94 -0.63,-35.6 5.81,-13.15 28.92,-33.49 39.74,-44.29 10.54,-10.54 31.49,-34.2 44.27,-39.75 11.05,-4.8 25.07,-4.46 35.57,0.7 7.27,3.57 19.6,13.51 22.53,19.61zm283.15 490.96l-1.71 -55.92c-15.67,-1.48 -37.76,1.28 -51.51,-1.03 -8.79,-1.46 -20.45,-15.56 -28.35,-23.54 -7.12,-7.2 -49.46,-47.95 -51.64,-52.55l86.13 -86.21c3.98,1.91 84.76,83.88 95.09,94.19l71.04 71.02c8.26,8.21 15.01,14.58 22.26,25.76 43.82,67.57 33.93,139.96 -64.45,94.38 -20.49,-9.49 -16.94,-9.69 -19.36,-52.11 -0.72,-12.73 0.9,-12.03 -11.5,-12.23 -9.36,-0.15 -39.79,0.24 -46,-1.76zm-133.98 -306.51c13.57,3.52 24.54,13.98 23.86,31.47 -0.62,15.73 -15.08,25.91 -22.5,33.4 -9.36,9.45 -18.08,18.15 -27.5,27.53 -7.93,7.89 -17.34,21.43 -37.47,17.39 -12.91,-2.6 -24.39,-15.59 -23.74,-31.37 0.66,-15.9 15.09,-26.69 22.36,-33.87 9.47,-9.34 18.17,-18.03 27.55,-27.47 7.27,-7.31 18.77,-21.91 37.44,-17.08zm-85.43 -147.73c9.46,2.33 18.92,14.46 27.48,22.93 7.65,7.57 17.6,16.01 22.68,28.48 5.67,13.92 3.92,29.9 -2.67,41.91 -5.45,9.92 -17.13,19.69 -24.17,26.8 -16.98,17.17 -33.47,33.4 -50.51,50.53 -13.57,13.63 -33.53,40.72 -68,29.15 -13.16,-4.42 -21.39,-14.18 -28.72,-21.47 -12.32,-12.26 -35.77,-28.84 -20.89,-45.23l38.56 -38.48c28.71,-29.01 60.44,-59.52 88.52,-88.56 4.19,-4.34 9.7,-8.03 17.72,-6.06z"/>
 </g>
</svg>
