<?xml version="1.0" encoding="UTF-8"?>
<!DOCTYPE svg PUBLIC "-//W3C//DTD SVG 1.1//EN" "http://www.w3.org/Graphics/SVG/1.1/DTD/svg11.dtd">
<!-- Creator: CorelDRAW 2018 (64-Bit) -->
<svg xmlns="http://www.w3.org/2000/svg" xml:space="preserve" width="8.4666mm" height="8.4666mm" version="1.1" fill="gray" style="shape-rendering:geometricPrecision; text-rendering:geometricPrecision; image-rendering:optimizeQuality; fill-rule:evenodd; clip-rule:evenodd"
viewBox="0 0 846.66 846.66"
 xmlns:xlink="http://www.w3.org/1999/xlink">
 <defs>
  <style type="text/css">
   <![CDATA[
    .fil0 {fill:#838496}
   ]]>
  </style>
 </defs>
 <g id="Layer_x0020_1">
  <metadata id="CorelCorpID_0Corel-Layer"/>
  <path class="fil0" d="M409.64 204.09l0 0 0 0 0 -32.43 0 -64.86 0 0 27.37 0 0 97.29 -0.04 0 0 0.05 -13.64 -0.05 -13.69 0zm-329.9 327.69l68.28 -12.05 27.57 -4.87 0 0 0 0 -2.41 -13.59 -2.36 -13.34 0 0 0 0 -95.8 16.86 4.72 26.99zm605.4 -240.85l-49.2 28.38 0 0.05 0 0 7.56 13.16 6.08 10.5 0 0 84.28 -48.62 -13.69 -23.71 -35.03 20.24zm-425.13 361.08l-10.79 -9.06 0 0 0 0 -62.5 74.5 20.96 17.64 27.23 -32.48 35.32 -42.07 0 0 -10.22 -8.53zm459.83 -6.7l13.68 -23.71 -29.39 -16.96 -54.84 -31.71 0 0 0 0 -7.57 13.11 -6.12 10.6 0 0 0 0 84.24 48.67zm-644.73 -235.4l34.17 6.02 61.63 10.89 0 -0.05 0 0 4.1 -23.13 0.63 -3.8 0 0 -95.81 -16.92 -4.72 26.99zm691.13 -26.27l-26.07 4.58 -69.78 12.29 0 0 0 0 3.52 20 1.25 6.94 0 0 0 0.05 95.81 -16.92 -4.73 -26.94zm-442.52 -159.7l0 0 22.22 -8.09 3.47 -1.25 0 0 -33.25 -91.47 -25.69 9.4 4.72 13.06 28.53 78.35 0 0zm-197.96 420.75l84.28 -48.63 0 -0.05 0 0 -10.55 -18.21 -3.13 -5.45 0 0 0 0 -84.29 48.63 13.69 23.71 0 0 0 0zm449.46 16.28l62.55 74.55 20.96 -17.59 0 0 -62.5 -74.55 0 0 0 0 -14.55 12.2 -6.46 5.39 0 0zm-462.76 -367.15l0 0 84.23 48.62 0 0 11.86 -20.53 1.83 -3.13 0 -0.05 -84.28 -48.62 -13.64 23.71zm658.36 211.69l0 0 -95.8 -16.91 -1.01 5.78 -3.71 21.16 95.8 16.91 4.72 -26.94zm-562.66 -325.61l-20.96 17.59 22.99 27.37 39.56 47.13 0 0 0 0 12.38 -10.41 8.58 -7.18 0 0 0 0 -62.55 -74.5zm314.1 -33.97l-25.11 68.91 0.05 0 0 0 17.11 6.21 8.58 3.14 0 0 0 0 33.3 -91.42 -25.74 -9.35 -8.19 22.51zm69.15 122.06l5.3 4.48 0 0 0 0 62.55 -74.55 -20.96 -17.59 0 0 0 0 -62.55 74.5 0 0 0 0.05 15.66 13.11zm-168.08 -208.66c-224.95,0 -407.97,183.02 -407.97,407.97 0,129.63 60.76,245.19 155.26,320.03l41.35 -0.05c-103.75,-68.72 -172.32,-186.5 -172.32,-319.98 0,-211.55 172.13,-383.63 383.68,-383.63 211.55,0 383.68,172.08 383.68,383.63 0,133.48 -68.57,251.26 -172.32,320.03l41.34 -0.05c94.5,-74.79 155.27,-190.35 155.27,-319.98 0.05,-224.95 -183.02,-407.97 -407.97,-407.97zm11.9 445.75c-1.73,0 -3.23,0.63 -4.77,0.96l-187.02 -164.95 166.35 187.22c-0.1,0.91 -0.58,1.78 -0.58,2.7 0,14.41 11.61,26.07 26.02,26.07 14.31,0 25.93,-11.66 25.93,-26.07 0.04,-14.27 -11.62,-25.93 -25.93,-25.93z"/>
 </g>
</svg>
