<?xml version="1.0" encoding="UTF-8"?>
<!DOCTYPE svg PUBLIC "-//W3C//DTD SVG 1.1//EN" "http://www.w3.org/Graphics/SVG/1.1/DTD/svg11.dtd">
<!-- Creator: CorelDRAW 2018 (64-Bit) -->
<svg xmlns="http://www.w3.org/2000/svg" xml:space="preserve" width="8.4666mm" height="8.4666mm" version="1.1" style="shape-rendering:geometricPrecision; text-rendering:geometricPrecision; image-rendering:optimizeQuality; fill-rule:evenodd; clip-rule:evenodd"
viewBox="0 0 846.66 846.66"
 xmlns:xlink="http://www.w3.org/1999/xlink">
 <defs>
  <style type="text/css">
   <![CDATA[
    .fil0 {fill:#1eb15d}
   ]]>
  </style>
 </defs>
 <g id="Layer_x0020_1">
  <metadata id="CorelCorpID_0Corel-Layer"/>
  <path class="fil0" d="M149.68 698.49l547.76 0c14.53,0 29.85,-6.94 38.9,-17.86 2.93,-3.54 5.43,-7.24 7.33,-11.44 2.59,-5.67 4.67,-12.63 4.67,-20.78l0 -350.42c0,-17.5 -9.87,-32.89 -22.27,-41.14 -5.57,-3.7 -11.32,-6.37 -18.15,-7.72 -1.73,-0.35 -3.44,-0.68 -5.5,-0.8l-3.44 -0.23c-0.88,-0.08 0.43,-0.19 -1.12,-0.19l-555.59 0.54c-11.14,1.42 -21.6,6.55 -29.41,14.38 -1.68,1.71 -2.64,2.77 -4.12,4.64 -3.85,4.81 -6.94,11.09 -8.61,17.24 -0.62,2.26 -1.28,5.03 -1.51,6.9 -0.22,1.91 -0.24,5.12 -0.24,7.79l0 0.25 0 348.34c0,5.4 0.68,11.02 1.99,14.95l1.12 3.21c1.54,4.09 4.14,9.42 6.79,12.41l5.56 6.11c0.21,0.19 0.38,0.33 0.68,0.59 1.01,0.91 1.43,1.23 2.5,2.1 8.36,6.79 19.63,11.13 32.66,11.13zm48.4 -525.25l0 50.5 150.18 0 0 -51.74c0,-13.29 -10.57,-23.77 -24.19,-23.77l-101.38 0c-13.99,0 -24.61,10.04 -24.61,25.01zm299.54 3.77l0 45.45c0,0.98 0.28,1.28 1.26,1.28l148.5 0c1.66,0 0.94,-1.75 0.98,-6.06 0.02,-0.16 0.02,-1.09 0.02,-1.1 -0.46,-7.78 -0.02,-32.02 -0.02,-39.5 0,-12.33 -2.31,-20.84 -13.49,-26.37 -3.11,-1.52 -7.04,-2.48 -11.68,-2.48l-100.96 0c-5.47,0 -11.28,1.95 -15.07,4.94 -2.34,1.82 -4.82,4.45 -6.2,7.13 -2.69,5.17 -3.34,10.28 -3.34,16.71zm-302.77 344.15l0 -45.55 89.76 0 0 45.55 -89.76 0zm352.95 29.26l0 -61.85 -62.51 0 0 -42.55 62.51 0 0 -61.83 41.55 0 0 61.83 62.5 0 0 42.55 -62.5 0 0 61.85 -41.55 0z"/>
 </g>
</svg>
