<?xml version="1.0" encoding="UTF-8"?>
<!DOCTYPE svg PUBLIC "-//W3C//DTD SVG 1.1//EN" "http://www.w3.org/Graphics/SVG/1.1/DTD/svg11.dtd">
<!-- Creator: CorelDRAW 2018 (64-Bit) -->
<svg xmlns="http://www.w3.org/2000/svg" xml:space="preserve" width="8.4666mm" height="8.4666mm" version="1.1" style="shape-rendering:geometricPrecision; text-rendering:geometricPrecision; image-rendering:optimizeQuality; fill-rule:evenodd; clip-rule:evenodd"
viewBox="0 0 846.66 846.66"
 xmlns:xlink="http://www.w3.org/1999/xlink">
 <defs>
  <style type="text/css">
   <![CDATA[
    .fil0 {fill:#838496}
   ]]>
  </style>
 </defs>
 <g id="Layer_x0020_1">
  <metadata id="CorelCorpID_0Corel-Layer"/>
  <path class="fil0" d="M388.69 208.49c0.27,6.25 -0.71,19.39 -2.15,24.97 -4.71,18.13 -27.07,14.76 -55.31,28.35 -24.98,12.01 -44.93,30.92 -58.37,52.09 -34.12,53.74 -36.15,123.35 -35.24,187.23 4.33,-2.31 118.41,-117.29 124.93,-123.81 4.28,-4.28 120.3,-119.26 123.61,-125.38 -8.13,-7.47 -25.54,3.12 -27.45,-30.15 -0.18,-3.02 -0.43,-5.73 -0.6,-8.54 -0.3,-4.81 -0.01,-4.72 2.75,-7.31 8.34,-7.83 30.26,-31.88 35.24,-42.05 4.8,-9.83 4.87,-20.97 4.75,-33.27 -0.14,-14.67 -1.27,-20.25 -7.02,-31.8 -8.47,-17.01 -21.77,-29.46 -39.88,-37.38 -10.68,-4.67 -20.09,-4.81 -32.87,-4.96 -14.8,-0.18 -20.59,0.88 -31.98,6.66 -17.29,8.76 -29.69,21.31 -37.86,39.35 -7.75,17.09 -8.06,49.03 1.39,64.89 3.84,6.44 28.9,35.4 36.06,41.11zm100.98 42.68c4.17,2.75 17.87,7.16 23.65,9.81 4.84,2.22 18.99,10.52 22.13,11.14l100.51 -100.36c-2.29,-3.37 -29.46,-30.14 -33.28,-32.56 -4.24,1.83 -111.81,109.7 -113.01,111.97zm-374.79 375.1c8,5.96 27.63,29.53 33.42,31.74 3.12,-2.02 33.38,-28.36 46.32,-37.51 8.06,-5.69 16.34,-11.19 24.85,-16.88 8.32,-5.57 18.44,-10.1 26.35,-15.98 0.51,-5.31 -8.29,-81.73 -9.43,-83.65 -8.4,6.88 -91.76,91.56 -106.33,106.06 -3.43,3.41 -13.49,12.21 -15.18,16.22zm132.1 -38.5c1.93,24.64 20.84,88.47 30.44,111.57 7.02,16.88 13.98,32.07 22.52,47.76 5.56,10.2 13.52,23.92 20.47,32.86 2.39,3.08 6.26,6.79 7.93,9.73 16.53,0.73 42.68,0.9 58.75,-0.86 -0.4,-4.05 -7.66,-13.85 -9.93,-17.71 -9.7,-16.49 -20.5,-38.82 -27.57,-56.65 -5.35,-13.51 -26.76,-71.83 -26.43,-85.38 7.38,-6.61 32.62,-9.86 45.08,-11.8 25.9,-4.03 83.86,-4.32 109.57,-0.14 12.76,2.08 38.35,5.18 45.8,11.98 0.34,13.3 -21.08,71.98 -26.44,85.31 -7.29,18.09 -17.51,39.33 -27.24,56.19 -2.78,4.83 -9.38,13.44 -10.43,18.37 15.39,1.23 31.79,0.77 47.36,0.66 13.56,-0.09 10.31,1.09 17.08,-6.76 14.14,-16.39 34.86,-57.32 43.52,-78.56 9.63,-23.64 17.11,-47.48 23.54,-73.84 10.64,-43.63 11.97,-41.53 -7.01,-50.01 -96.23,-43 -203.65,-47.55 -303.4,-7.68 -11.69,4.67 -22.65,10.29 -33.61,14.96zm43.69 -70.18c7.45,-0.65 21.54,-5.23 29.55,-7.17 10.32,-2.51 20.5,-4.83 31.16,-6.65 53.47,-9.1 120.73,-6.67 172.17,5.72 21.05,5.06 63.76,18.27 81.55,28.14 1.26,16.87 -4.98,39.13 -4.61,50.35 19.77,10.01 36.42,21.16 51.83,32.39l46.96 37.76c4.26,-3.77 31.17,-30.32 32.5,-32.95 -2.97,-3.84 -9.85,-9.21 -13.55,-12.76 -28.84,-27.59 -74.59,-56.47 -110.66,-73.96 1.27,-75.95 7.85,-168.05 -37.55,-230.68 -5.86,-8.08 -25.29,-31.3 -34.57,-33.42 -1.57,0.26 -27.99,26.52 -31.32,29.72 -29.72,28.52 -62.65,62.06 -91.84,91.3 -3.53,3.54 -118.84,117.55 -121.62,122.21z"/>
 </g>
</svg>
