<?xml version="1.0" encoding="UTF-8"?>
<!DOCTYPE svg PUBLIC "-//W3C//DTD SVG 1.1//EN" "http://www.w3.org/Graphics/SVG/1.1/DTD/svg11.dtd">
<!-- Creator: CorelDRAW 2018 (64-Bit) -->
<svg xmlns="http://www.w3.org/2000/svg" xml:space="preserve" width="8.4666mm" height="8.4666mm" version="1.1" style="shape-rendering:geometricPrecision; text-rendering:geometricPrecision; image-rendering:optimizeQuality; fill-rule:evenodd; clip-rule:evenodd"
viewBox="0 0 846.66 846.66"
 xmlns:xlink="http://www.w3.org/1999/xlink">
 <defs>
  <style type="text/css">
   <![CDATA[
    .fil0 {fill:#838496}
   ]]>
  </style>
 </defs>
 <g id="Layer_x0020_1">
  <metadata id="CorelCorpID_0Corel-Layer"/>
  <path class="fil0" d="M293.24 489.95c-1.45,3.49 -15.49,12.43 -19.1,15.4 -51.07,42.09 -75.35,113.6 -55.39,180.06 19.73,65.68 80.17,122.82 163.53,123.02 83.54,0.22 145.54,-56.99 164.46,-122.1 12.05,-41.45 8.33,-82.81 -8.21,-119.48 -6.76,-14.98 -18.69,-33.87 -27.96,-42.83 -5.56,-5.37 -11.52,-12.7 -18.17,-17.9 -3.58,-2.81 -18.39,-12.56 -19.91,-16.17 -0.03,-89.73 -0.01,-179.47 -0.01,-269.2 0,-34.34 4.42,-99.81 -7.01,-127.59 -11.55,-28.06 -41.28,-54.57 -81.8,-54.89 -42.15,-0.35 -69.44,25.48 -82.54,52.76 -12.59,26.22 -7.91,94.5 -7.91,128.33 0,90.19 -0.26,180.41 0.02,270.59zm229.19 -322.28l55.51 0c17.13,-0.01 14.33,-15.04 7.1,-17.79 -4.42,-1.67 -28.05,-0.74 -34.85,-0.74 -6.17,0 -30.87,-0.76 -34.91,0.75 -8.1,3.03 -9.73,17.78 7.15,17.78zm-7.1 252.4c-6.89,3.1 -7.74,11.54 -2.43,15.58 5.34,4.05 69.32,2.35 72.59,0.87 5.37,-2.44 6.83,-11.15 1.49,-15.25 -4.74,-3.65 -16.39,-2.1 -22.92,-2.09 -8.68,0 -43.6,-1.42 -48.73,0.89zm-4.25 -75.31c9.64,5.35 32.5,2.89 46.04,2.89 6.42,0 19.35,0.72 25.02,-0.2 7.15,-1.16 11.38,-8.45 6.29,-15.02 -4.57,-5.9 -35.58,-3.28 -45.18,-3.28 -16.72,0 -37.95,-5.25 -32.17,15.61zm-0.08 -90.07c9.83,5.68 31.82,2.98 46.12,2.98 6.39,0 43.33,4.38 31.91,-14.65 -3.96,-6.6 -35.57,-3.87 -45.78,-3.87 -16.71,0 -37.77,-5.22 -32.25,15.54zm4.59 -150.87c-10.92,4.11 -9.26,18.34 2.7,19.83l110.1 -0.95c8.9,-3.96 7.9,-17.84 -3.46,-19.52l-109.34 0.64zm-0.37 89.96c-10.26,3.73 -9.12,18.51 3.09,19.87l109.94 -0.93c9.55,-3.97 7.45,-17.88 -3.24,-19.56l-109.79 0.62zm8.6 200l94.36 0c24.06,0 19.57,-20.74 2.78,-20.74l-98.53 -0.02c-8.77,0 -14.61,2.15 -13.83,11.36 0.68,8.1 7.06,9.4 15.22,9.4zm-1.39 90.08l98.53 0c17.82,-0.01 20.42,-20.82 -2.78,-20.82l-95.75 0c-18.93,0 -19.06,20.82 0,20.82zm-7.88 -199.4c-4,1.87 -7.58,4.67 -5.6,12.08 3.11,11.68 29.33,7.23 48.17,7.23 11.46,0 65.91,1.75 71.89,-1.45 8.77,-4.7 6.71,-18.08 -5.22,-19.32 -10.7,-1.1 -104.44,-0.8 -109.24,1.46zm-138.15 -22.79c-29.58,6.59 -24.94,35.3 -24.94,64.54l0.03 177.67c0.01,15.03 -4.52,23.79 -13.93,30.16 -4.62,3.13 -8.97,4.39 -14.35,7.85 -4.71,3.01 -9.83,6.34 -13.74,9.88 -14.71,13.32 -27.42,29.27 -34.83,54.01 -20.88,69.67 32.78,148.74 114.62,144.23 109.65,-6.04 142.94,-147.51 58.36,-204.69 -29.1,-19.68 -33.43,-10.55 -33.42,-55.37l0 -177.62c0,-14.82 1.13,-27.46 -5.95,-38.43 -4.86,-7.55 -17.69,-15.38 -31.85,-12.23zm-52.31 249.27c-25.29,8.72 -50.74,36.57 -62.91,57.75 -16.15,28.11 -23.02,65 -14.36,101.08 13.84,57.61 65.87,107.22 135.46,107.55 105.14,0.5 174.66,-111.75 122.8,-207.54 -11.92,-22.01 -39.47,-51.23 -63.51,-58.69 -2.19,-39.62 -0.24,-84.96 -0.24,-125.21l0 -249.79c0.04,-21.79 -4.15,-34.1 -14.6,-47.24 -13.41,-16.86 -42.91,-25.58 -68.26,-14.04 -23.81,10.84 -34.11,31.73 -34.06,59.89l0.01 312.24c0,20.02 1.25,44.51 -0.33,64z"/>
 </g>
</svg>
