<?xml version="1.0" encoding="utf-8"?>
<!-- Svg Vector Icons : http://www.onlinewebfonts.com/icon -->
<!DOCTYPE svg PUBLIC "-//W3C//DTD SVG 1.1//EN" "http://www.w3.org/Graphics/SVG/1.1/DTD/svg11.dtd">
<svg version="1.1" xmlns="http://www.w3.org/2000/svg" xmlns:xlink="http://www.w3.org/1999/xlink" x="0px" y="0px" viewBox="0 0 1000 1000" enable-background="new 0 0 1000 1000" style="fill:#3880ff" xml:space="preserve">
<metadata> Svg Vector Icons : http://www.onlinewebfonts.com/icon </metadata>
<g><g transform="translate(0.000000,511.000000) scale(0.100000,-0.100000)"><path d="M539.1,4914.9c-96.9-27.7-233.4-174.1-263.1-278.9c-43.5-164.2,47.5-354,211.6-439.1c55.4-29.7,124.6-43.5,241.3-49.4l162.2-5.9v-77.1v-77.1H495.6H100v-553.8v-553.8h4114h4114v553.8v553.8h-395.6h-395.6v77.1v77.1l164.2,5.9c187.9,9.9,286.8,51.4,371.8,158.2c130.6,160.2,118.7,354-31.6,502.4c-122.6,122.6-174.1,132.5-710.1,124.6l-460.8-5.9l-81.1-55.4c-257.1-170.1-257.1-490.5-2-660.6c69.2-45.5,106.8-55.4,257.1-61.3l176-7.9v-77.1v-77.1H5796.4H4372.3v77.1v77.1l164.2,5.9c187.9,9.9,286.8,51.4,371.9,158.2c130.5,160.2,118.7,354-31.7,502.4c-122.6,122.6-174,132.5-710.1,124.6l-460.9-5.9l-81.1-55.4c-257.1-170.1-257.1-490.5-2-660.6c69.2-45.5,106.8-55.4,257.1-61.3l176-7.9v-77.1v-77.1H2631.7H1207.6v79.1v79.1h130.5c182,0,280.9,33.6,375.8,128.6c106.8,106.8,142.4,229.4,104.8,360c-31.6,116.7-154.3,245.3-267,278.9C1452.9,4942.6,640,4942.6,539.1,4914.9z M1514.2,4541.1v-69.2h-464.8H584.6l-5.9,45.5c-15.8,104.8-21.8,104.8,474.7,98.9l460.8-5.9V4541.1z M4678.8,4541.1v-69.2H4214h-464.8l-5.9,45.5c-15.8,104.8-21.8,104.8,474.7,98.9l460.8-5.9V4541.1z M7843.5,4541.1v-69.2h-464.8h-464.8l-5.9,45.5c-15.8,104.8-21.8,104.8,474.7,98.9l460.8-5.9V4541.1z M8011.6,3433.5v-237.4H4214H416.5v237.4v237.3H4214h3797.6V3433.5z"/><path d="M574.7,268.9v-2452.6h632.9h632.9v-79.1v-79.1H970.3H100v-395.6v-395.6h395.6h395.6v-791.2v-791.2h158.2h158.2v791.2v791.2h314.5h316.5l5.9-648.8l5.9-650.7l55.4-81.1c83.1-126.6,193.8-191.9,328.3-191.9c73.2,2,132.5,13.8,176,39.6c63.3,37.6,63.3,37.6,128.6,0c41.5-25.7,100.9-37.6,174.1-39.6c134.5,0,245.3,65.3,328.3,191.9l55.4,81.1l5.9,650.7l5.9,648.8h474.7h472.7v-791.2v-791.2H4214h158.2v791.2v791.2h1424.1h1424.1v-791.2v-791.2h158.2h158.2v791.2v791.2h395.6h395.6v395.6v395.6H5717.2H3106.4v79.1v79.1h2373.5h2373.5v1143.2V100.7l53.4-69.2c156.3-205.7,405.5-377.8,636.9-437.1l100.9-25.7v-2142.1v-2142.1h158.2H8961v2142.1v2142.1l100.9,25.7c367.9,94.9,672.5,387.7,801,773.3c49.5,148.3,49.5,445,0,593.4c-61.3,183.9-154.3,338.2-280.8,464.8c-346.1,352.1-826.8,439.1-1250,227.5c-150.3-75.2-320.4-219.6-425.3-356l-53.4-69.2v747.6v745.7H4214H574.7V268.9z M7536.9,268.9v-2136.1H5519.5c-1109.6,0-2017.5,4-2017.5,5.9c0,4,15.8,37.6,35.6,75.2c29.7,61.3,33.6,144.4,33.6,858.4v791.2l-53.4,102.9c-79.1,150.3-156.3,227.5-296.7,304.6c-120.6,63.3-134.5,67.2-401.5,79.1c-152.3,5.9-255.1,11.9-229.4,13.8c73.2,5.9,274.9,122.6,338.2,195.8c116.7,132.5,166.1,257.1,166.1,421.3c0,122.6-9.9,166.1-53.4,251.2c-77.1,148.3-154.3,227.5-294.7,304.6c-180,96.9-365.9,96.9-545.9,0c-140.4-77.1-217.6-156.3-294.7-304.6c-77.1-146.4-77.1-356,0-502.4c29.7-57.4,79.1-132.5,112.7-170.1c63.3-73.2,265-189.9,338.2-195.8c25.7-2-77.1-7.9-229.4-15.8c-249.2-9.9-286.8-15.8-379.8-65.3C1599.2,205.6,1520.1,128.4,1443-12l-67.2-124.6v-801.1c0-731.8,4-807,35.6-856.4c17.8-27.7,33.6-57.4,33.6-63.3s-124.6-9.9-276.9-9.9H891.2V268.9V2405H4214h3322.9V268.9z M9099.5,1408.1c312.5-110.8,514.3-443,488.5-803c-29.7-415.4-310.5-696.2-725.9-725.9c-282.8-19.8-536,89-696.2,300.6c-96.9,128.6-134.5,239.3-148.3,439.1c-25.7,369.9,166.2,664.6,514.2,793.1c102.9,37.6,150.3,43.5,300.6,35.6C8931.3,1443.7,9050,1425.9,9099.5,1408.1z M2667.3,1245.9c87-65.3,126.6-160.2,116.7-290.8c-11.9-197.8-130.5-298.7-336.2-284.8c-197.8,11.9-298.7,130.5-284.8,336.3c7.9,130.5,51.4,203.7,154.3,257.1C2406.2,1311.2,2590.2,1301.3,2667.3,1245.9z M3104.4-4.1c37.6-17.8,87-59.3,108.8-89c39.6-55.4,41.5-79.1,41.5-830.7v-775.3h-69.2h-69.2l-5.9,787.2l-4,785.2h-158.2h-158.2l-4-2130.2l-5.9-2132.2h-69.2h-69.2l-5.9,1024.6l-4,1022.6h-158.2h-158.2l-4-1022.6l-5.9-1024.6h-69.2h-69.2l-5.9,2132.2l-4,2130.2h-158.2h-158.2l-4-785.2l-5.9-787.2h-69.2h-69.2v775.3c0,1036.4-67.2,955.3,781.3,955.3C2971.9,31.5,3045.1,27.5,3104.4-4.1z M1840.6-2737.6v-79.1h-712h-712v79.1v79.1h712h712V-2737.6z M8011.6-2737.6v-79.1H5559H3106.4v79.1v79.1H5559h2452.6V-2737.6z"/></g></g>
</svg>