<?xml version="1.0"?>
<svg xmlns="http://www.w3.org/2000/svg" viewBox="0 0 512 512" width="512" height="512"><g id="outline"><path d="M142.624,320H313.376a24,24,0,0,0,45.248,0H376a8,8,0,0,0,8-8V226a34.038,34.038,0,0,0-34-34H325.766l-6.177-18.53A8,8,0,0,0,312,168H288a8,8,0,0,0-7.589,5.47L274.234,192H44a28.032,28.032,0,0,0-28,28v76a8,8,0,0,0,2.343,5.657l16,16A8,8,0,0,0,40,320H97.376a24,24,0,0,0,45.248,0ZM248,304H142.624A23.985,23.985,0,0,0,112,289.376V272H248ZM112,256V240h32v16Zm48,0V240h40v16Zm88,0H216V240h32Zm48,48H264V240h32Zm40,16a8,8,0,1,1,8-8A8.009,8.009,0,0,1,336,320ZM312,208h38a18.021,18.021,0,0,1,18,18v30H312Zm0,64h56v32h-9.376a24,24,0,0,0-45.248,0H312Zm-18.234-88h12.468l2.666,8H291.1ZM96,304H64V240H96ZM56,224a8,8,0,0,0-8,8v72H43.314L32,292.687V220a12.013,12.013,0,0,1,12-12H296v16Zm64,96a8,8,0,1,1,8-8A8.009,8.009,0,0,1,120,320Z"/><path d="M496,192a48,48,0,1,0-56,47.321V280H408a8,8,0,0,0-8,8v24a8,8,0,0,0,8,8v16H16v16H496V336h-8V320a8,8,0,0,0,8-8V288a8,8,0,0,0-8-8H456V239.321A48.069,48.069,0,0,0,496,192ZM472,336H424V320h48Zm8-40v8H416v-8Zm-32-72a32,32,0,1,1,32-32A32.036,32.036,0,0,1,448,224Z"/><path d="M452,168H440a8,8,0,0,0-8,8v40h16v-8h4a20,20,0,0,0,0-40Zm0,24h-4v-8h4a4,4,0,0,1,0,8Z"/></g></svg>
