<?xml version="1.0" encoding="utf-8"?>
<!-- Svg Vector Icons : http://www.onlinewebfonts.com/icon -->
<!DOCTYPE svg PUBLIC "-//W3C//DTD SVG 1.1//EN" "http://www.w3.org/Graphics/SVG/1.1/DTD/svg11.dtd">
<svg version="1.1" xmlns="http://www.w3.org/2000/svg" xmlns:xlink="http://www.w3.org/1999/xlink" x="0px" y="0px" viewBox="0 0 1000 1000" enable-background="new 0 0 1000 1000" style="fill:#3880ff" xml:space="preserve">
<metadata> Svg Vector Icons : http://www.onlinewebfonts.com/icon </metadata>
<g><path d="M393.8,722.1L185.2,952c-9.8,10.8-9,27.6,1.8,37.4c5.1,4.6,11.4,6.9,17.8,6.9c7.2,0,14.4-2.9,19.6-8.7L433,757.7c9.8-10.8,9-27.6-1.8-37.4C420.4,710.4,403.6,711.2,393.8,722.1z"/><path d="M609.4,722.1c-9.8-10.8-26.6-11.6-37.4-1.8c-10.8,9.8-11.6,26.6-1.8,37.4l208.6,229.9c5.2,5.8,12.4,8.7,19.6,8.7c6.3,0,12.7-2.3,17.8-6.9c10.8-9.8,11.6-26.6,1.8-37.4L609.4,722.1z"/><path d="M937.2,92.7H480.6V30.2c0-14.6-11.9-26.5-26.5-26.5c-14.6,0-26.5,11.9-26.5,26.5v62.5H62.8c-29.1,0-52.8,23.7-52.8,52.8v512.9c0,29.1,23.7,52.8,52.8,52.8h874.5c29.1,0,52.8-23.7,52.8-52.8V145.5C990,116.4,966.3,92.7,937.2,92.7z M937,658.2H63V145.7H937V658.2z"/><path d="M334.9,250.3c0,14.6,11.9,26.5,26.5,26.5h466.1c14.6,0,26.5-11.9,26.5-26.5c0-14.6-11.9-26.5-26.5-26.5H361.4C346.8,223.8,334.9,235.7,334.9,250.3z"/><path d="M827.5,375.4H361.4c-14.6,0-26.5,11.9-26.5,26.5c0,14.6,11.9,26.5,26.5,26.5h466.1c14.6,0,26.5-11.9,26.5-26.5C854,387.3,842.1,375.4,827.5,375.4z"/><path d="M827.5,522.6H361.4c-14.6,0-26.5,11.9-26.5,26.5s11.9,26.5,26.5,26.5h466.1c14.6,0,26.5-11.9,26.5-26.5S842.1,522.6,827.5,522.6z"/><path d="M208.4,312c34,0,61.6-27.6,61.6-61.6c0-34-27.6-61.6-61.6-61.6c-34,0-61.6,27.6-61.6,61.6C146.8,284.3,174.4,312,208.4,312z M208.4,241.7c4.8,0,8.7,3.9,8.7,8.7c0,4.8-3.9,8.7-8.7,8.7s-8.7-3.9-8.7-8.7C199.7,245.5,203.6,241.7,208.4,241.7z"/><path d="M208.4,463.6c34,0,61.6-27.6,61.6-61.6c0-34-27.6-61.6-61.6-61.6c-34,0-61.6,27.6-61.6,61.6C146.8,435.9,174.4,463.6,208.4,463.6z M208.4,393.3c4.8,0,8.7,3.9,8.7,8.7c0,4.8-3.9,8.7-8.7,8.7s-8.7-3.9-8.7-8.7C199.7,397.2,203.6,393.3,208.4,393.3z"/><path d="M207.4,483.6c-35,0-63.4,28.4-63.4,63.4s28.4,63.4,63.4,63.4c34.9,0,63.4-28.4,63.4-63.4C270.8,512,242.3,483.6,207.4,483.6z M207.4,557.4c-5.7,0-10.4-4.7-10.4-10.4s4.7-10.4,10.4-10.4s10.4,4.7,10.4,10.4S213.1,557.4,207.4,557.4z"/></g>
</svg>