<?xml version="1.0" encoding="iso-8859-1"?>
<!-- Generator: Adobe Illustrator 18.0.0, SVG Export Plug-In . SVG Version: 6.00 Build 0)  -->
<!DOCTYPE svg PUBLIC "-//W3C//DTD SVG 1.1//EN" "http://www.w3.org/Graphics/SVG/1.1/DTD/svg11.dtd">
<svg version="1.1" id="Capa_1" xmlns="http://www.w3.org/2000/svg" xmlns:xlink="http://www.w3.org/1999/xlink" x="0px" y="0px"
	 viewBox="0 0 496.692 496.692"  style="fill:#3880ff;" xml:space="preserve">
<g id="XMLID_384_">
	<path id="XMLID_389_" d="M189.56,302.456v169.376c0,13.732,11.135,24.859,24.86,24.859c13.725,0,24.86-11.128,24.86-24.859V323.688
		h18.126v148.145c0,13.732,11.135,24.859,24.861,24.859c13.725,0,24.86-11.128,24.86-24.859V302.456
		C195.45,302.456,301.236,302.456,189.56,302.456z"/>
	<path id="XMLID_388_" d="M303.095,227.876c0-18.305,14.839-33.145,33.144-33.145h0.665v-71.891c0-9.195-7.441-16.646-16.637-16.646
		c-203.57,0-40.155,0-143.849,0c-9.189,0-16.637,7.451-16.637,16.646v71.891h0.665c18.305,0,33.144,14.84,33.144,33.145
		s-14.839,33.148-33.144,33.148h-0.665v8.22c0,9.186,7.447,16.637,16.637,16.637h143.849c9.195,0,16.637-7.45,16.637-16.637v-8.22
		h-0.665C317.934,261.024,303.095,246.181,303.095,227.876z"/>
	<path id="XMLID_387_" d="M359.321,211.304h-23.082c-9.14,0-16.569,7.419-16.569,16.572c0,9.152,7.429,16.572,16.569,16.572h23.082
		c9.146,0,16.575-7.42,16.575-16.572C375.896,218.723,368.467,211.304,359.321,211.304z"/>
	<path id="XMLID_386_" d="M177.016,227.876c0-9.153-7.423-16.572-16.569-16.572h-23.081c-9.14,0-16.569,7.419-16.569,16.572
		c0,9.152,7.429,16.572,16.569,16.572h23.081C169.593,244.448,177.016,237.028,177.016,227.876z"/>
	<path id="XMLID_385_" d="M248.346,96.871c25.439,0,48.44-20.918,48.44-48.431c0-26.762-21.691-48.44-48.44-48.44
		c-26.774,0-48.44,21.678-48.44,48.44C199.906,75.938,222.871,96.871,248.346,96.871z"/>
</g>
<g>
</g>
<g>
</g>
<g>
</g>
<g>
</g>
<g>
</g>
<g>
</g>
<g>
</g>
<g>
</g>
<g>
</g>
<g>
</g>
<g>
</g>
<g>
</g>
<g>
</g>
<g>
</g>
<g>
</g>
</svg>
