<?xml version="1.0" encoding="utf-8"?>
<!-- Svg Vector Icons : http://www.onlinewebfonts.com/icon -->
<!DOCTYPE svg PUBLIC "-//W3C//DTD SVG 1.1//EN" "http://www.w3.org/Graphics/SVG/1.1/DTD/svg11.dtd">
<svg version="1.1" xmlns="http://www.w3.org/2000/svg" xmlns:xlink="http://www.w3.org/1999/xlink" style="fill:#3880ff" x="0px" y="0px" viewBox="0 0 1000 1000" enable-background="new 0 0 1000 1000" xml:space="preserve">
<metadata> Svg Vector Icons : http://www.onlinewebfonts.com/icon </metadata>
<g><g transform="translate(0.000000,511.000000) scale(0.100000,-0.100000)"><path d="M4715.8,4625.7c-560.4-75-1093.3-412.5-1407-892c-337.5-519-410.5-1184.1-197.3-1789.9c69.1-195.4,116.4-290.1,309.8-633.5c446-783.4,897.9-1778.1,1274.8-2808.2c126.3-343.4,159.8-388.8,288.1-388.8c128.3,0,157.9,45.4,325.6,503.2C5690.7-339.5,6099.2,552.5,6561,1357.7c98.7,171.7,209.2,384.8,244.7,473.6c165.7,408.5,207.2,826.9,120.4,1229.5C6711,4075.1,5744,4759.9,4715.8,4625.7z M5142.1,3441.6c434.2-80.9,745.9-517,674.9-937.4c-31.6-185.5-106.6-331.5-236.8-461.8c-136.2-134.2-298-217.1-465.7-234.8c-373-43.4-704.5,134.2-866.3,463.8c-61.2,126.3-65.1,144.1-65.1,351.3c0,195.4,5.9,228.9,55.2,333.5c112.5,240.8,303.9,406.5,542.7,467.7C4936.9,3465.3,5000,3467.3,5142.1,3441.6z"/><path d="M1094.6,1932c-169.7-37.5-418.4-163.8-548.6-276.3c-240.8-213.1-384.8-501.3-422.3-850.6L100,597.9l487.4-487.4l487.4-487.4l742,742l742,742l-120.4,244.7c-65.1,134.2-146,325.6-177.6,422.3l-59.2,177.6l-489.4,3.9C1355.1,1957.6,1189.3,1951.7,1094.6,1932z"/><path d="M7766.7,1866.8c-43.4-171.7-191.4-509.2-327.6-746L7306.9,890l781.5-781.5l781.5-781.5l515,513.1L9900,353.2l-9.9,276.3c-5.9,157.9-25.6,327.6-43.4,394.7c-122.4,453.9-499.3,811.1-957.1,909.7c-88.8,17.8-276.3,27.6-613.7,27.6h-483.5L7766.7,1866.8z"/><path d="M2255-223l-667-667l1766.2-1766.2l1766.2-1766.2l1622.1,1622.2l1624.1,1624.1l-700.6,700.6C7281.3-90.8,6959.6,225,6953.7,225c-13.8,0-250.7-493.3-428.3-888c-177.6-400.6-345.4-821-556.5-1393.3c-98.7-270.3-201.3-528.9-227-572.3c-169.7-290.1-554.5-467.7-882.1-406.5c-246.7,45.4-477.6,201.3-594,400.6c-29.6,49.3-136.2,317.7-240.8,597.9c-225,609.8-400.6,1038-631.5,1541.3c-187.5,408.5-406.5,848.6-448,903.8C2922,440,2856.9,378.9,2255-223z"/><path d="M107.9-1811.6c0-801.2,9.9-1424.8,19.7-1505.7c29.6-207.2,90.8-371,201.3-532.8c175.6-264.5,430.2-444,738.1-523c144.1-37.5,223-39.5,1594.5-39.5h1442.6L2120.8-2429.3C1029.5-1338,131.6-446,123.7-446C113.8-446,107.9-1061.7,107.9-1811.6z"/><path d="M9633.6-933.4L9383-1186l246.7-246.7c134.2-134.2,250.6-240.8,256.5-232.9c5.9,5.9,7.9,228.9,5.9,497.3l-5.9,485.5L9633.6-933.4z"/><path d="M7518.1-3050.9L6156.4-4412.6h1302.5c1422.8,0,1458.4,4,1695.2,114.5c264.4,126.3,477.5,333.5,601.9,586.1c98.7,197.3,122.3,325.6,134.2,680.8l9.9,325.6l-511.1,507.2l-509.1,509.1L7518.1-3050.9z"/></g></g>
</svg>