<svg id="Layer_1" enable-background="new 0 0 512.279 512.279" height="512" fill="#3880ff" viewBox="0 0 512.279 512.279" width="512" xmlns="http://www.w3.org/2000/svg"><path d="m512.139 482.784v-347.659l-18.901-27.493c11.469-7.651 19.041-20.703 19.041-35.494 0-23.513-19.129-42.643-42.642-42.643s-42.643 19.13-42.643 42.643c0 14.791 7.573 27.843 19.042 35.494l-18.901 27.492v43.284c-4.695-1.666-9.743-2.581-15.002-2.581-7.649 0-14.855 1.924-21.169 5.304-7.821-13.33-22.295-22.305-38.835-22.305-9.317 0-17.981 2.846-25.17 7.715-13.837-24.879-40.389-41.758-70.82-41.758s-56.983 16.879-70.82 41.758c-7.189-4.868-15.853-7.715-25.17-7.715-16.54 0-31.014 8.975-38.835 22.305-6.314-3.381-13.52-5.304-21.169-5.304-5.259 0-10.307.915-15.002 2.581v-43.284l-18.901-27.493c11.469-7.651 19.041-20.703 19.041-35.494 0-23.513-19.129-42.643-42.642-42.643-23.512.002-42.641 19.131-42.641 42.644 0 14.791 7.573 27.843 19.042 35.494l-18.901 27.493v347.659zm-175.011-278.955c0-8.272 6.73-15.002 15.002-15.002s15.001 6.729 15.001 15.002v248.955h-30.003zm-30 1.942v247.013h-35.988v-295.746c20.817 6.421 35.988 25.837 35.988 48.733zm-65.988-48.732v295.745h-35.988v-247.013c0-22.896 15.171-42.312 35.988-48.732zm-65.988 295.745h-30.004v-248.955c0-8.272 6.73-15.002 15.002-15.002s15.002 6.729 15.002 15.002zm-90.008-231.954c0-8.272 6.73-15.002 15.002-15.002s15.002 6.729 15.002 15.002v231.954h-30.004zm311.987 231.954v-231.954c0-8.272 6.73-15.002 15.002-15.002s15.002 6.729 15.002 15.002v231.954z"/></svg>