<?xml version="1.0" encoding="utf-8"?>
<!-- Svg Vector Icons : http://www.onlinewebfonts.com/icon -->
<!DOCTYPE svg PUBLIC "-//W3C//DTD SVG 1.1//EN" "http://www.w3.org/Graphics/SVG/1.1/DTD/svg11.dtd">
<svg version="1.1" xmlns="http://www.w3.org/2000/svg" xmlns:xlink="http://www.w3.org/1999/xlink" x="0px" y="0px" viewBox="0 0 1000 1000" enable-background="new 0 0 1000 1000" style="fill:#3880ff" xml:space="preserve">
<metadata> Svg Vector Icons : http://www.onlinewebfonts.com/icon </metadata>
<g><g transform="translate(0.000000,512.000000) scale(0.100000,-0.100000)"><path d="M4416,4998.5c-166.6-59.3-314-216.3-363.8-384.8c-26.8-91.9-24.9-134,67-863.5c53.6-423.1,109.1-804.1,126.4-848.2c34.5-97.6,149.3-218.3,260.4-277.6c78.5-42.1,101.5-44,494-44h411.7l103.4,57.4c116.8,65.1,201,157,241.2,268.1c44,120.6,222.1,1593,203,1679.1c-38.3,166.6-160.8,310.2-337,390.6c-93.8,44-109.1,46-622.3,44C4678.3,5019.5,4450.5,5010,4416,4998.5z M5518.9,4600.2c24.9-13.4,36.4-40.2,36.4-82.3c0-34.5-38.3-384.8-88.1-779.3c-68.9-555.2-95.7-723.7-118.7-741c-21.1-17.2-122.5-24.9-348.5-24.9c-225.9,0-327.4,7.7-348.5,24.9c-23,17.2-49.8,191.5-118.7,741c-49.8,394.4-88.1,744.8-88.1,779.3c0,38.3,13.4,68.9,34.5,80.4C4523.3,4625.1,5469.1,4625.1,5518.9,4600.2z"/><path d="M2511,3365.3c-381-84.2-708.4-411.7-765.9-765.9c-26.8-166.6-24.9-6496.4,1.9-6643.8c55.5-304.4,294.9-561,629.9-683.5l124.5-44l2446.9-5.7c2722.6-5.7,2573.3-11.5,2835.6,126.4c245.1,128.3,425,360,469.1,605c26.8,151.3,28.7,6479.1,1.9,6645.7c-51.7,315.9-304.4,603.1-651,735.2c-120.6,46-141.7,47.9-589.7,49.8H6547l-55.5-63.2c-76.6-86.2-76.6-189.6,0-275.7l55.5-63.2l476.8-9.6c513.1-11.5,545.7-17.2,674-126.4c36.4-28.7,84.2-97.7,109.1-151.3l46-95.7V336.3v-2265H5000H2147.2v2265v2263.1l45.9,95.7c24.9,53.6,72.8,122.5,109.1,151.3c128.3,109.1,160.8,114.9,674,126.4l476.8,9.6l55.5,63.2c76.6,86.2,76.6,189.6,0,275.7l-55.5,63.2l-409.7,3.8C2748.4,3390.2,2601,3384.4,2511,3365.3z M7852.8-3179v-848.2l-47.9-97.7c-51.7-103.4-135.9-172.3-268.1-218.3c-114.9-40.2-4958.9-40.2-5073.8,0c-132.1,45.9-216.3,114.9-268,218.3l-47.9,97.7v848.2v848.2H5000h2852.8V-3179z"/><path d="M3064.3-3209.6c-63.2-63.2-74.7-158.9-28.7-248.9c47.9-90,91.9-97.6,578.2-97.6c505.5,0,543.8,7.7,593.5,128.3c36.4,82.3,9.6,178.1-63.2,235.5c-45.9,36.4-76.6,38.3-536.1,38.3h-488.2L3064.3-3209.6z"/><path d="M5118.7-3202c-72.8-61.3-91.9-137.9-53.6-225.9c53.6-128.3,49.8-128.3,959.2-128.3c562.9,0,829,5.7,857.8,21c72.7,36.4,109.1,97.7,109.1,185.7c0,67-11.5,93.8-55.5,139.8l-55.5,55.5h-852h-852L5118.7-3202z"/><path d="M4766.4,2159c-342.7-70.8-608.9-310.2-704.6-631.8c-11.5-42.1-30.6-210.6-40.2-373.3c-9.6-162.7-23-352.3-28.7-419.3c-13.4-135.9,9.6-239.3,74.7-346.6c23-36.4,68.9-128.3,99.6-201c32.6-74.7,88.1-176.1,122.5-225.9c97.6-141.7,86.2-157-189.6-296.8c-132.1-67-402.1-187.6-603.1-268c-359.9-145.5-363.8-149.3-425-241.2c-61.3-90-63.2-97.7-63.2-300.6c0-201,1.9-210.6,53.6-266.1c68.9-78.5,162.7-91.9,248.9-38.3c76.6,47.9,99.6,103.4,99.6,254.6v118.7l216.3,86.2C3937.4-868,4416-622.9,4557.7-515.7c162.7,122.5,212.5,208.7,212.5,361.9c0,139.8-19.2,201.1-95.7,287.2c-67,74.7-137.9,210.6-172.3,325.5c-13.4,44-53.6,107.2-88.1,141.7l-63.2,61.3l47.9,88.1c42.1,82.3,46,107.2,46,375.3c0,333.1,15.3,405.9,109.1,509.3c88.1,97.6,204.9,132.1,446.1,132.1c285.3,0,438.5-61.3,509.3-204.9c30.6-59.3,38.3-132.1,45.9-417.4c9.6-323.6,11.5-348.5,55.5-407.8l44-65.1l-65.1-68.9c-42.1-44-84.2-120.6-111-199.1c-24.9-70.8-78.5-170.4-118.7-220.2C5256.6,52.9,5229.8-16,5229.8-151.9c0-155.1,49.8-239.3,212.5-363.8C5584-622.9,6062.6-868,6372.8-990.5l216.4-86.2v-118.7c0-151.2,23-206.8,99.6-254.6c86.2-53.6,180-40.2,250.8,38.3c49.8,55.5,51.7,67,51.7,262.3c0,181.9-5.7,212.5-47.9,285.3C6884-762.7,6840-737.8,6464.7-586.5c-168.5,67-417.4,178.1-555.2,247C5622.3-196,5612.7-182.6,5710.4-39c34.5,49.8,90,151.3,122.5,225.9c30.7,72.8,76.6,164.7,99.6,201c65.1,107.2,88.1,210.6,74.7,346.6c-5.7,67-19.1,256.6-28.7,419.3c-21.1,358-59.4,499.7-183.8,668.2C5587.8,2101.6,5158.9,2241.4,4766.4,2159z"/></g></g>
</svg>