<?xml version="1.0" encoding="iso-8859-1"?>
<!-- Generator: Adobe Illustrator 19.0.0, SVG Export Plug-In . SVG Version: 6.00 Build 0)  -->
<svg version="1.1" id="Layer_1" xmlns="http://www.w3.org/2000/svg" xmlns:xlink="http://www.w3.org/1999/xlink" x="0px" y="0px"
	 viewBox="0 0 295.239 295.239" style="enable-background:new 0 0 295.239 295.239;fill:#3880ff" xml:space="preserve">
<g>
	<g>
		<g>
			<path d="M280.952,71.429h-95.238v9.524h95.238c2.629,0,4.762,2.138,4.762,4.762v171.429c0,2.624-2.133,4.762-4.762,4.762H14.286
				c-2.629,0-4.762-2.138-4.762-4.762V85.714c0-2.624,2.133-4.762,4.762-4.762h95.238v-9.524H14.286C6.41,71.429,0,77.838,0,85.714
				v171.429c0,7.876,6.41,14.286,14.286,14.286h266.667c7.876,0,14.286-6.41,14.286-14.286V85.714
				C295.238,77.838,288.829,71.429,280.952,71.429z"/>
			<path d="M19.048,233.333H123.81v-123.81H19.048V233.333z M28.571,119.048h85.714V223.81H28.571V119.048z"/>
			<path d="M88.271,175.405c7.095-5.2,11.729-13.571,11.729-23.024c0-15.757-12.814-28.571-28.571-28.571
				c-15.757,0-28.571,12.814-28.571,28.571c0,9.452,4.633,17.824,11.729,23.024c-12.571,6.233-21.252,19.167-21.252,34.119v9.524
				h76.19v-9.524C109.524,194.571,100.843,181.638,88.271,175.405z M52.381,152.381c0-10.505,8.543-19.048,19.048-19.048
				s19.048,8.543,19.048,19.048s-8.543,19.048-19.048,19.048S52.381,162.886,52.381,152.381z M42.857,209.524
				c0-15.757,12.814-28.571,28.571-28.571c15.757,0,28.572,12.814,28.572,28.571H42.857z"/>
			<path d="M134.433,100H160.8c8.49,0,15.39-6.9,15.39-15.386V23.81h-57.143v60.805C119.048,93.1,125.948,100,134.433,100z
				 M128.57,33.333L128.57,33.333h38.096v51.281c0,3.233-2.633,5.862-5.862,5.862h-26.367c-3.233,0-5.867-2.629-5.867-5.862V33.333z
				"/>
			<path d="M147.619,66.667c7.876,0,14.286-6.41,14.286-14.286c0-7.876-6.41-14.286-14.286-14.286s-14.286,6.41-14.286,14.286
				C133.333,60.257,139.743,66.667,147.619,66.667z M147.619,47.619c2.629,0,4.762,2.138,4.762,4.762
				c0,2.624-2.133,4.762-4.762,4.762c-2.629,0-4.762-2.138-4.762-4.762C142.857,49.757,144.99,47.619,147.619,47.619z"/>
			<rect x="138.095" y="128.571" width="138.095" height="9.524"/>
			<rect x="138.095" y="152.381" width="138.095" height="9.524"/>
			<rect x="138.095" y="176.19" width="138.095" height="9.524"/>
			<rect x="209.524" y="200" width="66.667" height="9.524"/>
		</g>
	</g>
</g>
<g>
</g>
<g>
</g>
<g>
</g>
<g>
</g>
<g>
</g>
<g>
</g>
<g>
</g>
<g>
</g>
<g>
</g>
<g>
</g>
<g>
</g>
<g>
</g>
<g>
</g>
<g>
</g>
<g>
</g>
</svg>
