<?xml version="1.0" encoding="utf-8"?>
<!-- Svg Vector Icons : http://www.onlinewebfonts.com/icon -->
<!DOCTYPE svg PUBLIC "-//W3C//DTD SVG 1.1//EN" "http://www.w3.org/Graphics/SVG/1.1/DTD/svg11.dtd">
<svg version="1.1" xmlns="http://www.w3.org/2000/svg" xmlns:xlink="http://www.w3.org/1999/xlink" style="fill:#3880ff" x="0px" y="0px" viewBox="0 0 1000 1000" enable-background="new 0 0 1000 1000" xml:space="preserve">
<metadata> Svg Vector Icons : http://www.onlinewebfonts.com/icon </metadata>
<g><path d="M916.1,228c0,0-57.4-1.1-57.4-30.2v-38c0,0-4.5-35.8-40.3-35.8h-67.1c0,0-35.8,0-35.8,33.5v35.8c0,38.1-70,33.7-70,33.7l-288.2,0.3c0,0-71.3,1.7-71.3-29.4v-45.5c0,0,2.2-29-35.8-29h-71.5c0,0-35.8,0-35.8,31.3v43.3c0,0,12.5,30.2-59.1,30.2c0,0-73.8-8.9-73.8,71.5v507.8c0,0,2.2,69.3,71.5,69.3H914c0,0,76-4.3,76-67.1V297.3C989.9,297.3,987.7,228,916.1,228z M751.3,195.6c0-19.8,13.7-35.8,33.5-35.8h2.2c19.8,0,35.8,16,35.8,35.8v71.5c0,19.7-14.9,35.8-34.6,35.8h-2.2c-19.7,0-34.6-16-34.6-35.8V195.6z M733.4,591.8H554.5c-9.9,0-17.9-9.7-17.9-19.7c0-9.9,8-21.3,17.9-21.3h178.9c9.9,0,17.9,11.4,17.9,21.3C751.3,582.2,743.3,591.8,733.4,591.8z M750.1,652.9c0,10.4-8.5,20.1-19,20.1H556.7c-10.5,0-19-9.7-19-20.1c0-10.5,8.5-19,19-19h174.4C741.6,633.8,750.1,642.3,750.1,652.9z M284.6,446.9c39.7,0,71.9,38.5,71.9,86c0,47.6-32.2,86-71.9,86c-39.8,0-71.9-38.5-71.9-86C212.7,485.4,244.9,446.9,284.6,446.9z M179.8,193.8c0-19.8,13.8-33.5,33.5-33.5h2.2c19.7,0,34.7,13.8,34.7,33.5v73.4c0,19.7-16,35.8-35.8,35.8h-2.2c-19.7,0-32.4-16-32.4-35.8V193.8z M410,753.3H164.4c0,0-22.5-9.2-22.5-31.6l10.8-22c0,0,14.5-28.6,35.5-52.6c21-23.9,45.6,0,45.6,0s10.9,22.5,47.1,23.2h12.3c36.2-0.7,47-23.2,47-23.2s24.6-23.9,45.6,0c21,23.9,35.5,52.6,35.5,52.6l10.9,22C432.5,744.1,410,753.3,410,753.3z M735.1,755.4H552.8c-9.6,0-17.3-12.9-17.3-22.4c0-9.7,7.7-19,17.3-19h182.3c9.6,0,17.3,9.4,17.3,19C752.4,742.5,744.6,755.4,735.1,755.4z M824.6,510.1H571.8c-19.5,0-35.2-14.1-35.2-33.5c0-19.5,15.8-28.5,35.2-28.5h252.8c19.4,0,35.2,9,35.2,28.5C859.8,496,844,510.1,824.6,510.1z"/></g>
</svg>