<?xml version="1.0" encoding="iso-8859-1"?>
<!-- Generator: Adobe Illustrator 19.0.0, SVG Export Plug-In . SVG Version: 6.00 Build 0)  -->
<svg version="1.1" id="Capa_1" xmlns="http://www.w3.org/2000/svg" xmlns:xlink="http://www.w3.org/1999/xlink" x="0px" y="0px"
	 viewBox="0 0 512 512" style="enable-background:new 0 0 512 512;fill:#3880ff" xml:space="preserve">
<g>
	<g>
		<path d="M71.069,354.63c-1.859-1.86-4.439-2.92-7.069-2.92s-5.21,1.06-7.07,2.92c-1.86,1.86-2.93,4.439-2.93,7.08
			c0,2.63,1.069,5.2,2.93,7.06c1.86,1.87,4.44,2.94,7.07,2.94s5.21-1.07,7.069-2.94c1.861-1.86,2.931-4.44,2.931-7.06
			C74,359.08,72.93,356.5,71.069,354.63z"/>
	</g>
</g>
<g>
	<g>
		<path d="M484.095,282.754l-0.716-0.743c-3.845-3.965-10.177-4.063-14.141-0.217c-3.965,3.845-4.062,10.176-0.217,14.141
			l0.594,0.616c1.966,2.063,4.602,3.102,7.242,3.102c2.478,0,4.96-0.916,6.896-2.76
			C487.751,293.083,487.904,286.753,484.095,282.754z"/>
	</g>
</g>
<g>
	<g>
		<path d="M505.89,317.818c-1.895-5.188-7.635-7.857-12.823-5.964c-5.188,1.895-7.858,7.636-5.964,12.823
			c3.25,8.899,4.897,18.265,4.897,27.835V465h-34V361.705c0-5.522-4.478-10-10-10c-5.522,0-10,4.478-10,10V465h-79.464v-77.749
			c0-33.581-22.735-62.688-55.289-70.781c-0.137-0.034-0.273-0.065-0.411-0.094l-0.786-0.161
			c8.261-8.487,14.198-19.236,16.772-31.222l34.632,55.38c1.828,2.923,5.032,4.698,8.479,4.698c3.447,0,6.651-1.776,8.479-4.699
			l43.097-68.946c8.763,0.281,17.332,1.934,25.502,4.957c1.145,0.423,2.316,0.624,3.469,0.624c4.065,0,7.887-2.498,9.38-6.533
			c1.916-5.181-0.729-10.933-5.909-12.849c-9.599-3.551-19.628-5.592-29.877-6.112c18.239-15.421,29.85-38.448,29.85-64.146v-31.431
			v-17.814V133c0-0.933-0.137-1.832-0.376-2.688c-3.955-42.668-39.941-76.189-83.624-76.189h-0.001
			c-43.683,0-79.668,33.521-83.623,76.189c-0.239,0.856-0.376,1.755-0.376,2.688v5.123v17.814v31.431
			c0,4.391,0.342,8.702,0.994,12.913c-5.805-2.224-12.01-3.625-18.478-4.069v-58.468C260.44,76.679,210.762,27,149.697,27
			S38.953,76.679,38.953,137.744v135.059C15.259,291.331,0,320.172,0,352.513V475c0,5.522,4.478,10,10,10h492
			c5.522,0,10-4.478,10-10V352.513C512,340.595,509.944,328.922,505.89,317.818z M361.931,316.208l-32.013-51.191
			c9.871,4.084,20.677,6.351,32.006,6.351h28.036L361.931,316.208z M297.925,138.123c-0.001-35.29,28.709-64,63.999-64
			c35.29,0,64,28.71,64,64v0.341l-34.438-20.232c-4.211-2.475-9.593-1.544-12.73,2.199c-13.583,16.209-33.502,25.506-54.65,25.506
			h-26.181V138.123z M297.924,165.937h26.181c24.218,0,47.177-9.521,64.2-26.378l37.619,22.101v25.708c0,35.29-28.711,64-64.001,64
			c-35.289,0-63.999-28.71-63.999-64V165.937z M150.076,251.368c-35.29,0-64-28.71-64-64v-21.431h26.182
			c24.218,0,47.177-9.521,64.2-26.378l37.618,22.101v25.708C214.076,222.658,185.366,251.368,150.076,251.368z M181.578,265.216
			l-31.874,50.992l-28.041-44.84h28.413C161.215,271.368,171.843,269.17,181.578,265.216z M211.742,261.333H243.6
			c6.688,0,13.166-1.783,18.829-4.999l17.178,4.652c0.853,0.231,1.731,0.349,2.614,0.349h18.037v10.19
			c0,24.356-19.854,44.172-44.258,44.172s-44.258-19.815-44.258-44.172V261.333z M295.98,241.334h-12.429l-5.961-1.614
			c0.94-4.127-0.824-8.56-4.663-10.828c-4.755-2.809-10.886-1.232-13.696,3.522c-3.251,5.502-9.24,8.92-15.631,8.92h-27.58
			c7.116-14.941,22.359-25.293,39.98-25.293C273.621,216.041,288.864,226.394,295.98,241.334z M58.953,137.744
			C58.953,87.708,99.661,47,149.697,47s90.743,40.708,90.743,90.744v60.212c-2.515,0.628-4.969,1.409-7.358,2.325
			c0.652-4.21,0.994-8.522,0.994-12.913v-31.431c0-3.497-1.92-6.851-4.935-8.622l-49.503-29.083
			c-4.211-2.474-9.592-1.544-12.73,2.199c-13.583,16.209-33.502,25.506-54.65,25.506H76.076c-5.522,0-10,4.477-10,10v31.431
			c0,25.692,11.606,48.714,29.837,64.135c-13.133,0.672-25.609,3.866-36.96,9.098V137.744z M153.464,465H74v-59.333
			c0-5.522-4.478-10-10-10c-5.522,0-10,4.478-10,10V465H20V352.513c0-43.73,34.776-79.471,78.123-81.068l43.104,68.928
			c1.828,2.923,5.032,4.698,8.479,4.698c3.447,0,6.651-1.776,8.479-4.699l34.891-55.818c2.522,12.161,8.509,23.064,16.868,31.655
			l-0.86,0.183c-0.111,0.024-0.222,0.05-0.331,0.077c-32.554,8.094-55.289,37.2-55.289,70.781V465z M338.536,465h-29.229v-62
			c0-5.522-4.478-10-10-10c-5.522,0-10,4.478-10,10v62h-76v-62c0-5.522-4.478-10-10-10c-5.522,0-10,4.478-10,10v62h-19.844v-77.749
			c0-24.319,16.423-45.404,39.957-51.333l20.106-4.281c6.999,2.618,14.57,4.059,22.473,4.059c7.793,0,15.266-1.395,22.183-3.945
			l20.433,4.176c23.517,5.94,39.921,27.016,39.921,51.324V465z"/>
	</g>
</g>
<g>
	<g>
		<path d="M337.16,175.83c-1.86-1.86-4.44-2.93-7.07-2.93c-2.64,0-5.21,1.07-7.07,2.93c-1.87,1.86-2.93,4.44-2.93,7.07
			c0,2.64,1.06,5.21,2.93,7.07c1.86,1.87,4.431,2.93,7.07,2.93c2.63,0,5.21-1.06,7.07-2.93c1.859-1.86,2.93-4.43,2.93-7.07
			C340.09,180.27,339.02,177.69,337.16,175.83z"/>
	</g>
</g>
<g>
	<g>
		<path d="M400.83,175.83c-1.86-1.86-4.44-2.93-7.07-2.93s-5.21,1.07-7.07,2.93c-1.859,1.86-2.93,4.44-2.93,7.07
			c0,2.64,1.07,5.21,2.93,7.07c1.86,1.87,4.44,2.93,7.07,2.93s5.21-1.06,7.07-2.93c1.859-1.86,2.93-4.44,2.93-7.07
			S402.69,177.69,400.83,175.83z"/>
	</g>
</g>
<g>
	<g>
		<path d="M380.686,207.885c-3.906-3.905-10.236-3.905-14.142,0c-2.629,2.63-6.908,2.63-9.537,0c-3.906-3.905-10.236-3.905-14.143,0
			c-3.905,3.905-3.905,10.237,0,14.143c5.214,5.213,12.063,7.82,18.911,7.82s13.697-2.607,18.911-7.82
			C384.591,218.123,384.591,211.791,380.686,207.885z"/>
	</g>
</g>
<g>
	<g>
		<path d="M125.309,175.83c-1.859-1.86-4.439-2.93-7.069-2.93c-2.631,0-5.21,1.07-7.07,2.93c-1.86,1.86-2.93,4.44-2.93,7.07
			s1.069,5.21,2.93,7.07c1.86,1.87,4.439,2.93,7.07,2.93c2.63,0,5.21-1.06,7.069-2.93c1.86-1.86,2.931-4.44,2.931-7.07
			S127.17,177.69,125.309,175.83z"/>
	</g>
</g>
<g>
	<g>
		<path d="M188.979,175.83c-1.859-1.86-4.43-2.93-7.069-2.93c-2.63,0-5.21,1.07-7.07,2.93c-1.86,1.86-2.93,4.44-2.93,7.07
			s1.069,5.21,2.93,7.07c1.861,1.86,4.44,2.93,7.07,2.93c2.64,0,5.21-1.07,7.069-2.93c1.87-1.86,2.931-4.44,2.931-7.07
			S190.849,177.69,188.979,175.83z"/>
	</g>
</g>
<g>
	<g>
		<path d="M168.84,207.885c-3.906-3.905-10.236-3.905-14.143,0c-2.629,2.63-6.908,2.63-9.537,0c-3.906-3.905-10.236-3.905-14.143,0
			c-3.905,3.906-3.905,10.238,0.001,14.143c5.214,5.213,12.063,7.82,18.911,7.82c6.848,0,13.697-2.607,18.911-7.82
			C172.745,218.123,172.745,211.791,168.84,207.885z"/>
	</g>
</g>
<g>
	<g>
		<path d="M274.911,282.7c-3.906-3.904-10.236-3.904-14.143,0c-2.629,2.631-6.908,2.631-9.537,0c-3.906-3.904-10.236-3.904-14.143,0
			c-3.905,3.905-3.905,10.237,0,14.143c5.215,5.214,12.063,7.82,18.912,7.82s13.697-2.606,18.911-7.82
			C278.816,292.938,278.816,286.606,274.911,282.7z"/>
	</g>
</g>
<g>
</g>
<g>
</g>
<g>
</g>
<g>
</g>
<g>
</g>
<g>
</g>
<g>
</g>
<g>
</g>
<g>
</g>
<g>
</g>
<g>
</g>
<g>
</g>
<g>
</g>
<g>
</g>
<g>
</g>
</svg>
