<svg id="Capa_1" enable-background="new 0 0 512 512" height="512" viewBox="0 0 512 512" width="512" xmlns="http://www.w3.org/2000/svg" style="fill:#3880ff"><g><path d="m462.128 274.104c-18.377 18.514-43.829 29.997-71.914 29.997s-53.537-11.483-71.914-29.997c-27.555.069-49.872 22.425-49.872 49.997v139.066h243.572v-139.066c0-27.571-22.317-49.927-49.872-49.997z"/><path d="m364.107 143.292h30c0 9.045 7.359 16.404 16.404 16.404h51.011c-1.364-38.219-32.757-68.789-71.309-68.789s-69.946 30.57-71.309 68.789h28.8c9.045 0 16.403-7.359 16.403-16.404z"/><path d="m390.213 274.101c39.419 0 71.375-31.956 71.375-71.375v-13.031h-51.076c-12.101 0-23.135-4.656-31.404-12.27-8.27 7.613-19.304 12.27-31.403 12.27h-28.865v13.031c-.001 39.42 31.954 71.375 71.373 71.375z"/><path d="m193.701 274.104c-18.377 18.514-43.829 29.997-71.914 29.997s-53.537-11.483-71.914-29.997c-27.556.07-49.873 22.426-49.873 49.997v139.066h243.573v-139.066c0-27.571-22.317-49.927-49.872-49.997z"/><path d="m121.787 177.426c-8.27 7.613-19.304 12.27-31.404 12.27h-39.971v13.031c0 39.419 31.956 71.375 71.375 71.375s71.375-31.956 71.375-71.375v-13.031h-39.972c-12.099 0-23.133-4.656-31.403-12.27z"/><path d="m50.477 159.696h39.906c9.045 0 16.404-7.359 16.404-16.404h30c0 9.045 7.358 16.404 16.403 16.404h39.906c-1.364-38.219-32.757-68.789-71.309-68.789s-69.946 30.57-71.31 68.789z"/><path d="m91.823 65.428c-7.343-10.056-19.215-16.594-32.62-16.594-22.297 0-40.372 18.075-40.372 40.372 0 11.174 4.54 21.286 11.875 28.595 12.2-24.877 34.291-44.057 61.117-52.373z"/></g></svg>