<svg id="Layer_1" enable-background="new 0 0 512 512" style="fill:#3880ff" height="512" viewBox="0 0 512 512" width="512" xmlns="http://www.w3.org/2000/svg"><g><path d="m56.5 376.5v63h63v-63zm37.394 15-22.394 22.394v-22.394zm-11.788 33 22.394-22.394v22.394z"/><path d="m176 408.5h16v15h-16z"/><path d="m208 408.5h16v15h-16z"/><path d="m288 232.5h16v15h-16z"/><path d="m320 232.5h16v15h-16z"/><path d="m400 408.5h16v15h-16z"/><path d="m432 408.5h16v15h-16z"/><path d="m487.5 456.5v-176h-336v-161h65v64h79v-64h65v144.5h15v-159.5h-239v176h-112v87.5h15v-72.5h65v64h79v-64h65v161h-209v-72.5h-15v72.5h-24.5v15h512v-15zm-256-337h17v49h-17zm49 49h-17v-49h17zm63 127h17v49h-17zm32 0h17v49h-17zm-256 0h17v49h-17zm49 49h-17v-49h17zm95-49h65v64h79v-64h65v161h-209z"/><path d="m280.5 439.5h63v-63h-63zm25.606-15 22.394-22.394v22.394zm11.788-33-22.394 22.394v-22.394z"/><path d="m168.5 263.5h63v-63h-63zm25.606-15 22.394-22.394v22.394zm11.788-33-22.394 22.394v-22.394z"/><path d="m443.84 182.24 4.16 2.773 4.16-2.773c2.096-1.397 51.34-34.817 51.34-86.24 0-30.603-24.897-55.5-55.5-55.5s-55.5 24.897-55.5 55.5c0 51.423 49.244 84.843 51.34 86.24zm4.16-126.74c22.331 0 40.5 18.169 40.5 40.5 0 17.953-7.38 35.723-21.936 52.816-7.064 8.296-14.219 14.433-18.564 17.851-4.347-3.419-11.501-9.555-18.565-17.851-14.555-17.093-21.935-34.863-21.935-52.816 0-22.331 18.168-40.5 40.5-40.5z"/><path d="m448 119.5c12.958 0 23.5-10.542 23.5-23.5s-10.542-23.5-23.5-23.5-23.5 10.542-23.5 23.5 10.542 23.5 23.5 23.5zm0-32c4.687 0 8.5 3.813 8.5 8.5s-3.813 8.5-8.5 8.5-8.5-3.813-8.5-8.5 3.813-8.5 8.5-8.5z"/></g></svg>