<?xml version="1.0" encoding="utf-8"?>
<!-- Svg Vector Icons : http://www.onlinewebfonts.com/icon -->
<!DOCTYPE svg PUBLIC "-//W3C//DTD SVG 1.1//EN" "http://www.w3.org/Graphics/SVG/1.1/DTD/svg11.dtd">
<svg version="1.1" xmlns="http://www.w3.org/2000/svg" xmlns:xlink="http://www.w3.org/1999/xlink" x="0px" y="0px" viewBox="0 0 1000 1000" enable-background="new 0 0 1000 1000" xml:space="preserve">
<metadata> Svg Vector Icons : http://www.onlinewebfonts.com/icon </metadata>
<g><g transform="translate(0.000000,444.000000) scale(0.100000,-0.100000)"><path d="M1354.3,3670.8c-610.9-95.7-1099.2-563-1223.7-1172c-17.2-80.4-30.6-201.1-30.6-268.1c1.9-316,199.2-900,607-1796.2c229.8-505.6,689.4-1405.6,743-1455.4c59.4-55.5,155.1-61.3,227.9-13.4c36.4,24.9,134,201.1,346.6,628.1c532.4,1062.8,811.9,1717.7,951.7,2234.8c124.5,465.3,53.6,865.6-224.1,1258.1C2453.5,3508,1873.3,3751.2,1354.3,3670.8z M1699,2960.3c499.8-91.9,773.6-637.7,547.7-1085.8c-231.7-459.6-844.5-561.1-1206.4-199.2c-235.5,235.5-291.1,563-147.5,875.1c88.1,193.4,312.1,367.7,528.5,409.8C1542,2983.3,1572.6,2983.3,1699,2960.3z"/><path d="M8229,940c-555.3-90-1014.9-471.1-1185.4-984.3c-59.4-178.1-93.8-434.7-78.5-563c55.5-438.5,371.5-1237.1,949.8-2407.1c187.7-377.2,361.9-708.5,388.8-735.3c61.3-61.3,176.2-65.1,247-9.6c32.6,26.8,168.5,275.7,384.9,714.3c350.4,706.6,534.3,1108.8,706.6,1555c314.1,806.2,335.1,1150.9,95.8,1637.3c-76.6,155.1-114.9,208.7-271.9,363.8c-204.9,204.9-381.1,310.2-633.8,383C8690.5,934.3,8353.5,959.2,8229,940z M8587.1,221.9c417.5-88.1,685.6-509.4,582.1-917.3c-147.4-580.2-834.9-779.4-1262-365.8c-423.2,406-237.5,1120.3,331.3,1273.5C8368.8,246.8,8455,248.8,8587.1,221.9z"/><path d="M2321.4-714.5c-42.1-84.3-76.6-160.9-76.6-172.3c0-9.6,24.9-30.6,57.4-47.9c76.6-40.2,526.6-40.2,622.4-1.9c134,57.5,158.9,229.8,46,325.5c-55.5,47.9-67,49.8-316,49.8H2398L2321.4-714.5z"/><path d="M3506.7-616.8c-44-45.9-55.5-72.8-55.5-139.8c0-68.9,11.5-95.8,59.4-141.7l57.4-55.5h306.4h308.3l55.5,63.2c78.5,86.2,78.5,195.3,0,273.8l-55.5,55.5h-310.2h-310.2L3506.7-616.8z"/><path d="M4776.4-609.1c-76.6-63.2-95.7-155.1-51.7-239.4c49.8-95.8,122.6-114.9,432.8-114.9h270l65.1,65.1c86.2,86.2,90,176.2,9.6,264.3l-55.5,63.2l-306.4,5.7l-304.5,5.7L4776.4-609.1z"/><path d="M5940.6-996c-57.4-23-114.9-90-126.4-149.4c-7.7-46,3.8-93.8,47.9-183.9c32.5-67,70.8-181.9,86.2-256.6c34.5-162.8,88.1-220.2,203-220.2c55.5,0,91.9,13.4,137.9,55.5c53.6,47.9,59.4,63.2,57.4,153.2c-3.8,174.3-116.8,478.8-210.6,563C6095.8-997.9,5988.5-976.8,5940.6-996z"/><path d="M5720.4-2229.2c-53.6-44-149.4-105.3-216.4-136c-208.8-99.6-254.7-227.9-128.3-354.3c61.3-61.3,76.6-67,147.5-57.5c187.7,24.9,530.4,258.5,561.1,383c32.6,128.3-55.5,243.2-185.8,243.2C5829.6-2150.7,5798.9-2164.1,5720.4-2229.2z"/><path d="M3068.2-2464.8c-143.6-38.3-199.2-74.7-237.5-151.3c-30.6-65.1-32.6-80.4-7.7-143.6c17.2-49.8,46-80.4,99.6-107.3c70.9-34.5,78.5-34.5,174.3-3.8c53.6,17.2,160.9,30.6,237.5,30.6c180,0,262.4,34.5,300.7,126.4c38.3,90,21.1,166.6-53.6,227.9c-51.7,44-70.8,47.9-241.3,45.9C3238.6-2439.9,3116.1-2451.3,3068.2-2464.8z"/><path d="M4119.5-2493.5c-44-45.9-55.5-72.8-55.5-139.8c0-68.9,11.5-95.8,59.4-141.7l57.4-55.5h306.4h308.3l55.5,63.2c78.5,86.2,78.5,195.3,0,273.8l-55.5,55.5h-310.2H4175L4119.5-2493.5z"/><path d="M2518.6-3121.6c-23-3.8-65.1-34.5-93.8-68.9c-47.9-57.5-49.8-67-42.1-233.6c15.3-294.9,139.8-526.6,281.5-526.6c122.6,0,212.6,86.2,212.6,199.1c0,24.9-21.1,91.9-47.9,147.5c-26.8,63.2-49.8,155.1-55.5,231.7c-5.7,70.8-21.1,147.4-34.5,168.5c-23,36.4-128.3,97.7-162.8,93.8C2568.4-3112,2541.6-3117.8,2518.6-3121.6z"/><path d="M7731.1-3495c-68.9-36.4-105.3-99.6-105.3-180c0-93.8,17.2-114.9,268.1-304.5c105.3-80.4,191.5-153.2,191.5-160.9c0-9.6-95.7-88.1-210.6-174.3c-116.8-88.1-220.2-174.2-229.8-193.4c-80.4-149.4,78.5-346.6,233.6-287.2c26.8,9.6,162.8,105.3,300.7,210.6l252.8,193.4l270-204.9c229.8-174.2,281.5-206.8,340.9-206.8c91.9,0,164.7,49.8,191.5,132.1c36.4,114.9-5.7,178.1-243.2,356.2c-113,86.2-208.7,162.8-212.6,170.4c-1.9,7.7,93.8,90,214.5,181.9c247,187.7,283.4,243.2,235.5,360c-32.6,76.6-67,107.2-139.8,122.5c-53.6,9.6-57.4,5.7-141.7-166.6c-47.9-97.7-109.2-208.7-137.9-248.9c-155.1-216.4-501.7-248.9-691.3-65.1c-38.3,36.4-118.7,160.8-180,277.7C7826.9-3470.1,7805.8-3452.9,7731.1-3495z"/><path d="M3219.5-3968c-113-113-53.6-308.3,101.5-337c36.4-7.7,181.9-9.6,319.8-5.7l254.7,5.7l55.5,63.2c38.3,44,55.5,82.3,55.5,130.2c0,168.5-67,199.2-440.4,199.2H3275L3219.5-3968z"/><path d="M4487.2-3962.2c-72.8-61.3-93.8-153.2-51.7-235.6c51.7-99.6,111.1-116.8,407.9-116.8c229.8,0,271.9,5.7,327.4,38.3c116.8,70.9,132.1,201.1,34.5,298.7l-65.1,65.1h-296.8C4552.3-3912.5,4544.6-3914.4,4487.2-3962.2z"/><path d="M5770.2-3939.3c-109.1-59.4-128.3-204.9-42.1-302.6l55.5-63.2l285.3-5.7c241.3-3.8,293,0,350.4,28.7c90,45.9,126.4,149.4,88.1,243.2c-47.9,114.9-82.3,126.4-404,126.4C5902.3-3914.4,5802.8-3922,5770.2-3939.3z"/><path d="M7007.3-3950.8c-120.6-95.8-99.6-279.6,36.4-337c55.5-23,130.2-28.7,346.6-23l277.7,5.7l55.5,63.2c61.3,69,70.9,147.5,28.7,231.7c-44,84.2-101.5,97.7-411.7,97.7C7083.9-3912.5,7051.3-3916.3,7007.3-3950.8z"/></g></g>
</svg>