<?xml version="1.0" encoding="UTF-8" standalone="no"?> <svg xmlns="http://www.w3.org/2000/svg" viewBox="0 0 64 64"><title>Device, Document, Documents, Electornics, Paper, Print, Printer</title><g id="Layer_10" data-name="Layer 10"><path d="M56,18H17V8a2,2,0,0,1,2-2H44a2,2,0,0,1,2,2v6a2,2,0,0,0,4,0V8a6,6,0,0,0-6-6H19a6,6,0,0,0-6,6V18H8a6,6,0,0,0-6,6V42a6,6,0,0,0,6,6h5v7a6,6,0,0,0,6,6H45a6,6,0,0,0,6-6V48h5a6,6,0,0,0,6-6V24A6,6,0,0,0,56,18ZM52,32a4,4,0,1,1,4-4A4,4,0,0,1,52,32ZM47,55a2,2,0,0,1-2,2H19a2,2,0,0,1-2-2V44a2,2,0,0,1,2-2H45a2,2,0,0,1,2,2V55Z"/></g></svg>