<svg id="Capa_1" enable-background="new 0 0 512 512"style="fill:#3880ff" height="512" viewBox="0 0 512 512" width="512" xmlns="http://www.w3.org/2000/svg"><g><path d="m181 347c0-24.813-20.187-45-45-45s-45 20.187-45 45 20.187 45 45 45 45-20.187 45-45zm-45 15c-8.271 0-15-6.729-15-15s6.729-15 15-15 15 6.729 15 15-6.729 15-15 15z"/><path d="m301 377c0-24.813-20.187-45-45-45s-45 20.187-45 45 20.187 45 45 45 45-20.187 45-45zm-45 15c-8.271 0-15-6.729-15-15s6.729-15 15-15 15 6.729 15 15-6.729 15-15 15z"/><path d="m421 347c0-24.813-20.187-45-45-45s-45 20.187-45 45 20.187 45 45 45 45-20.187 45-45zm-45 15c-8.271 0-15-6.729-15-15s6.729-15 15-15 15 6.729 15 15-6.729 15-15 15z"/><path d="m376 392c-32.178 0-59.68 20.373-70.305 48.894-13.243-11.743-30.646-18.894-49.695-18.894s-36.452 7.151-49.695 18.894c-10.625-28.521-38.127-48.894-70.305-48.894-41.355 0-75 33.645-75 75 0 8.284 6.716 15 15 14.988h106.509c-.988 4.86-1.509 9.876-1.509 15.012 0 8.284 6.716 15 15 15h120c8.284 0 15-6.716 15-15 0-5.136-.521-10.152-1.509-15h106.509c8.284 0 15-6.716 15-15 0-41.355-33.645-75-75-75zm-282.43 60c6.191-17.461 22.874-30 42.43-30s36.239 12.539 42.43 30zm120 30c6.191-17.461 22.874-30 42.43-30s36.239 12.539 42.43 30zm120-30c6.191-17.461 22.874-30 42.43-30s36.239 12.539 42.43 30z"/><path d="m436 0h-360c-8.284 0-15 6.716-15 15v181c0 8.284 6.716 15 15 15h45v46c0 6.089 3.682 11.575 9.317 13.882 5.636 2.305 12.106.978 16.377-3.363l55.592-56.519h107.428l55.592 56.519c4.292 4.363 10.768 5.659 16.377 3.363 5.635-2.307 9.317-7.793 9.317-13.882v-46h45c8.284 0 15-6.716 15-15v-181c0-8.284-6.716-15-15-15zm-15 181h-45c-8.284 0-15 6.716-15 15v24.359l-34.306-34.878c-2.82-2.866-6.673-4.481-10.694-4.481h-120c-4.021 0-7.874 1.615-10.694 4.481l-34.306 34.878v-24.359c0-8.284-6.716-15-15-15h-45v-151h330z"/><circle cx="166" cy="106" r="15"/><circle cx="256" cy="106" r="15"/><circle cx="346" cy="106" r="15"/></g></svg>