<?xml version="1.0" encoding="utf-8"?>
<!-- Svg Vector Icons : http://www.onlinewebfonts.com/icon -->
<!DOCTYPE svg PUBLIC "-//W3C//DTD SVG 1.1//EN" "http://www.w3.org/Graphics/SVG/1.1/DTD/svg11.dtd">
<svg version="1.1" xmlns="http://www.w3.org/2000/svg" xmlns:xlink="http://www.w3.org/1999/xlink" x="0px" y="0px" viewBox="0 0 1000 1000" enable-background="new 0 0 1000 1000" xml:space="preserve" style="fill:#3880ff">
<metadata> Svg Vector Icons : http://www.onlinewebfonts.com/icon </metadata>
<g><path d="M286.4,464.5c29.7,62.4,49.2,89.8,99.4,122.4c133,86.1,284.8-14.9,328.9-122.4c56.8-28.9,80.1-82.6,84.1-122.4c1.6-30.9-23.8-58.6-53.5-68.8c13-129-52.5-260.3-252.4-267.7C378,13.2,259,56.3,255.8,265.7c0.7,12.8-33.5,15.3-45.9,53.5C209.9,319.2,179.3,409,286.4,464.5z M745.3,319.2c0,0,41.5,9.6,0,68.8c-5.1,2.6-10.2,12.7-15.3,15.3C735.1,377.9,737.6,316.4,745.3,319.2z M347.6,288.6c20.1,1.9,133.7,0.5,275.3-84.1c18.1,29.1-10.7,38.2,45.9,76.5c-7.1,159.4-74,317.4-237.1,244.7c-35.3-19.7-66.6-60.9-76.5-107.1C342.7,360.1,327.5,286.7,347.6,288.6z M255.8,319.2c12,16.7,10.9,49.9,15.3,84.1C242.5,385.9,228.4,331.2,255.8,319.2z M714.7,571.6c-10.2,5.1-21.3,8.6-30.6,15.3c-3.6,125.7-38.5,233.3-122.4,290.6c-2.5,0-5.2-0.7-7.6,0c-35.8-76.9,8.7-88.2,30.6-130c-45.3-62.5-114.4-51.3-168.2-7.6c13,42,71.2,87.4,30.6,114.7c-3.1,4,0,17.8,0,22.9h-7.6c-91.9-61.1-107.1-164.4-122.4-283c-7.6-24.8-10.2-14.6-38.2-22.9c-44.6,10.9-287,85.4-267.7,336.5c168.2,135.7,876.2,90,978.9,7.6C975.2,664.1,861.1,618.1,714.7,571.6z"/></g>
</svg>