<?xml version="1.0" encoding="iso-8859-1"?>
<!-- Generator: Adobe Illustrator 19.0.0, SVG Export Plug-In . SVG Version: 6.00 Build 0)  -->
<svg version="1.1" id="Capa_1" xmlns="http://www.w3.org/2000/svg" xmlns:xlink="http://www.w3.org/1999/xlink" x="0px" y="0px"
	 viewBox="0 0 511.986 511.986" style="enable-background:new 0 0 511.986 511.986;" xml:space="preserve">
<g>
	<g>
		<ellipse cx="209.067" cy="163.034" rx="12.798" ry="12.926"/>
	</g>
</g>
<g>
	<g>
		<ellipse cx="294.387" cy="163.034" rx="12.798" ry="12.926"/>
	</g>
</g>
<g>
	<g>
		<path d="M275.788,221.402c-18.352,17.021-38.565,1.493-40.809-0.333l-5.418,6.595l-5.443,6.57
			c6.732,5.58,19.129,12.073,33.019,12.073c9.829,0,20.409-3.251,30.255-12.389L275.788,221.402z"/>
	</g>
</g>
<g>
	<g>
		<path d="M257.862,188.886l6.228-18.873l-16.202-5.35l-8.532,25.852c-1.322,4.01,0.486,8.387,4.258,10.29l17.064,8.617l7.687-15.23
			L257.862,188.886z"/>
	</g>
</g>
<g>
	<g>
		<path d="M418.102,318.317V285.29c0-16.143-13.498-29.265-30.084-29.265h-64.792c14.027-16.382,25.204-39.717,30.937-71.533h4.215
			c18.822,0,34.128-15.426,34.128-34.393c0-12.346-6.629-23.429-16.808-29.504c8.302-28.403,1.706-59.639-18.199-81.967
			l-8.925-10.017C324.924,2.068,288.253-6.967,255.149,5.566l-17.081,6.467l-5.401-0.904c-29.768-5-58.82,9.923-72.301,37.157
			l-6.049,12.235c-6.228,12.576-8.481,26.577-6.561,40.101l1.468,15.545c-16.731,2.184-29.743,16.484-29.743,33.932
			c0,18.967,15.307,34.393,34.128,34.393h4.351c5.785,31.816,16.97,55.185,31.023,71.533h-58.41
			c-20.229,0-36.688,15.759-36.688,35.118v27.175c-24.76,6.459-42.66,24.521-42.66,45.774v87.735v51.627v8.532h8.532h68.256v0
			h255.962h68.256h8.532v-8.532v-51.627v-87.735C460.762,342.838,442.862,324.776,418.102,318.317z M153.609,167.419
			c-9.411,0-17.064-7.773-17.064-17.32c0-8.583,6.194-15.673,14.274-17.039l2.824,29.913c0.162,1.664,0.819,3.191,1.817,4.445
			H153.609z M388.018,273.089c7.175,0,13.02,5.469,13.02,12.201v30.57c-0.981-0.034-1.945-0.111-2.944-0.111H324.25h-25.596v-39.145
			c1.851-1.058,3.66-2.304,5.469-3.515H388.018z M401.038,332.916v85.218H366.91v-85.32h31.185
			C399.084,332.813,400.057,332.873,401.038,332.916z M290.121,332.813h25.596v0.213c0,21.851-13.745,41.688-34.205,49.358
			l-5.495,2.056c-12.781,4.795-26.722,4.462-39.273-0.896c-19.402-8.327-31.944-27.345-31.944-48.462v-2.27h17.064H290.121z
			 M230.397,315.758v-31.765c8.515,2.654,17.158,3.916,25.596,3.916c8.472,0,17.107-1.246,25.596-3.882v31.731H230.397z
			 M366.688,155.568l4.036-17.354c2.927,3.14,4.718,7.338,4.718,11.885c0,9.547-7.653,17.32-17.064,17.32h-1.783
			c0.196-1.792,0.29-3.729,0.452-5.563c1.783,0.282,3.601,0.196,5.239-0.64C364.512,160.073,366.125,158.009,366.688,155.568z
			 M164.692,98.608c-1.485-10.486,0.213-21.049,4.914-30.528l6.058-12.243c10.119-20.443,31.91-31.662,54.17-27.9l7.679,1.288
			c1.502,0.256,3.029,0.102,4.437-0.435l19.24-7.286c26.466-10,55.748-2.773,74.647,18.438l8.925,10.017
			c17.465,19.607,22.243,47.788,12.448,72.181c-0.102,0.265-0.299,0.461-0.375,0.742c-0.043,0.145,0,0.29-0.026,0.444
			c-0.009,0.026-0.017,0.051-0.026,0.068c-0.188,0.452-0.35,0.921-0.461,1.399l-3.984,17.124L216.575,86.015
			c-1.058-0.435-2.159-0.64-3.242-0.64c-2.628,0-5.179,1.212-6.826,3.413l-37.951,50.604L164.692,98.608z M172.149,163.051
			l44.042-58.726l124.295,51.184c-5.162,71.26-37.174,115.336-84.493,115.336C210.654,270.845,178.949,229.695,172.149,163.051z
			 M110.948,291.143c0-9.957,8.805-18.054,19.624-18.054h77.394c1.775,1.195,3.558,2.346,5.367,3.387v39.273h-17.064h-82.377
			c-0.99,0-1.962,0.077-2.944,0.111V291.143z M110.948,332.916c0.981-0.043,1.954-0.102,2.944-0.102h31.185v85.32h-34.128V332.916z
			 M110.948,494.922h-42.66v-26.031h42.66V494.922z M443.698,494.922h-42.66v-26.031h42.66V494.922z M443.698,451.827h-59.724
			v43.095H128.012v-43.095H68.288v-87.735c0-12.064,10.597-22.764,25.596-27.951v90.525c0,4.71,3.822,8.532,8.532,8.532h51.192
			c4.71,0,8.532-3.822,8.532-8.532v-93.853h25.596v2.278c0,27.951,16.603,53.129,42.293,64.135
			c8.805,3.771,18.131,5.665,27.473,5.665c8.276,0,16.569-1.485,24.521-4.462l5.495-2.056
			c27.064-10.162,45.263-36.423,45.263-65.347v-0.213h17.064v93.853c0,4.71,3.822,8.532,8.532,8.532h51.192
			c4.71,0,8.532-3.822,8.532-8.532v-90.525c14.999,5.188,25.596,15.895,25.596,27.951V451.827z"/>
	</g>
</g>
<g>
</g>
<g>
</g>
<g>
</g>
<g>
</g>
<g>
</g>
<g>
</g>
<g>
</g>
<g>
</g>
<g>
</g>
<g>
</g>
<g>
</g>
<g>
</g>
<g>
</g>
<g>
</g>
<g>
</g>
</svg>
