<?xml version="1.0" encoding="utf-8"?>
<!-- Svg Vector Icons : http://www.onlinewebfonts.com/icon -->
<!DOCTYPE svg PUBLIC "-//W3C//DTD SVG 1.1//EN" "http://www.w3.org/Graphics/SVG/1.1/DTD/svg11.dtd">
<svg version="1.1" xmlns="http://www.w3.org/2000/svg" xmlns:xlink="http://www.w3.org/1999/xlink" x="0px" y="0px" viewBox="0 0 1000 1000" fill="white" opacity="0.5" xml:space="preserve">
<metadata> Svg Vector Icons : http://www.onlinewebfonts.com/icon </metadata>
<g><g><g><path d="M517.2,650.8c22.1,0,40-18,40-40.1c0-22.1-17.9-40-40-40L335.9,437.4l141.3,175.9C478.5,634.2,495.9,650.8,517.2,650.8z"/><rect x="300.2" y="769" width="399.7" height="94.8"/><path d="M846.5,279.7C753.9,187.2,630.9,136.2,500,136.2c-130.9,0-253.9,51-346.5,143.5C61,372.3,10,495.3,10,626.2c0,84.5,21.3,165.7,61.3,237.6h91.6l67-38.7l-29.6-51.2l-86.1,49.7c-30.4-59.2-47.6-126.4-47.6-197.4c0-12.6,0.6-25,1.6-37.3L170.8,607l10.3-58.3L77.2,530.4c18.6-82,60.4-155.2,118.2-212.4l70.4,83.9l45.3-38l-70.9-84.5c65-48.8,144.2-79.8,230.2-85.6V306h59.2V193.7c86,5.8,165.1,36.8,230.2,85.6l-70.9,84.5l45.3,38l70.4-83.9c57.8,57.1,99.7,130.4,118.2,212.4l-103.9,18.3l10.3,58.3l102.7-18.1c1.1,12.3,1.6,24.8,1.6,37.3c0,71.1-17.2,138.2-47.6,197.4l-86.1-49.7l-29.6,51.2l67,38.7h91.6c40-71.9,61.3-153.1,61.3-237.6C990,495.3,939,372.3,846.5,279.7z"/></g></g><g></g><g></g><g></g><g></g><g></g><g></g><g></g><g></g><g></g><g></g><g></g><g></g><g></g><g></g><g></g></g>
</svg>