<?xml version="1.0" encoding="UTF-8"?>
<!DOCTYPE svg PUBLIC "-//W3C//DTD SVG 1.1//EN" "http://www.w3.org/Graphics/SVG/1.1/DTD/svg11.dtd">
<!-- Creator: CorelDRAW 2018 (64-Bit) -->
<svg xmlns="http://www.w3.org/2000/svg" xml:space="preserve" width="8.4666mm" height="8.4666mm" version="1.1" style="shape-rendering:geometricPrecision; text-rendering:geometricPrecision; image-rendering:optimizeQuality; fill-rule:evenodd; clip-rule:evenodd"
viewBox="0 0 846.66 846.66"
 xmlns:xlink="http://www.w3.org/1999/xlink">
 <defs>
  <style type="text/css">
   <![CDATA[
    .fil0 {fill:#1A1A1A}
   ]]>
  </style>
 </defs>
 <g id="Layer_x0020_1">
  <metadata id="CorelCorpID_0Corel-Layer"/>
  <path class="fil0" d="M43.86 475.71c0,-14.31 -14.45,-25.91 -32.16,-25.91l0 51.84c17.71,-0.02 32.16,-11.64 32.16,-25.93zm629.11 57.59c-50.4,0 -91.38,40.99 -91.38,91.41 0,50.44 40.98,91.43 91.38,91.43 50.4,0 91.41,-40.99 91.41,-91.43 0,-50.41 -41.03,-91.41 -91.41,-91.41zm0 159.8c-37.68,0 -68.37,-30.67 -68.37,-68.38 0,-37.71 30.69,-68.37 68.37,-68.37 37.73,0 68.42,30.65 68.42,68.37 -0.02,37.71 -30.72,68.38 -68.42,68.38zm-518.74 -135.53c-38.38,-32.92 -87.47,-27.39 -89.54,-27.17l2.36 19.32c-38.31,8.68 -67.05,42.94 -67.05,83.82 0,47.41 38.62,85.99 86.02,85.99 45.41,0 82.62,-35.43 85.72,-80.02 1.3,8 2.18,16.47 2.5,25.55l22.99 -0.7c-1.49,-47.63 -15.97,-83.56 -43,-106.79zm-68.21 138.93c-34.74,0 -62.98,-28.22 -62.98,-62.96 0,-34.72 28.24,-62.96 62.98,-62.96 34.74,0 62.92,28.25 62.92,62.96 0.03,34.71 -28.17,62.96 -62.92,62.96zm622.41 -569.37l-311.05 0 -80.62 0 -180.48 0 0 46.09 42.31 0c-33.26,20.54 -80.71,92.13 -80.71,92.13 0,0 -93.59,182.99 -34.52,261.14 149.76,-3.86 138.21,138.23 138.21,138.23l369.39 0c-4.76,-12.45 -7.44,-25.91 -7.44,-40 0,-62.17 50.58,-112.77 112.78,-112.77 62.17,0 112.77,50.62 112.77,112.77 0,4.97 -0.41,9.86 -1.06,14.65 35.44,-25.03 58.65,-66.24 58.65,-112.91l0 -261.12c0,-76.33 -61.86,-138.21 -138.23,-138.21zm-338.22 497.58l-101.74 0c0,0 17.5,-139.87 -101.76,-174.93 0,0 3.82,-182.28 92.15,-252.49l111.35 0 0 427.42 0 0zm259.46 -174.93c-119.25,35.07 -101.77,174.93 -101.77,174.93l-101.74 0 0 -427.4 203.51 0 0 252.47z"/>
 </g>
</svg>
