<?xml version="1.0" encoding="UTF-8"?>
<!DOCTYPE svg PUBLIC "-//W3C//DTD SVG 1.1//EN" "http://www.w3.org/Graphics/SVG/1.1/DTD/svg11.dtd">
<!-- Creator: CorelDRAW 2018 (64-Bit) -->
<svg xmlns="http://www.w3.org/2000/svg" xml:space="preserve" width="8.4666mm" height="8.4666mm" version="1.1" style="shape-rendering:geometricPrecision; text-rendering:geometricPrecision; image-rendering:optimizeQuality; fill-rule:evenodd; clip-rule:evenodd"
viewBox="0 0 846.66 846.66"
 xmlns:xlink="http://www.w3.org/1999/xlink">
 <defs>
  <style type="text/css">
   <![CDATA[
    .fil0 {fill:#1A1A1A}
   ]]>
  </style>
 </defs>
 <g id="Layer_x0020_1">
  <metadata id="CorelCorpID_0Corel-Layer"/>
  <path class="fil0" d="M779.26 641.8l-293.73 -508.75c-12.98,-22.48 -36.23,-35.91 -62.19,-35.91 -25.97,0 -49.22,13.43 -62.2,35.91l-293.72 508.75c-12.99,22.49 -12.99,49.33 0,71.82 12.98,22.49 36.23,35.91 62.19,35.91l587.46 0c25.96,0 49.21,-13.42 62.19,-35.91 12.98,-22.48 12.98,-49.33 0,-71.82zm-355.92 24.97c-25.78,0 -46.75,-20.98 -46.75,-46.75 0,-25.78 20.97,-46.75 46.75,-46.75 25.78,0 46.75,20.97 46.75,46.75 0,25.78 -20.98,46.75 -46.75,46.75zm47.06 -199.84c0,25.95 -21.11,47.07 -47.06,47.07 -25.95,0 -47.06,-21.12 -47.06,-47.07l0 -216c0,-12.31 9.98,-22.29 22.29,-22.29l49.54 0c12.32,0 22.3,9.98 22.3,22.29l0 216 -0.01 0z"/>
 </g>
</svg>
