<?xml version="1.0" encoding="UTF-8"?>
<!DOCTYPE svg PUBLIC "-//W3C//DTD SVG 1.1//EN" "http://www.w3.org/Graphics/SVG/1.1/DTD/svg11.dtd">
<!-- Creator: CorelDRAW 2018 (64-Bit) -->
<svg xmlns="http://www.w3.org/2000/svg" xml:space="preserve" width="7.056mm" height="12.239mm" version="1.1" style="shape-rendering:geometricPrecision; text-rendering:geometricPrecision; image-rendering:optimizeQuality; fill-rule:evenodd; clip-rule:evenodd"
viewBox="0 0 705.6 1223.9"
 xmlns:xlink="http://www.w3.org/1999/xlink">
 <defs>
  <style type="text/css">
   <![CDATA[
    .fil0 {fill:green}
   ]]>
  </style>
 </defs>
 <g id="Layer_x0020_1">
  <metadata id="CorelCorpID_0Corel-Layer"/>
  <path class="fil0" d="M0.13 1123.6c84.29,-1.31 168.73,0.97 252.05,0.97 51.8,0 123.22,1.59 172.62,-0.25l-0.12 -32.44 -159.77 -0.29 0.01 -989.32 159.7 -0.49 0.1 -32.58 -210.64 -1.55c-71.32,0 -142.64,-0.07 -213.96,0l0.01 1055.95zm0.01 99.78c60.96,-0.82 71,9.22 70.91,-34.42 15.33,-0.17 24.85,1.32 36.96,-6.34 8.49,-5.37 15.55,-14.04 18.22,-26.68l-126.23 0.13 0.14 67.31zm282.68 -605.63l141.38 0.03 0.2 -66.5 -76.98 -0.11c-12.57,-0.02 -14.75,-2.59 -20.65,5.89l-33.46 45.41c-3.84,4.83 -8.23,10.38 -10.49,15.28zm-0.26 -115.13l142.1 0.13 0.05 -66.28 -94.09 -0.32 -48.06 66.47zm0.09 229.71l142.11 0.28 -0.1 -66.3c-25.49,-1.38 -65.82,-0.04 -93.87,-0.34 -3.69,7.39 -42.93,56.85 -48.14,66.36zm45.72 331.84l96.18 -0.06 0.15 -208.76 -125.92 -0.23 29.59 209.05zm-28.15 -680.43l123.92 0.11c1.72,-15.23 0.65,-184.22 0.54,-215.01l-32.36 -0.29c-7.67,0 -10,1.9 -13.93,-3.73l-14.82 -23.23c-3.74,-6.19 -3.52,-7.16 -12.07,-7.16l-51.31 0.27 0.03 249.04zm157.08 826.85c18.63,-0.28 36.78,-0.06 54.76,-0.05 25.23,0.01 22.7,-1.5 42.43,-11.43 54.82,-27.59 30.31,-18.46 54.7,-11.64 8.2,2.29 16.96,1.4 25.48,1.49 -0.08,44 10.2,33.6 70.8,34.42l0.09 -82.59 -32.61 -0.07 32.28 -16.79 0.37 -1037.6 -141.35 -70.1 -32.58 1173.92 -0.42 -1190.12 -73.82 -0.03 -0.13 1210.59z"/>
 </g>
</svg>
