<?xml version="1.0" encoding="UTF-8"?>
<!DOCTYPE svg PUBLIC "-//W3C//DTD SVG 1.1//EN" "http://www.w3.org/Graphics/SVG/1.1/DTD/svg11.dtd">
<!-- Creator: CorelDRAW 2018 (64-Bit) -->
<svg xmlns="http://www.w3.org/2000/svg" xml:space="preserve" width="8.4666mm" height="8.4666mm" version="1.1" style="shape-rendering:geometricPrecision; text-rendering:geometricPrecision; image-rendering:optimizeQuality; fill-rule:evenodd; clip-rule:evenodd"
viewBox="0 0 846.66 846.66"
 xmlns:xlink="http://www.w3.org/1999/xlink">
 <defs>
  <style type="text/css">
   <![CDATA[
    .fil0 {fill:#1A1A1A}
   ]]>
  </style>
 </defs>
 <g id="Layer_x0020_1">
  <metadata id="CorelCorpID_0Corel-Layer"/>
  <path class="fil0" d="M563.51 173.96c118.12,42.93 200.3,138.44 200.3,249.37 0,151.08 -152.44,273.54 -340.48,273.54 -188.04,0 -340.48,-122.46 -340.48,-273.54 0,-65.71 28.83,-126 76.89,-173.17 12.16,-11.94 25.56,-23.03 40.03,-33.16 22.5,-15.75 47.6,-29.17 74.73,-39.77 37.52,-14.68 78.89,-23.98 122.58,-26.65 5.85,-0.36 11.75,-0.6 17.68,-0.72 2.85,-0.05 5.71,-0.08 8.57,-0.08 2.81,0 5.63,0.03 8.43,0.08 17.09,0.33 33.86,1.68 50.23,3.96 5.7,0.8 11.36,1.7 16.96,2.73 6.26,1.13 12.46,2.42 18.59,3.84 15.83,3.65 31.18,8.2 45.97,13.57zm-6.53 278.69c21.66,0 39.3,17.64 39.3,39.31 0,21.67 -17.63,39.31 -39.3,39.31 -21.68,0 -39.32,-17.64 -39.32,-39.31 0,-21.67 17.64,-39.31 39.32,-39.31zm-267.29 0c21.67,0 39.31,17.64 39.31,39.31 0,21.67 -17.64,39.31 -39.31,39.31 -21.67,0 -39.31,-17.64 -39.31,-39.31 0,-21.67 17.64,-39.31 39.31,-39.31zm0 62.9c12.99,0 23.58,-10.59 23.58,-23.59 0,-12.99 -10.59,-23.58 -23.58,-23.58 -13.01,0 -23.59,10.59 -23.59,23.58 0,13 10.58,23.59 23.59,23.59zm-94.35 -62.9l0 -47.16c0,-3.38 2.17,-6.4 5.38,-7.47l44.36 -14.78c16.7,-28.3 39.67,-55.22 90.41,-64.12 0.09,-0.01 0.19,-0.02 0.29,-0.05 93.71,-12.95 164.08,8.19 209.25,62.86 33.61,0.49 67.95,7.52 88.13,20.44 10.46,6.71 16.67,18.36 17.24,30.76l0.92 19.52c4.34,0 7.86,3.52 7.86,7.86l0 31.45c0,4.34 -3.52,7.86 -7.86,7.86l-31.45 0c-4.36,0 -7.86,-3.58 -7.86,-7.95 0,-0.03 -0.01,-0.07 -0.01,-0.12 -0.12,-30.29 -24.7,-54.82 -55.02,-54.82 -30.41,0 -55.03,24.63 -55.03,55.03 0.56,4.78 -3.21,7.86 -7.86,7.86l-141.5 0c-4.38,0 -7.86,-3.58 -7.88,-7.95 0,-0.03 -0.01,-0.07 -0.01,-0.12 -0.11,-30.3 -24.69,-54.82 -55.01,-54.82 -30.4,0 -55.04,24.63 -55.04,55.03 0.57,4.78 -3.19,7.86 -7.86,7.86l-31.45 0c-4.34,0 -7.86,-3.52 -7.86,-7.86l0 -31.45c0,-4.34 3.52,-7.86 7.86,-7.86zm212.27 -74.68c0,2.18 1.76,3.93 3.93,3.93l102.52 0c3.63,0 5.28,-4.47 2.6,-6.91 -27.28,-24.87 -61.97,-39.09 -104.72,-42.86 -2.31,-0.21 -4.33,1.65 -4.33,3.96l0 41.88zm-94.45 0.04c0.02,2.15 1.77,3.89 3.93,3.89l70.86 0c2.17,0 3.93,-1.75 3.93,-3.93l0 -42.92c0,-2.18 -1.73,-3.98 -3.91,-3.98 -15.67,-0.01 -32.26,1.13 -49.89,3.57 -8.4,1.48 -15.88,3.51 -22.69,6 -1.56,0.57 -2.56,2.09 -2.55,3.76l0.32 33.61zm-41.04 3.89l21.38 0c2.19,0 3.96,-1.78 3.94,-3.96l-0.21 -21.31c-0.04,-3.25 -3.73,-5.01 -6.36,-3.09 -8.49,6.21 -15.56,13.6 -21.85,22 -1.97,2.62 -0.16,6.36 3.1,6.36zm284.86 133.65c13,0 23.58,-10.59 23.58,-23.59 0,-12.99 -10.58,-23.58 -23.58,-23.58 -13,0 -23.59,10.59 -23.59,23.58 0,13 10.59,23.59 23.59,23.59zm240.52 -92.22c0,-124.83 -94.7,-231.89 -229.53,-277.34 -16.95,-5.7 -34.55,-10.47 -52.68,-14.13 -6.08,-1.24 -12.23,-2.35 -18.43,-3.35 -6.37,-1.02 -12.8,-1.92 -19.29,-2.65 -13.32,-1.58 -26.86,-2.56 -40.6,-2.96 -4.52,-0.12 -9.07,-0.18 -13.64,-0.18 -1.92,0 -3.83,0.01 -5.73,0.02 -6.16,0.07 -12.27,0.27 -18.36,0.59 -61.85,3.14 -119.64,18.38 -169.7,42.79 -7.5,3.66 -14.84,7.51 -21.98,11.57 -6.85,3.89 -13.53,7.97 -20.03,12.23 -10.39,6.78 -20.31,13.99 -29.74,21.62 -6.97,5.63 -13.67,11.51 -20.08,17.59 -55.24,52.38 -88.55,120.16 -88.55,194.2 0,166.02 167.52,300.61 374.17,300.61 206.65,0 374.17,-134.59 374.17,-300.61z"/>
 </g>
</svg>
