<?xml version="1.0" encoding="UTF-8"?>
<!DOCTYPE svg PUBLIC "-//W3C//DTD SVG 1.1//EN" "http://www.w3.org/Graphics/SVG/1.1/DTD/svg11.dtd">
<!-- Creator: CorelDRAW 2018 (64-Bit) -->
<svg xmlns="http://www.w3.org/2000/svg" xml:space="preserve" width="8.4666mm" height="8.4666mm" version="1.1" style="shape-rendering:geometricPrecision; text-rendering:geometricPrecision; image-rendering:optimizeQuality; fill-rule:evenodd; clip-rule:evenodd"
viewBox="0 0 846.66 846.66"
 xmlns:xlink="http://www.w3.org/1999/xlink">
 <defs>
  <style type="text/css">
   <![CDATA[
    .fil0 {fill:#1A1A1A}
   ]]>
  </style>
 </defs>
 <g id="Layer_x0020_1">
  <metadata id="CorelCorpID_0Corel-Layer"/>
  <path class="fil0" d="M463.59 572.57c-28.52,-12.34 -35.75,-33.07 -35.15,-71.82 0.55,-35.89 0.91,-72.86 0.09,-108.72l-301.58 1.09c7.26,-26.82 22.09,-73.9 33.52,-99.22 13.63,-30.19 36.41,-55.76 75.58,-59.66 49.59,-4.93 143.92,1.25 202.02,-0.46 11.91,-0.35 16.2,-2.4 24.51,-5.47 17.49,-6.44 16.81,-0.88 16.59,-17.73 -11.67,-5.22 -222.94,-4.33 -247.79,-1.03 -85.19,11.33 -96.1,95.21 -115.45,139.16 -27.94,2.22 -54.65,0.54 -68.85,19.48 -21.75,29.01 6.04,41.65 24.94,51.85 -41.62,38.29 -28.88,100.32 -31.59,151.51 -1.22,23.1 -20.98,26.5 -12.02,98.47 5.03,40.43 60.33,29.27 119.36,29.29 74.82,0.03 580.18,3.05 596.2,-2.27 22.91,-7.62 20.53,-30.25 20.49,-54.82 -0.07,-42.06 2.56,-36.04 -15.24,-64.48 -48.69,-2.22 -260.36,5.97 -285.63,-5.17zm106.08 -317.02l142.3 0.19c1.11,-28.76 3.97,-62.54 -8.62,-84.27 -28.12,-48.56 -94.82,-49.35 -123.41,-2.79 -13.83,22.51 -12.51,57.02 -10.27,86.87zm53.77 170.85c-3.05,15.13 -11.63,41.19 -9.47,54.01 14.74,5.99 36.86,4.37 52.96,1.69 2.26,-13.43 0.29,-17.48 -3.16,-30.43 -12.66,-47.55 7.81,-22.68 11.67,-53.85 5.17,-41.74 -44.85,-52.32 -64.08,-24.28 -16.58,24.18 2.96,39.88 12.08,52.86zm30.25 232.16l3.54 0.02c27.59,0.19 35.16,-9.09 25.85,-31.29l-22.23 -3.36c-46.8,-5.57 -53.21,34.31 -7.16,34.63zm-538.96 -32.04c-33.43,16.65 10.89,44.56 44.25,30.09 11.72,-5.08 14.95,-23.06 1,-29.82 -9.44,-4.58 -36.84,-4.47 -45.25,-0.27zm186.35 1.21c2.11,15.64 8.53,12.86 23.59,12.85l134.59 0.11c21.69,0.32 29.74,5.21 31.93,-13.22 -41.95,-3.97 -139.77,-3.75 -190.11,0.26zm190.43 -31.52c-14.67,-13.95 -76.55,-5.59 -106.7,-5.68 -14.52,-0.05 -63.22,-1.96 -74.02,0.38 -12.71,2.76 -16.52,11 -0.25,14.29l169.5 0.41c16.26,-3.1 7.71,0.11 11.47,-9.4zm-406.54 -131.54c-15.33,7.48 -17.48,14.82 -14.06,34.98 3.41,20.04 4.94,24.1 23.47,24.72 14.17,0.48 93.8,1.47 102.58,-0.33 18.99,-3.89 16.42,-30.46 -28.64,-47.46 -17.47,-6.6 -64.35,-21.17 -83.35,-11.91zm133.23 278.19l0.21 -33.99 -164.58 -1.68c1.59,72.99 -0.33,60.01 97.48,60.24 62.62,0.15 55.22,4.93 66.89,-24.57zm522.05 3.16l-1.45 -37.16 -164.03 -1.64c-0.29,22.89 -2.92,40.22 9.47,57.3 17.44,5.6 123.08,4.63 143.48,0.89l12.53 -19.39zm-277.32 -471.87c-3.84,60.9 0.09,157.93 -0.69,226.62 -0.37,31.79 2.38,42.98 35.57,43.4 50.26,0.64 101.92,-0.34 152.35,-0.43 50.67,-0.09 105.35,1.99 155.65,-0.62 20.58,-21.99 13.63,-35.79 13.6,-70.73 -0.02,-29.48 0,-58.97 0.01,-88.45 0.07,-139.62 8.66,-120.84 -50.73,-129.22 -1.28,-58.33 4.92,-82.42 -26.28,-125.72 -17.75,-24.63 -54.1,-51.29 -102.89,-50.79 -45.99,0.48 -83.5,24.67 -101.87,51.74 -32.64,48.06 -20.63,66.04 -25.63,125.9 -25.56,0 -40.86,-4.06 -49.09,18.3z"/>
 </g>
</svg>
