<?xml version="1.0" encoding="UTF-8"?>
<!DOCTYPE svg PUBLIC "-//W3C//DTD SVG 1.1//EN" "http://www.w3.org/Graphics/SVG/1.1/DTD/svg11.dtd">
<!-- Creator: CorelDRAW 2018 (64-Bit) -->
<svg xmlns="http://www.w3.org/2000/svg" xml:space="preserve" width="8.4666mm" height="8.4666mm" version="1.1" style="shape-rendering:geometricPrecision; text-rendering:geometricPrecision; image-rendering:optimizeQuality; fill-rule:evenodd; clip-rule:evenodd"
viewBox="0 0 846.66 846.66"
 xmlns:xlink="http://www.w3.org/1999/xlink">
 <defs>
  <style type="text/css">
   <![CDATA[
    .fil0 {fill:#1A1A1A}
   ]]>
  </style>
 </defs>
 <g id="Layer_x0020_1">
  <metadata id="CorelCorpID_0Corel-Layer"/>
  <path class="fil0" d="M356.9 290.53c22.48,-3 30.32,-8.05 59.17,-4.8 35.13,3.95 38.28,10.37 51.63,13.6l42.4 -42.22c11.95,-11.94 27.03,-30.94 55.49,-29.73 47.12,2.02 74.33,58.51 34.84,97.91 -28.56,28.5 -56.55,56.26 -84.95,84.93 -11.08,11.19 -31.32,33.55 -44.73,40.14 -9.56,4.7 -23.76,7.08 -36,4.18 -5.68,-1.34 -11.06,-3.29 -15.49,-5.75l-12.5 -8.73 -59.78 59.83c7.59,10.7 34.15,26.32 48.47,31.7 44.31,16.64 90.28,11.04 129.49,-14 16.53,-10.55 30.21,-26.21 42.6,-38.69 27.07,-27.25 53.73,-53.56 80.8,-80.79 28.92,-29.1 53.83,-56.45 56.3,-105.81 2.06,-41.3 -11.25,-75.3 -36.52,-104.4 -29.93,-34.46 -84.67,-53.61 -132.77,-43.12 -50.58,11.03 -72.07,38.75 -97.56,64.03 -13.82,13.7 -26.77,26.94 -40.62,40.62 -5.99,5.91 -38.27,36.93 -40.27,41.1zm130.65 266.41c-9.17,4.19 -46.21,8.59 -58.54,7.64 -25.29,-1.96 -38.15,-11.64 -52.72,-14.77 -4.51,3.24 -35.46,35.09 -42.26,41.85 -12.54,12.47 -26.31,30.17 -56.58,27.49 -23.47,-2.08 -41.41,-18.85 -47.08,-36.85 -9.16,-29.03 3,-48.7 17.04,-62.49l104.84 -104.76c16.06,-16.1 33.32,-28.98 59.57,-22.78 18.93,4.47 21.79,11.91 28.49,14.68 3.01,-4.26 10.35,-10.77 14.5,-14.92 8.08,-8.09 42.31,-41.12 44.46,-45.27 -9.08,-12 -34.77,-26.34 -48.72,-31.74 -42.74,-16.54 -91.22,-10.55 -128.83,14.06 -16.56,10.84 -30.32,25.95 -42.76,38.55 -26.97,27.33 -53.8,53.48 -80.79,80.79 -13.2,13.36 -25.32,24.12 -36.79,43.51 -22.57,38.18 -26.48,88.93 -7.17,129.59 5.53,11.64 15.1,28.39 24.07,36.84 2.06,1.94 2.88,3.37 4.83,5.3 15.52,15.41 32.18,25.74 56.17,34.23 20.33,7.19 49,8.95 71.2,4.26 51.06,-10.77 72.51,-38.79 97.53,-64.21 15.29,-15.53 77.39,-75.84 79.54,-81z"/>
 </g>
</svg>
