<?xml version="1.0" encoding="UTF-8"?>
<!DOCTYPE svg PUBLIC "-//W3C//DTD SVG 1.1//EN" "http://www.w3.org/Graphics/SVG/1.1/DTD/svg11.dtd">
<!-- Creator: CorelDRAW 2018 (64-Bit) -->
<svg xmlns="http://www.w3.org/2000/svg" xml:space="preserve" width="8.4666mm" height="8.4666mm" version="1.1" style="shape-rendering:geometricPrecision; text-rendering:geometricPrecision; image-rendering:optimizeQuality; fill-rule:evenodd; clip-rule:evenodd"
viewBox="0 0 846.66 846.66"
 xmlns:xlink="http://www.w3.org/1999/xlink">
 <defs>
  <style type="text/css">
   <![CDATA[
    .fil0 {fill:#1A1A1A}
   ]]>
  </style>
 </defs>
 <g id="Layer_x0020_1">
  <metadata id="CorelCorpID_0Corel-Layer"/>
  <path class="fil0" d="M59.01 754.28l164.73 -40.74c6.28,-1.49 9.84,-2.03 12.36,-8.03l16.72 -88.22c0,-5.28 -6.43,-7.65 -11.02,-9.41l-58.91 -25.6c-6.89,-3.02 -22.15,-7.26 -17.07,-21.27 6.32,-17.29 24.03,-6.39 34.24,-1.72 6.28,2.87 13.16,5.66 20.2,8.95l30.19 13.66c5.43,2.83 7.3,5.59 9.26,0.19 0.38,-0.92 1.64,-10.33 2.14,-12.58l33.43 -172.42c0.96,-6.24 1.69,-7.39 -4.24,-5.71l-44.07 16.07c-6.89,2.8 -13.66,5.17 -21.27,7.85 -44.84,15.76 -42.74,10.06 -53.07,35.84 -2.67,6.77 -5.16,14 -7.76,21.35l-98.17 258.92c-2.56,6.62 -7.08,15.53 -7.69,22.87zm521.7 -549.39l0 64.11c0,3.6 3.83,8.95 12.55,2.41 5.4,-4.01 31.1,-21.15 32.02,-26.16 0.42,-2.34 -1.3,-6.85 -3.75,-6.85 -9.14,0 -19.58,14.92 -29.15,17.48l0.08 -48.16c0.15,-8.61 1.41,-11.56 -5.93,-11.56 -4.48,0 -5.82,4.29 -5.82,8.73zm-48.08 371.62c6.73,-4.52 10.36,-10.33 15.68,-16.38 5.47,-6.23 11.9,-10.48 16.37,-17.14l-63.27 -48.92c-10.79,-8.46 -20.7,-15.69 -31.1,-24.3 -7.54,-6.16 -24.76,-20.39 -32.41,-24.41 0,17.33 -3.63,58.35 3.45,65 1.83,1.72 6.39,4.67 8.49,6.12 6.16,4.13 10.83,7.85 16.79,12.36 2.99,2.26 5.02,3.44 7.69,5.39 3.45,2.45 4.21,3.72 8.15,6.43 6.39,4.44 10.91,7.88 16.87,12.32l24.26 17.98c3.78,2.64 4.93,4.44 9.03,5.55zm-243.35 -1.46c7.53,-0.65 89.98,-51.64 106.27,-61.28 3.83,-2.3 13.2,-6.32 13.2,-11.59l0 -74.34c0,-4.74 -3.86,-4.86 -8.07,-6.46 -4.44,-1.76 -6.77,-2.95 -11.29,-4.78 -7.8,-3.1 -14.72,-6.13 -21.61,-8.96l-32.06 -13.12c-4.82,-1.8 -6.73,-3.44 -11.48,-4.55 -2.6,5.36 -7.42,36.23 -8.91,44.99l-26.05 140.09zm377.4 -316.22c0,46.33 -28.39,80.18 -75.98,82.86 -17.9,0.99 -40.94,-8.11 -54.1,-21.27 -8.79,-8.88 -18.7,-22.11 -21.61,-35.2 -4.44,-19.81 -4.28,-33.55 4.09,-53.1 2.26,-5.31 3.33,-6.92 6.47,-11.01 6.5,-8.65 5.51,-8.88 13.54,-15.57l4.06 -3.26c3.98,-2.98 7.07,-4.78 11.78,-7.11 21.5,-10.83 47.05,-10.29 69.05,0 19.32,8.99 34.93,29.57 40.17,50.23l2.53 13.43zm-179.23 0c0,28.15 4.43,45.06 19.35,65.15 58.65,79 168.41,36.11 181.8,-36 3.75,-20.32 4.78,-40.63 -4.86,-62.21 -15.69,-35.08 -49.43,-63.16 -88.45,-63.16 -21.42,0 -31.18,0.5 -51.03,10.18 -30.84,15.07 -56.81,49.46 -56.81,86.04zm-49.55 492.55c3.68,-1.76 11.94,-3.41 16.99,-4.86l128.73 -34.47c-0.3,-4.02 -1.83,-11.59 -2.6,-14.88l-20.7 -107.54c-13.35,7.04 -15.72,17.25 -24.75,23.3 -5.89,-1.38 -18.86,-11.9 -24.6,-16.22l-73.07 -53.72 0 208.39zm-174.87 -40.78c35.54,8.26 88.64,24.33 127.28,34.43 5.89,1.6 12.78,4.4 18.44,4.89l0 -209.87c-6.35,1.49 -42.12,23.34 -50.38,28.31l-73.65 44.41c-3.94,3.6 -4.2,8.15 -5.43,13.55 -5.74,25.59 -10.67,60.25 -16.26,84.28zm171.97 -435.74c0,-20.2 4.51,-36.35 10.59,-53.56 6.97,-19.86 16.72,-38.83 31.3,-53.22 12.89,-12.78 25.74,-24.18 42.65,-31.67 39.29,-17.45 76.48,-19.48 116.76,-6.05l24.56 11.86c17.71,11.78 13.28,6.89 31.72,25.14 11.36,11.24 23.06,28.08 29.3,43.53 4.02,9.87 6.27,16.34 8.99,27.47 10.1,41.81 2.79,79.5 -19.28,114.88 -7.27,11.71 -6.24,8.84 -14.5,19.06 -10.48,12.96 -67.41,69.24 -82.14,83.97l-13.88 13.81c-5.21,5.09 -8.27,10.44 -14.54,14.61 -2.91,-4.4 -6.62,-7.34 -10.52,-11.28l-80.91 -77.97c-32.79,-32.82 -60.1,-69.09 -60.1,-120.58zm-27.7 -10.22l0.53 20.05c0.27,1.99 0.39,3.36 0.54,5.12 2.79,28.93 10.14,42.66 25.75,66.07 23.64,35.39 44.45,57.16 71.46,87.34 4.78,5.36 8.03,8.42 12.85,13.39l4.82 5.43c2.95,3.33 -1.72,-1.72 1.34,1.53 2.18,2.3 1.92,1.8 3.67,3.64l3.49 3.82c8.11,9.38 17.21,17.6 26.01,26.4 4.48,4.52 8.34,8.99 13.39,12.89 5.59,4.29 10.25,8.23 13.93,13.74 8.91,-5.97 131.6,-129.39 133.47,-131.8 11.36,-14.69 11.86,-12.2 23.11,-30.79 33.93,-56.12 28.69,-132.1 -6.16,-187.46 -5.82,-9.29 -13.58,-17.52 -20.81,-25.82l-4.25 -4.52c-0.3,-0.3 -1.18,-1.1 -1.49,-1.41l-1.57 -1.38c-1.22,-1.07 -1.72,-1.49 -3.1,-2.71 -11.02,-9.95 -25.29,-20.51 -38.87,-26.75 -10.4,-4.74 -18.55,-8.68 -31.37,-12.31 -52.29,-14.96 -109.83,-4.63 -152.22,27.27 -25.25,19.02 -44.3,42.12 -58.03,71.7 -4.82,10.4 -7.92,19.09 -10.94,31.29l-4.6 27.31c0,0.04 -0.42,3.98 -0.42,3.98 -0.23,2.26 -0.53,0.27 -0.53,3.98zm380.34 489.64c-0.72,-8.79 -8.87,-27.39 -12.28,-35.76 -5.01,-12.51 -8.6,-23.53 -13.5,-36.04 -9.45,-24.22 -18.17,-47.29 -27.51,-71.62l-36.84 -97.21c-3.52,-9.18 -14.27,-39.82 -17.67,-44.99 -12.13,8.11 -67.37,69.02 -81.72,81.49 -16.14,14.08 -13.58,17.56 -9.26,38.64 4.33,21.31 7.2,40.09 11.44,61.44 1.88,9.29 9.49,55.89 13.05,59.75 4.78,5.13 100.57,25.83 116.03,29.77l58.26 14.53z"/>
 </g>
</svg>
