<?xml version="1.0" encoding="UTF-8"?>
<!DOCTYPE svg PUBLIC "-//W3C//DTD SVG 1.1//EN" "http://www.w3.org/Graphics/SVG/1.1/DTD/svg11.dtd">
<!-- Creator: CorelDRAW 2018 (64-Bit) -->
<svg xmlns="http://www.w3.org/2000/svg" xml:space="preserve" width="8.4666mm" height="8.4666mm" version="1.1" style="shape-rendering:geometricPrecision; text-rendering:geometricPrecision; image-rendering:optimizeQuality; fill-rule:evenodd; clip-rule:evenodd"
viewBox="0 0 846.66 846.66"
 xmlns:xlink="http://www.w3.org/1999/xlink">
 <defs>
  <style type="text/css">
   <![CDATA[
    .fil0 {fill:#1A1A1A}
   ]]>
  </style>
 </defs>
 <g id="Layer_x0020_1">
  <metadata id="CorelCorpID_0Corel-Layer"/>
  <path class="fil0" d="M710.63 553.52c23.32,0 42.3,18.97 42.3,42.3 0,23.32 -18.97,42.3 -42.3,42.3 -23.33,0 -42.3,-18.98 -42.3,-42.3 0,-23.33 18.97,-42.3 42.3,-42.3zm-205.05 -275.07c110.13,26.45 186.74,85.31 186.74,153.66 0,11.17 -2.06,22.09 -5.97,32.65 -48.72,-49.4 -120.5,-67.89 -213.77,-55 -0.1,0.02 -0.2,0.04 -0.31,0.06 -54.6,9.56 -79.32,38.54 -97.3,68.99l-47.73 15.92c-3.46,1.15 -5.79,4.39 -5.79,8.02l0 50.77c-4.67,0 -8.46,3.79 -8.45,8.45l0 33.85c0,0.56 0.06,1.11 0.16,1.65 -145.75,-15.26 -255.69,-83.48 -255.69,-165.36 0,-38.05 23.73,-73.16 63.77,-101.37 2.15,12.3 12.9,21.68 25.81,21.68 14.45,0 26.21,-11.75 26.21,-26.2 0,-8.04 -3.64,-15.24 -9.36,-20.05l2.56 -1.2c2.54,-1.17 5.1,-2.33 7.71,-3.45 5.94,6.51 9.56,15.19 9.56,24.7 -0.37,3.18 2.13,5.24 5.24,5.24l94.32 0c2.91,0 5.23,-2.39 5.24,-5.3 0,-0.02 0,-0.05 0,-0.08 0.08,-20.19 16.46,-36.54 36.68,-36.54 20.26,0 36.68,16.42 36.68,36.68 -0.38,3.18 2.13,5.24 5.23,5.24l20.97 0c2.89,0 5.24,-2.35 5.24,-5.24l0 -20.96c0,-2.89 -2.35,-5.24 -5.24,-5.24l0 -31.44c0,-2.23 -1.43,-4.24 -3.56,-4.95 15.32,0.23 30.36,1.05 45.05,2.41 5.32,0.5 10.59,1.05 15.81,1.68 5.84,0.7 11.62,1.49 17.34,2.36 14.75,2.26 29.06,5.06 42.85,8.37zm-23.6 312.38c-5.52,1.04 -11.1,2.01 -16.75,2.9 -1.09,-22.36 -19.63,-40.21 -42.25,-40.21 -23.33,0 -42.3,18.97 -42.31,42.3 0,1.63 0.1,3.23 0.28,4.81l-6.06 0.04c-4.05,0 -8.08,-0.05 -12.09,-0.13 0.8,-1.3 1.17,-2.9 0.95,-4.72 0,-32.71 26.52,-59.22 59.23,-59.22 31.03,0 56.47,23.86 59,54.23zm-33.63 5.29c-16.34,2.06 -33.17,3.45 -50.37,4.1 -0.25,-1.43 -0.38,-2.9 -0.38,-4.4 0,-13.99 11.39,-25.38 25.38,-25.38 13.99,0 25.37,11.39 25.37,25.38l0 0.3zm13.91 15.38c-6.23,15.58 -21.5,26.62 -39.28,26.62 -15.51,0 -29.11,-8.4 -36.47,-20.88 -3.86,0.07 -7.73,0.11 -11.62,0.11 -192.65,0 -348.83,-82.94 -348.83,-185.24 0,-37.25 20.7,-71.92 56.32,-100.96 -2,-0.73 -3.44,-2.67 -3.44,-4.93l0 -20.96c0,-2.89 2.35,-5.24 5.23,-5.24l0.61 -13.01c0.39,-8.27 4.53,-16.04 11.49,-20.5 13.46,-8.61 36.34,-13.3 58.75,-13.62 30.11,-36.44 77,-50.54 139.47,-41.9 0.06,0.01 0.12,0.02 0.19,0.04 29.92,5.23 45.35,19.9 56.22,36.27l1.54 -0.06c5.66,-0.19 11.37,-0.31 17.11,-0.35 1.78,-0.01 3.55,-0.02 5.34,-0.02 4.26,0 8.5,0.04 12.72,0.12 12.8,0.25 25.43,0.85 37.85,1.81 6.05,0.46 12.04,1.02 17.99,1.64 5.77,0.62 11.5,1.3 17.18,2.07 16.89,2.26 33.3,5.19 49.11,8.71 125.7,28 213.98,93.97 213.98,170.89 0,15.85 -3.76,31.24 -10.81,45.93 31.05,2.12 61.01,9.4 79.71,21.36 11.25,7.22 17.92,19.76 18.55,33.11l0.98 21.01c4.67,0 8.46,3.79 8.46,8.45l0 33.85c0,4.67 -3.79,8.46 -8.46,8.46l-33.84 0c-4.7,0 -8.45,-3.86 -8.46,-8.56 0,-0.04 -0.01,-0.08 -0.01,-0.13 -0.13,-32.6 -26.58,-58.99 -59.21,-58.99 -32.71,0 -59.22,26.51 -59.22,59.22 0.6,5.13 -3.45,8.46 -8.46,8.46l-139.12 0c-13.47,2.85 -27.33,5.27 -41.57,7.22zm-39.28 9.69c6.84,0 13.06,-2.72 17.62,-7.13 -10.61,1.07 -21.38,1.89 -32.31,2.44 4.14,2.96 9.22,4.69 14.69,4.69zm126.9 -148.05c0,2.34 1.89,4.23 4.23,4.23l110.33 0c3.91,0 5.69,-4.8 2.8,-7.43 -29.35,-26.76 -66.69,-42.07 -112.7,-46.14 -2.48,-0.22 -4.66,1.78 -4.66,4.26l0 45.08zm-101.64 0.04c0.02,2.32 1.91,4.19 4.23,4.19l76.26 0c2.34,0 4.23,-1.89 4.23,-4.23l0 -46.19c0,-2.35 -1.87,-4.28 -4.2,-4.28 -16.88,-0.01 -34.73,1.22 -53.7,3.84 -9.04,1.59 -17.09,3.77 -24.42,6.46 -1.68,0.61 -2.75,2.25 -2.74,4.04l0.34 36.17zm-44.16 4.19l23.01 0c2.35,0 4.25,-1.92 4.23,-4.27l-0.23 -22.93c-0.03,-3.49 -4.01,-5.39 -6.83,-3.32 -9.14,6.68 -16.75,14.64 -23.53,23.68 -2.11,2.82 -0.17,6.84 3.35,6.84zm306.55 143.82c13.99,0 25.38,-11.38 25.38,-25.37 0,-13.99 -11.39,-25.38 -25.38,-25.38 -14,0 -25.39,11.39 -25.39,25.38 0,13.99 11.39,25.37 25.39,25.37zm-579.12 -297.3c6.75,-4.28 13.89,-8.37 21.38,-12.26 5.78,2.32 9.88,7.99 9.88,14.59 0,8.67 -7.05,15.72 -15.72,15.72 -8.66,0 -15.72,-7.05 -15.72,-15.72 0,-0.79 0.07,-1.57 0.18,-2.33zm193.7 -23.87c-14.44,0 -26.2,11.75 -26.2,26.2 0,14.45 11.76,26.2 26.2,26.2 14.45,0 26.2,-11.75 26.2,-26.2 0,-14.45 -11.75,-26.2 -26.2,-26.2zm0 41.92c-8.67,0 -15.72,-7.05 -15.72,-15.72 0,-8.66 7.05,-15.72 15.72,-15.72 8.66,0 15.72,7.06 15.72,15.72 0,8.67 -7.06,15.72 -15.72,15.72zm-210.35 -33.3c6.22,-11.38 18.31,-19.1 32.19,-19.1 1.53,0 3.03,0.1 4.5,0.28 -8.41,3.73 -16.49,7.66 -24.21,11.78 -4.28,2.28 -8.44,4.63 -12.48,7.04zm131.75 -58.4c0,1.45 -1.17,2.62 -2.62,2.62l-68.33 0c-2.42,0 -3.52,-2.97 -1.74,-4.6 18.19,-16.58 41.31,-26.05 69.8,-28.57 1.54,-0.14 2.89,1.09 2.89,2.63l0 27.92zm39.91 2.62l-26.81 0c-1.45,0 -2.62,-1.17 -2.62,-2.62l0 -28.61c0,-1.45 1.16,-2.64 2.61,-2.64 10.44,-0.01 21.5,0.75 33.25,2.37 5.6,0.98 10.58,2.34 15.12,4 1.04,0.38 1.71,1.39 1.7,2.51l-0.21 22.24c-7.78,0.78 -15.46,1.7 -23.04,2.75zm33.54 -3.71l0.12 -13.13c0.02,-2.17 2.49,-3.34 4.23,-2.06 5.41,3.95 9.95,8.62 14,13.91 -6.16,0.34 -12.28,0.77 -18.35,1.28z"/>
 </g>
</svg>
