<?xml version="1.0" encoding="UTF-8"?>
<!DOCTYPE svg PUBLIC "-//W3C//DTD SVG 1.1//EN" "http://www.w3.org/Graphics/SVG/1.1/DTD/svg11.dtd">
<!-- Creator: CorelDRAW 2018 (64-Bit) -->
<svg xmlns="http://www.w3.org/2000/svg" xml:space="preserve" width="17mm" height="17mm" version="1.1" style="shape-rendering:geometricPrecision; text-rendering:geometricPrecision; image-rendering:optimizeQuality; fill-rule:evenodd; clip-rule:evenodd"
viewBox="0 0 423.32 423.32"
 xmlns:xlink="http://www.w3.org/1999/xlink">
 <defs>
  <style type="text/css">
   <![CDATA[
    .fil0 {fill:url(#id0)}
   ]]>
  </style>
  <linearGradient id="id0" gradientUnits="userSpaceOnUse" x1="24.62" y1="278.82" x2="512.04" y2="284.06">
   <stop offset="0" style="stop-opacity:1; stop-color:#009846"/>
   <stop offset="0.529412" style="stop-opacity:1; stop-color:#EC6B1E"/>
   <stop offset="1" style="stop-opacity:1; stop-color:#E63D24"/>
  </linearGradient>
 </defs>
 <g id="Layer_x0020_1">
  <metadata id="CorelCorpID_0Corel-Layer"/>
  <path class="fil0" d="M218.83 274.82c9.26,0 16.77,-7.55 16.77,-16.8 0,-9.24 -7.51,-16.73 -16.77,-16.73l-75.94 -55.86 59.19 73.66c0.55,8.78 7.85,15.73 16.75,15.73zm137.95 -155.43c-38.76,-38.77 -90.31,-60.12 -145.13,-60.12 -54.82,0 -106.37,21.35 -145.13,60.12 -38.77,38.76 -60.11,90.31 -60.11,145.13 0,35.4 8.91,69.42 25.66,99.52l38.35 0 28.07 -16.2 -12.39 -21.46 -36.09 20.83c-12.75,-24.82 -19.95,-52.92 -19.95,-82.69 0,-5.26 0.25,-10.48 0.68,-15.64l43.03 7.59 4.3 -24.4 -43.52 -7.68c7.77,-34.34 25.31,-65.01 49.53,-88.95l29.49 35.14 18.98 -15.92 -29.71 -35.42c27.25,-20.45 60.41,-33.43 96.42,-35.87l0 47.01 24.78 0 0 -47.01c36.01,2.44 69.18,15.42 96.42,35.87l-29.72 35.42 18.99 15.92 29.49 -35.14c24.21,23.94 41.76,54.61 49.53,88.95l-43.52 7.68 4.3 24.4 43.02 -7.59c0.43,5.16 0.68,10.38 0.68,15.64 0,29.77 -7.2,57.87 -19.95,82.69l-36.08 -20.83 -12.39 21.46 28.06 16.2 38.37 0c16.74,-30.1 25.66,-64.13 25.66,-99.52 0,-54.82 -21.35,-106.37 -60.12,-145.13zm-228.84 244.65l167.41 0 0 -39.73 -167.41 0 0 39.73z"/>
 </g>
</svg>
