<?xml version="1.0" encoding="UTF-8"?>
<!DOCTYPE svg PUBLIC "-//W3C//DTD SVG 1.1//EN" "http://www.w3.org/Graphics/SVG/1.1/DTD/svg11.dtd">
<!-- Creator: CorelDRAW 2018 (64-Bit) -->
<svg xmlns="http://www.w3.org/2000/svg" xml:space="preserve" width="12.2128mm" height="12.2128mm" version="1.1" style="shape-rendering:geometricPrecision; text-rendering:geometricPrecision; image-rendering:optimizeQuality; fill-rule:evenodd; clip-rule:evenodd"
viewBox="0 0 1221.28 1221.28"
 xmlns:xlink="http://www.w3.org/1999/xlink">
 <defs>
  <style type="text/css">
   <![CDATA[
    .fil0 {fill:red}
   ]]>
  </style>
 </defs>
 <g id="Layer_x0020_1">
  <metadata id="CorelCorpID_0Corel-Layer"/>
  <path class="fil0" d="M30.7 806.26c11.62,35.74 24.89,65.96 41.19,94.87 180.74,320.48 599.62,425.16 902.8,199.54 53.06,-39.5 107.82,-100.58 145.39,-153.52 113.48,-159.95 134.12,-408.53 48.73,-586.98 -60.94,-127.35 -156.54,-235.83 -287.61,-298.91 -164.91,-79.37 -375.34,-84.01 -539.67,0.17 -64.16,32.86 -115.42,67.91 -157.99,108.73 -169.65,162.68 -224.46,415.87 -152.84,636.1zm680.81 -310.1c-8.33,-13.69 -20.32,-18.83 -32.66,-32.26 -13.21,-14.37 -21.81,-26.97 -35.04,-41.43l-76.39 -78.18 -207.21 549.85 229.21 -264.92c17.85,-19.78 19.91,-18.26 30.68,-40.16 45.47,25.35 81.16,95.04 115.96,112.86 40.56,-26.69 88,-97.84 130.04,-133.04 46.55,-38.98 92.82,-90.73 128.97,-133.31 -12.85,-19.84 -103.13,-142 -117.56,-152.91 -19.09,13.47 -148.34,197.29 -166,213.5zm-334.38 -318.26l103.16 136.55c35.4,42.97 1.04,72.92 -29.96,180.2 -1.27,-0.93 -3.18,-3.89 -3.79,-2.83l-88.04 -110.26c-29.82,-37.94 -56.97,-76.19 -90.29,-115.9 -68.06,35.67 -136.64,198.15 -145.3,298.52 -28.1,325.73 257.73,583.17 573.04,529.2 42.71,-7.31 140.03,-35.58 163.61,-62.13l-247.09 -321.89c5.71,-12.49 9.67,-20.72 20.23,-29.26l101.71 95.98c16.33,-19.49 36.84,-42.08 56.05,-53.54l133.95 169.29c13.91,17.15 28.63,41.84 44.36,55.32 243.61,-229.72 153.01,-710.13 -227.91,-811.21 -60.35,-16.01 -131.35,-21.29 -196.12,-12.01 -77.08,11.05 -108.41,32.14 -167.61,53.97z"/>
 </g>
</svg>
