<?xml version="1.0" encoding="UTF-8"?>
<!DOCTYPE svg PUBLIC "-//W3C//DTD SVG 1.1//EN" "http://www.w3.org/Graphics/SVG/1.1/DTD/svg11.dtd">
<!-- Creator: CorelDRAW 2018 (64-Bit) -->
<svg xmlns="http://www.w3.org/2000/svg" xml:space="preserve" width="8.4666mm" height="8.4666mm" version="1.1" style="shape-rendering:geometricPrecision; text-rendering:geometricPrecision; image-rendering:optimizeQuality; fill-rule:evenodd; clip-rule:evenodd"
viewBox="0 0 846.66 846.66"
 xmlns:xlink="http://www.w3.org/1999/xlink">
 <defs>
  <style type="text/css">
   <![CDATA[
    .fil0 {fill:#1A1A1A}
   ]]>
  </style>
 </defs>
 <g id="Layer_x0020_1">
  <metadata id="CorelCorpID_0Corel-Layer"/>
  <path class="fil0" d="M737.54 767.16l-521.7 0 0 -687.68 521.7 0 0 687.68zm-533.55 -213.42l-94.85 0 0 -94.84 94.85 0 0 94.84zm0 142.28l-94.85 0 0 -118.57 94.85 0 0 118.57zm0 -260.85l-94.85 0 0 -94.84 94.85 0 0 94.84zm0 -237.12l-94.85 0 0 -118.57 94.85 0 0 118.57zm0 118.55l-94.85 0 0 -94.85 94.85 0 0 94.85zm201.56 201.56c0,6.56 5.32,11.88 11.85,11.88l118.57 0c6.54,0 11.86,-5.32 11.86,-11.88 0,-6.56 -5.32,-11.85 -11.86,-11.85l-118.57 0c-6.53,0 -11.85,5.29 -11.85,11.85zm177.86 35.58l-213.42 0c-6.56,0 -11.87,5.3 -11.87,11.85 0,6.56 5.31,11.86 11.87,11.86l213.42 0c6.53,0 11.85,-5.3 11.85,-11.86 0,-6.55 -5.32,-11.85 -11.85,-11.85zm0 47.43l-213.42 0c-6.56,0 -11.87,5.3 -11.87,11.86 0,6.55 5.31,11.85 11.87,11.85l213.42 0c6.53,0 11.85,-5.3 11.85,-11.85 0,-6.56 -5.32,-11.86 -11.85,-11.86z"/>
 </g>
</svg>
