<?xml version="1.0" encoding="UTF-8"?>
<!DOCTYPE svg PUBLIC "-//W3C//DTD SVG 1.1//EN" "http://www.w3.org/Graphics/SVG/1.1/DTD/svg11.dtd">
<!-- Creator: CorelDRAW 2018 (64-Bit) -->
<svg xmlns="http://www.w3.org/2000/svg" xml:space="preserve" width="8.4666mm" height="8.4666mm" version="1.1" style="shape-rendering:geometricPrecision; text-rendering:geometricPrecision; image-rendering:optimizeQuality; fill-rule:evenodd; clip-rule:evenodd"
viewBox="0 0 846.66 846.66"
 xmlns:xlink="http://www.w3.org/1999/xlink">
 <defs>
  <style type="text/css">
   <![CDATA[
    .fil0 {fill:#1A1A1A}
   ]]>
  </style>
 </defs>
 <g id="Layer_x0020_1">
  <metadata id="CorelCorpID_0Corel-Layer"/>
  <path class="fil0" d="M92.17 415.33l0 16.03c2.34,6.99 0.47,18.36 9.26,41.65 7.49,19.83 17.02,32.62 30.17,46.67 8.13,8.69 18.06,16.27 28.5,22.52 30.31,18.16 68.39,24.06 104.28,14.97 19.49,-4.94 53.19,-21.8 64.17,-37.48l151.01 80.41c-3.24,31.98 2.59,59.95 18.14,86.63 2.49,4.28 4.41,7.03 7.1,10.78 3.49,4.85 12.06,15.05 16.33,18.8 10.21,8.95 17.5,15.26 30.77,22.22 29.93,15.71 46.81,13.33 54.15,15.94l21.32 0.01c8.41,-3.1 33.45,-0.16 69.63,-25.66 6.88,-4.85 19.46,-16.08 24.77,-22.96 1.24,-1.6 2.31,-2.66 3.58,-4.35 14.28,-18.92 22.7,-36.27 27.08,-60.3 0.69,-3.82 0.96,-10.5 2.05,-13.69l0 -21.64c-1.04,-3.21 -0.98,-7.89 -1.55,-11.29 -14.23,-84.73 -100.13,-136.3 -180.45,-108.89 -13.47,4.6 -25.05,11.07 -35.18,17.81 -6.35,4.22 -20.36,16.65 -24.47,21.92 -1.15,1.48 -1.04,1.66 -2.74,3.1l-144.55 -76.6c1.07,-14.3 3.26,-14.5 2.65,-33.9 -0.51,-16 -3.96,-23.9 -4.49,-31.12 2.79,-2.31 6.54,-4.21 9.69,-6.2l68.88 -42.4c13.07,-8.2 26.5,-16.01 39.38,-24.18 5.52,-3.5 36.24,-22.88 39.7,-24.14 16.28,9.92 22.08,15.81 45.1,20.75 52.27,11.22 106.04,-18.42 125.08,-66.93 25.49,-64.93 -13.31,-135.2 -79.8,-149.3 -4.25,-0.9 -10.03,-0.81 -13.63,-2.33l-18.35 0c-3.39,1.41 -9.09,1.49 -13.04,2.26 -25.22,4.91 -47.91,19.49 -63.47,38.59 -8.14,9.99 -15.42,23.05 -20.12,38.17 -8.59,27.58 -2.29,44.86 -2.86,52.78 -6.54,4.41 -12.95,8.03 -19.61,12.14l-58.99 36.38c-24.6,14.62 -54.47,34.53 -78.34,48.18 -2.43,-0.86 -4.95,-3.61 -7.23,-5.39 -63.6,-49.62 -152.38,-35.59 -197.89,27.44 -25.94,35.92 -22.28,61.6 -26.03,72.6z"/>
 </g>
</svg>
