<?xml version="1.0" encoding="UTF-8"?>
<!DOCTYPE svg PUBLIC "-//W3C//DTD SVG 1.1//EN" "http://www.w3.org/Graphics/SVG/1.1/DTD/svg11.dtd">
<!-- Creator: CorelDRAW 2018 (64-Bit) -->
<svg xmlns="http://www.w3.org/2000/svg" xml:space="preserve" width="8.4666mm" height="8.4666mm" version="1.1" style="shape-rendering:geometricPrecision; text-rendering:geometricPrecision; image-rendering:optimizeQuality; fill-rule:evenodd; clip-rule:evenodd"
viewBox="0 0 846.66 846.66"
 xmlns:xlink="http://www.w3.org/1999/xlink">
 <defs>
  <style type="text/css">
   <![CDATA[
    .fil0 {fill:#1A1A1A}
   ]]>
  </style>
 </defs>
 <g id="Layer_x0020_1">
  <metadata id="CorelCorpID_0Corel-Layer"/>
  <path class="fil0" d="M176.27 274.63c-7.91,0 -14.33,6.42 -14.33,14.31 0,7.91 6.42,14.33 14.33,14.33 7.89,0 14.32,-6.42 14.32,-14.33 0,-7.89 -6.43,-14.31 -14.32,-14.31zm494.14 73.49c-69.19,0 -125.48,56.3 -125.48,125.48 0,34.28 18.69,79.07 55.57,133.11 26.37,38.66 52.41,67.9 53.5,69.13 4.18,4.67 10.15,7.33 16.41,7.33 6.26,0 12.22,-2.66 16.41,-7.33 1.09,-1.23 27.13,-30.47 53.5,-69.13 36.88,-54.04 55.57,-98.83 55.57,-133.11 0,-69.18 -56.29,-125.48 -125.48,-125.48zm0 183.8c-32.16,0 -58.32,-26.16 -58.32,-58.31 0,-32.16 26.16,-58.32 58.32,-58.32 32.15,0 58.31,26.16 58.31,58.32 0,32.15 -26.16,58.31 -58.31,58.31zm0 -72.64c-7.9,0 -14.33,6.43 -14.33,14.33 0,7.89 6.43,14.32 14.33,14.32 7.89,0 14.32,-6.43 14.32,-14.32 0,-7.9 -6.43,-14.33 -14.32,-14.33zm-100.94 179.9l-54.73 0c-38.79,0 -70.34,-31.55 -70.34,-70.33 0,-63.05 -51.29,-114.33 -114.33,-114.33l-52.88 0c-12.15,17.31 -23.95,32.54 -33.22,43.99l86.11 0c38.78,0 70.33,31.55 70.33,70.34 0,63.04 51.28,114.32 114.33,114.32l87.96 0c-9.27,-11.45 -21.08,-26.68 -33.23,-43.99zm-393.2 -475.71c-69.19,0 -125.49,56.28 -125.49,125.47 0,34.28 18.7,79.06 55.57,133.11 26.38,38.66 52.41,67.89 53.51,69.12 4.17,4.67 10.14,7.34 16.41,7.34 6.26,0 12.22,-2.67 16.39,-7.34 1.1,-1.22 27.13,-30.45 53.51,-69.12 36.87,-54.05 55.57,-98.83 55.57,-133.11 0,-69.19 -56.28,-125.47 -125.47,-125.47zm0 183.8c-32.17,0 -58.33,-26.16 -58.33,-58.33 0,-32.15 26.16,-58.31 58.33,-58.31 32.15,0 58.31,26.16 58.31,58.31 0,32.17 -26.16,58.33 -58.31,58.33z"/>
 </g>
</svg>
