<?xml version="1.0" encoding="UTF-8"?>
<!DOCTYPE svg PUBLIC "-//W3C//DTD SVG 1.1//EN" "http://www.w3.org/Graphics/SVG/1.1/DTD/svg11.dtd">
<!-- Creator: CorelDRAW 2018 (64-Bit) -->
<svg xmlns="http://www.w3.org/2000/svg" xml:space="preserve" width="8.4666mm" height="8.4666mm" version="1.1" style="shape-rendering:geometricPrecision; text-rendering:geometricPrecision; image-rendering:optimizeQuality; fill-rule:evenodd; clip-rule:evenodd"
viewBox="0 0 846.66 846.66"
 xmlns:xlink="http://www.w3.org/1999/xlink">
 <defs>
  <style type="text/css">
   <![CDATA[
    .fil0 {fill:#1A1A1A}
   ]]>
  </style>
 </defs>
 <g id="Layer_x0020_1">
  <metadata id="CorelCorpID_0Corel-Layer"/>
  <path class="fil0" d="M653 512.27c37.24,0 67.55,30.31 67.55,67.55 0,37.24 -30.3,67.55 -67.55,67.55 -37.25,0 -67.55,-30.3 -67.55,-67.55 0,-37.24 30.3,-67.55 67.55,-67.55zm76.58 -312.98c41.69,0 75.48,33.79 75.48,75.47 0,41.69 -33.79,75.47 -75.48,75.47 -41.68,0 -75.47,-33.78 -75.47,-75.47 0,-41.68 33.79,-75.47 75.47,-75.47zm-10.47 125.56l0 -72.66 20.96 0 0 72.66 -20.96 0zm0.01 -100.18l0 21.28 20.93 0 0 -21.28 -20.93 0zm-525.44 287.6c37.24,0 67.55,30.31 67.55,67.55 0,37.24 -30.3,67.55 -67.55,67.55 -37.25,0 -67.55,-30.3 -67.55,-67.55 0,-37.24 30.3,-67.55 67.55,-67.55zm0 108.08c22.34,0 40.52,-18.19 40.52,-40.53 0,-22.35 -18.18,-40.53 -40.52,-40.53 -22.35,0 -40.53,18.18 -40.53,40.53 0,22.34 18.18,40.53 40.53,40.53zm-162.12 -108.08l0 -81.06c0,-5.8 3.72,-10.98 9.25,-12.81l76.22 -25.42c28.7,-48.62 68.16,-94.89 155.37,-110.17 0.16,-0.02 0.32,-0.05 0.48,-0.07 161.05,-22.27 281.96,14.06 359.58,108.01 57.78,0.83 116.77,12.91 151.46,35.12 17.96,11.51 28.62,31.54 29.62,52.87l1.57 33.53c7.46,0 13.51,6.06 13.51,13.51l0 54.04c0,7.46 -6.05,13.51 -13.51,13.51l-54.03 0c-7.5,0 -13.5,-6.16 -13.51,-13.66 0,-0.06 -0.02,-0.13 -0.02,-0.21 -0.2,-52.06 -42.44,-94.2 -94.55,-94.2 -52.23,0 -94.56,42.33 -94.56,94.56 0.96,8.2 -5.51,13.51 -13.51,13.51l-243.18 0c-7.49,0 -13.49,-6.16 -13.5,-13.66 0,-0.07 -0.02,-0.13 -0.02,-0.21 -0.2,-52.06 -42.45,-94.21 -94.55,-94.21 -52.23,0 -94.57,42.34 -94.57,94.57 0.98,8.2 -5.49,13.51 -13.5,13.51l-54.04 0c-7.46,0 -13.51,-6.06 -13.51,-13.51l0 -54.04c-0.01,-7.45 6.05,-13.51 13.5,-13.51zm364.76 -128.33c0,3.72 3.02,6.75 6.75,6.75l176.18 0c6.24,0 9.08,-7.67 4.47,-11.88 -46.87,-42.73 -106.49,-67.17 -179.96,-73.66 -3.96,-0.35 -7.44,2.83 -7.44,6.81l0 71.98zm-162.3 0.06c0.04,3.7 3.05,6.69 6.75,6.69l121.78 0c3.73,0 6.75,-3.03 6.75,-6.76l0 -73.76c0,-3.74 -2.98,-6.82 -6.71,-6.82 -26.94,-0.03 -55.45,1.93 -85.75,6.12 -14.43,2.54 -27.29,6.03 -38.99,10.31 -2.68,0.98 -4.4,3.59 -4.37,6.46l0.54 57.76zm-70.51 6.69l36.73 0c3.75,0 6.8,-3.07 6.76,-6.83l-0.35 -36.6c-0.06,-5.58 -6.42,-8.61 -10.92,-5.32 -14.6,10.68 -26.75,23.39 -37.57,37.82 -3.37,4.5 -0.27,10.93 5.35,10.93zm489.49 229.66c22.34,0 40.53,-18.19 40.53,-40.53 0,-22.35 -18.19,-40.53 -40.53,-40.53 -22.35,0 -40.53,18.18 -40.53,40.53 0,22.34 18.18,40.53 40.53,40.53z"/>
 </g>
</svg>
