<?xml version="1.0" encoding="UTF-8"?>
<!DOCTYPE svg PUBLIC "-//W3C//DTD SVG 1.1//EN" "http://www.w3.org/Graphics/SVG/1.1/DTD/svg11.dtd">
<!-- Creator: CorelDRAW 2018 (64-Bit) -->
<svg xmlns="http://www.w3.org/2000/svg" xml:space="preserve" width="8.4666mm" height="8.4666mm" version="1.1" style="shape-rendering:geometricPrecision; text-rendering:geometricPrecision; image-rendering:optimizeQuality; fill-rule:evenodd; clip-rule:evenodd"
viewBox="0 0 846.66 846.66"
 xmlns:xlink="http://www.w3.org/1999/xlink">
 <defs>
  <style type="text/css">
   <![CDATA[
    .str0 {stroke:black;stroke-linecap:round;stroke-linejoin:round;stroke-miterlimit:2.61313}
    .fil0 {fill:#00E1BC}
   ]]>
  </style>
 </defs>
 <g id="Layer_x0020_1">
  <metadata id="CorelCorpID_0Corel-Layer"/>
  <path class="fil0 str0" d="M724.48 438.73c-41.58,0 -78.36,20.9 -100.44,52.73l-31.81 -13.62 0 -19.94 99.62 -41.33 25.58 -58.97 11.76 0 58.93 69.99c2.27,2.7 5.53,4.1 8.8,4.1 2.62,0 5.24,-0.89 7.4,-2.71 4.86,-4.09 5.48,-11.34 1.39,-16.2l-46.45 -55.18 7.38 0c6.36,0 11.5,-5.15 11.5,-11.5 0,-6.35 -5.14,-11.5 -11.5,-11.5l-17.27 0 15.05 -7.13c7.13,-3.38 10.2,-11.88 6.88,-19.04l-8.67 -18.69c-2.34,-5.03 -7.36,-8.27 -12.91,-8.32l-159.52 -1.45c-0.04,0 -0.09,0 -0.13,0 -3.99,0 -7.8,1.66 -10.52,4.58 -0.3,0.32 -32.89,34.06 -93.01,41.89 -3.93,-7.3 -10.39,-17.58 -19.91,-27.79 -23.12,-24.8 -53.51,-37.91 -87.87,-37.91 -6.96,0 -14.18,0.54 -21.47,1.59 -0.04,0.01 -0.08,0.02 -0.12,0.02 -1.69,0.26 -41.82,6.51 -97.37,22.09 -0.6,0.03 -1.48,0.06 -2.55,0.06 -6.37,0 -21.85,-1.14 -27.87,-11.66 -0.44,-0.76 -0.86,-1.64 -1.25,-2.63l26.57 -4.83c7.42,-1.35 12.35,-8.46 11,-15.88 -1.35,-7.42 -8.46,-12.34 -15.88,-10.99l-21.41 3.89c3.28,-13.53 10.72,-32.01 25.51,-57.21 3.08,-5.26 2.52,-11.89 -1.41,-16.55 -2.79,-3.3 -6.84,-5.1 -10.99,-5.1 -1.71,0 -3.42,0.3 -5.08,0.92 -1.59,0.6 -39.42,15.14 -73.73,51.01 -21.97,22.96 -45.29,57.92 -52.61,106.84 1.95,-3.79 4.36,-7.48 7.41,-10.92 0,0 39.24,25.62 17.09,62.7l-25.99 0c0.63,7.54 1.6,15.3 2.99,23.33 0.54,3.13 2.1,5.99 4.44,8.14l32.1 29.49c-105.56,-14.16 -143.52,54.35 -143.52,54.35 -7.92,10.54 -3.93,21.9 8.84,15.87 -8.59,16.7 -13.47,35.61 -13.47,55.65 0,67.37 54.82,122.19 122.19,122.19 67.37,0 122.18,-54.82 122.18,-122.19 0,-5 -0.33,-9.92 -0.92,-14.77l149.3 0 -58.94 -43.93c0,0 -69.93,6.76 -119.83,-47.54 5.22,-0.26 10.92,-0.43 16.97,-0.43 40.46,0 96.79,7.28 135.34,41.97 0.49,0.44 1.02,0.86 1.58,1.23l132.24 89.13c2.45,1.65 5.25,2.46 8.03,2.46 3.71,0 7.39,-1.43 10.17,-4.21l53.28 -53.29 31.77 13.61c-0.67,5.17 -1.05,10.42 -1.05,15.77 0,67.37 54.81,122.19 122.18,122.19 67.37,0 122.18,-54.82 122.18,-122.19 0,-67.38 -54.81,-122.19 -122.18,-122.19zm-132.25 -29.63l90.04 -42.69 -12.17 28.05 -77.87 32.32 0 -17.68zm-470.05 216.51c-35.67,0 -64.68,-29.02 -64.68,-64.69 0,-35.67 29.01,-64.69 64.68,-64.69 1.5,0 2.99,0.07 4.47,0.17l-26.76 55.17 51.74 25.1 24.74 -51.01c6.63,10.15 10.49,22.26 10.49,35.26 0.01,35.67 -29.01,64.69 -64.68,64.69zm602.3 0c-32.73,0 -59.84,-24.44 -64.09,-56.03l48.94 20.96 22.64 -52.85 -52.99 -22.7c11.69,-11.59 27.77,-18.76 45.5,-18.76 35.67,0 64.69,29.02 64.69,64.69 0,35.67 -29.02,64.69 -64.69,64.69z"/>
 </g>
</svg>
