<?xml version="1.0" encoding="UTF-8"?>
<!DOCTYPE svg PUBLIC "-//W3C//DTD SVG 1.1//EN" "http://www.w3.org/Graphics/SVG/1.1/DTD/svg11.dtd">
<!-- Creator: CorelDRAW 2018 (64-Bit) -->
<svg xmlns="http://www.w3.org/2000/svg" xml:space="preserve" width="8.4666mm" height="8.4666mm" version="1.1" style="shape-rendering:geometricPrecision; text-rendering:geometricPrecision; image-rendering:optimizeQuality; fill-rule:evenodd; clip-rule:evenodd"
viewBox="0 0 846.66 846.66"
 xmlns:xlink="http://www.w3.org/1999/xlink">
 <defs>
  <style type="text/css">
   <![CDATA[
    .fil0 {fill:#FF0000}
   ]]>
  </style>
 </defs>
 <g id="Layer_x0020_1">
  <metadata id="CorelCorpID_0Corel-Layer"/>
  <path class="fil0" d="M663.22 475.97c38.9,0 70.55,31.65 70.55,70.56 0,38.9 -31.65,70.56 -70.55,70.56 -38.91,0 -70.56,-31.65 -70.56,-70.56 0,-38.91 31.65,-70.56 70.56,-70.56zm-479.78 0c38.9,0 70.55,31.65 70.55,70.56 0,38.9 -31.65,70.56 -70.55,70.56 -38.91,0 -70.56,-31.65 -70.56,-70.56 0,-38.91 31.65,-70.56 70.56,-70.56zm0 112.89c23.34,0 42.33,-18.99 42.33,-42.33 0,-23.34 -18.99,-42.33 -42.33,-42.33 -23.34,0 -42.34,18.99 -42.34,42.33 0,23.34 19,42.33 42.34,42.33zm-169.34 -112.89l0 -84.67c0,-6.06 3.88,-11.47 9.65,-13.38l79.62 -26.55c29.98,-50.78 71.2,-99.11 162.29,-115.07 0.17,-0.03 0.34,-0.06 0.51,-0.09 168.22,-23.25 294.51,14.69 375.6,112.82 60.35,0.88 121.96,13.49 158.2,36.69 18.76,12.02 29.9,32.95 30.94,55.22l1.64 35.03c7.79,0 14.11,6.33 14.11,14.11l0 56.45c0,7.79 -6.32,14.11 -14.11,14.11l-56.44 0c-7.84,0 -14.1,-6.44 -14.11,-14.27 0,-0.07 -0.02,-0.14 -0.02,-0.22 -0.21,-54.37 -44.34,-98.4 -98.76,-98.4 -54.56,0 -98.78,44.22 -98.78,98.78 1.01,8.56 -5.74,14.11 -14.11,14.11l-254 0c-7.83,0 -14.1,-6.44 -14.11,-14.27 0,-0.07 -0.02,-0.14 -0.02,-0.22 -0.21,-54.38 -44.33,-98.4 -98.76,-98.4 -54.56,0 -98.78,44.22 -98.78,98.78 1.02,8.56 -5.74,14.11 -14.11,14.11l-56.44 0c-7.79,0 -14.11,-6.32 -14.11,-14.11l0 -56.45c-0.01,-7.78 6.31,-14.11 14.1,-14.11zm381 -134.05c0,3.89 3.16,7.05 7.06,7.05l184.02 0c6.52,0 9.49,-8.01 4.67,-12.4 -48.96,-44.64 -111.23,-70.16 -187.97,-76.95 -4.13,-0.37 -7.78,2.97 -7.78,7.11l0 75.19zm-169.53 0.07c0.05,3.86 3.19,6.98 7.06,6.98l127.2 0c3.89,0 7.05,-3.16 7.05,-7.05l0 -77.05c0,-3.91 -3.12,-7.13 -7.01,-7.13 -28.14,-0.03 -57.91,2.02 -89.56,6.4 -15.08,2.65 -28.51,6.29 -40.73,10.76 -2.81,1.03 -4.6,3.76 -4.57,6.75l0.56 60.34zm-73.64 6.98l38.36 0c3.93,0 7.1,-3.2 7.06,-7.12l-0.37 -38.24c-0.05,-5.83 -6.7,-8.99 -11.4,-5.55 -15.25,11.15 -27.94,24.43 -39.24,39.5 -3.53,4.7 -0.28,11.41 5.59,11.41zm511.29 239.89c23.34,0 42.33,-18.99 42.33,-42.33 0,-23.34 -18.99,-42.33 -42.33,-42.33 -23.34,0 -42.34,18.99 -42.34,42.33 0,23.34 19,42.33 42.34,42.33z"/>
 </g>
</svg>
