<?xml version="1.0" encoding="UTF-8"?>
<!DOCTYPE svg PUBLIC "-//W3C//DTD SVG 1.1//EN" "http://www.w3.org/Graphics/SVG/1.1/DTD/svg11.dtd">
<!-- Creator: CorelDRAW 2018 (64-Bit) -->
<svg xmlns="http://www.w3.org/2000/svg" xml:space="preserve" width="4.2332mm" height="4.2332mm" version="1.1" style="shape-rendering:geometricPrecision; text-rendering:geometricPrecision; image-rendering:optimizeQuality; fill-rule:evenodd; clip-rule:evenodd"
viewBox="0 0 423.32 423.32"
 xmlns:xlink="http://www.w3.org/1999/xlink">
 <defs>
  <style type="text/css">
   <![CDATA[
    .fil0 {fill:#FF99E5}
    .fil1 {fill:white}
   ]]>
  </style>
 </defs>
 <g id="Layer_x0020_1">
  <metadata id="CorelCorpID_0Corel-Layer"/>
  <rect class="fil0" x="-0.01" y="-0.01" width="423.33" height="423.32" rx="23.23" ry="23.23"/>
  <path class="fil1" d="M379.15 302.85c-15.51,-8.95 -35.34,-3.63 -44.29,11.87 -8.95,15.5 -3.64,35.33 11.87,44.28 15.5,8.95 36.04,3.64 45,-11.87 8.95,-15.5 2.92,-35.32 -12.58,-44.28zm-19.79 -73.8l-37.43 -21.61c-10.31,-5.96 -23.56,-2.41 -29.52,7.91 -5.96,10.32 -2.4,23.56 7.91,29.52l18.72 10.81 -43.22 74.86 -18.72 -10.8c-10.32,-5.96 -23.56,-2.41 -29.52,7.91 -5.95,10.31 -2.41,23.56 7.91,29.52l37.43 21.61c17.85,10.3 40.02,6.35 53.4,-8.24 -18.11,-16.76 -23.02,-44.37 -10.18,-66.63 12.85,-22.25 39.23,-31.81 62.79,-24.49 5.94,-18.89 -1.72,-40.06 -19.57,-50.37zm-95.09 -145.97c-5.45,24.07 -26.92,42.13 -52.61,42.13 -25.69,0 -47.16,-18.06 -52.61,-42.13 -19.32,4.3 -33.83,21.53 -33.83,42.13l0 43.22c0,11.92 9.69,21.61 21.6,21.61 11.92,0 21.61,-9.69 21.61,-21.61l0 -21.61 86.46 0 0 21.61c0,11.92 9.69,21.61 21.61,21.61 11.91,0 21.6,-9.69 21.6,-21.61l0 -43.22c0,-20.6 -14.51,-37.83 -33.83,-42.13zm-20.2 -11.9c0,-17.9 -14.51,-32.41 -32.42,-32.41 -17.9,0 -32.41,14.51 -32.41,32.41 0,17.91 14.51,32.42 32.41,32.42 17.91,0 32.42,-14.51 32.42,-32.42zm-155.61 243.54c-8.95,-15.5 -28.78,-20.82 -44.29,-11.87 -15.5,8.96 -21.54,28.78 -12.58,44.28 8.95,15.52 29.5,20.83 45,11.87 15.51,-8.95 20.81,-28.77 11.87,-44.28zm107.28 12.93c-5.96,-10.32 -19.2,-13.87 -29.53,-7.91l-18.71 10.8 -43.22 -74.86 18.72 -10.81c10.31,-5.96 13.86,-19.2 7.91,-29.52 -5.97,-10.32 -19.21,-13.87 -29.53,-7.91l-37.43 21.61c-17.85,10.31 -25.5,31.48 -19.56,50.37 23.56,-7.32 49.94,2.24 62.79,24.5 12.84,22.25 7.93,49.86 -10.18,66.62 13.38,14.59 35.54,18.54 53.39,8.24l37.44 -21.61c10.32,-5.96 13.86,-19.21 7.91,-29.52z"/>
 </g>
</svg>
