<?xml version="1.0" encoding="UTF-8"?>
<!DOCTYPE svg PUBLIC "-//W3C//DTD SVG 1.1//EN" "http://www.w3.org/Graphics/SVG/1.1/DTD/svg11.dtd">
<!-- Creator: CorelDRAW 2018 (64-Bit) -->
<svg xmlns="http://www.w3.org/2000/svg" xml:space="preserve" width="4.2332mm" height="4.2332mm" version="1.1" style="shape-rendering:geometricPrecision; text-rendering:geometricPrecision; image-rendering:optimizeQuality; fill-rule:evenodd; clip-rule:evenodd"
viewBox="0 0 423.32 423.32"
 xmlns:xlink="http://www.w3.org/1999/xlink">
 <defs>
  <style type="text/css">
   <![CDATA[
    .fil0 {fill:#FF6170}
    .fil1 {fill:white}
   ]]>
  </style>
 </defs>
 <g id="Layer_x0020_1">
  <metadata id="CorelCorpID_0Corel-Layer"/>
  <rect class="fil0" x="-0.01" y="-0.01" width="423.32" height="423.32" rx="23.23" ry="23.23"/>
  <path class="fil1" d="M209.46 205.3c23,0 42.91,-8.25 59.18,-24.52 16.27,-16.27 24.52,-36.18 24.52,-59.18 0,-22.99 -8.25,-42.9 -24.52,-59.17 -16.28,-16.27 -36.19,-24.52 -59.18,-24.52 -23,0 -42.9,8.25 -59.17,24.52 -16.27,16.27 -24.52,36.18 -24.52,59.17 0,23 8.25,42.91 24.52,59.18 16.27,16.27 36.18,24.52 59.17,24.52zm146.44 99.81c-0.47,-6.77 -1.42,-14.16 -2.81,-21.96 -1.41,-7.86 -3.23,-15.28 -5.4,-22.07 -2.25,-7.02 -5.3,-13.95 -9.08,-20.59 -3.92,-6.89 -8.52,-12.9 -13.68,-17.83 -5.4,-5.17 -12.01,-9.33 -19.66,-12.36 -7.62,-3.01 -16.06,-4.54 -25.09,-4.54 -3.55,0 -6.98,1.46 -13.61,5.77 -4.07,2.66 -8.84,5.74 -14.17,9.14 -4.55,2.9 -10.71,5.61 -18.33,8.08 -7.43,2.4 -14.98,3.62 -22.42,3.62 -7.45,0 -14.99,-1.22 -22.43,-3.62 -7.61,-2.46 -13.78,-5.18 -18.32,-8.08 -5.28,-3.37 -10.05,-6.44 -14.19,-9.14 -6.61,-4.31 -10.05,-5.77 -13.59,-5.77 -9.04,0 -17.48,1.53 -25.1,4.55 -7.64,3.02 -14.25,7.18 -19.66,12.35 -5.16,4.94 -9.76,10.94 -13.67,17.83 -3.78,6.64 -6.83,13.57 -9.08,20.59 -2.17,6.79 -3.99,14.21 -5.4,22.07 -1.39,7.79 -2.34,15.18 -2.81,21.97 -0.46,6.65 -0.7,13.55 -0.7,20.52 0,18.13 5.77,32.82 17.14,43.65 11.23,10.68 26.09,16.11 44.16,16.11l167.31 0c18.07,0 32.92,-5.42 44.16,-16.11 11.37,-10.82 17.14,-25.51 17.14,-43.66 -0.01,-7 -0.24,-13.9 -0.71,-20.52l0 0z"/>
 </g>
</svg>
