<?xml version="1.0" encoding="UTF-8"?>
<!DOCTYPE svg PUBLIC "-//W3C//DTD SVG 1.1//EN" "http://www.w3.org/Graphics/SVG/1.1/DTD/svg11.dtd">
<!-- Creator: CorelDRAW 2018 (64-Bit) -->
<svg xmlns="http://www.w3.org/2000/svg" xml:space="preserve" width="4.2332mm" height="4.2332mm" version="1.1" style="shape-rendering:geometricPrecision; text-rendering:geometricPrecision; image-rendering:optimizeQuality; fill-rule:evenodd; clip-rule:evenodd"
viewBox="0 0 423.32 423.32"
 xmlns:xlink="http://www.w3.org/1999/xlink">
 <defs>
  <style type="text/css">
   <![CDATA[
    .fil0 {fill:#1C75DC}
    .fil1 {fill:white}
   ]]>
  </style>
 </defs>
 <g id="Layer_x0020_1">
  <metadata id="CorelCorpID_0Corel-Layer"/>
  <rect class="fil0" x="-0" y="-0" width="423.33" height="423.33" rx="23.23" ry="23.23"/>
  <path class="fil1" d="M398.48 228.84c0,-7.35 -1.66,-14.37 -4.66,-20.79 -0.31,-1.64 -0.66,-3.27 -1.1,-4.92l-32.46 -80.43 -0.22 -0.73c-11.36,-33.81 -27.51,-65.1 -68.48,-65.1l-156.65 0c-41.98,0 -56.82,32.07 -68.42,64.92l-33.95 80.63c-4.91,7.86 -7.7,16.85 -7.7,26.42l0 25.03c0,3.87 0.46,7.65 1.33,11.3 -0.85,2.2 -1.33,4.57 -1.33,7.08l0 74.44c0,10.91 8.85,19.76 19.77,19.76l41.01 0c10.91,0 19.76,-8.85 19.76,-19.76l0 -37.23 214.9 0 0 37.23c0,10.91 8.85,19.76 19.77,19.76l38.66 0c10.92,0 19.77,-8.85 19.77,-19.76l0 -74.45c0,-2.5 -0.49,-4.88 -1.33,-7.08 0.87,-3.65 1.33,-7.43 1.33,-11.3l0 -25.02 0 0 0 0zm-307.9 -98.98c12.92,-36.46 23.31,-47.59 44.33,-47.59l156.64 0c20.86,0 32.48,12.41 44.28,47.43l23.69 48c-7.74,-2.86 -16.25,-4.45 -25.19,-4.45l-245.34 0c-8.05,0 -15.75,1.29 -22.85,3.63l24.44 -47.02zm20.34 133.51l-43.28 0c-7.79,0 -14.11,-6.32 -14.11,-14.11 0,-7.8 6.32,-14.12 14.11,-14.12l43.28 0c7.8,0 14.12,6.32 14.12,14.12 0,7.79 -6.33,14.11 -14.12,14.11zm152.88 -2.83l-100.67 0c-4.93,0 -8.93,-4 -8.93,-8.93 0,-4.94 4,-8.94 8.93,-8.94l100.67 0c4.94,0 8.94,4 8.94,8.94 0,4.93 -4,8.93 -8.94,8.93zm90.78 2.83l-43.27 0c-7.8,0 -14.12,-6.32 -14.12,-14.11 0,-7.8 6.32,-14.12 14.12,-14.12l43.27 0c7.8,0 14.12,6.32 14.12,14.12 0,7.79 -6.32,14.11 -14.12,14.11z"/>
 </g>
</svg>
