<?xml version="1.0" encoding="UTF-8"?>
<!DOCTYPE svg PUBLIC "-//W3C//DTD SVG 1.1//EN" "http://www.w3.org/Graphics/SVG/1.1/DTD/svg11.dtd">
<!-- Creator: CorelDRAW 2018 (64-Bit) -->
<svg xmlns="http://www.w3.org/2000/svg" xml:space="preserve" width="8.4666mm" height="8.4666mm" version="1.1" style="shape-rendering:geometricPrecision; text-rendering:geometricPrecision; image-rendering:optimizeQuality; fill-rule:evenodd; clip-rule:evenodd"
viewBox="0 0 846.66 846.66"
 xmlns:xlink="http://www.w3.org/1999/xlink">
 <defs>
  <style type="text/css">
   <![CDATA[
    .fil0 {fill:#1eb15d}
   ]]>
  </style>
 </defs>
 <g id="Layer_x0020_1">
  <metadata id="CorelCorpID_0Corel-Layer"/>
  <path class="fil0" d="M302.39 136.07c0,-16.7 -13.54,-30.24 -30.24,-30.24 -16.7,0 -30.24,13.54 -30.24,30.24 0,16.7 13.54,30.24 30.24,30.24 16.7,0 30.24,-13.54 30.24,-30.24zm531.31 204.21c-3.64,-21.84 -22.51,-37.86 -44.65,-37.9l-731.44 0c-22.1,0.04 -40.95,16.01 -44.63,37.8 -8.42,52.5 -12.75,105.57 -12.97,158.74 0.22,53.14 4.56,106.17 12.96,158.64 3.64,21.84 22.51,37.86 44.65,37.9l48.99 0c7.69,-85.7 79.51,-151.36 165.55,-151.36 86.04,0 157.85,65.66 165.54,151.36l106.58 0 0 -15.12c0,-8.35 6.77,-15.12 15.12,-15.12 8.35,0 15.12,6.77 15.12,15.12l0 105.83 120.95 0 0 -105.83c0,-8.35 6.77,-15.12 15.12,-15.12 8.35,0 15.12,6.77 15.12,15.12l0 15.12 63.34 0c22.1,-0.04 40.95,-16.01 44.63,-37.8 8.42,-52.5 12.75,-105.58 12.97,-158.75 -0.21,-53.13 -4.55,-106.16 -12.95,-158.63zm-667.38 37.69l-45.36 0c-8.35,0 -15.12,-6.77 -15.12,-15.12 0,-8.35 6.77,-15.12 15.12,-15.12l45.36 0c8.35,0 15.12,6.77 15.12,15.12 0,8.35 -6.77,15.12 -15.12,15.12zm559.39 0l-498.92 0c-8.35,0 -15.12,-6.77 -15.12,-15.12 0,-8.35 6.77,-15.12 15.12,-15.12l498.92 0c8.35,0 15.12,6.77 15.12,15.12 0,8.35 -6.77,15.12 -15.12,15.12zm-453.56 196.54c-55.03,0 -104.65,33.15 -125.71,84 -21.06,50.85 -9.42,109.37 29.5,148.29 38.92,38.92 97.44,50.56 148.29,29.5 50.85,-21.06 84,-70.68 84,-125.71 -0.09,-75.13 -60.96,-136 -136.08,-136.08zm0 211.66c-41.75,0 -75.59,-33.84 -75.59,-75.59 0,-41.75 33.84,-75.6 75.59,-75.6 41.75,0 75.59,33.84 75.59,75.59 -0.04,41.74 -33.86,75.55 -75.59,75.6zm302.37 45.36c0,8.35 6.77,15.12 15.12,15.12l90.71 0c8.35,0 15.12,-6.77 15.12,-15.12l0 -15.12 -120.95 0 0 15.12zm-257.02 -120.95c0,-25.05 -20.3,-45.35 -45.35,-45.35 -25.05,0 -45.35,20.3 -45.35,45.35 0,25.05 20.3,45.35 45.35,45.35 25.05,0 45.35,-20.3 45.35,-45.35zm-210.88 -559.39l-31.01 0 0 120.95 101.29 0c-40.08,-28.01 -65.79,-72.26 -70.28,-120.95zm467.9 120.95c75.15,0 136.07,-60.92 136.07,-136.07 0,-75.15 -60.92,-136.07 -136.07,-136.07 -75.15,0 -136.07,60.92 -136.07,136.07 0.08,75.11 60.96,135.99 136.07,136.07zm86.92 -166.1c3.95,-0.67 8.01,0.26 11.28,2.58 3.27,2.32 5.48,5.85 6.15,9.8 0.99,5.83 1.48,11.73 1.48,17.64 0,8.35 -6.77,15.12 -15.12,15.12 -8.35,0 -15.12,-6.77 -15.12,-15.12 0,-4.22 -0.34,-8.43 -1.04,-12.59 -1.4,-8.22 4.14,-16.03 12.37,-17.43zm-15.76 -41.14c5.9,5.9 5.9,15.47 0,21.38l-30.34 30.36c2.96,6.05 4.51,12.69 4.54,19.43 0,25.05 -20.31,45.36 -45.36,45.36 -25.05,0 -45.36,-20.31 -45.36,-45.36 0,-25.05 20.31,-45.36 45.36,-45.36 6.74,0.03 13.38,1.58 19.43,4.54l30.36 -30.36c5.9,-5.9 15.47,-5.89 21.37,0.01zm-176.99 71.17c0.01,-31.14 13.74,-60.7 37.53,-80.8 23.79,-20.1 55.22,-28.7 85.93,-23.52 7.63,1.42 12.95,8.39 12.3,16.12 -0.65,7.73 -7.05,13.73 -14.81,13.86 -0.85,0 -1.69,-0.07 -2.53,-0.21 -21.94,-3.67 -44.38,2.49 -61.36,16.85 -16.98,14.36 -26.8,35.46 -26.82,57.7 0,8.35 -6.77,15.12 -15.12,15.12 -8.35,0 -15.12,-6.77 -15.12,-15.12zm201.15 136.07l101.22 0 0 -120.95 -31.01 0c-4.47,48.68 -30.15,92.92 -70.21,120.95zm-84.74 -146.65l-0.11 -0.17c-5.99,-5.84 -15.58,-5.75 -21.46,0.2 -5.88,5.96 -5.85,15.54 0.07,21.46 5.92,5.92 15.51,5.95 21.46,0.07 5.96,-5.88 6.05,-15.47 0.2,-21.46l-0.16 -0.1zm-217.62 146.65l111.79 0c-24.28,-17.04 -43.58,-40.23 -55.93,-67.19 -12.34,26.95 -31.62,50.14 -55.86,67.19zm-95.33 0c75.15,0 136.07,-60.92 136.07,-136.07 0,-75.15 -60.92,-136.07 -136.07,-136.07 -75.15,0 -136.07,60.92 -136.07,136.07 0.08,75.11 60.96,135.99 136.07,136.07zm-104.2 -129.22l-0.01 -0.04c-1.81,-3.58 -2.12,-7.74 -0.86,-11.55 1.26,-3.81 3.98,-6.97 7.56,-8.77 12.95,-5.77 27.03,-8.54 41.2,-8.09 2.03,-5.21 4.78,-10.12 8.16,-14.58 -5.97,-5.86 -13.04,-10.48 -20.8,-13.61 -7.93,-2.65 -12.21,-11.23 -9.56,-19.16 2.65,-7.93 11.23,-12.21 19.16,-9.56 13.19,5.05 25.08,13.01 34.77,23.28 5.11,-2.22 10.5,-3.72 16.03,-4.44 -0.06,-8.36 -1.78,-16.63 -5.05,-24.33 -3.65,-7.46 -0.61,-16.47 6.82,-20.18 7.43,-3.71 16.46,-0.74 20.23,6.66 5.79,12.94 8.56,27.03 8.1,41.2 5.2,2.02 10.1,4.76 14.54,8.13 5.94,-5.8 10.57,-12.79 13.61,-20.52 1.64,-5.15 5.9,-9.03 11.18,-10.18 5.28,-1.15 10.77,0.6 14.41,4.59 3.64,3.99 4.87,9.62 3.23,14.77 -4.93,13.32 -12.95,25.27 -23.4,34.88 2.26,5.14 3.79,10.58 4.54,16.15 8.35,-0.01 16.62,-1.72 24.3,-5.02 7.46,-3.76 16.56,-0.75 20.32,6.71 3.76,7.46 0.75,16.56 -6.71,20.32 -11.96,5.44 -24.94,8.25 -38.07,8.27 -1.01,0 -2.1,-0.12 -3.15,-0.15 -2.02,5.21 -4.76,10.1 -8.15,14.54 5.97,5.86 13.04,10.48 20.8,13.61 7.01,2.38 11.27,9.48 10.06,16.78 -1.21,7.3 -7.53,12.66 -14.93,12.65 -1.61,0 -3.21,-0.26 -4.73,-0.77 -13.19,-5.05 -25.08,-13.01 -34.77,-23.28 -5.11,2.22 -10.5,3.72 -16.03,4.44 0.05,8.38 1.76,16.67 5.04,24.39 3.65,7.46 0.61,16.47 -6.82,20.18 -7.43,3.71 -16.46,0.74 -20.23,-6.66 -5.79,-12.94 -8.56,-27.03 -8.1,-41.2 -5.21,-2.03 -10.12,-4.78 -14.58,-8.16 -5.86,5.97 -10.48,13.04 -13.61,20.8 -2.65,7.93 -11.23,12.21 -19.16,9.56 -7.93,-2.65 -12.21,-11.23 -9.56,-19.16 5.05,-13.19 13.01,-25.08 23.28,-34.77 -2.22,-5.11 -3.72,-10.51 -4.44,-16.04 -8.35,0.02 -16.62,1.73 -24.3,5.02 -3.58,1.8 -7.73,2.11 -11.54,0.85 -3.82,-1.26 -6.98,-3.98 -8.78,-7.56z"/>
 </g>
</svg>
