<?xml version="1.0" encoding="UTF-8"?>
<!DOCTYPE svg PUBLIC "-//W3C//DTD SVG 1.1//EN" "http://www.w3.org/Graphics/SVG/1.1/DTD/svg11.dtd">
<!-- Creator: CorelDRAW 2018 (64-Bit) -->
<svg xmlns="http://www.w3.org/2000/svg" xml:space="preserve" width="6.1806mm" height="8.2972mm" version="1.1" style="shape-rendering:geometricPrecision; text-rendering:geometricPrecision; image-rendering:optimizeQuality; fill-rule:evenodd; clip-rule:evenodd"
viewBox="0 0 618.06 829.72"
 xmlns:xlink="http://www.w3.org/1999/xlink">
 <defs>
  <style type="text/css">
   <![CDATA[
    .fil0 {fill:#7d410f}
   ]]>
  </style>
 </defs>
 <g id="Layer_x0020_1">
  <metadata id="CorelCorpID_0Corel-Layer"/>
  <path class="fil0" d="M482.1 640.32c91.34,-133.85 137.62,-244.73 137.62,-329.55 0,-171.3 -139.36,-310.66 -310.65,-310.66 -171.3,0 -310.74,139.36 -310.74,310.66 0,84.82 46.26,195.7 137.6,329.55 65.27,95.75 129.81,168.09 132.47,171.12 10.38,11.56 25.16,18.17 40.67,18.17 15.52,0 30.2,-6.61 40.57,-18.17 2.67,-3.03 67.2,-75.37 132.46,-171.12zm-325.2 -333.67c21.01,0 39.59,10.56 50.74,26.64l16.07 -6.88 0 -10.07 -50.33 -20.88 -12.92 -29.79 -5.94 0 -29.77 35.36c-1.14,1.36 -2.79,2.07 -4.44,2.07 -1.32,0 -2.65,-0.45 -3.74,-1.37 -2.46,-2.07 -2.77,-5.73 -0.7,-8.19l23.47 -27.87 -3.74 0c-3.21,0 -5.81,-2.6 -5.81,-5.81 0,-3.21 2.6,-5.81 5.81,-5.81l8.73 0 -7.6 -3.6c-3.6,-1.71 -5.16,-6 -3.48,-9.62l4.38 -9.44c1.18,-2.54 3.72,-4.18 6.52,-4.2l80.58 -0.73c0.03,0 0.05,0 0.07,0 2.02,0 3.94,0.83 5.32,2.31 0.15,0.16 16.61,17.21 46.98,21.16 1.98,-3.69 5.24,-8.88 10.06,-14.04 11.68,-12.53 27.03,-19.15 44.39,-19.15 3.51,0 7.16,0.27 10.84,0.81 0.02,0 0.04,0 0.06,0.01 0.86,0.13 21.13,3.28 49.19,11.15 0.3,0.02 0.74,0.03 1.29,0.03 3.22,0 11.03,-0.57 14.08,-5.89 0.22,-0.38 0.43,-0.82 0.62,-1.33l-13.42 -2.43c-3.75,-0.69 -6.23,-4.28 -5.55,-8.02 0.68,-3.75 4.27,-6.24 8.02,-5.56l10.81 1.97c-1.65,-6.84 -5.41,-16.17 -12.88,-28.9 -1.56,-2.66 -1.27,-6.01 0.71,-8.36 1.41,-1.67 3.46,-2.58 5.55,-2.58 0.86,0 1.73,0.15 2.57,0.47 0.8,0.3 19.91,7.65 37.25,25.76 11.09,11.6 22.87,29.26 26.57,53.98 -0.98,-1.92 -2.2,-3.78 -3.74,-5.52 0,0 -19.83,12.94 -8.64,31.67l13.13 0c-0.31,3.81 -0.81,7.73 -1.51,11.79 -0.27,1.58 -1.06,3.02 -2.24,4.11l-16.21 14.9c53.32,-7.15 72.49,27.45 72.49,27.45 4,5.32 1.99,11.06 -4.46,8.02 4.34,8.43 6.8,17.99 6.8,28.11 0,34.03 -27.69,61.72 -61.72,61.72 -34.04,0 -61.72,-27.69 -61.72,-61.72 0,-2.53 0.17,-5.01 0.46,-7.46l-75.42 0 29.77 -22.19c0,0 35.33,3.41 60.54,-24.02 -2.64,-0.13 -5.52,-0.22 -8.57,-0.22 -20.44,0 -48.9,3.68 -68.37,21.21 -0.25,0.22 -0.52,0.43 -0.8,0.62l-66.8 45.02c-1.24,0.84 -2.65,1.24 -4.06,1.24 -1.87,0 -3.73,-0.72 -5.13,-2.12l-26.92 -26.92 -16.05 6.87c0.34,2.61 0.53,5.27 0.53,7.97 0,34.03 -27.68,61.72 -61.72,61.72 -34.03,0 -61.72,-27.69 -61.72,-61.72 0,-34.04 27.69,-61.73 61.72,-61.73zm66.81 -14.96l-45.49 -21.57 6.15 14.17 39.34 16.33 0 -8.93zm237.45 109.37c18.02,0 32.67,-14.66 32.67,-32.68 0,-18.02 -14.66,-32.68 -32.67,-32.68 -0.76,0 -1.51,0.04 -2.26,0.09l13.52 27.87 -26.14 12.67 -12.5 -25.76c-3.34,5.12 -5.3,11.24 -5.3,17.81 0,18.02 14.66,32.68 32.68,32.68zm-304.26 0c16.53,0 30.23,-12.35 32.38,-28.31l-24.72 10.59 -11.44 -26.7 26.77 -11.46c-5.91,-5.86 -14.03,-9.48 -22.99,-9.48 -18.01,0 -32.67,14.66 -32.67,32.68 0,18.02 14.66,32.68 32.67,32.68zm152.12 -332.01c136.75,0 247.61,110.87 247.61,247.61 0,136.75 -110.86,247.61 -247.61,247.61 -136.74,0 -247.61,-110.86 -247.61,-247.61 0,-136.74 110.87,-247.61 247.61,-247.61z"/>
 </g>
</svg>
