<?xml version="1.0" encoding="utf-8"?>
<!-- Svg Vector Icons : http://www.onlinewebfonts.com/icon -->
<!DOCTYPE svg PUBLIC "-//W3C//DTD SVG 1.1//EN" "http://www.w3.org/Graphics/SVG/1.1/DTD/svg11.dtd">
<svg version="1.1" xmlns="http://www.w3.org/2000/svg" xmlns:xlink="http://www.w3.org/1999/xlink" x="0px" y="0px" viewBox="0 0 1000 1000" enable-background="new 0 0 1000 1000" xml:space="preserve">
<metadata> Svg Vector Icons : http://www.onlinewebfonts.com/icon </metadata>
<g><path d="M920.6,885.8l-863-0.4c0,0-92.9,4.2-19.3-65.7c19.3-10.6,42-20.5,67.4-29.4c-6.3-14.3-10-30.2-10-47c0-60.2,45.2-109.1,101-109.1c55.8,0,101,48.8,101,109.1c0,1.3-0.1,2.5-0.2,3.8c6.5-0.8,13.1-1.7,19.7-2.4V180.3c0-37.1,27.4-66.4,64.6-66.4h387.2c37.2,0,63.1,29.4,63.1,66.4v595.8c45.2,12.7,84.1,27.8,114.5,44.7C1057.5,894.8,920.6,885.7,920.6,885.8L920.6,885.8z M533.3,263.4c0-18.5-14.6-33.2-33.2-33.2h-66.4c-18.6,0-33.2,14.7-33.2,33.2v91.4c0,18.5,22.9,33.2,41.5,33.2h58.1c18.6,0,33.2-14.7,33.2-33.2L533.3,263.4L533.3,263.4z M533.3,504.3c0-18.5-14.6-33.2-33.2-33.2h-66.4c-18.6,0-33.2,14.7-33.2,33.2v91.4c0,18.5,22.9,33.2,41.5,33.2h58.1c18.6,0,33.2-14.7,33.2-33.2L533.3,504.3L533.3,504.3z M749.2,263.4c0-18.5-14.6-33.2-33.2-33.2h-66.4c-18.6,0-33.2,14.7-33.2,33.2v91.4c0,18.5,22.9,33.2,41.5,33.2H716c18.6,0,33.2-14.7,33.2-33.2V263.4L749.2,263.4z M749.2,504.3c0-18.5-14.6-33.2-33.2-33.2h-66.4c-18.6,0-33.2,14.7-33.2,33.2v91.4c0,18.5,22.9,33.2,41.5,33.2H716c18.6,0,33.2-14.7,33.2-33.2V504.3L749.2,504.3z"/></g>
</svg>