<?xml version="1.0" encoding="utf-8"?>
<!-- Svg Vector Icons : http://www.onlinewebfonts.com/icon -->
<!DOCTYPE svg PUBLIC "-//W3C//DTD SVG 1.1//EN" "http://www.w3.org/Graphics/SVG/1.1/DTD/svg11.dtd">
<svg version="1.1" xmlns="http://www.w3.org/2000/svg" xmlns:xlink="http://www.w3.org/1999/xlink" x="0px" y="0px" viewBox="0 0 1000 1000" enable-background="new 0 0 1000 1000" xml:space="preserve">
<metadata> Svg Vector Icons : http://www.onlinewebfonts.com/icon </metadata>
<g><g><path d="M272.5,360c0,51.2,11.6,99.7,31.4,143.6L27.5,780c0,0,0,47,0,105c0,58,62.7,105,140,105h140V850h140V710c0,0,163,0,175,0c193.3,0,350-156.7,350-350c0-193.3-156.7-350-350-350C429.2,10,272.5,166.7,272.5,360L272.5,360z M622.5,500c-77.3,0-140-62.7-140-140c0-77.4,62.7-140.1,140-140.1c77.3,0,140,62.7,140,140.1C762.5,437.3,699.8,500,622.5,500z"/></g></g>
</svg>