<?xml version="1.0" encoding="utf-8"?>
<!-- Svg Vector Icons : http://www.onlinewebfonts.com/icon -->
<!DOCTYPE svg PUBLIC "-//W3C//DTD SVG 1.1//EN" "http://www.w3.org/Graphics/SVG/1.1/DTD/svg11.dtd">
<svg version="1.1" xmlns="http://www.w3.org/2000/svg" xmlns:xlink="http://www.w3.org/1999/xlink" x="0px" y="0px" viewBox="0 0 1000 1000" enable-background="new 0 0 1000 1000" xml:space="preserve">
<metadata> Svg Vector Icons : http://www.onlinewebfonts.com/icon </metadata>
<g><g><path d="M949.2,824.8c0,51-15.5,91.3-46.6,120.9c-31.1,29.6-72.3,44.3-123.8,44.3H221.2c-51.5,0-92.7-14.8-123.8-44.3c-31.1-29.6-46.6-69.9-46.6-120.9c0-22.5,0.7-44.6,2.2-66c1.5-21.5,4.5-44.7,8.9-69.5c4.5-24.9,10.1-48,16.9-69.2c6.8-21.3,16-42,27.4-62.2c11.5-20.2,24.7-37.4,39.6-51.7c14.9-14.2,33.1-25.6,54.6-34.1c21.5-8.5,45.2-12.8,71.1-12.8c3.8,0,12.8,4.6,26.8,13.7c14,9.1,29.9,19.4,47.5,30.6c17.7,11.3,40.6,21.5,68.9,30.6c28.3,9.1,56.7,13.7,85.2,13.7s56.9-4.6,85.2-13.7c28.3-9.1,51.3-19.4,68.9-30.6c17.7-11.3,33.5-21.5,47.5-30.6c14-9.1,23-13.7,26.8-13.7c25.9,0,49.7,4.3,71.1,12.8c21.5,8.5,39.7,19.9,54.6,34.1c14.9,14.2,28.1,31.5,39.6,51.7c11.5,20.2,20.6,40.9,27.4,62.2c6.8,21.3,12.4,44.3,16.9,69.2c4.5,24.9,7.4,48.1,8.9,69.5C948.4,780.2,949.2,802.2,949.2,824.8L949.2,824.8z M745,255c0,67.6-23.9,125.4-71.8,173.2C625.4,476.1,567.6,500,500,500s-125.4-23.9-173.2-71.8C278.9,380.4,255,322.6,255,255c0-67.6,23.9-125.4,71.8-173.2C374.6,33.9,432.4,10,500,10s125.4,23.9,173.2,71.8C721.1,129.6,745,187.4,745,255z"/></g></g>
</svg>