<?xml version="1.0" encoding="UTF-8"?>
<!DOCTYPE svg PUBLIC "-//W3C//DTD SVG 1.1//EN" "http://www.w3.org/Graphics/SVG/1.1/DTD/svg11.dtd">
<!-- Creator: CorelDRAW 2018 (64-Bit) -->
<svg xmlns="http://www.w3.org/2000/svg" xml:space="preserve" width="5.6932mm" height="5.6932mm" version="1.1" style="shape-rendering:geometricPrecision; text-rendering:geometricPrecision; image-rendering:optimizeQuality; fill-rule:evenodd; clip-rule:evenodd"
viewBox="0 0 169.32 169.32"
 xmlns:xlink="http://www.w3.org/1999/xlink">
 <defs>
  <style type="text/css">
   <![CDATA[
    .fil0 {fill:green}
   ]]>
  </style>
 </defs>
 <g id="Layer_x0020_1">
  <metadata id="CorelCorpID_0Corel-Layer"/>
  <path class="fil0" d="M128.81 65.34l11.03 0 0 24.83 11.04 0 0 -16.55 11.04 0 2.76 8.28 0 33.12 -2.76 8.27 -11.04 0 0 -16.56 -11.04 0 0 24.84 -11.03 0 -22.08 0 0 11.05 -38.62 0 0 -11.05 -8.29 0 -16.55 -11.04 -16.57 0 0 -11.03 -11.02 0 0 22.07 -11.04 0 0 -68.98 11.04 0 0 24.83 11.02 0 0 -11.05 13.81 0c0,-1.51 1.24,-2.75 2.76,-2.75 0.96,0 1.8,0.48 2.3,1.23l14.25 -9.51 0 -16.55 22.08 0 0 -11.04 -38.63 0 0 -11.05 88.3 0 0 11.05 -38.62 0 0 11.04 22.06 0 0 13.8c1.53,0 2.77,1.23 2.77,2.75l11.03 0zm-21.73 16.87c-2.31,-3.96 -5.45,-7.11 -9.42,-9.42 -3.97,-2.32 -8.3,-3.48 -13,-3.48 -4.7,0 -9.03,1.16 -13,3.48 -3.97,2.31 -7.11,5.46 -9.42,9.42 -2.32,3.98 -3.49,8.3 -3.49,13 0,4.71 1.17,9.03 3.49,13.01 2.31,3.96 5.45,7.11 9.42,9.42 3.97,2.32 8.3,3.47 13,3.47 4.7,0 9.03,-1.15 13,-3.47 3.97,-2.31 7.1,-5.46 9.42,-9.42 2.32,-3.98 3.47,-8.3 3.47,-13.01 0,-4.7 -1.15,-9.02 -3.47,-13zm-6.43 3.79l-2.9 -2.9c-0.41,-0.41 -0.88,-0.61 -1.47,-0.61 -0.56,0 -1.05,0.2 -1.45,0.61l-14.04 14.06 -6.3 -6.31c-0.41,-0.41 -0.89,-0.61 -1.47,-0.61 -0.57,0 -1.04,0.2 -1.45,0.61l-2.92 2.91c-0.39,0.4 -0.59,0.89 -0.59,1.45 0,0.57 0.2,1.06 0.59,1.46l7.77 7.76 2.9 2.9c0.41,0.41 0.88,0.61 1.47,0.61 0.56,0 1.05,-0.2 1.45,-0.61l2.91 -2.9 15.5 -15.51c0.41,-0.41 0.61,-0.89 0.61,-1.46 0,-0.58 -0.2,-1.05 -0.61,-1.46z"/>
 </g>
</svg>
