<?xml version="1.0" encoding="UTF-8"?>
<!DOCTYPE svg PUBLIC "-//W3C//DTD SVG 1.1//EN" "http://www.w3.org/Graphics/SVG/1.1/DTD/svg11.dtd">
<!-- Creator: CorelDRAW 2018 (64-Bit) -->
<svg xmlns="http://www.w3.org/2000/svg" xml:space="preserve" width="5.6932mm" height="5.6932mm" version="1.1" style="shape-rendering:geometricPrecision; text-rendering:geometricPrecision; image-rendering:optimizeQuality; fill-rule:evenodd; clip-rule:evenodd"
viewBox="0 0 169.32 169.32"
 xmlns:xlink="http://www.w3.org/1999/xlink">
 <defs>
  <style type="text/css">
   <![CDATA[
    .fil0 {fill:red}
   ]]>
  </style>
 </defs>
 <g id="Layer_x0020_1">
  <metadata id="CorelCorpID_0Corel-Layer"/>
  <path class="fil0" d="M128.81 65.34l11.03 0 0 24.83 11.04 0 0 -16.55 11.04 0 2.76 8.28 0 33.12 -2.76 8.27 -11.04 0 0 -16.56 -11.04 0 0 24.84 -11.03 0 -22.08 0 0 11.05 -38.62 0 0 -11.05 -8.29 0 -16.55 -11.04 -16.57 0 0 -11.03 -11.02 0 0 22.07 -11.04 0 0 -68.98 11.04 0 0 24.83 11.02 0 0 -11.05 13.81 0c0,-1.51 1.24,-2.75 2.76,-2.75 0.96,0 1.8,0.48 2.3,1.23l14.25 -9.51 0 -16.55 22.08 0 0 -11.04 -38.63 0 0 -11.05 88.3 0 0 11.05 -38.62 0 0 11.04 22.06 0 0 13.8c1.53,0 2.77,1.23 2.77,2.75l11.03 0zm-20.29 16.03c-2.47,-4.22 -5.81,-7.56 -10.03,-10.03 -4.22,-2.47 -8.84,-3.7 -13.83,-3.7 -5.01,0 -9.62,1.23 -13.85,3.7 -4.22,2.45 -7.56,5.81 -10.02,10.03 -2.47,4.22 -3.69,8.84 -3.69,13.83 0,5.01 1.22,9.61 3.69,13.83 2.46,4.22 5.8,7.58 10.02,10.04 4.23,2.46 8.84,3.69 13.85,3.69 4.99,0 9.61,-1.23 13.83,-3.69 4.22,-2.46 7.56,-5.82 10.03,-10.04 2.47,-4.22 3.7,-8.82 3.7,-13.83 0,-4.99 -1.23,-9.61 -3.7,-13.83zm-10.87 20.33c0.45,0.45 0.68,0.99 0.68,1.61 0,0.64 -0.23,1.19 -0.68,1.66l-3.24 3.22c-0.45,0.46 -1,0.68 -1.64,0.68 -0.62,0 -1.16,-0.22 -1.62,-0.68l-6.49 -6.49 -6.5 6.49c-0.45,0.46 -0.99,0.68 -1.61,0.68 -0.66,0 -1.21,-0.22 -1.66,-0.68l-3.22 -3.22c-0.46,-0.47 -0.68,-1.02 -0.68,-1.66 0,-0.62 0.22,-1.16 0.68,-1.61l6.49 -6.5 -6.49 -6.49c-0.46,-0.46 -0.68,-1 -0.68,-1.62 0,-0.64 0.22,-1.19 0.68,-1.64l3.22 -3.24c0.45,-0.45 1,-0.68 1.66,-0.68 0.62,0 1.16,0.23 1.61,0.68l6.5 6.5 6.49 -6.5c0.46,-0.45 1,-0.68 1.62,-0.68 0.64,0 1.19,0.23 1.64,0.68l3.24 3.24c0.45,0.45 0.68,1 0.68,1.64 0,0.62 -0.23,1.16 -0.68,1.62l-6.5 6.49 6.5 6.5z"/>
 </g>
</svg>
