<?xml version="1.0" encoding="UTF-8"?>
<!DOCTYPE svg PUBLIC "-//W3C//DTD SVG 1.1//EN" "http://www.w3.org/Graphics/SVG/1.1/DTD/svg11.dtd">
<!-- Creator: CorelDRAW 2018 (64-Bit) -->
<svg xmlns="http://www.w3.org/2000/svg" xml:space="preserve" width="5.5238mm" height="5.5238mm" version="1.1" style="shape-rendering:geometricPrecision; text-rendering:geometricPrecision; image-rendering:optimizeQuality; fill-rule:evenodd; clip-rule:evenodd"
viewBox="0 0 152.38 152.38"
 xmlns:xlink="http://www.w3.org/1999/xlink">
 <defs>
  <style type="text/css">
   <![CDATA[
    .fil0 {fill: #ff794d}
   ]]>
  </style>
 </defs>
 <g id="Layer_x0020_1">
  <metadata id="CorelCorpID_0Corel-Layer"/>
  <path class="fil0" d="M97.81 40.15l-59.24 0c-2.85,0 -5.17,2.31 -5.17,5.18l0 0.81 -21 2.42 37.21 4.84 -37.7 3.75 37.56 5.34 -37.56 3.26 21.49 4.05 0 10.17 107.06 0 0 -3.78c0,-1.85 -0.74,-3.61 -2.03,-4.9l-20.34 -20.11c-1.29,-1.28 -3.03,-2.01 -4.85,-2.01l-10.26 0 0 -3.84c0,-2.87 -2.31,-5.18 -5.17,-5.18zm-92.09 36.04c0,-38.92 31.55,-70.47 70.47,-70.47 38.92,0 70.47,31.55 70.47,70.47 0,38.92 -31.55,70.47 -70.47,70.47 -38.92,0 -70.47,-31.55 -70.47,-70.47zm146.67 0c0,-42.08 -34.12,-76.2 -76.2,-76.2 -42.08,0 -76.2,34.12 -76.2,76.2 0,42.08 34.12,76.2 76.2,76.2 42.08,0 76.2,-34.12 76.2,-76.2zm-31.32 25.32c0,2.95 -2.41,5.37 -5.36,5.37 -2.97,0 -5.36,-2.42 -5.36,-5.37 0,-2.97 2.39,-5.36 5.36,-5.36 2.95,0 5.36,2.39 5.36,5.36zm-16.11 0c0,5.92 4.82,10.73 10.75,10.73 5.92,0 10.73,-4.81 10.73,-10.73 0,-5.93 -4.81,-10.75 -10.73,-10.75 -5.93,0 -10.75,4.82 -10.75,10.75zm-45.41 10.73c5.93,0 10.72,-4.81 10.72,-10.73 0,-5.93 -4.79,-10.75 -10.72,-10.75 -5.94,0 -10.73,4.82 -10.73,10.75 0,5.92 4.79,10.73 10.73,10.73zm5.36 -10.73c0,2.95 -2.4,5.37 -5.36,5.37 -2.97,0 -5.37,-2.42 -5.37,-5.37 0,-2.97 2.4,-5.36 5.37,-5.36 2.96,0 5.36,2.39 5.36,5.36zm75.56 -18.68l-107.07 0 0 11.45c0,2.86 2.32,5.18 5.17,5.18l6.94 0c1,-6.87 6.92,-12.15 14.04,-12.15 7.12,0 13.04,5.28 14.04,12.15l28.07 0c1,-6.87 6.91,-12.15 14.04,-12.15 7.14,0 13.06,5.28 14.06,12.15l5.53 0c2.86,0 5.18,-2.32 5.18,-5.18l0 -11.45zm-10.91 -10.87l-19.68 0c-0.45,0 -0.81,-0.36 -0.81,-0.81l0 -15.2c0,-0.45 0.36,-0.81 0.81,-0.81l3.74 0c0.21,0 0.42,0.09 0.57,0.23l15.92 15.19c0.54,0.5 0.18,1.4 -0.55,1.4z"/>
 </g>
</svg>
