<?xml version="1.0" encoding="UTF-8"?>
<!DOCTYPE svg PUBLIC "-//W3C//DTD SVG 1.1//EN" "http://www.w3.org/Graphics/SVG/1.1/DTD/svg11.dtd">
<!-- Creator: CorelDRAW 2018 (64-Bit) -->
<svg xmlns="http://www.w3.org/2000/svg" xml:space="preserve" width="5.5238mm" height="5.5238mm" version="1.1" style="shape-rendering:geometricPrecision; text-rendering:geometricPrecision; image-rendering:optimizeQuality; fill-rule:evenodd; clip-rule:evenodd"
viewBox="0 0 152.38 152.38"
 xmlns:xlink="http://www.w3.org/1999/xlink">
 <defs>
  <style type="text/css">
   <![CDATA[
    .fil0 {fill:red}
   ]]>
  </style>
 </defs>
 <g id="Layer_x0020_1">
  <metadata id="CorelCorpID_0Corel-Layer"/>
  <path class="fil0" d="M111.08 63.55l-18.82 -16.3c-0.55,-0.47 -1.26,-0.71 -1.99,-0.66 -0.73,0.06 -1.4,0.4 -1.88,0.95l-4.19 4.85c-0.63,0.73 -1.75,0.82 -2.49,0.2l-6.9 -5.74 -6.83 7.33 0.57 0.46c0.31,0.26 0.53,0.63 0.61,1.03l12.39 64.44c0.42,2.17 1.81,4.04 3.77,5.06 1.96,1.03 4.28,1.11 6.31,0.21l18.54 -8.19c0.44,-0.19 0.94,-0.2 1.38,-0.02 0.45,0.18 0.81,0.53 0.99,0.98 0.24,0.59 0.7,1.05 1.28,1.3 0.58,0.24 1.24,0.24 1.82,0l9.04 -3.7c1.21,-0.5 1.8,-1.89 1.3,-3.11l-16.86 -41.14c-0.26,-0.62 -0.14,-1.33 0.3,-1.84l1.94 -2.24c0.99,-1.15 0.86,-2.87 -0.28,-3.87zm-105.36 12.64c0,-38.92 31.55,-70.47 70.47,-70.47 38.92,0 70.47,31.55 70.47,70.47 0,38.92 -31.55,70.47 -70.47,70.47 -38.92,0 -70.47,-31.55 -70.47,-70.47zm146.67 0c0,-42.08 -34.12,-76.2 -76.2,-76.2 -42.08,0 -76.2,34.12 -76.2,76.2 0,42.08 34.12,76.2 76.2,76.2 42.08,0 76.2,-34.12 76.2,-76.2zm-108.32 -4.57c0,-4.12 -5.77,-13.31 -8.92,-16.94 -3.14,3.62 -8.92,12.81 -8.92,16.94 -0.08,2.39 0.83,4.71 2.52,6.4 1.69,1.69 4.01,2.61 6.4,2.52 2.39,0.09 4.71,-0.83 6.4,-2.52 1.69,-1.69 2.6,-4.01 2.52,-6.4zm21.17 -19.73l6.82 -7.32 -11.2 -9.1c-0.28,-0.23 -0.6,-0.4 -0.95,-0.5l-28.84 -8.49c-0.7,-0.21 -1.45,-0.13 -2.09,0.22 -0.64,0.35 -1.12,0.94 -1.32,1.64l-1.28 4.34c-0.42,1.45 0.41,2.97 1.86,3.4l26.64 7.85c0.83,0.24 1.6,0.65 2.26,1.21l8.1 6.75zm25.96 26.89c4.18,-0.73 8.27,1.7 9.64,5.71l8.56 25.44c0.3,0.88 -0.13,1.83 -0.97,2.2l-5.66 2.51 -7.93 -23.54c-0.95,-2.87 -2.72,-5.38 -5.1,-7.24l-4.3 -3.4c0.94,-0.6 1.99,-1 3.09,-1.2l0.01 0 2.66 -0.48zm0.25 13.44l8.03 23.86 -8.1 3.58c-1.15,0.51 -2.48,0.45 -3.58,-0.16 -1.11,-0.6 -1.86,-1.69 -2.05,-2.94l-4.18 -27.58c-0.32,-2.09 0.15,-4.22 1.32,-5.99l4.65 3.68c1.82,1.42 3.18,3.35 3.91,5.55zm-12.65 -25.47l2.53 10.71c0.22,0.96 -0.37,1.91 -1.33,2.14 -0.13,0.03 -0.27,0.05 -0.41,0.05 -0.83,0 -1.55,-0.57 -1.74,-1.38l-2.52 -10.7c-0.15,-0.62 0.05,-1.27 0.51,-1.71 0.46,-0.44 1.13,-0.59 1.74,-0.41 0.61,0.18 1.08,0.68 1.22,1.3l0 0zm-4.99 -10.68c0.95,-0.24 1.92,0.33 2.17,1.29l0.89 3.49c0.24,0.95 -0.33,1.93 -1.29,2.17 -0.14,0.04 -0.29,0.06 -0.44,0.06 -0.82,-0.01 -1.53,-0.56 -1.73,-1.35l-0.89 -3.49c-0.12,-0.45 -0.05,-0.94 0.2,-1.35 0.24,-0.41 0.63,-0.7 1.09,-0.82z"/>
 </g>
</svg>
