<?xml version="1.0" encoding="UTF-8"?>
<!DOCTYPE svg PUBLIC "-//W3C//DTD SVG 1.1//EN" "http://www.w3.org/Graphics/SVG/1.1/DTD/svg11.dtd">
<!-- Creator: CorelDRAW 2018 (64-Bit) -->
<svg xmlns="http://www.w3.org/2000/svg" xml:space="preserve" width="5.5238mm" height="5.5238mm" version="1.1" style="shape-rendering:geometricPrecision; text-rendering:geometricPrecision; image-rendering:optimizeQuality; fill-rule:evenodd; clip-rule:evenodd"
viewBox="0 0 152.38 152.38"
 xmlns:xlink="http://www.w3.org/1999/xlink">
 <defs>
  <style type="text/css">
   <![CDATA[
    .fil0 {fill:#1f5baa}
   ]]>
  </style>
 </defs>
 <g id="Layer_x0020_1">
  <metadata id="CorelCorpID_0Corel-Layer"/>
  <path class="fil0" d="M104.79 50.57l8.6 -10.25c7.06,6.98 12.17,15.93 14.44,25.94l-12.69 2.24 1.25 7.12 12.55 -2.21c0.13,1.5 0.2,3.02 0.2,4.56 0,8.68 -2.1,16.87 -5.82,24.11l-10.52 -6.07 -3.61 6.25 8.18 4.73 11.19 0c4.88,-8.78 7.48,-18.7 7.48,-29.02 0,-15.99 -6.23,-31.02 -17.53,-42.33 -11.31,-11.3 -26.34,-17.53 -42.32,-17.53 -15.99,0 -31.02,6.23 -42.33,17.53 -11.3,11.31 -17.53,26.34 -17.53,42.33 0,10.32 2.6,20.24 7.49,29.02l11.18 0 8.18 -4.73 -3.61 -6.25 -10.52 6.07c-3.72,-7.24 -5.82,-15.43 -5.82,-24.11 0,-1.54 0.07,-3.06 0.2,-4.56l12.55 2.21 1.25 -7.12 -12.69 -2.24c2.27,-10.01 7.38,-18.96 14.44,-25.94l8.6 10.25 5.54 -4.64 -8.67 -10.33c7.95,-5.97 17.62,-9.75 28.12,-10.46l0 13.71 7.23 0 0 -13.71c10.5,0.71 20.17,4.5 28.12,10.46l-8.67 10.33 5.54 4.64zm-99.07 25.62c0,-38.92 31.55,-70.47 70.47,-70.47 38.92,0 70.47,31.55 70.47,70.47 0,38.92 -31.55,70.47 -70.47,70.47 -38.92,0 -70.47,-31.55 -70.47,-70.47zm146.67 0c0,-42.08 -34.12,-76.2 -76.2,-76.2 -42.08,0 -76.2,34.12 -76.2,76.2 0,42.08 34.12,76.2 76.2,76.2 42.08,0 76.2,-34.12 76.2,-76.2zm-69.05 1.42c0.72,-2.6 -0.82,-5.3 -3.42,-6.02 -2.6,-0.71 -5.29,0.82 -6.01,3.42l-21.6 17.01 25.31 -10.92c2.51,0.53 5.03,-0.99 5.72,-3.49z"/>
 </g>
</svg>
