<?xml version="1.0" encoding="UTF-8"?>
<!DOCTYPE svg PUBLIC "-//W3C//DTD SVG 1.1//EN" "http://www.w3.org/Graphics/SVG/1.1/DTD/svg11.dtd">
<!-- Creator: CorelDRAW 2018 (64-Bit) -->
<svg xmlns="http://www.w3.org/2000/svg" xml:space="preserve" width="5.5238mm" height="5.5238mm" version="1.1" style="shape-rendering:geometricPrecision; text-rendering:geometricPrecision; image-rendering:optimizeQuality; fill-rule:evenodd; clip-rule:evenodd"
viewBox="0 0 152.38 152.38"
 xmlns:xlink="http://www.w3.org/1999/xlink">
 <defs>
  <style type="text/css">
   <![CDATA[
    .fil0 {fill:black}
   ]]>
  </style>
 </defs>
 <g id="Layer_x0020_1">
  <metadata id="CorelCorpID_0Corel-Layer"/>
  <path class="fil0" d="M84.36 47.43l-51.76 0c-1,0 -1.82,0.82 -1.82,1.82l0 45.41c0,1 0.82,1.82 1.82,1.82l4.65 0c0.9,0 1.7,-0.65 1.81,-1.54 0.71,-5.47 5.07,-8.85 10.34,-8.85 3.32,0 6.27,1.34 8.18,3.69l-2.37 2.38c-1.42,-1.62 -3.5,-2.65 -5.81,-2.65 -4.26,0 -7.72,3.47 -7.72,7.72 0,2.32 1.02,4.39 2.64,5.81l-8.36 8.36c-8.56,-9.74 -13.23,-22.12 -13.23,-35.21 0,-14.28 5.56,-27.71 15.65,-37.8 10.1,-10.1 23.53,-15.66 37.81,-15.66 13.09,0 25.46,4.67 35.21,13.23l-25.22 25.22 0 -11.93c0,-1 -0.81,-1.82 -1.82,-1.82zm-78.64 28.76c0,-38.92 31.55,-70.47 70.47,-70.47 38.92,0 70.47,31.55 70.47,70.47 0,38.92 -31.55,70.47 -70.47,70.47 -38.92,0 -70.47,-31.55 -70.47,-70.47zm146.67 0c0,-42.08 -34.12,-76.2 -76.2,-76.2 -42.08,0 -76.2,34.12 -76.2,76.2 0,42.08 34.12,76.2 76.2,76.2 42.08,0 76.2,-34.12 76.2,-76.2zm-46.69 13.32c-4.25,0 -7.71,3.47 -7.71,7.72 0,4.26 3.46,7.72 7.71,7.72 4.26,0 7.72,-3.46 7.72,-7.72 0,-4.25 -3.46,-7.72 -7.72,-7.72zm2.27 7.72c0,1.25 -1.01,2.27 -2.27,2.27 -1.25,0 -2.27,-1.02 -2.27,-2.27 0,-1.25 1.02,-2.27 2.27,-2.27 1.26,0 2.27,1.02 2.27,2.27zm11.04 -63.86c-11.43,-11.44 -26.64,-17.74 -42.82,-17.74 -16.18,0 -31.39,6.3 -42.82,17.74 -11.44,11.44 -17.74,26.65 -17.74,42.82 0,16.18 6.3,31.39 17.74,42.83 11.43,11.43 26.64,17.73 42.82,17.73 16.18,0 31.39,-6.3 42.82,-17.73 11.44,-11.44 17.74,-26.65 17.74,-42.83 0,-16.17 -6.3,-31.38 -17.74,-42.82zm-32.83 61.29l0 -23.44 3.63 -3.63 0 27.07c0,1 0.82,1.82 1.82,1.82l1.93 0c0.89,0 1.69,-0.65 1.81,-1.54 0.71,-5.47 5.07,-8.85 10.34,-8.85 5.27,0 9.62,3.38 10.34,8.85 0.11,0.89 0.91,1.54 1.81,1.54l1.92 0c1,0 1.82,-0.82 1.82,-1.82l0 -17.71c0,-0.43 -0.15,-0.84 -0.43,-1.17l-14.81 -17.71c-0.35,-0.41 -0.86,-0.65 -1.39,-0.65l-4.99 0 16.44 -16.44c8.56,9.75 13.23,22.12 13.23,35.21 0,14.28 -5.56,27.71 -15.65,37.81 -10.1,10.1 -23.53,15.66 -37.81,15.66 -13.09,0 -25.46,-4.68 -35.21,-13.24l12.93 -12.93c0.67,-0.49 1.26,-1.07 1.75,-1.75l5.35 -5.35c0.17,0.06 0.35,0.09 0.54,0.09l22.81 0c1.01,0 1.82,-0.82 1.82,-1.82zm9.08 -20.89c-1,0 -1.81,-0.81 -1.81,-1.81l0 -8 2.9 -2.9 6.91 0c0.54,0 1.05,0.23 1.4,0.65l7.57 9.08c0.98,1.18 0.14,2.98 -1.4,2.98l-15.57 0zm-43.93 22.26l-3.13 3.13c-0.64,-0.4 -1.07,-1.11 -1.07,-1.93 0,-1.25 1.02,-2.27 2.27,-2.27 0.81,0 1.53,0.43 1.93,1.07z"/>
 </g>
</svg>
