<?xml version="1.0" encoding="UTF-8"?>
<!DOCTYPE svg PUBLIC "-//W3C//DTD SVG 1.1//EN" "http://www.w3.org/Graphics/SVG/1.1/DTD/svg11.dtd">
<!-- Creator: CorelDRAW 2018 (64-Bit) -->
<svg xmlns="http://www.w3.org/2000/svg" xml:space="preserve" width="5.5238mm" height="5.5238mm" version="1.1" style="shape-rendering:geometricPrecision; text-rendering:geometricPrecision; image-rendering:optimizeQuality; fill-rule:evenodd; clip-rule:evenodd"
viewBox="0 0 152.38 152.38"
 xmlns:xlink="http://www.w3.org/1999/xlink">
 <defs>
  <style type="text/css">
   <![CDATA[
    .fil0 {fill:#b2b2b2}
   ]]>
  </style>
 </defs>
 <g id="Layer_x0020_1">
  <metadata id="CorelCorpID_0Corel-Layer"/>
  <path class="fil0" d="M96.42 109.21c0.87,-5.93 5.98,-10.52 12.15,-10.52 6.17,0 11.27,4.59 12.13,10.52l12.11 0c0.82,0 1.49,-0.67 1.49,-1.49l0 -4.55c0,-0.82 -0.67,-1.49 -1.49,-1.49l-3.63 0 0 -20.31c0,-2.38 -0.72,-4.71 -2.05,-6.68l-9.1 -13.48c-2.23,-3.29 -5.93,-5.26 -9.91,-5.26l-14.11 0c-1.66,0 -2.99,1.34 -2.99,2.99l0 42.74 -23.1 0c2.2,1.9 3.71,4.54 4.14,7.53l24.36 0zm-90.7 -33.02c0,-38.92 31.55,-70.47 70.47,-70.47 38.92,0 70.47,31.55 70.47,70.47 0,38.92 -31.55,70.47 -70.47,70.47 -38.92,0 -70.47,-31.55 -70.47,-70.47zm146.67 0c0,-42.08 -34.12,-76.2 -76.2,-76.2 -42.08,0 -76.2,34.12 -76.2,76.2 0,42.08 34.12,76.2 76.2,76.2 42.08,0 76.2,-34.12 76.2,-76.2zm-110.1 -23.72l0 -9.49c0,-1.24 -1.01,-2.24 -2.24,-2.24 -1.24,0 -2.25,1 -2.25,2.24l0 11.21c0,1.01 0.68,1.9 1.66,2.16l7.28 1.96c0.2,0.06 0.4,0.08 0.59,0.08 0.99,0 1.89,-0.66 2.16,-1.66 0.32,-1.19 -0.38,-2.42 -1.58,-2.75l-5.62 -1.51zm-1.63 24.83c12.48,0 22.6,-10.12 22.6,-22.6 0,-12.48 -10.12,-22.59 -22.6,-22.59 -12.48,0 -22.59,10.11 -22.59,22.59 0,12.48 10.12,22.6 22.59,22.6zm17.46 -22.6c0,9.64 -7.82,17.46 -17.46,17.46 -9.64,0 -17.45,-7.82 -17.45,-17.46 0,-9.64 7.81,-17.45 17.45,-17.45 9.64,0 17.46,7.81 17.46,17.45zm50.45 46.98c-5.14,0 -9.3,4.17 -9.3,9.31 0,5.13 4.16,9.3 9.3,9.3 5.13,0 9.3,-4.17 9.3,-9.3 0,-5.14 -4.17,-9.31 -9.3,-9.31zm-4.65 9.31c0,-2.57 2.08,-4.65 4.65,-4.65 2.57,0 4.65,2.08 4.65,4.65 0,2.56 -2.08,4.65 -4.65,4.65 -2.57,0 -4.65,-2.09 -4.65,-4.65zm-56.15 -1.78c0.44,-2.99 1.95,-5.63 4.13,-7.53l-20.83 0c-0.83,0 -1.5,0.67 -1.5,1.49l0 4.55c0,0.82 0.67,1.49 1.5,1.49l16.7 0zm21.43 1.78c0,-5.14 -4.15,-9.31 -9.29,-9.31 -5.13,0 -9.3,4.17 -9.3,9.31 0,5.13 4.17,9.3 9.3,9.3 5.14,0 9.29,-4.17 9.29,-9.3zm-9.29 -4.65c2.57,0 4.65,2.08 4.65,4.65 0,2.56 -2.08,4.65 -4.65,4.65 -2.57,0 -4.65,-2.09 -4.65,-4.65 0,-2.57 2.08,-4.65 4.65,-4.65zm26.84 -10.62l0 -44.55c0,-2.48 -2,-4.49 -4.48,-4.49l-17.32 0c0.85,2.53 1.3,5.23 1.3,8.03 0,14.11 -11.48,25.58 -25.59,25.58 -2.57,0 -5.07,-0.38 -7.41,-1.09l0 16.52c0,0.82 0.67,1.49 1.49,1.49l50.52 0c0.82,0 1.49,-0.67 1.49,-1.49zm31.17 -18.34l-18.62 0c-0.82,0 -1.49,-0.66 -1.49,-1.49l0 -10.33c0,-0.82 0.67,-1.5 1.49,-1.5l11.35 0c0.49,0 0.94,0.24 1.22,0.63l7.28 10.34c0.69,0.99 -0.01,2.35 -1.23,2.35z"/>
 </g>
</svg>
