<?xml version="1.0" encoding="UTF-8"?>
<!DOCTYPE svg PUBLIC "-//W3C//DTD SVG 1.1//EN" "http://www.w3.org/Graphics/SVG/1.1/DTD/svg11.dtd">
<!-- Creator: CorelDRAW 2018 (64-Bit) -->
<svg xmlns="http://www.w3.org/2000/svg" xml:space="preserve" width="4.5238mm" height="4.5238mm" version="1.1" style="shape-rendering:geometricPrecision; text-rendering:geometricPrecision; image-rendering:optimizeQuality; fill-rule:evenodd; clip-rule:evenodd"
viewBox="0 0 152.38 152.38"
 xmlns:xlink="http://www.w3.org/1999/xlink">
 <defs>
  <style type="text/css">
   <![CDATA[
    .fil0 {fill:red}
   ]]>
  </style>
 </defs>
 <g id="Layer_x0020_1">
  <metadata id="CorelCorpID_0Corel-Layer"/>
  <path class="fil0" d="M112.58 98.63l26.19 0c0.35,0 0.65,-0.28 0.66,-0.63l0.09 -3.07 -0.01 -2.44 -0.37 -5.75c-0.52,-5.42 -1.6,-10.29 -3.26,-15.39 -0.1,-0.34 -0.46,-0.53 -0.8,-0.43l-21.42 6.1c-0.75,0.21 -0.39,1.15 -0.28,1.71 0.59,3.24 0.76,6.85 0.62,10.17l-0.08 1.67c-0.28,2.83 -0.6,5.31 -1.34,8.06zm-106.86 -22.44c0,-38.92 31.55,-70.47 70.47,-70.47 38.92,0 70.47,31.55 70.47,70.47 0,38.92 -31.55,70.47 -70.47,70.47 -38.92,0 -70.47,-31.55 -70.47,-70.47zm146.67 0c0,-42.08 -34.12,-76.2 -76.2,-76.2 -42.08,0 -76.2,34.12 -76.2,76.2 0,42.08 34.12,76.2 76.2,76.2 42.08,0 76.2,-34.12 76.2,-76.2zm-132.92 -1.65l-4.44 -1.18c-0.36,-0.1 -0.74,0.13 -0.81,0.5 -1.14,5.63 -1.6,10.92 -1.25,16.66l0.91 7.57c0.06,0.32 0.33,0.54 0.65,0.54l1.77 0c0.67,0 0.66,-0.61 0.64,-1l0 -7.07c0.13,-2.94 0.74,-6.53 1.36,-9.44l1.63 -5.73c0.12,-0.36 -0.09,-0.75 -0.46,-0.85zm19.49 -26.19l-5.73 -6.71c-0.55,-0.64 -1.16,0.15 -1.61,0.59 -2.24,2.17 -5.25,5.58 -7,8.12 -3.87,5.46 -6.48,10.53 -8.61,16.87 -0.11,0.33 0.06,0.69 0.39,0.82l5.03 1.93c0.75,0.28 0.99,-0.7 1.37,-1.46 2.41,-4.82 5.09,-8.6 8.69,-12.6 1.62,-1.8 3.93,-3.92 5.83,-5.42l1.53 -1.19c0.3,-0.23 0.35,-0.66 0.11,-0.95zm29.68 -9.36l-0.86 -13.01c-0.05,-0.8 -0.89,-0.6 -1.32,-0.54 -4.67,0.6 -8.2,1.45 -12.69,2.98 -4.8,1.64 -9.94,4.33 -14.09,7.19l-1.95 1.39c-0.28,0.21 -0.35,0.61 -0.15,0.9l5.4 7.94c0.45,0.66 1.18,0.01 1.88,-0.36 5.51,-2.88 10.44,-4.56 16.59,-5.4l6.54 -0.39c0.38,-0.01 0.67,-0.33 0.65,-0.7zm8.28 1.64l7.25 -14.84c-3.59,-0.56 -6.12,-0.78 -9.74,-0.82 -0.36,-0.01 -0.65,0.27 -0.67,0.62l-0.66 13.81c-0.03,0.68 0.65,0.7 1.07,0.75l2.75 0.48zm2.04 49.37l16.72 -72.59c0.45,-1.95 -2.27,-2.92 -3.16,-1.11l-32.71 66.91c-2.48,5.08 -0.38,11.2 4.69,13.68 5.86,2.86 12.94,-0.41 14.46,-6.89zm-9.59 -7.57c2.77,0 5.01,2.24 5.01,5.01 0,2.77 -2.24,5.01 -5.01,5.01 -2.77,0 -5.01,-2.24 -5.01,-5.01 0,-2.77 2.24,-5.01 5.01,-5.01zm27.27 -33.35l9.47 -14.43c0.46,-0.7 -0.47,-1.07 -1.01,-1.38 -2.81,-1.6 -5.65,-2.97 -8.7,-4.14l-4.08 17.74 1.35 0.89 2.03 1.49c0.3,0.22 0.73,0.15 0.94,-0.17zm16.13 23.93l19.93 -8.01c0.74,-0.29 0.28,-1.04 0.1,-1.42 -2.66,-5.62 -5.59,-10.27 -9.58,-15.09 -3.33,-4.02 -6.91,-7.38 -11.03,-10.54 -0.28,-0.21 -0.68,-0.16 -0.9,0.11l-11.5 13.91c-0.49,0.6 0.29,1.09 0.77,1.61 4.07,4.3 6.64,7.99 9.15,13.33l2.19 5.7c0.12,0.36 0.52,0.54 0.87,0.4z"/>
 </g>
</svg>
