<?xml version="1.0" encoding="UTF-8"?>
<!DOCTYPE svg PUBLIC "-//W3C//DTD SVG 1.1//EN" "http://www.w3.org/Graphics/SVG/1.1/DTD/svg11.dtd">
<!-- Creator: CorelDRAW 2018 (64-Bit) -->
<svg xmlns="http://www.w3.org/2000/svg" xml:space="preserve" width="6.2012mm" height="6.2012mm" version="1.1" style="shape-rendering:geometricPrecision; text-rendering:geometricPrecision; image-rendering:optimizeQuality; fill-rule:evenodd; clip-rule:evenodd"
viewBox="0 0 220.12 220.12"
 xmlns:xlink="http://www.w3.org/1999/xlink">
 <defs>
  <style type="text/css">
   <![CDATA[
    .fil0 {fill:red}
   ]]>
  </style>
 </defs>
 <g id="Layer_x0020_1">
  <metadata id="CorelCorpID_0Corel-Layer"/>
  <path class="fil0" d="M201.77 178.4c-17.9,-17.79 -26.98,-38.84 -26.98,-62.58l0 -34.54c0.17,-26.34 -17.54,-43.81 -32.76,-50.76 -4.29,-1.96 -8.81,-3.41 -13.42,-4.53l0 -2.35c0,-10.58 -8.61,-19.2 -19.2,-19.2 -10.59,0 -19.2,8.62 -19.2,19.2l0 2.71c-4.15,1.09 -8.22,2.42 -12.09,4.2 -16.82,7.75 -33.85,26.44 -34.01,50.71l0 34.56c0,24.54 -8.66,45.59 -25.75,62.57 -1.02,1.02 -1.39,2.51 -0.96,3.88 0.43,1.37 1.6,2.39 3.01,2.64l36.46 6.29c6.87,1.19 13.12,2.14 18.99,2.91 6.7,13.14 19.86,21.58 34.25,21.58 14.39,0 27.56,-8.45 34.26,-21.59 5.84,-0.78 12.05,-1.72 18.89,-2.9l36.45 -6.3c1.42,-0.24 2.57,-1.26 3.01,-2.63 0.43,-1.37 0.06,-2.86 -0.95,-3.87zm-47.14 -32.56l-82.4 -82.41c-1.86,-1.86 -4.87,-1.86 -6.74,0 -1.86,1.87 -1.86,4.88 0,6.74l82.41 82.4c0.93,0.93 2.15,1.44 3.36,1.44 1.22,0 2.44,-0.51 3.37,-1.44 1.86,-1.86 1.86,-4.87 0,-6.73zm-23.14 -29.02c0.43,0.5 1.07,0.86 1.72,0.71 0.64,0 1.29,-0.28 1.72,-0.71l11.53 -11.9c0.65,-0.72 0.86,-1.65 0.5,-2.58 -0.35,-0.86 -1.21,-1.43 -2.22,-1.43l-17.27 0 20 -34.68c0.43,-0.72 0.43,-1.51 0,-2.22 -0.43,-0.72 -1.22,-1.08 -2.08,-1.08l-45 0c-1.07,0 -2.01,0.5 -2.29,1.51l-3.66 12.18c-0.21,0.86 0,1.72 0.58,2.29l36.47 37.91zm-41.85 -16.13c-0.57,-0.57 -1.43,-0.78 -2.22,-0.64 -0.79,0.14 -1.43,0.72 -1.72,1.5l-7.31 20c-0.28,0.71 -0.07,1.57 0.36,2.22 0.43,0.64 1.36,1.14 2.08,1.14l0 0 0 0.43 21.06 0 -9.74 29.88c-0.36,1.08 0.07,2.08 1.07,2.65 0.36,0.22 0.79,0.22 1.22,0.22 0.65,0 1.29,-0.29 1.79,-0.79l22.43 -24.58c0.86,-0.93 0.86,-2.43 -0.07,-3.29l-28.95 -28.74zm8.24 -77.05c0,-6.35 5.17,-11.52 11.53,-11.52 6.35,0 11.52,5.17 11.52,11.52l0 0.75c-7.66,-1.09 -15.46,-1.03 -23.05,0.19l0 -0.94zm36.9 171.6c-5.84,7.92 -14.93,12.76 -24.67,12.76 -9.73,0 -18.83,-4.83 -24.66,-12.75l0 0c1.52,0.16 3,0.28 4.47,0.41 0.71,0.06 1.43,0.13 2.12,0.19 0.54,0.04 1.06,0.07 1.59,0.11 11.16,0.81 21.44,0.81 32.6,0.02 0.64,-0.05 1.26,-0.08 1.91,-0.13 0.84,-0.07 1.71,-0.16 2.56,-0.23 1.3,-0.11 2.59,-0.22 3.93,-0.36 0.05,-0.01 0.1,-0.01 0.15,-0.02z"/>
 </g>
</svg>
