<?xml version="1.0" encoding="UTF-8"?>
<!DOCTYPE svg PUBLIC "-//W3C//DTD SVG 1.1//EN" "http://www.w3.org/Graphics/SVG/1.1/DTD/svg11.dtd">
<!-- Creator: CorelDRAW 2018 (64-Bit) -->
<svg xmlns="http://www.w3.org/2000/svg" xml:space="preserve" width="5.5238mm" height="5.5238mm" version="1.1" style="shape-rendering:geometricPrecision; text-rendering:geometricPrecision; image-rendering:optimizeQuality; fill-rule:evenodd; clip-rule:evenodd"
viewBox="0 0 152.38 152.38"
 xmlns:xlink="http://www.w3.org/1999/xlink">
 <defs>
  <style type="text/css">
   <![CDATA[
    .fil0 {fill:red}
   ]]>
  </style>
 </defs>
 <g id="Layer_x0020_1">
  <metadata id="CorelCorpID_0Corel-Layer"/>
  <path class="fil0" d="M5.72 76.19c0,-38.92 31.55,-70.47 70.47,-70.47 38.92,0 70.47,31.55 70.47,70.47 0,38.92 -31.55,70.47 -70.47,70.47 -38.92,0 -70.47,-31.55 -70.47,-70.47zm68.21 -43.93l0 0 0 0 0 -5.36 0 -10.72 0 0 4.53 0 0 16.08 -0.01 0 0 0.01 -2.26 -0.01 -2.26 0zm-54.55 54.18l11.29 -1.99 4.55 -0.8 0 0 0.01 0 -0.4 -2.25 -0.39 -2.2 0 0 0 -0.01 -15.85 2.79 0.79 4.46zm100.11 -39.82l-8.14 4.7 0 0 0 0 1.25 2.18 1.01 1.73 0 0 13.93 -8.04 -2.26 -3.92 -5.79 3.35zm-70.3 59.7l-1.78 -1.49 0 0 0 0 -10.35 12.32 3.47 2.91 4.5 -5.37 5.84 -6.96 0 0 -1.68 -1.41zm76.03 -1.1l2.26 -3.92 -4.86 -2.81 -9.06 -5.24 0 0 0 0 -1.25 2.16 -1.02 1.76 0 0 0 0 13.93 8.05zm-106.61 -38.93l5.65 1 10.19 1.8 0 -0.01 0.01 0 0.67 -3.82 0.11 -0.63 0 -0.01 -15.84 -2.79 -0.79 4.46zm114.28 -4.34l-4.3 0.76 -11.54 2.03 0 0 0 0 0.58 3.3 0.2 1.16 0 0 0 0 15.85 -2.79 -0.79 -4.46zm-73.17 -26.41l0 0.01 3.67 -1.34 0.58 -0.21 0 0 -5.5 -15.12 -4.25 1.55 0.78 2.15 4.72 12.96 0 0zm-32.73 69.57l13.93 -8.04 0 0 0 0 -1.74 -3.02 -0.52 -0.9 0 0 0 0 -13.93 8.04 2.26 3.92 0 0 0 0zm74.32 2.7l10.34 12.32 3.47 -2.91 0 0 -10.34 -12.32 0 0 0 0 -2.4 2.02 -1.07 0.89 0 0zm-76.52 -60.72l0 0 13.93 8.05 0 0 1.96 -3.4 0.3 -0.52 0 0 -13.93 -8.04 -2.26 3.91zm108.87 35.01l0 0 -15.84 -2.8 -0.17 0.96 -0.62 3.5 15.84 2.8 0.79 -4.46zm-93.04 -53.84l-3.47 2.91 3.8 4.52 6.54 7.8 0 0 0 0 2.05 -1.72 1.42 -1.19 0 0 0 0 -10.34 -12.32zm51.93 -5.62l-4.15 11.39 0.01 0.01 0 0 2.83 1.03 1.42 0.51 0 0 0 0 5.5 -15.12 -4.25 -1.54 -1.36 3.72zm11.44 20.19l0.88 0.73 0 0 0 0 10.34 -12.32 -3.47 -2.91 0 0 0 0 -10.34 12.32 0 0 0 0.01 2.59 2.17zm-40.97 62.5c1.42,0 2.13,-1.41 2.13,-4.23 0,-2.91 -0.7,-4.38 -2.08,-4.38 -1.46,0 -2.19,1.49 -2.19,4.45 0,2.78 0.71,4.16 2.14,4.16zm-6.04 -13.61l12 0 0 18.77 -12 0 0 -18.77zm2.7 9.51c0,1.65 0.28,2.91 0.85,3.78 0.57,0.87 1.36,1.31 2.37,1.31 1.09,0 1.93,-0.46 2.54,-1.37 0.6,-0.92 0.91,-2.24 0.91,-3.97 0,-3.5 -1.07,-5.25 -3.22,-5.25 -1.12,0 -1.97,0.46 -2.56,1.4 -0.6,0.92 -0.89,2.29 -0.89,4.1zm10.87 -9.51l11.79 0 0 18.77 -11.79 0 0 -18.77zm3.1 14.17c0.47,0.28 1.17,0.43 2.12,0.43 1.12,0 2.01,-0.31 2.65,-0.91 0.64,-0.61 0.97,-1.4 0.97,-2.39 0,-0.96 -0.3,-1.71 -0.9,-2.26 -0.6,-0.55 -1.45,-0.83 -2.54,-0.83 -0.27,0 -0.56,0.01 -0.87,0.03l0 -3 3.84 0 0 -1.06 -4.95 0 0 5.14c0.78,-0.06 1.32,-0.09 1.6,-0.09 0.85,0 1.5,0.19 1.95,0.57 0.45,0.37 0.68,0.9 0.68,1.57 0,0.67 -0.23,1.22 -0.67,1.63 -0.44,0.41 -1.02,0.61 -1.75,0.61 -0.72,0 -1.43,-0.23 -2.13,-0.68l0 1.24 0 0zm9.91 -14.17l11.85 0 0 18.77 -11.85 0 0 -18.77zm2.94 9.51c0,1.65 0.29,2.91 0.86,3.78 0.56,0.87 1.36,1.31 2.37,1.31 1.09,0 1.93,-0.46 2.54,-1.37 0.6,-0.92 0.9,-2.24 0.9,-3.97 0,-3.5 -1.07,-5.25 -3.21,-5.25 -1.12,0 -1.97,0.46 -2.57,1.4 -0.59,0.92 -0.89,2.29 -0.89,4.1zm3.35 4.1c1.42,0 2.12,-1.41 2.12,-4.23 0,-2.91 -0.69,-4.38 -2.07,-4.38 -1.46,0 -2.19,1.49 -2.19,4.45 -0.01,2.78 0.71,4.16 2.14,4.16zm-11.69 -23.3c-0.28,0 -0.53,0.1 -0.79,0.16l-30.92 -27.28 27.5 30.96c-0.01,0.15 -0.09,0.29 -0.09,0.45 0,2.38 1.92,4.31 4.3,4.31 2.37,0 4.29,-1.93 4.29,-4.31 0,-2.36 -1.92,-4.29 -4.29,-4.29zm74.23 -5.84c0,-42.08 -34.12,-76.2 -76.2,-76.2 -42.08,0 -76.2,34.12 -76.2,76.2 0,42.08 34.12,76.2 76.2,76.2 42.08,0 76.2,-34.12 76.2,-76.2z"/>
 </g>
</svg>
