<?xml version="1.0" encoding="UTF-8"?>
<!DOCTYPE svg PUBLIC "-//W3C//DTD SVG 1.1//EN" "http://www.w3.org/Graphics/SVG/1.1/DTD/svg11.dtd">
<!-- Creator: CorelDRAW 2018 (64-Bit) -->
<svg xmlns="http://www.w3.org/2000/svg" xml:space="preserve" width="5.5238mm" height="5.5238mm" version="1.1" style="shape-rendering:geometricPrecision; text-rendering:geometricPrecision; image-rendering:optimizeQuality; fill-rule:evenodd; clip-rule:evenodd"
viewBox="0 0 152.38 152.38"
 xmlns:xlink="http://www.w3.org/1999/xlink">
 <defs>
  <style type="text/css">
   <![CDATA[
    .fil0 {fill:red}
   ]]>
  </style>
 </defs>
 <g id="Layer_x0020_1">
  <metadata id="CorelCorpID_0Corel-Layer"/>
  <path class="fil0" d="M5.72 76.19c0,-38.92 31.55,-70.47 70.47,-70.47 38.92,0 70.47,31.55 70.47,70.47 0,38.92 -31.55,70.47 -70.47,70.47 -38.92,0 -70.47,-31.55 -70.47,-70.47zm75.59 60.85c32.68,0 35.6,-25.24 35.6,-32.77 0,-7.53 0,-63.19 0,-63.19 0,-3.88 -3.14,-7.02 -7.02,-7.02 -3.88,0 -7.02,3.14 -7.02,7.02l0 30.43c0,1.29 -1.05,2.34 -2.34,2.34 -1.29,0 -2.34,-1.05 -2.34,-2.34l0 -44.47c0,-3.88 -3.14,-7.02 -7.02,-7.02 -3.88,0 -7.02,3.14 -7.02,7.02l0 39.79c0,1.29 -1.05,2.34 -2.34,2.34 -1.3,0 -2.34,-1.05 -2.34,-2.34l0 -44.47c0,-3.88 -3.15,-7.02 -7.03,-7.02 -3.87,0 -7.02,3.14 -7.02,7.02l0 44.47c0,1.29 -1.04,2.34 -2.34,2.34 -1.29,0 -2.34,-1.05 -2.34,-2.34l0 -35.11c0,-3.88 -3.14,-7.02 -7.02,-7.02 -3.87,0 -7.02,3.14 -7.02,7.02l0 58.51 -9.48 -12.97c-2.81,-4.33 -8.29,-5.78 -12.3,-3.3 -4.01,2.54 -5,8.07 -2.23,12.39 0,0 15.29,23.13 21.81,33.04 6.51,9.9 17.07,17.65 36.81,17.65zm71.08 -60.85c0,-42.08 -34.12,-76.2 -76.2,-76.2 -42.08,0 -76.2,34.12 -76.2,76.2 0,42.08 34.12,76.2 76.2,76.2 42.08,0 76.2,-34.12 76.2,-76.2z"/>
 </g>
</svg>
