<?xml version="1.0" encoding="UTF-8"?>
<!DOCTYPE svg PUBLIC "-//W3C//DTD SVG 1.1//EN" "http://www.w3.org/Graphics/SVG/1.1/DTD/svg11.dtd">
<!-- Creator: CorelDRAW 2018 (64-Bit) -->
<svg xmlns="http://www.w3.org/2000/svg" xml:space="preserve" width="5.5238mm" height="5.5238mm" version="1.1" style="shape-rendering:geometricPrecision; text-rendering:geometricPrecision; image-rendering:optimizeQuality; fill-rule:evenodd; clip-rule:evenodd"
viewBox="0 0 152.38 152.38"
 xmlns:xlink="http://www.w3.org/1999/xlink">
 <defs>
  <style type="text/css">
   <![CDATA[
    .fil0 {fill:#1f5baa}
   ]]>
  </style>
 </defs>
 <g id="Layer_x0020_1">
  <metadata id="CorelCorpID_0Corel-Layer"/>
  <path class="fil0" d="M5.72 76.19c0,-38.92 31.55,-70.47 70.47,-70.47 38.92,0 70.47,31.55 70.47,70.47 0,38.92 -31.55,70.47 -70.47,70.47 -38.92,0 -70.47,-31.55 -70.47,-70.47zm88.23 -4.43c0.87,0 1.66,0.51 2.02,1.29 0.36,0.8 0.23,1.72 -0.34,2.38l-28.87 33.31c-0.43,0.5 -1.05,0.76 -1.68,0.76 -0.33,0 -0.68,-0.07 -1,-0.24 -0.91,-0.46 -1.39,-1.48 -1.16,-2.47l6.03 -26.15 -10.53 0c-0.87,0 -1.66,-0.51 -2.02,-1.3 -0.36,-0.79 -0.23,-1.72 0.34,-2.37l28.87 -33.31c0.67,-0.77 1.78,-0.99 2.69,-0.53 0.91,0.46 1.38,1.49 1.15,2.48l-6.03 26.15 10.53 0zm-17.76 -44.41c1.22,0 2.22,-1 2.22,-2.22l0 -13.33c0,-1.22 -1,-2.22 -2.22,-2.22 -1.23,0 -2.22,1 -2.22,2.22l0 13.33c0,1.22 0.99,2.22 2.22,2.22zm2.22 113.24l0 -13.32c0,-1.23 -1,-2.22 -2.22,-2.22 -1.23,0 -2.22,0.99 -2.22,2.22l0 13.32c0,1.23 0.99,2.22 2.22,2.22 1.22,0 2.22,-0.99 2.22,-2.22zm35.46 -29.85c-0.87,-0.87 -2.27,-0.87 -3.14,0 -0.87,0.87 -0.87,2.27 0,3.14l9.42 9.42c0.43,0.43 1,0.65 1.57,0.65 0.57,0 1.14,-0.22 1.57,-0.65 0.87,-0.87 0.87,-2.27 0,-3.14l-9.42 -9.42zm-72.23 -69.09c0.87,-0.87 0.87,-2.27 0,-3.14l-9.42 -9.42c-0.87,-0.87 -2.27,-0.87 -3.14,0 -0.87,0.87 -0.87,2.28 0,3.14l9.42 9.42c0.44,0.44 1.01,0.65 1.58,0.65 0.56,0 1.13,-0.21 1.56,-0.65zm72.23 0l9.42 -9.42c0.87,-0.86 0.87,-2.27 0,-3.14 -0.87,-0.87 -2.27,-0.87 -3.14,0l-9.42 9.42c-0.87,0.87 -0.87,2.27 0,3.14 0.44,0.44 1,0.65 1.57,0.65 0.57,0 1.14,-0.21 1.57,-0.65zm13.39 36.77l13.32 0c1.23,0 2.22,-1 2.22,-2.22 0,-1.23 -0.99,-2.22 -2.22,-2.22l-13.32 0c-1.23,0 -2.22,0.99 -2.22,2.22 0,1.22 0.99,2.22 2.22,2.22zm-85.62 32.32c-0.86,-0.87 -2.27,-0.87 -3.14,0l-9.42 9.42c-0.87,0.87 -0.87,2.27 0,3.14 0.44,0.43 1.01,0.65 1.57,0.65 0.57,0 1.14,-0.22 1.57,-0.65l9.42 -9.42c0.87,-0.87 0.87,-2.27 0,-3.14zm-14.31 -34.54c0,-1.23 -0.99,-2.22 -2.22,-2.22l-13.32 0c-1.22,0 -2.22,0.99 -2.22,2.22 0,1.22 1,2.22 2.22,2.22l13.32 0c1.23,0 2.22,-1 2.22,-2.22zm61.76 0l-8.46 0c-0.68,0 -1.32,-0.31 -1.74,-0.84 -0.42,-0.53 -0.58,-1.22 -0.43,-1.88l4.66 -20.17 -19.83 22.89 8.46 0c0.67,0 1.31,0.31 1.73,0.84 0.43,0.52 0.58,1.21 0.43,1.88l-4.65 20.16 19.83 -22.88zm-12.9 44.41c24.48,0 44.41,-19.93 44.41,-44.41 0,-24.49 -19.93,-44.41 -44.41,-44.41 -24.49,0 -44.41,19.92 -44.41,44.41 0,24.48 19.92,44.41 44.41,44.41zm76.2 -44.42c0,-42.08 -34.12,-76.2 -76.2,-76.2 -42.08,0 -76.2,34.12 -76.2,76.2 0,42.08 34.12,76.2 76.2,76.2 42.08,0 76.2,-34.12 76.2,-76.2z"/>
 </g>
</svg>
