<?xml version="1.0" encoding="UTF-8"?>
<!DOCTYPE svg PUBLIC "-//W3C//DTD SVG 1.1//EN" "http://www.w3.org/Graphics/SVG/1.1/DTD/svg11.dtd">
<!-- Creator: CorelDRAW 2018 (64-Bit) -->
<svg xmlns="http://www.w3.org/2000/svg" xml:space="preserve" width="8.4666mm" height="8.4666mm" version="1.1" style="shape-rendering:geometricPrecision; text-rendering:geometricPrecision; image-rendering:optimizeQuality; fill-rule:evenodd; clip-rule:evenodd"
viewBox="0 0 846.66 846.66"
 xmlns:xlink="http://www.w3.org/1999/xlink">
 <defs>
  <style type="text/css">
   <![CDATA[
    .fil0 {fill:#1A1A1A}
   ]]>
  </style>
 </defs>
 <g id="Layer_x0020_1">
  <metadata id="CorelCorpID_0Corel-Layer"/>
  <path class="fil0" d="M189.27 86.27c-21.49,3.86 -37.39,18.49 -43.74,36.1 -6.15,17.06 -3.42,128.66 -3.48,155.06 -0.13,49.87 24.4,56.03 63.01,95.55 18.39,18.83 22.31,22.57 56.79,22.49 26.42,-0.06 52.85,-0.01 79.27,-0.01 26,0 52.06,1.11 67.88,-13.21l18.89 -19.81c19.75,-19.75 49.4,-38.52 38.16,-77.83 -3.79,-13.26 -66.91,-136 -78.52,-159.29 -9.46,-18.97 -18.34,-32.86 -40.95,-38.25 -11.2,-2.67 -144.59,-3.09 -157.31,-0.8zm-157.45 507.38c14.29,-127.02 197.08,-204.05 300.17,-76.3 26.3,32.59 39.59,78.24 33.34,131.79l61.24 0c-3.92,-30.78 -3.2,-54.65 6.32,-82.64 11.37,-33.42 20.62,-38.05 34.07,-59.06 -29.44,-2.61 -39.75,-9.36 -54.5,-24.77 -14.15,-14.78 -19.19,-36.75 -15.55,-61.98 -33.16,4.16 -152.66,7.69 -179.73,-3.48 -22.42,-9.25 -56.01,-46.99 -75.76,-66.91 -14.79,-14.92 -14.11,-19.49 -20.5,-26.41 -51.3,9.51 -112.42,40.59 -119.18,89.91 -3.51,25.68 -0.65,75.04 -0.63,103.21 0.02,32.31 -0.09,54.72 30.71,76.64zm560.68 -292.25c-76.12,12.5 -60,10.12 -118.08,67.05 -10.25,10.04 -39.62,36.31 -45.65,47.73 -14.41,27.27 2.24,53.19 23.13,60.56 30.89,10.89 49.8,-16.74 61.77,-28.52 16.12,-15.85 31.03,-30.36 47.1,-46.27 16.08,-15.92 18.62,-11.38 50.4,-18.15 12.07,-2.57 10.4,-3.87 17.1,2.78 45.03,44.68 86.67,37.07 147.98,37.07 28.98,0 65.38,5.93 70.02,-23.36 2.36,-14.92 -6.33,-25.36 -15.11,-29.86 -13.88,-7.11 -25,-0.39 -34.74,-12.73 -5.95,-7.54 -54.03,-106.63 -62.71,-123.99 -11.75,-23.5 -17.82,-46.67 -51.8,-29.52 -32.63,16.48 -59.82,30.43 -77.65,61.57 -7.76,13.54 -7.19,20.69 -11.76,35.64zm-16.65 179.83c-72.53,9.22 -133.09,73.9 -122.56,158.05 8.94,71.5 75.14,131.82 158.07,121.42 70.84,-8.89 132.42,-75.3 121.47,-157.64 -9.49,-71.44 -74.14,-132.36 -156.98,-121.83zm5.83 84.93c-75.61,17.77 -47.47,125.41 23.96,109.62 26.69,-5.91 49.91,-33.63 42.15,-67.45 -6,-26.15 -33.24,-49.89 -66.11,-42.17zm-400.44 -84.93c-72.24,9.19 -133.17,73.93 -122.62,157.63 9.05,71.8 74.88,132.28 158.13,121.84 71.34,-8.95 131.9,-75.05 121.49,-157.66 -8.99,-71.36 -74.61,-132.28 -157,-121.81zm5.85 84.93c-27.59,6.49 -51.72,31.55 -43.51,67.5 16.35,71.6 126.44,47.7 109.71,-25.43 -5.98,-26.09 -33.17,-49.83 -66.2,-42.07zm11.39 -380.33l-0.05 96.89 204.29 -0.12 -69.73 -140.73 -134.49 -0.08 -0.02 44.04z"/>
 </g>
</svg>
