<?xml version="1.0" encoding="UTF-8"?>
<!DOCTYPE svg PUBLIC "-//W3C//DTD SVG 1.1//EN" "http://www.w3.org/Graphics/SVG/1.1/DTD/svg11.dtd">
<!-- Creator: CorelDRAW 2018 (64-Bit) -->
<svg xmlns="http://www.w3.org/2000/svg" xml:space="preserve" width="8.4666mm" height="8.4666mm" version="1.1" style="shape-rendering:geometricPrecision; text-rendering:geometricPrecision; image-rendering:optimizeQuality; fill-rule:evenodd; clip-rule:evenodd"
viewBox="0 0 846.66 846.66"
 xmlns:xlink="http://www.w3.org/1999/xlink">
 <defs>
  <style type="text/css">
   <![CDATA[
    .fil0 {fill:#f28918}
   ]]>
  </style>
 </defs>
 <g id="Layer_x0020_1">
  <metadata id="CorelCorpID_0Corel-Layer"/>
  <path class="fil0" d="M828.17 422.84l-13.09 0 -83.27 -147.87c-3.16,-5.6 -9.14,-8.9 -16.16,-8.9l-97.92 0 19.41 -103.12c2.31,-12.32 -5.79,-22.3 -18.11,-22.3l-517.82 0.22c-13.31,0 -24.1,10.79 -24.1,24.1 0,13.31 10.79,24.1 24.1,24.1l285 0c11.34,1.95 19.98,11.82 19.98,23.72 0,12.62 -9.7,22.95 -22.05,23.99l-360.05 0.01c-13.3,0 -24.09,10.79 -24.09,24.1 0,13.31 10.79,24.09 24.09,24.09l361.07 0c11.86,1.51 21.03,11.62 21.03,23.89 0,12.32 -9.25,22.47 -21.19,23.9l-325.56 0c-13.31,0 -24.1,10.79 -24.1,24.1 0,13.31 10.79,24.1 24.1,24.1l75.47 0 -39.73 211.13c-2.32,12.31 5.79,22.3 18.11,22.3l35.55 0c-6.88,50.97 27.8,91.61 79.43,91.61 51.65,0 101.62,-40.64 113.92,-91.61l187.69 0 53.07 0c-6.88,50.97 27.79,91.61 79.43,91.61 51.64,0 101.61,-40.64 113.92,-91.61l15.82 0 19.74 0c12.31,0 24.18,-9.99 26.49,-22.3l7.18 -38.16c2.16,-11.45 -4.7,-20.87 -15.57,-22.14l16.31 -86.65c2.32,-12.32 -5.79,-22.31 -18.1,-22.31zm-529.45 186.35c-5.42,28.8 -33.26,52.22 -62.05,52.22 -28.8,0 -47.81,-23.42 -42.39,-52.22 5.41,-28.79 33.25,-52.21 62.04,-52.21 28.79,-0.01 47.82,23.42 42.4,52.21zm434.1 0c-5.42,28.8 -33.25,52.22 -62.04,52.22 -28.8,0 -47.82,-23.42 -42.4,-52.22 5.42,-28.79 33.25,-52.21 62.05,-52.21 28.79,-0.01 47.81,23.42 42.39,52.21zm-144.59 -186.35l21.1 -112.17 86.79 0 63.17 112.17 -171.06 0z"/>
 </g>
</svg>
