<?xml version="1.0" encoding="UTF-8"?>
<!DOCTYPE svg PUBLIC "-//W3C//DTD SVG 1.1//EN" "http://www.w3.org/Graphics/SVG/1.1/DTD/svg11.dtd">
<!-- Creator: CorelDRAW 2018 (64-Bit) -->
<svg xmlns="http://www.w3.org/2000/svg" xml:space="preserve" width="8.4666mm" height="8.4666mm" version="1.1" style="shape-rendering:geometricPrecision; text-rendering:geometricPrecision; image-rendering:optimizeQuality; fill-rule:evenodd; clip-rule:evenodd"
viewBox="0 0 846.66 846.66"
 xmlns:xlink="http://www.w3.org/1999/xlink">
 <defs>
  <style type="text/css">
   <![CDATA[
    .fil0 {fill:#7d410f}
   ]]>
  </style>
 </defs>
 <g id="Layer_x0020_1">
  <metadata id="CorelCorpID_0Corel-Layer"/>
  <path class="fil0" d="M698.49 547.49c-39.68,0 -71.97,32.29 -71.97,71.97 0,39.68 32.28,71.97 71.97,71.97 39.67,0 71.97,-32.28 71.97,-71.97 0,-39.68 -32.29,-71.97 -71.97,-71.97zm-524.91 0c-39.68,0 -71.97,32.29 -71.97,71.97 0,39.68 32.28,71.97 71.97,71.97 39.67,0 71.97,-32.28 71.97,-71.97 -0.01,-39.68 -32.3,-71.97 -71.97,-71.97zm0 93.13c-11.67,0 -21.17,-9.49 -21.17,-21.17 0,-11.67 9.49,-21.17 21.17,-21.17 11.68,0 21.17,9.49 21.17,21.17 -0.01,11.68 -9.5,21.17 -21.17,21.17zm-156.64 -28.21l43.36 0c8.38,0 15.81,-6.04 16.89,-14.35 6.65,-50.92 47.26,-82.5 96.39,-82.5 49.13,0 89.75,31.58 96.38,82.5 1.08,8.31 8.5,14.35 16.89,14.35l212.68 0c9.35,0 16.93,-7.59 16.93,-16.93l0 -423.32c0,-9.35 -7.59,-16.93 -16.93,-16.93l-482.59 0c-9.36,0 -16.93,7.59 -16.93,16.93l0 423.32c0,9.35 7.58,16.93 16.93,16.93zm674.66 -364.06l-124.34 0c-9.36,0 -16.93,7.59 -16.93,16.93l0 330.19c0,9.35 7.58,16.93 16.93,16.93l17.96 0c8.38,0 15.81,-6.04 16.89,-14.35 6.65,-50.92 47.26,-82.5 96.39,-82.5 49.13,0 89.75,31.58 96.39,82.5 1.08,8.31 8.5,14.35 16.88,14.35l17.95 0c9.35,0 16.93,-7.59 16.93,-16.93l0 -165.1c0,-3.98 -1.4,-7.81 -3.95,-10.85l-138.11 -165.1c-3.22,-3.84 -7.98,-6.07 -12.99,-6.07zm-107.4 135.47l0 -84.67c0,-9.35 7.58,-16.93 16.93,-16.93l74.59 0c5.02,0 9.79,2.24 13,6.1l70.55 84.67c9.19,11.03 1.35,27.77 -13.01,27.77l-145.13 -0.01c-9.36,0 -16.93,-7.58 -16.93,-16.93zm114.29 256.8c-11.67,0 -21.17,-9.49 -21.17,-21.17 0,-11.67 9.49,-21.17 21.17,-21.17 11.68,0 21.17,9.49 21.17,21.17 0,11.68 -9.49,21.17 -21.17,21.17z"/>
 </g>
</svg>
