<?xml version="1.0" encoding="UTF-8"?>
<!DOCTYPE svg PUBLIC "-//W3C//DTD SVG 1.1//EN" "http://www.w3.org/Graphics/SVG/1.1/DTD/svg11.dtd">
<!-- Creator: CorelDRAW 2018 (64-Bit) -->
<svg xmlns="http://www.w3.org/2000/svg" xml:space="preserve" width="8.4666mm" height="8.4666mm" version="1.1" style="shape-rendering:geometricPrecision; text-rendering:geometricPrecision; image-rendering:optimizeQuality; fill-rule:evenodd; clip-rule:evenodd"
viewBox="0 0 846.66 846.66"
 xmlns:xlink="http://www.w3.org/1999/xlink">
 <g id="Layer_x0020_1">
  <metadata id="CorelCorpID_0Corel-Layer"/>
  <path fill="#f28918" d="M545.12 337.34c19.75,0 35.81,16.06 35.81,35.81 0,19.75 -16.06,35.83 -35.81,35.83 -19.75,0 -35.82,-16.08 -35.82,-35.83 0,-19.75 16.07,-35.81 35.82,-35.81zm51.29 311.45c91.34,-133.85 137.62,-244.74 137.62,-329.56 0,-171.3 -139.36,-310.66 -310.66,-310.66 -171.3,0 -310.74,139.36 -310.74,310.66 0,84.82 46.26,195.71 137.6,329.56 65.27,95.75 129.81,168.09 132.47,171.12 10.38,11.56 25.16,18.17 40.67,18.17 15.52,0 30.2,-6.61 40.57,-18.17 2.67,-3.03 67.21,-75.37 132.47,-171.12zm-173.09 -571.28c136.76,0 247.62,110.87 247.62,247.61 0,136.76 -110.86,247.62 -247.62,247.62 -136.74,0 -247.61,-110.86 -247.61,-247.62 0,-136.74 110.87,-247.61 247.61,-247.61zm-121.78 259.83c19.75,0 35.83,16.06 35.83,35.81 0,19.75 -16.08,35.83 -35.83,35.83 -19.75,0 -35.81,-16.08 -35.81,-35.83 0,-19.75 16.06,-35.81 35.81,-35.81zm0 57.3c11.85,0 21.5,-9.64 21.5,-21.49 0,-11.85 -9.65,-21.49 -21.5,-21.49 -11.85,0 -21.49,9.64 -21.49,21.49 0,11.85 9.64,21.49 21.49,21.49zm-85.96 -57.3l0 -42.99c0,-3.08 1.97,-5.82 4.9,-6.8l40.42 -13.47c15.22,-25.79 36.15,-50.32 82.39,-58.42 0.08,-0.02 0.17,-0.03 0.25,-0.05 85.41,-11.8 149.52,7.46 190.69,57.28 30.64,0.44 61.91,6.85 80.31,18.62 9.53,6.11 15.18,16.73 15.71,28.04l0.83 17.79c3.96,0 7.17,3.21 7.17,7.16l0 28.65c0,3.96 -3.21,7.17 -7.17,7.17l-28.66 0c-3.97,0 -7.15,-3.27 -7.16,-7.24 0,-0.05 0,-0.08 0,-0.12 -0.11,-27.6 -22.51,-49.96 -50.14,-49.96 -27.7,0 -50.15,22.46 -50.15,50.15 0.51,4.35 -2.91,7.17 -7.16,7.17l-128.95 0c-3.98,0 -7.16,-3.27 -7.16,-7.24 0,-0.05 -0.01,-0.08 -0.01,-0.12 -0.11,-27.61 -22.51,-49.96 -50.15,-49.96 -27.69,0 -50.14,22.46 -50.14,50.15 0.51,4.35 -2.92,7.17 -7.16,7.17l-28.66 0c-3.95,0 -7.17,-3.22 -7.17,-7.17l0 -28.65c0,-3.95 3.21,-7.16 7.17,-7.16zm193.43 -68.06c0,1.97 1.59,3.58 3.57,3.58l93.44 0c3.29,0 4.8,-4.07 2.36,-6.3 -24.86,-22.66 -56.47,-35.62 -95.42,-39.06 -2.1,-0.19 -3.95,1.5 -3.95,3.6l0 38.18zm-86.07 0.04c0.02,1.95 1.62,3.54 3.57,3.54l64.58 0c1.98,0 3.59,-1.61 3.59,-3.58l0 -39.12c0,-1.98 -1.59,-3.62 -3.57,-3.62 -14.28,-0.01 -29.4,1.03 -45.46,3.25 -7.65,1.34 -14.47,3.2 -20.68,5.47 -1.42,0.52 -2.33,1.9 -2.32,3.42l0.29 30.64zm-37.39 3.54l19.47 0c2,0 3.61,-1.63 3.59,-3.62l-0.2 -19.41c-0.02,-2.96 -3.39,-4.57 -5.78,-2.82 -7.73,5.66 -14.18,12.4 -19.93,20.06 -1.78,2.38 -0.13,5.79 2.85,5.79zm259.57 121.78c11.85,0 21.49,-9.64 21.49,-21.49 0,-11.85 -9.64,-21.49 -21.49,-21.49 -11.85,0 -21.5,9.64 -21.5,21.49 0,11.85 9.65,21.49 21.5,21.49z"/>
 </g>
</svg>
