<?xml version="1.0" encoding="utf-8"?>
<!-- Svg Vector Icons : http://www.onlinewebfonts.com/icon -->
<!DOCTYPE svg PUBLIC "-//W3C//DTD SVG 1.1//EN" "http://www.w3.org/Graphics/SVG/1.1/DTD/svg11.dtd">
<svg version="1.1" xmlns="http://www.w3.org/2000/svg" xmlns:xlink="http://www.w3.org/1999/xlink" x="0px" y="0px" viewBox="0 0 1000 1000" fill="#757070" xml:space="preserve">
<metadata> Svg Vector Icons : http://www.onlinewebfonts.com/icon </metadata>
<g><path d="M982.6,921.1h-27.3v-694c0-4.1-3.3-7.4-7.4-7.4H683c-4.1,0-7.4-3.3-7.4-7.4V16.9c0-4.1-3.3-7.4-7.4-7.4h-616c-4.1,0-7.4,3.3-7.4,7.4v886.9c0,9.6-7.8,17.4-17.4,17.4c-9.6,0-17.3,7.7-17.3,17.4v44.6c0,4.1,3.3,7.4,7.4,7.4h965.2c4.1,0,7.4-3.3,7.4-7.4v-54.6C990,924.5,986.7,921.1,982.6,921.1L982.6,921.1z M326.5,630.9c0,4.1-3.3,7.4-7.4,7.4H193c-4.1,0-7.4-3.3-7.4-7.4v-96.7H319c4.1,0,7.4,3.3,7.4,7.4V630.9L326.5,630.9z M326.5,791.6c0,4.1-3.3,7.4-7.4,7.4H193c-4.1,0-7.4-3.3-7.4-7.4v-96.7H319c4.1,0,7.4,3.3,7.4,7.4V791.6L326.5,791.6z M326.5,457.3c0,4.1-3.3,7.4-7.4,7.4H193c-4.1,0-7.4-3.3-7.4-7.4v-96.7H319c4.1,0,7.4,3.3,7.4,7.4V457.3L326.5,457.3z M326.5,281.8c0,4.1-3.3,7.4-7.4,7.4H193c-4.1,0-7.4-3.3-7.4-7.4v-96.7H319c4.1,0,7.4,3.3,7.4,7.4V281.8L326.5,281.8z M536.8,630.9c0,4.1-3.3,7.4-7.4,7.4h-126c-4.1,0-7.4-3.3-7.4-7.4v-96.7h133.5c4.1,0,7.4,3.3,7.4,7.4V630.9L536.8,630.9z M536.8,792.9c0,4.1-3.3,7.4-7.4,7.4h-126c-4.1,0-7.4-3.3-7.4-7.4v-96.7h133.5c4.1,0,7.4,3.3,7.4,7.4V792.9L536.8,792.9z M536.8,457.3c0,4.1-3.3,7.4-7.4,7.4h-126c-4.1,0-7.4-3.3-7.4-7.4v-96.7h133.5c4.1,0,7.4,3.3,7.4,7.4V457.3L536.8,457.3z M536.8,281.8c0,4.1-3.3,7.4-7.4,7.4h-126c-4.1,0-7.4-3.3-7.4-7.4v-96.7h133.5c4.1,0,7.4,3.3,7.4,7.4V281.8L536.8,281.8z M821,630.9c0,4.1-3.3,7.4-7.4,7.4H759c-4.1,0-7.4-3.3-7.4-7.4v-96.7h62c4.1,0,7.4,3.3,7.4,7.4V630.9L821,630.9z M821,795.3c0,4.1-3.3,7.4-7.4,7.4H759c-4.1,0-7.4-3.3-7.4-7.4v-96.7h62c4.1,0,7.4,3.3,7.4,7.4V795.3L821,795.3z M821,457.3c0,4.1-3.3,7.4-7.4,7.4H759c-4.1,0-7.4-3.3-7.4-7.4v-96.7h62c4.1,0,7.4,3.3,7.4,7.4V457.3L821,457.3z"/></g>
</svg>