<?xml version="1.0" encoding="utf-8"?>
<!-- Svg Vector Icons : http://www.onlinewebfonts.com/icon -->
<!DOCTYPE svg PUBLIC "-//W3C//DTD SVG 1.1//EN" "http://www.w3.org/Graphics/SVG/1.1/DTD/svg11.dtd">
<svg version="1.1" xmlns="http://www.w3.org/2000/svg" xmlns:xlink="http://www.w3.org/1999/xlink" x="0px" y="0px" viewBox="0 0 1000 1000" enable-background="new 0 0 1000 1000" xml:space="preserve">
<metadata> Svg Vector Icons : http://www.onlinewebfonts.com/icon </metadata>
<g><path d="M500,990C229.8,990,10,770.2,10,500C10,229.8,229.8,10,500,10c270.2,0,490,219.8,490,490C990,770.2,770.2,990,500,990L500,990z M499.9,60.8c-243.2,0-441,197.8-441,441c0,243.2,197.8,441,441,441c243.2,0,441-197.8,441-441C940.9,258.7,743.1,60.8,499.9,60.8L499.9,60.8z M617.6,696H382.4c-43.3,0-78.4-35.1-78.4-78.4V382.4c0-43.3,35.1-78.4,78.4-78.4h235.2c43.3,0,78.4,35.1,78.4,78.4v235.2C696,660.9,660.9,696,617.6,696z M588.2,647H411.8c-32.5,0-58.8-26.3-58.8-58.8V411.8c0-32.5,26.3-58.8,58.8-58.8h176.4c32.5,0,58.8,26.3,58.8,58.8v176.4C647,620.7,620.7,647,588.2,647z"/></g>
</svg>