<?xml version="1.0" encoding="utf-8"?>
<!-- Svg Vector Icons : http://www.onlinewebfonts.com/icon -->
<!DOCTYPE svg PUBLIC "-//W3C//DTD SVG 1.1//EN" "http://www.w3.org/Graphics/SVG/1.1/DTD/svg11.dtd">
<svg version="1.1" xmlns="http://www.w3.org/2000/svg" xmlns:xlink="http://www.w3.org/1999/xlink" x="0px" y="0px" viewBox="0 0 1000 1000" fill="white" xml:space="preserve">
<metadata> Svg Vector Icons : http://www.onlinewebfonts.com/icon </metadata>
<g><path d="M975.2,360l-85.4,85.6C822.8,512.6,525,810.6,487,848.6c-12.5,12.5-25.3,41.8-109.2,60.3C258.2,935.3,10,990,10,990s55.4-247.6,82.2-367.1c18.8-84,50.4-99.4,66.4-115.4c35.9-36,326.8-327,386.6-386.9l95.6-95.8c19.8-19.8,51.9-19.8,71.7,0l262.8,263.3C994.9,308,994.9,340.2,975.2,360z M427.5,763.9c5.8-5.1,10.3-9.5,13.2-12.5c26-26.1,202.6-202.7,308.6-308.8l-53.1-53.1L374.7,711L427.5,763.9z M631.9,325.2L310.4,646.7l42.9,42.9l321.6-321.5L631.9,325.2z M184.3,672.2c-22.6,77.6-54.1,198.9-54.1,198.9s119.3-32.4,197.1-53.9c18.8-5.2,34.8-11.8,48.9-19L202.8,624.9C196.1,638.4,189.6,653.9,184.3,672.2z M248.9,560.6c-3.1,3.1-7.2,7.4-11.9,12.7l52,52l321.6-321.5L558,251.3C456.8,352.6,273.8,535.7,248.9,560.6z M676.6,132.6l-47.8,47.9c-0.7,0.7-1.3,1.3-2,2l-10,10c-4,4-9.6,9.6-16,16l191.3,191.3c11.6-11.6,21.3-21.3,27.7-27.7l47.8-47.9L676.6,132.6z"/></g>
</svg>