<?xml version="1.0" encoding="UTF-8"?>
<!DOCTYPE svg PUBLIC "-//W3C//DTD SVG 1.1//EN" "http://www.w3.org/Graphics/SVG/1.1/DTD/svg11.dtd">
<!-- Creator: CorelDRAW 2018 (64-Bit) -->
<svg xmlns="http://www.w3.org/2000/svg" xml:space="preserve" width="8.4666mm" height="8.4666mm" version="1.1" style="shape-rendering:geometricPrecision; text-rendering:geometricPrecision; image-rendering:optimizeQuality; fill-rule:evenodd; clip-rule:evenodd"
viewBox="0 0 846.66 846.66"
 xmlns:xlink="http://www.w3.org/1999/xlink">
 <defs>
  <style type="text/css">
   <![CDATA[
    .fil0 {fill:#1A1A1A}
   ]]>
  </style>
 </defs>
 <g id="Layer_x0020_1">
  <metadata id="CorelCorpID_0Corel-Layer"/>
  <path class="fil0" d="M286.97 726.26l79.59 0 0 22.22 -79.59 0 0 -22.22zm-246.21 -420.23c0,62.9 -12.18,51.85 127.73,51.85 27.62,0 22.22,-26.04 22.22,-53.69 0,-12.96 -10.68,-20.36 -24.07,-20.36l-101.81 0c-14.94,0 -24.07,7.03 -24.07,22.2zm325.8 340.63l0 51.84 -64.78 0c5.19,-4.53 9.39,-8.25 15.05,-12.72 5.73,-4.55 10.58,-8.92 16.16,-13.47l24.7 -19.73c4.88,-4.34 2.16,-4.12 8.87,-5.92zm-79.59 25.92l0 -57.39 70.35 0c-3.11,4.63 -3.12,4.18 -7.38,7.44 -3.76,2.87 -5.34,4.63 -9.03,7.63 -6.12,4.99 -11.38,8.71 -17.4,14.07 -4.59,4.11 -31.05,26.78 -36.54,28.25zm79.59 -138.84l0 53.68 -64.78 0 64.78 -53.68zm-79.59 27.76l0 -59.24 72.19 0 -72.19 59.24zm79.59 -138.83l0 51.83 -64.78 0c8.58,-7.47 57.14,-49.79 64.78,-51.83zm-79.59 25.91l0 -57.38 70.35 0 -16.41 15.06c-7.08,5.78 -47.45,40.59 -53.94,42.32zm470.2 -172.15l16.66 0 0 96.25 -16.66 0 0 -96.25zm-390.61 33.31l0 53.69 -64.78 0c3.1,-4.64 3.12,-4.18 7.37,-7.44 14.99,-11.49 43.95,-37.23 57.41,-46.25zm-79.59 27.76l0 -61.07 74.04 0c-2.58,3.85 -12.98,11.92 -17.71,15.61 -15.08,11.78 -42.57,36.25 -56.33,45.46zm40.72 -233.24l35.18 125.88 -72.2 0c2.42,-10.4 33.27,-120.47 37.02,-125.88zm-72.19 125.88l-153.65 0c5.78,-8.63 128.79,-104.53 148.5,-121.76l49.46 -35.71c-1.5,3.66 -0.59,1.29 -1.8,5.62l-42.51 151.85zm94.42 -172.16l47.34 21.15c75.29,31.28 164.01,74 240.9,107.11l91.26 40.19c3.08,1.55 3.24,1.73 5.54,3.71l-336.93 0 -23.84 -85.37c-4.3,-14.77 -8.05,-27.97 -12.37,-43.16 -2.31,-8.11 -4.09,-14.59 -6.15,-21.64 -2.05,-7.06 -4.82,-14.62 -5.75,-21.99zm-309.16 186.97c0,12.52 -3.28,31.48 14.81,31.48l194.37 0 0 472.05 -85.14 0c-3.78,0 -9.48,4.81 -11.13,7.39 -3.19,5.01 -13.74,66.65 14.82,66.65l316.56 0c22.26,0 18.51,-29.39 18.51,-48.12 0,-14.05 -4.81,-25.92 -18.51,-25.92l-81.46 0 0 -472.05 338.77 0 0 94.41c0,11.37 -12.95,-4.83 -12.95,38.87 0,11.79 4.47,28.88 8.09,38.17 2.97,7.65 5.34,8.31 8.16,14.06 3.97,8.02 1.94,10.45 13.36,10.7l1.86 18.51c14.47,3.38 24.06,6.79 24.06,22.23 0,12.91 -6.58,21.6 -19.34,19.45 -21.77,-3.65 -11.11,-19.45 -23.24,-19.45 -17.23,0 0.02,33.31 20.36,33.31 11.14,0 21.08,1.13 29.75,-10.97 10.19,-14.21 9.33,-33.04 -2.44,-45.95 -8.71,-9.57 -15.88,-2.81 -16.2,-17.13 15.2,-0.33 6.02,-3.73 15.24,-14.38 14.79,-17.05 12.53,-43.07 12.53,-67.06 0,-8.86 -5.9,-14.78 -12.96,-16.67l0 -98.1c5.66,0 8.46,0.62 13.01,-3.65 4.7,-4.43 9.37,-38.13 -6.04,-42.2 -19.31,-5.11 1.2,9.54 -49.02,-12.08 -20.05,-8.63 -38.41,-16.72 -57.88,-25.4l-114.03 -50.75c-44.68,-18.56 -96.99,-44.34 -142.26,-63.21l-57.83 -25.48c-6.66,-3.12 -23.66,-11.79 -30.23,-12.34 -1.18,-14.1 -23.21,-29.3 -35.4,-2.07 -4.29,9.56 -42.25,37.25 -50.34,44.08 -6.1,5.16 -11.36,8.93 -17.5,13.95l-121.33 98.97c-11.6,9.81 -24.06,17.98 -34.96,27.98 -9.9,9.1 -8.61,5.61 -25.67,5.79 -11.43,0.14 -18.4,3.78 -18.4,14.93z"/>
 </g>
</svg>
