<?xml version="1.0" encoding="UTF-8"?>
<!DOCTYPE svg PUBLIC "-//W3C//DTD SVG 1.1//EN" "http://www.w3.org/Graphics/SVG/1.1/DTD/svg11.dtd">
<!-- Creator: CorelDRAW 2018 (64-Bit) -->
<svg xmlns="http://www.w3.org/2000/svg" xml:space="preserve" width="6.1806mm" height="8.2972mm" version="1.1" style="shape-rendering:geometricPrecision; text-rendering:geometricPrecision; image-rendering:optimizeQuality; fill-rule:evenodd; clip-rule:evenodd"
viewBox="0 0 618.06 829.72"
 xmlns:xlink="http://www.w3.org/1999/xlink">
 <defs>
  <style type="text/css">
   <![CDATA[
    .fil0 {fill:#7d410f}
   ]]>
  </style>
 </defs>
 <g id="Layer_x0020_1">
  <metadata id="CorelCorpID_0Corel-Layer"/>
  <path class="fil0" d="M482.1 640.32c91.34,-133.85 137.62,-244.73 137.62,-329.55 0,-171.3 -139.36,-310.66 -310.65,-310.66 -171.3,0 -310.74,139.36 -310.74,310.66 0,84.82 46.26,195.7 137.6,329.55 65.27,95.75 129.81,168.09 132.47,171.12 10.38,11.56 25.16,18.17 40.67,18.17 15.52,0 30.2,-6.61 40.57,-18.17 2.67,-3.03 67.2,-75.37 132.46,-171.12zm-39.77 -254.05c-19.22,0 -34.86,15.64 -34.86,34.86 0,19.22 15.64,34.86 34.86,34.86 19.22,0 34.86,-15.64 34.86,-34.86 0,-19.22 -15.64,-34.86 -34.86,-34.86zm-254.3 0c-19.22,0 -34.86,15.64 -34.86,34.86 0,19.22 15.64,34.86 34.86,34.86 19.22,0 34.87,-15.64 34.87,-34.86 0,-19.22 -15.65,-34.86 -34.87,-34.86zm0 45.11c-5.65,0 -10.25,-4.59 -10.25,-10.25 0,-5.66 4.6,-10.25 10.25,-10.25 5.66,0 10.26,4.59 10.26,10.25 0,5.66 -4.6,10.25 -10.26,10.25zm-75.88 -13.66l21.01 0c4.06,0 7.66,-2.93 8.18,-6.95 3.22,-24.67 22.89,-39.97 46.7,-39.97 23.8,0 43.47,15.3 46.69,39.97 0.53,4.02 4.12,6.95 8.19,6.95l103.03 0c4.52,0 8.2,-3.68 8.2,-8.21l0 -205.08c0,-4.53 -3.68,-8.2 -8.2,-8.2l-233.8 0c-4.53,0 -8.2,3.67 -8.2,8.2l0 205.08c0,4.53 3.67,8.21 8.2,8.21zm326.84 -176.38l-60.23 0c-4.54,0 -8.2,3.68 -8.2,8.21l0 159.96c0,4.53 3.66,8.2 8.2,8.2l8.7 0c4.06,0 7.65,-2.92 8.18,-6.95 3.22,-24.67 22.9,-39.96 46.7,-39.96 23.8,0 43.47,15.29 46.69,39.96 0.53,4.03 4.12,6.95 8.19,6.95l8.69 0c4.53,0 8.2,-3.67 8.2,-8.2l0 -79.98c0,-1.93 -0.68,-3.79 -1.91,-5.27l-66.91 -79.98c-1.56,-1.86 -3.87,-2.94 -6.3,-2.94zm-52.03 65.63l0 -41.02c0,-4.53 3.67,-8.2 8.21,-8.2l36.13 0c2.43,0 4.74,1.08 6.3,2.95l34.18 41.02c4.45,5.34 0.65,13.45 -6.31,13.45l-70.3 0c-4.54,0 -8.21,-3.67 -8.21,-8.2zm55.37 124.41c-5.65,0 -10.25,-4.59 -10.25,-10.25 0,-5.66 4.6,-10.25 10.25,-10.25 5.66,0 10.26,4.59 10.26,10.25 0,5.66 -4.6,10.25 -10.26,10.25zm-133.31 -362.33c136.75,0 247.61,110.87 247.61,247.61 0,136.75 -110.86,247.61 -247.61,247.61 -136.74,0 -247.61,-110.86 -247.61,-247.61 0,-136.74 110.87,-247.61 247.61,-247.61z"/>
 </g>
</svg>
