<?xml version="1.0" encoding="UTF-8"?>
<!DOCTYPE svg PUBLIC "-//W3C//DTD SVG 1.1//EN" "http://www.w3.org/Graphics/SVG/1.1/DTD/svg11.dtd">
<!-- Creator: CorelDRAW 2018 (64-Bit Evaluation Version) -->
<svg xmlns="http://www.w3.org/2000/svg" xml:space="preserve" width="0.333331in" height="0.333331in" version="1.1" style="shape-rendering:geometricPrecision; text-rendering:geometricPrecision; image-rendering:optimizeQuality; fill-rule:evenodd; clip-rule:evenodd"
viewBox="0 0 333.33 333.33"
 xmlns:xlink="http://www.w3.org/1999/xlink">
 <defs>
  <style type="text/css">
   <![CDATA[
    .fil0 {fill:#FFDA44}
   ]]>
  </style>
 </defs>
 <g id="Layer_x0020_1">
  <metadata id="CorelCorpID_0Corel-Layer"/>
  <path class="fil0" d="M322.4 262.26l-128.53 -222.61c-5.68,-9.84 -15.85,-15.71 -27.22,-15.71 -11.36,0 -21.54,5.87 -27.21,15.71l-128.52 222.61c-5.69,9.84 -5.69,21.59 0,31.43 5.68,9.84 15.85,15.71 27.21,15.71l257.06 0c11.36,0 21.53,-5.87 27.21,-15.71 5.68,-9.84 5.68,-21.59 0,-31.43zm-155.74 10.92c-11.28,0 -20.46,-9.18 -20.46,-20.46 0,-11.28 9.18,-20.45 20.46,-20.45 11.28,0 20.46,9.18 20.46,20.45 -0,11.28 -9.18,20.46 -20.46,20.46zm20.59 -87.44c0,11.36 -9.24,20.59 -20.59,20.59 -11.35,0 -20.59,-9.24 -20.59,-20.59l0 -94.52c0,-5.39 4.37,-9.76 9.76,-9.76l21.68 0c5.39,0 9.76,4.37 9.76,9.76l0 94.52 0 0z"/>
 </g>
</svg>
