<?xml version="1.0" standalone="no"?>
<!DOCTYPE svg PUBLIC "-//W3C//DTD SVG 20010904//EN"
 "http://www.w3.org/TR/2001/REC-SVG-20010904/DTD/svg10.dtd">
<svg version="1.0" xmlns="http://www.w3.org/2000/svg"
 width="323.000000pt" height="243.000000pt" viewBox="0 0 323.000000 243.000000"
 preserveAspectRatio="xMidYMid meet">
<metadata>
Created by potrace 1.15, written by Peter Selinger 2001-2017
</metadata>
<g transform="translate(0.000000,243.000000) scale(0.100000,-0.100000)"
fill="#000000" stroke="none">
<path d="M2208 1909 c-47 -24 -58 -34 -58 -54 0 -17 -9 -29 -30 -40 -17 -9
-30 -24 -30 -34 0 -28 -43 -51 -97 -52 l-48 -2 39 -6 c33 -5 37 -8 25 -18 -10
-8 -57 -12 -140 -12 -169 0 -286 -24 -401 -82 -64 -32 -72 -35 -62 -16 4 7 3
9 -2 4 -5 -5 -9 -12 -9 -15 -1 -16 -17 -32 -33 -32 -10 0 -23 -9 -30 -20 -7
-11 -24 -21 -40 -21 l-27 -1 30 -8 c45 -11 -197 -2 -295 12 -67 9 -80 13 -60
20 17 5 11 6 -20 3 -34 -4 -41 -3 -30 6 12 8 10 9 -8 4 -17 -5 -28 1 -48 24
-30 36 -49 38 -137 15 -79 -20 -111 -37 -164 -87 -45 -43 -56 -80 -26 -92 10
-3 96 -11 191 -17 l174 -12 103 -127 c75 -92 100 -130 92 -138 -8 -8 -5 -11
10 -11 11 0 27 -8 34 -17 13 -15 11 -16 -20 -10 -27 6 -32 4 -27 -8 5 -13 -1
-15 -32 -9 -20 3 -41 13 -47 21 -86 129 -140 178 -235 214 -95 36 -170 36
-280 0 -74 -24 -106 -40 -145 -75 -130 -115 -177 -304 -116 -466 l19 -50 -25
0 c-13 0 -21 -4 -18 -10 3 -5 0 -7 -8 -4 -22 8 -110 -38 -124 -66 -7 -14 -13
-57 -13 -96 0 -57 4 -77 21 -98 23 -30 74 -55 134 -66 123 -23 317 -51 322
-46 3 3 14 1 24 -4 10 -6 77 -13 150 -16 l132 -6 -66 72 c-37 40 -67 77 -67
82 0 5 29 6 73 2 67 -6 77 -10 143 -60 64 -49 77 -55 135 -60 85 -9 1021 -9
1128 -1 89 7 104 14 181 77 41 34 53 39 123 45 42 4 77 5 77 1 0 -3 -29 -40
-65 -81 l-66 -75 76 0 c42 0 74 3 72 8 -5 6 19 8 146 11 16 0 33 3 38 7 6 3
31 8 57 9 26 2 81 11 122 19 41 9 85 16 98 16 15 0 21 4 16 12 -4 7 -3 8 5 4
15 -9 53 3 46 15 -3 5 0 6 8 3 8 -3 27 6 43 20 28 23 29 28 29 114 0 75 -3 93
-20 112 -11 12 -27 19 -37 17 -11 -3 -15 -1 -11 6 4 7 0 8 -11 4 -10 -4 -15
-3 -11 3 3 5 -13 14 -35 20 -25 7 -39 16 -36 23 47 111 48 263 4 360 -36 77
-119 164 -186 194 -29 13 -51 27 -48 32 16 25 -164 40 -244 21 -43 -10 -54
-10 -61 1 -6 11 -14 10 -45 -4 -20 -10 -38 -17 -39 -15 -1 2 -7 13 -14 25 -10
19 -8 23 24 33 19 6 35 15 35 20 0 4 -13 38 -30 75 -16 37 -30 69 -30 71 0 2
13 4 30 4 42 0 50 23 50 139 0 96 -1 101 -25 117 -20 13 -33 14 -72 6 -33 -7
-52 -7 -60 0 -7 6 -22 8 -33 5 -38 -10 -31 12 10 33 23 12 40 24 38 28 -2 4
-10 24 -18 45 -8 20 -19 37 -25 37 -5 -1 -36 -14 -67 -31z m130 -556 c24 -52
40 -99 35 -103 -4 -3 -29 -24 -55 -44 -50 -40 -59 -56 -32 -56 13 0 11 -6 -7
-31 -54 -76 -75 -234 -44 -335 8 -27 15 -51 15 -53 0 -4 -242 8 -246 12 -2 2
17 29 42 60 59 76 86 130 82 164 -3 25 -5 22 -21 -24 -24 -69 -167 -241 -222
-267 -55 -26 -141 -22 -456 18 -173 22 -277 40 -300 51 -19 9 -79 63 -134 120
-55 56 -91 96 -80 89 45 -32 78 -6 55 44 l-12 27 29 -27 c16 -16 34 -28 41
-28 7 0 12 -8 12 -18 0 -10 11 -29 25 -42 22 -21 27 -22 70 -11 49 12 115 6
115 -11 0 -6 16 -7 39 -3 49 8 65 -11 22 -26 -17 -6 -28 -15 -25 -20 3 -5 -3
-9 -13 -9 -10 -1 -31 -7 -48 -15 -28 -13 -22 -14 75 -13 108 0 155 -7 179 -26
11 -8 15 -8 19 2 3 9 7 10 17 2 9 -8 15 -8 20 0 7 12 62 14 67 2 2 -4 37 -26
79 -49 l75 -40 28 24 c18 15 34 22 45 17 45 -19 61 -16 71 10 5 15 24 45 41
66 18 22 33 49 34 62 2 13 6 39 10 58 4 19 8 46 9 60 1 28 20 44 39 35 6 -4 1
3 -12 14 -30 27 -55 28 -48 1 3 -13 -8 -37 -36 -71 l-41 -52 -95 6 c-53 4
-109 10 -126 15 -41 11 -84 90 -85 154 0 43 3 49 48 87 54 47 75 50 174 22 66
-18 68 -18 73 0 8 26 51 25 65 -1 8 -16 7 -23 -9 -37 -19 -16 -19 -17 -2 -30
10 -7 36 -15 57 -18 35 -6 41 -4 56 22 10 15 36 48 59 72 l41 44 -23 18 c-24
18 -24 18 -4 37 42 41 159 142 165 142 3 0 24 -44 48 -97z m-484 -1 c-5 -5
-46 -35 -91 -66 -58 -40 -83 -53 -83 -42 0 9 -8 16 -20 16 -11 0 -20 -4 -20
-10 0 -5 -7 -10 -15 -10 -8 0 -15 5 -15 10 0 6 -9 10 -20 10 -11 0 -20 -7 -20
-15 0 -8 -3 -15 -7 -15 -5 1 -93 29 -198 64 l-190 64 344 1 c190 1 341 -3 335
-7z m681 -171 c13 -27 36 -66 50 -87 14 -20 25 -45 25 -56 0 -25 -44 -45 -64
-29 -10 8 -16 9 -21 1 -3 -6 -10 -8 -15 -5 -5 3 -12 -11 -16 -30 -6 -34 -8
-36 -35 -30 -18 4 -29 2 -29 -4 0 -6 9 -11 19 -11 28 0 33 -13 22 -59 -9 -41
-9 -41 20 -41 19 0 29 -5 29 -14 0 -8 9 -18 20 -21 11 -3 20 -13 20 -21 0 -12
11 -15 48 -13 26 1 54 -1 62 -6 8 -5 11 -4 7 2 -4 6 6 16 21 22 16 7 36 25 46
42 9 16 20 27 24 25 4 -2 6 10 5 27 -1 18 -2 42 -2 54 -1 13 -17 40 -36 61
-19 22 -32 42 -28 46 3 3 -5 6 -19 6 -20 0 -29 7 -37 31 -6 18 -11 43 -11 56
0 24 2 24 43 18 63 -11 114 -41 141 -83 21 -32 22 -39 10 -53 -17 -19 -6 -33
13 -18 9 8 13 8 13 1 0 -6 -4 -14 -10 -17 -19 -12 -11 -33 10 -28 14 4 20 0
20 -10 0 -9 -10 -18 -22 -20 l-23 -4 23 -8 c19 -6 22 -14 20 -39 -2 -24 -8
-32 -28 -35 l-25 -4 25 -7 c26 -7 24 -9 -25 -25 -13 -4 -13 -8 -3 -24 17 -27
2 -39 -18 -15 -15 18 -15 18 -11 -4 3 -14 1 -22 -6 -21 -21 4 -64 -23 -77 -47
-7 -13 -17 -21 -22 -18 -4 3 -8 1 -8 -4 0 -6 -25 -10 -56 -11 -54 0 -56 1 -52
23 4 19 -1 25 -26 34 -17 6 -41 9 -53 6 -26 -7 -31 11 -7 20 9 4 14 9 11 12
-3 3 -15 1 -26 -5 -17 -10 -23 -7 -37 14 -13 20 -14 29 -5 38 6 6 11 15 11 21
0 6 -5 5 -12 -2 -17 -17 -31 -15 -24 3 3 8 2 15 -3 15 -4 0 -8 16 -9 35 -1 21
3 33 8 30 6 -3 10 -1 10 4 0 6 -4 11 -10 11 -5 0 -10 14 -10 30 0 20 5 30 15
30 18 0 20 20 3 20 -8 1 -6 6 4 14 10 7 15 16 11 19 -3 4 3 7 15 7 14 0 22 6
22 18 0 15 2 15 11 2 8 -12 9 -9 5 11 -4 17 -1 31 9 39 12 10 11 19 -11 61
l-25 49 23 10 c35 14 36 13 63 -39z m-1955 -42 c0 -8 5 -8 15 1 15 13 85 6 85
-8 0 -4 11 -8 25 -8 36 -3 58 -23 44 -40 -9 -11 -6 -14 17 -15 22 -1 17 -4
-18 -11 -60 -13 -78 -6 -79 29 l-1 28 -10 -28 c-9 -26 -13 -28 -49 -22 -35 6
-39 5 -39 -14 0 -22 16 -29 22 -10 3 8 13 9 28 4 l24 -8 -30 -12 c-16 -7 -34
-9 -39 -4 -22 17 -104 -58 -90 -81 4 -6 1 -17 -5 -25 -19 -23 -2 -75 31 -94
16 -9 29 -21 29 -27 0 -29 94 -32 117 -4 10 11 23 20 30 20 6 0 18 9 25 19 21
30 128 34 128 5 0 -12 -9 -15 -35 -13 -27 3 -39 -2 -50 -18 -13 -18 -13 -23
-2 -30 21 -12 30 -45 15 -55 -20 -12 -82 -10 -96 4 -10 10 -14 8 -18 -10 -4
-12 -10 -19 -15 -16 -5 3 -6 11 -3 17 4 7 3 8 -1 4 -13 -12 -15 -37 -2 -34 6
1 13 -6 15 -15 2 -11 -2 -18 -12 -18 -9 0 -16 6 -17 13 0 10 -2 10 -6 0 -2 -7
-18 -13 -33 -13 -33 0 -60 31 -60 69 0 13 -3 21 -7 18 -3 -4 -12 1 -19 11 -11
13 -16 14 -22 4 -16 -24 -51 -22 -72 5 l-21 26 28 30 c16 17 23 31 17 34 -6 2
-9 14 -7 26 4 19 0 22 -27 23 -39 1 -41 3 -33 47 5 34 8 37 40 37 30 0 35 3
30 20 -3 13 0 20 10 20 8 0 12 4 8 10 -3 5 -12 7 -19 4 -26 -10 -26 14 0 46
52 61 123 78 110 26 -3 -14 -2 -28 4 -31 5 -3 11 4 12 17 0 13 2 28 3 33 2 6
3 13 4 18 2 12 21 8 21 -4z"/>
</g>
</svg>
