<?xml version="1.0" encoding="UTF-8"?>
<!DOCTYPE svg PUBLIC "-//W3C//DTD SVG 1.1//EN" "http://www.w3.org/Graphics/SVG/1.1/DTD/svg11.dtd">
<!-- Creator: CorelDRAW 2018 (64-Bit) -->
<svg xmlns="http://www.w3.org/2000/svg" xml:space="preserve" width="0.133in" height="0.133in" version="1.1" style="shape-rendering:geometricPrecision; text-rendering:geometricPrecision; image-rendering:optimizeQuality; fill-rule:evenodd; clip-rule:evenodd"
viewBox="0 0 133 133"
 xmlns:xlink="http://www.w3.org/1999/xlink">
 <defs>
  <style type="text/css">
   <![CDATA[
    .fil0 {fill:#ffffff}
   ]]>
  </style>
 </defs>
 <g id="Layer_x0020_1">
  <metadata id="CorelCorpID_0Corel-Layer"/>
  <g id="_2828701239168">
   <g>
    <g>
     <path class="fil0" d="M50.74 72.5c0,-1.46 -1.18,-2.63 -2.64,-2.63l-9.2 0c-1.45,0 -2.63,1.18 -2.63,2.63l0 9.2c0,1.46 1.18,2.64 2.63,2.64l9.2 0c1.46,0 2.64,-1.18 2.64,-2.64l0 -9.2 0 0z"/>
     <path class="fil0" d="M73.74 72.5c0,-1.46 -1.18,-2.63 -2.63,-2.63l-9.2 0c-1.46,0 -2.64,1.18 -2.64,2.63l0 9.2c0,1.46 1.18,2.64 2.64,2.64l9.2 0c1.45,0 2.63,-1.18 2.63,-2.64l0 -9.2z"/>
     <path class="fil0" d="M96.73 72.5c0,-1.46 -1.18,-2.63 -2.63,-2.63l-9.2 0c-1.46,0 -2.64,1.18 -2.64,2.63l0 9.2c0,1.46 1.18,2.64 2.64,2.64l9.2 0c1.45,0 2.63,-1.18 2.63,-2.64l0 -9.2z"/>
     <path class="fil0" d="M50.74 95.5c0,-1.46 -1.18,-2.63 -2.64,-2.63l-9.2 0c-1.45,0 -2.63,1.18 -2.63,2.64l0 9.2c0,1.45 1.18,2.63 2.63,2.63l9.2 0c1.46,0 2.64,-1.18 2.64,-2.63l0 -9.2 0 0z"/>
     <path class="fil0" d="M73.74 95.5c0,-1.46 -1.18,-2.63 -2.63,-2.63l-9.2 0c-1.46,0 -2.64,1.18 -2.64,2.64l0 9.2c0,1.45 1.18,2.63 2.64,2.63l9.2 0c1.45,0 2.63,-1.18 2.63,-2.63l0 -9.2z"/>
     <path class="fil0" d="M96.73 95.5c0,-1.46 -1.18,-2.63 -2.63,-2.63l-9.2 0c-1.46,0 -2.64,1.18 -2.64,2.64l0 9.2c0,1.45 1.18,2.63 2.64,2.63l9.2 0c1.45,0 2.63,-1.18 2.63,-2.63l0 -9.2 0 0z"/>
     <path class="fil0" d="M113.18 21.36l0 14.05c0,6.35 -5.15,11.47 -11.5,11.47l-7.26 0c-6.35,0 -11.57,-5.12 -11.57,-11.47l0 -14.1 -32.7 0 0 14.1c0,6.35 -5.22,11.47 -11.57,11.47l-7.26 0c-6.35,0 -11.5,-5.12 -11.5,-11.47l0 -14.05c-5.55,0.17 -10.11,4.76 -10.11,10.4l0 82.34c0,5.75 4.66,10.47 10.41,10.47l92.76 0c5.74,0 10.41,-4.73 10.41,-10.47l0 -82.34c0,-5.64 -4.56,-10.24 -10.11,-10.4zm-3.37 87.61c0,2.49 -2.02,4.5 -4.5,4.5l-77.81 0c-2.49,0 -4.5,-2.02 -4.5,-4.5l0 -42.53c0,-2.48 2.02,-4.5 4.5,-4.5l77.81 0c2.48,0 4.5,2.02 4.5,4.5l0 42.53 0 0z"/>
     <path class="fil0" d="M31.3 39.34l7.17 0c2.18,0 3.94,-1.76 3.94,-3.94l0 -23.03c0,-2.18 -1.76,-3.94 -3.94,-3.94l-7.17 0c-2.18,0 -3.94,1.76 -3.94,3.94l0 23.03c0,2.18 1.76,3.94 3.94,3.94z"/>
     <path class="fil0" d="M94.33 39.34l7.17 0c2.18,0 3.94,-1.76 3.94,-3.94l0 -23.03c0,-2.18 -1.77,-3.94 -3.94,-3.94l-7.17 0c-2.18,0 -3.94,1.76 -3.94,3.94l0 23.03c0,2.18 1.76,3.94 3.94,3.94z"/>
    </g>
   </g>
   <g>
   </g>
   <g>
   </g>
   <g>
   </g>
   <g>
   </g>
   <g>
   </g>
   <g>
   </g>
   <g>
   </g>
   <g>
   </g>
   <g>
   </g>
   <g>
   </g>
   <g>
   </g>
   <g>
   </g>
   <g>
   </g>
   <g>
   </g>
   <g>
   </g>
  </g>
 </g>
</svg>
