<?xml version="1.0" encoding="UTF-8"?>
<!DOCTYPE svg PUBLIC "-//W3C//DTD SVG 1.1//EN" "http://www.w3.org/Graphics/SVG/1.1/DTD/svg11.dtd">
<!-- Creator: CorelDRAW 2018 (64-Bit) -->
<svg xmlns="http://www.w3.org/2000/svg" xml:space="preserve" width="0.166661in" height="0.166661in" version="1.1" style="shape-rendering:geometricPrecision; text-rendering:geometricPrecision; image-rendering:optimizeQuality; fill-rule:evenodd; clip-rule:evenodd"
viewBox="0 0 166.66 166.66"
 xmlns:xlink="http://www.w3.org/1999/xlink">
 <defs>
  <style type="text/css">
   <![CDATA[
    .fil0 {fill:#FF9500}
   ]]>
  </style>
 </defs>
 <g id="Layer_x0020_1">
  <metadata id="CorelCorpID_0Corel-Layer"/>
  <path class="fil0" d="M161.7 77.43c0.09,-0.24 0.14,-0.5 0.15,-0.77 0,-0.28 -0.05,-0.55 -0.13,-0.81l-0.2 -0.57c-2.14,-20.7 -12.42,-39.7 -28.57,-52.83 -1.15,-0.94 -2.36,-1.79 -3.57,-2.66 -0.06,-0.05 -0.09,-0.12 -0.16,-0.17 -0.06,-0.05 -0.12,-0.04 -0.17,-0.08 -13.35,-9.57 -29.36,-14.73 -45.8,-14.76 -0.67,0 -1.35,0 -1.86,0.05 -8.76,0.17 -17.43,1.84 -25.64,4.93 -7.11,-5.54 -16.76,-6.56 -24.87,-2.59 -8.1,3.96 -13.24,12.2 -13.22,21.22 0.16,3 0.85,5.94 2.06,8.7 -2.68,3.66 -5.04,7.54 -7.05,11.61 -0.04,0.07 -0.06,0.13 -0.1,0.2 -18.6,38.46 -3.12,84.74 34.87,104.27 38,19.53 84.64,5.18 105.09,-32.33 5.6,-10.32 8.79,-21.78 9.31,-33.51 0.08,-1.26 0.11,-2.55 0.11,-3.85 0,-2.03 -0.1,-4.05 -0.26,-6.06l0 0zm-120.83 -41.17c5.79,0 10.5,-4.7 10.5,-10.49 0,-5.8 -4.7,-10.5 -10.5,-10.5 -5.8,0 -10.5,4.7 -10.5,10.5 0,5.79 4.7,10.49 10.5,10.49zm0 -15.74c2.9,0 5.24,2.35 5.24,5.25 0,2.9 -2.35,5.24 -5.24,5.24 -2.9,0 -5.25,-2.35 -5.25,-5.24 0,-2.9 2.35,-5.25 5.25,-5.25zm68.22 76.09c0,5.8 4.7,10.49 10.49,10.49 5.8,0 10.5,-4.7 10.5,-10.49 0,-5.8 -4.7,-10.5 -10.5,-10.5 -5.79,0 -10.49,4.7 -10.49,10.5zm15.74 0c0,2.89 -2.35,5.25 -5.25,5.25 -2.89,0 -5.24,-2.35 -5.24,-5.25 0,-2.9 2.35,-5.25 5.24,-5.25 2.9,0 5.25,2.35 5.25,5.25zm29.24 -32.64c-0.33,-0.3 -0.64,-0.64 -0.99,-0.91 -3.43,-2.6 -7.31,-4.54 -11.46,-5.72 -3.77,-0.94 -7.71,-0.99 -11.5,-0.12 -3.22,0.73 -6.57,0.75 -9.8,0.05 -6.27,-1.37 -11.23,-2.45 -13.86,-6.65 -3.76,-6.04 -2,-14.52 1.98,-17.51 1.31,-0.9 2.93,-1.25 4.49,-0.96 2.78,0.23 5.58,-0.24 8.13,-1.37 2.72,-1.27 5.13,-3.11 7.08,-5.39 0.5,0.38 1.02,0.72 1.5,1.13 11.84,9.63 20.38,22.73 24.43,37.45l0 0zm-112.8 -53.94c10.14,0.02 18.35,8.23 18.37,18.37 0,7.85 -11.79,25.81 -18.37,34.92 -6.24,-8.43 -11.66,-17.43 -16.19,-26.89 -1.23,-2.51 -1.97,-5.24 -2.18,-8.03 0.01,-10.14 8.22,-18.36 18.36,-18.37zm-31.48 73.46c0.01,-4.89 0.5,-9.77 1.47,-14.56 0.28,3.65 0.75,6.89 1.18,9.71 1.63,10.76 3.16,20.9 11.09,30.17 3.31,3.91 8.87,10.44 17.45,11.41 8.59,0.96 19.34,-3.98 22.44,-5.51l1.19 -0.61c1.65,-1.04 3.54,-1.64 5.48,-1.75 3.31,0.3 6.39,1.87 8.58,4.38 4.48,4.96 5.61,13.24 2.43,17.71 -1.02,1.33 -2.43,2.31 -4.03,2.8 -2.74,0.92 -5.07,2.78 -6.58,5.25 -2.22,4.01 -2.63,8.78 -1.14,13.12 -34.55,-6.69 -59.52,-36.92 -59.58,-72.12l0 0zm73.46 73.46c-2.53,0 -5.07,-0.13 -7.59,-0.4 -0.22,-0.27 -0.42,-0.56 -0.6,-0.86 -1.77,-3.28 -1.79,-7.23 -0.05,-10.52 0.94,-1.51 2.41,-2.61 4.12,-3.1 2.5,-0.86 4.69,-2.46 6.26,-4.59 4.56,-6.42 3.27,-17.54 -2.81,-24.26 -3.16,-3.61 -7.64,-5.82 -12.43,-6.12l-0.12 0c-2.76,0.08 -5.45,0.89 -7.81,2.33l-1.12 0.57c-5.73,2.82 -13.89,5.62 -19.54,4.98 -6.51,-0.73 -11.04,-6.06 -14.04,-9.59 -6.96,-8.13 -8.32,-17.13 -9.89,-27.55 -1.69,-8.91 -1.75,-18.05 -0.2,-26.99 1.4,-2.84 2.99,-5.59 4.75,-8.24 0.09,0.17 0.18,0.35 0.26,0.53 0.17,0.33 0.34,0.66 0.52,1 0.27,0.49 0.53,0.99 0.79,1.49 0.19,0.34 0.37,0.67 0.56,1.01 0.28,0.5 0.56,1 0.84,1.5 0.19,0.33 0.38,0.67 0.57,0.99 0.29,0.5 0.59,1 0.88,1.5 0.19,0.32 0.38,0.64 0.58,0.96 0.31,0.53 0.62,1.02 0.94,1.53 0.18,0.28 0.35,0.57 0.52,0.86 0.39,0.62 0.78,1.22 1.16,1.84 0.1,0.16 0.2,0.32 0.31,0.48 0.48,0.74 0.96,1.47 1.43,2.18 0.18,0.26 0.35,0.53 0.52,0.79 0.29,0.44 0.57,0.87 0.86,1.28l0.62 0.91c0.22,0.33 0.45,0.67 0.67,0.98l0.63 0.91c0.2,0.28 0.39,0.56 0.58,0.83 0.19,0.26 0.39,0.56 0.59,0.83 0.19,0.27 0.33,0.46 0.48,0.68l0.53 0.72 0.43 0.59 0.42 0.58 0.34 0.46 0.32 0.43 0.19 0.26c0.24,0.31 0.41,0.56 0.46,0.62 0.49,0.66 1.27,1.05 2.1,1.05 0.82,0 1.6,-0.39 2.1,-1.05 2.2,-2.92 21.52,-28.82 21.52,-40.94 0,-0.77 -0.04,-1.53 -0.12,-2.28 -0.02,-0.23 -0.06,-0.46 -0.09,-0.7 -0.07,-0.52 -0.15,-1.05 -0.26,-1.57 -0.05,-0.27 -0.1,-0.51 -0.17,-0.76 -0.12,-0.53 -0.26,-1.05 -0.42,-1.57 -0.07,-0.21 -0.13,-0.42 -0.19,-0.63 -0.24,-0.7 -0.5,-1.4 -0.81,-2.07 -0.06,-0.13 -0.13,-0.27 -0.19,-0.39 -0.26,-0.54 -0.52,-1.09 -0.82,-1.61 -0.13,-0.24 -0.28,-0.47 -0.42,-0.7 -0.25,-0.41 -0.51,-0.82 -0.78,-1.22 -0.17,-0.23 -0.33,-0.46 -0.5,-0.7 -0.09,-0.11 -0.16,-0.23 -0.26,-0.35 5.46,-1.84 11.12,-3.01 16.86,-3.5 -4.09,7.72 -5.43,14.86 -3.9,21.25 1.14,4.28 3.3,8.22 6.3,11.48 2.47,3.05 4.25,5.26 4.13,8.85 -0.22,7.61 -8.81,13.94 -12.07,16.33 -4.27,3.07 -9.03,5.37 -14.09,6.81 -4.77,1.56 -8.88,2.9 -10.45,7.59 -1.56,6.2 1,12.7 6.35,16.18 3.21,1.74 6.99,2.07 10.45,0.92 3.8,-0.88 7.72,-1.07 11.58,-0.55 4.98,0.7 9.28,1.31 11.32,4.17 1.21,1.71 1.15,3.47 0.91,6.7 -0.54,4.58 -0.07,9.21 1.36,13.59 1.2,3.59 3,9.01 7.35,9.63 0.28,0.05 0.57,0.07 0.85,0.07 3.07,0 4.96,-2.71 6.93,-5.57 0.88,-1.26 1.84,-2.62 3,-3.98 5.4,8.72 10.88,16 11.14,16.35 0.5,0.66 1.28,1.05 2.1,1.05 0.82,0 1.6,-0.39 2.1,-1.05 5.7,-7.62 10.89,-15.61 15.53,-23.91 3.22,0.93 6.29,2.33 9.11,4.15 -13.13,22.63 -37.31,36.55 -63.48,36.54l0 0zm48.97 -71.4c3.9,3.48 6.13,8.45 6.13,13.68 0,1.89 -0.77,5.63 -4.41,12.73 -4.16,7.7 -8.82,15.11 -13.96,22.19 -2.47,-3.44 -6.71,-9.55 -10.52,-15.97 -2.12,-3.52 -4.01,-7.16 -5.67,-10.92 -1.24,-2.52 -1.97,-5.24 -2.18,-8.03 0.02,-10.13 8.23,-18.35 18.37,-18.36 0.57,0 1.13,0.02 1.69,0.07 3.92,0.35 7.63,1.98 10.55,4.61zm24.4 1.51c-0.45,9.98 -2.96,19.76 -7.39,28.72 -2.88,-1.82 -5.97,-3.26 -9.22,-4.3 2.02,-3.79 3.24,-7.96 3.57,-12.26 -0.02,-9 -5.14,-17.22 -13.22,-21.2l-0.17 -0.07c-0.59,-0.29 -1.18,-0.55 -1.79,-0.79 -0.42,-0.17 -0.85,-0.29 -1.28,-0.43 -0.26,-0.08 -0.5,-0.18 -0.75,-0.26 -0.67,-0.2 -1.37,-0.35 -2.06,-0.48l-0.04 0c-0.41,-0.07 -0.85,-0.11 -1.27,-0.17 -6.74,-0.94 -13.56,1.11 -18.68,5.6 -5.12,4.5 -8.03,10.99 -7.98,17.8 0.2,3.5 1.08,6.93 2.6,10.08 1.47,3.35 3.13,6.61 4.97,9.77 -1.64,1.8 -3.14,3.71 -4.49,5.73 -0.72,1.24 -1.63,2.35 -2.7,3.31 -0.52,-0.08 -1.5,-1.2 -3.15,-6.11 -1.2,-3.72 -1.58,-7.67 -1.1,-11.56 0.68,-3.49 0.01,-7.11 -1.87,-10.13 -3.35,-4.68 -9.2,-5.51 -14.89,-6.31 -4.42,-0.61 -8.92,-0.41 -13.27,0.59 -3.35,0.64 -4.91,0.88 -6.7,-0.23 -3.26,-2.23 -4.88,-6.18 -4.15,-10.06 0.7,-2.1 2.8,-2.85 7.09,-4.26 5.59,-1.61 10.87,-4.17 15.59,-7.57 3.82,-2.81 13.91,-10.25 14.21,-20.41 0.17,-5.55 -2.61,-8.98 -5.3,-12.29 -2.49,-2.66 -4.3,-5.88 -5.27,-9.38 -1.39,-5.85 0.33,-12.7 5.02,-20.39l0.3 0c14.44,0.02 28.56,4.29 40.61,12.28 -1.39,1.54 -3.07,2.8 -4.95,3.7 -1.83,0.79 -3.83,1.1 -5.81,0.91 -2.76,-0.34 -5.54,0.37 -7.8,2 -5.95,4.48 -8.61,15.9 -3.27,24.48 3.81,6.08 10.31,7.5 17.41,9.04 3.82,0.81 7.78,0.79 11.59,-0.05 3.07,-0.73 6.26,-0.72 9.31,0.03 3.44,0.99 6.67,2.61 9.52,4.77 2.97,2.46 5.22,5.67 6.52,9.3 0.22,2.32 0.35,4.64 0.35,7 0,1.17 -0.03,2.36 -0.1,3.57l0.01 0z"/>
 </g>
</svg>
