<?xml version="1.0" encoding="UTF-8"?>
<!DOCTYPE svg PUBLIC "-//W3C//DTD SVG 1.1//EN" "http://www.w3.org/Graphics/SVG/1.1/DTD/svg11.dtd">
<!-- Creator: CorelDRAW 2018 (64-Bit Evaluation Version) -->
<svg xmlns="http://www.w3.org/2000/svg" xml:space="preserve" width="0.333331in" height="0.333331in" version="1.1" style="shape-rendering:geometricPrecision; text-rendering:geometricPrecision; image-rendering:optimizeQuality; fill-rule:evenodd; clip-rule:evenodd"
viewBox="0 0 333.33 333.33"
 xmlns:xlink="http://www.w3.org/1999/xlink">
 <defs>
  <style type="text/css">
   <![CDATA[
    .fil0 {fill:#8a7317}
   ]]>
  </style>
 </defs>
 <g id="Layer_x0020_1">
  <metadata id="CorelCorpID_0Corel-Layer"/>
  <path class="fil0" d="M23.15 323.72l238.3 0 0 -314.11 -238.3 0 0 314.11zm243.71 -97.48l43.32 0 0 -43.32 -43.32 0 0 43.32zm0 64.99l43.32 0 0 -54.16 -43.32 0 0 54.16zm0 -119.15l43.32 0 0 -43.32 -43.32 0 0 43.32zm0 -108.31l43.32 0 0 -54.16 -43.32 0 0 54.16zm0 54.15l43.32 0 0 -43.32 -43.32 0 0 43.32zm-68.38 54.21l-46.36 -80.31c-2.05,-3.56 -5.72,-5.67 -9.82,-5.67 -4.09,0 -7.76,2.11 -9.82,5.67l-46.36 80.31c-2.05,3.54 -2.05,7.78 0,11.33 2.05,3.55 5.72,5.67 9.82,5.67l92.72 0c4.1,0 7.77,-2.11 9.81,-5.67 2.06,-3.55 2.06,-7.79 0,-11.33zm-56.18 3.94c-4.06,0 -7.38,-3.31 -7.38,-7.38 0,-4.07 3.32,-7.38 7.38,-7.38 4.07,0 7.39,3.31 7.39,7.38 0,4.07 -3.31,7.38 -7.39,7.38zm7.44 -31.54c0,4.1 -3.34,7.43 -7.44,7.43 -4.09,0 -7.42,-3.33 -7.42,-7.43l0 -34.09c0,-1.94 1.57,-3.52 3.51,-3.52l7.82 0c1.94,0 3.52,1.58 3.52,3.52l0 34.09 0 0zm25.06 65.46c0,3 -2.43,5.42 -5.41,5.42l-54.16 0c-2.98,0 -5.41,-2.43 -5.41,-5.42 0,-3 2.43,-5.41 5.41,-5.41l54.16 0c2.98,0 5.41,2.42 5.41,5.41zm-81.24 16.25l97.48 0c3,0 5.43,2.42 5.43,5.41 0,3 -2.43,5.41 -5.43,5.41l-97.48 0c-2.98,0 -5.41,-2.42 -5.41,-5.41 0,-3 2.43,-5.41 5.41,-5.41zm0 21.67l97.48 0c3,0 5.43,2.42 5.43,5.41 0,3 -2.43,5.41 -5.43,5.41l-97.48 0c-2.98,0 -5.41,-2.42 -5.41,-5.41 0,-3 2.43,-5.41 5.41,-5.41z"/>
 </g>
</svg>
