
<svg xmlns="http://www.w3.org/2000/svg" xml:space="preserve" width="0.323in" height="0.39in" version="1.1" style="shape-rendering:geometricPrecision; text-rendering:geometricPrecision; image-rendering:optimizeQuality; fill-rule:evenodd; clip-rule:evenodd"
viewBox="0 0 323 390"
 xmlns:xlink="http://www.w3.org/1999/xlink">
 <g id="Layer_x0020_1">
  <metadata id="CorelCorpID_0Corel-Layer"/>
  <g id="_964812450832">
   <circle fill="#FEFEFE" cx="161.5" cy="166.7" r="161.35"/>
   <circle fill="#848688" cx="161.5" cy="166.7" r="146.24"/>
   <path fill="#E6E7E8" d="M280.8 251.3c-30.82,-25.5 -72.9,-41.21 -119.3,-41.21 -46.4,0 -88.48,15.71 -119.3,41.21 26.5,37.3 70.06,61.63 119.3,61.63 49.24,0 92.8,-24.33 119.3,-61.63z"/>
   <path fill="#FEFEFE" d="M161.5 86.05c-54.54,0 -83.13,40.18 -83.13,46.55 0,6.37 28.59,46.55 83.13,46.55 54.53,0 83.13,-40.18 83.13,-46.55 0,-6.37 -28.59,-46.55 -83.13,-46.55zm0 82.36c-20.41,0 -36.95,-16.03 -36.95,-35.81 0,-19.78 16.54,-35.81 36.95,-35.81 20.4,0 36.94,16.03 36.94,35.81 0,19.78 -16.54,35.81 -36.94,35.81zm18.47 -35.81c0,9.89 -8.27,17.91 -18.47,17.91 -10.2,0 -18.47,-8.02 -18.47,-17.91 0,-9.89 8.27,-17.91 18.47,-17.91 5.51,0 -3.39,14.19 0,17.91 2.87,3.16 18.47,-4.54 18.47,0z"/>
  </g>
 </g>
</svg>
