<?xml version="1.0" encoding="UTF-8"?>
<!DOCTYPE svg PUBLIC "-//W3C//DTD SVG 1.1//EN" "http://www.w3.org/Graphics/SVG/1.1/DTD/svg11.dtd">
<!-- Creator: CorelDRAW 2018 (64-Bit Evaluation Version) -->
<svg xmlns="http://www.w3.org/2000/svg" xml:space="preserve" width="0.333331in" height="0.333331in" version="1.1" style="shape-rendering:geometricPrecision; text-rendering:geometricPrecision; image-rendering:optimizeQuality; fill-rule:evenodd; clip-rule:evenodd"
viewBox="0 0 333.33 333.33"
 xmlns:xlink="http://www.w3.org/1999/xlink">
 <defs>
  <style type="text/css">
   <![CDATA[
    .fil0 {fill:#FFDA44}
   ]]>
  </style>
 </defs>
 <g id="Layer_x0020_1">
  <metadata id="CorelCorpID_0Corel-Layer"/>
  <path class="fil0" d="M301.16 81.36l0.27 -0.27 -66.62 -66.44 -18.96 18.96 37.74 37.74c-16.81,6.44 -28.8,22.63 -28.8,41.67 0,24.68 20.03,44.71 44.71,44.71 6.35,0 12.43,-1.34 17.88,-3.76l0 128.94c0,9.84 -8.05,17.89 -17.88,17.89 -9.84,0 -17.89,-8.05 -17.89,-17.88l0 -80.48c0,-19.76 -16,-35.77 -35.77,-35.77l-17.88 0 0 -125.19c-0,-19.76 -16.01,-35.77 -35.77,-35.77l-107.3 0c-19.76,0 -35.77,16.01 -35.77,35.77l0 286.15 178.84 0 0 -134.13 26.83 0 0 89.42c0,24.68 20.03,44.71 44.71,44.71 24.68,0 44.71,-20.03 44.71,-44.71l0 -169.9c0,-12.34 -5.01,-23.52 -13.06,-31.65zm-138.96 49.54l-107.3 0 0 -89.42 107.3 0 0 89.42zm107.31 0c-9.84,0 -17.89,-8.05 -17.89,-17.89 0,-9.83 8.05,-17.88 17.89,-17.88 9.83,0 17.88,8.05 17.88,17.88 0,9.84 -8.05,17.89 -17.88,17.89z"/>
 </g>
</svg>
