<?xml version="1.0" encoding="iso-8859-1"?>
<!-- Generator: Adobe Illustrator 16.0.0, SVG Export Plug-In . SVG Version: 6.00 Build 0)  -->
<!DOCTYPE svg PUBLIC "-//W3C//DTD SVG 1.1//EN" "http://www.w3.org/Graphics/SVG/1.1/DTD/svg11.dtd">
<svg xmlns="http://www.w3.org/2000/svg" xmlns:xlink="http://www.w3.org/1999/xlink" version="1.1" id="Capa_1" x="0px" y="0px" width="512px" height="512px" viewBox="0 0 66.135 66.135" style="enable-background:new 0 0 66.135 66.135;" xml:space="preserve">
<g>
	<g>
		<path d="M33.066,66.135C14.833,66.135,0,51.301,0,33.068C0,14.834,14.833,0,33.066,0s33.068,14.834,33.068,33.068    C66.135,51.301,51.3,66.135,33.066,66.135z M33.066,4C17.04,4,4,17.04,4,33.068S17.04,62.135,33.066,62.135    s29.068-13.04,29.068-29.067S49.094,4,33.066,4z" fill="#ffda44"/>
		<path d="M43.979,29.115c0-6.981-4.886-12.64-10.912-12.64c-6.025,0-10.91,5.658-10.91,12.64c0,0-1.154,6.57,10.91,20.546    C45.132,35.686,43.979,29.115,43.979,29.115z M33.066,31.816c-2.416,0-4.375-1.959-4.375-4.375c0-2.417,1.959-4.376,4.375-4.376    c2.417,0,4.375,1.959,4.375,4.376C37.442,29.857,35.483,31.816,33.066,31.816z" fill="#ffda44"/>
	</g>
</g>
<g>
</g>
<g>
</g>
<g>
</g>
<g>
</g>
<g>
</g>
<g>
</g>
<g>
</g>
<g>
</g>
<g>
</g>
<g>
</g>
<g>
</g>
<g>
</g>
<g>
</g>
<g>
</g>
<g>
</g>
</svg>
