<?xml version="1.0" encoding="UTF-8"?>
<!DOCTYPE svg PUBLIC "-//W3C//DTD SVG 1.1//EN" "http://www.w3.org/Graphics/SVG/1.1/DTD/svg11.dtd">
<!-- Creator: CorelDRAW 2018 (64-Bit Evaluation Version) -->
<svg xmlns="http://www.w3.org/2000/svg" xml:space="preserve" width="0.333331in" height="0.333331in" version="1.1" style="shape-rendering:geometricPrecision; text-rendering:geometricPrecision; image-rendering:optimizeQuality; fill-rule:evenodd; clip-rule:evenodd"
viewBox="0 0 333.33 333.33"
 xmlns:xlink="http://www.w3.org/1999/xlink">
 <defs>
  <style type="text/css">
   <![CDATA[
    .fil0 {fill:#FFDA44}
   ]]>
  </style>
 </defs>
 <g id="Layer_x0020_1">
  <metadata id="CorelCorpID_0Corel-Layer"/>
  <path class="fil0" d="M182.63 225.83c-11.31,-4.89 -14.17,-13.11 -13.94,-28.48 0.22,-14.23 0.36,-28.89 0.04,-43.11l-119.58 0.43c2.88,-10.64 8.76,-29.3 13.29,-39.34 5.4,-11.97 14.43,-22.11 29.97,-23.65 19.66,-1.96 57.06,0.49 80.1,-0.19 4.72,-0.14 6.42,-0.95 9.72,-2.17 6.93,-2.55 6.67,-0.35 6.58,-7.03 -4.63,-2.07 -88.4,-1.72 -98.25,-0.41 -33.78,4.49 -38.11,37.75 -45.78,55.18 -11.08,0.88 -21.67,0.22 -27.3,7.72 -8.63,11.5 2.39,16.52 9.89,20.56 -16.5,15.19 -11.45,39.78 -12.52,60.07 -0.48,9.16 -8.32,10.51 -4.77,39.04 2,16.03 23.92,11.61 47.33,11.61 29.67,0.01 230.05,1.21 236.4,-0.9 9.08,-3.02 8.14,-12 8.13,-21.74 -0.03,-16.68 1.02,-14.29 -6.05,-25.57 -19.31,-0.88 -103.23,2.37 -113.26,-2.05zm42.06 -125.7l56.43 0.08c0.44,-11.4 1.57,-24.8 -3.42,-33.42 -11.15,-19.25 -37.6,-19.56 -48.94,-1.1 -5.48,8.93 -4.96,22.61 -4.07,34.44zm21.32 67.74c-1.21,6 -4.61,16.33 -3.76,21.42 5.84,2.37 14.61,1.73 21,0.67 0.89,-5.33 0.11,-6.93 -1.25,-12.07 -5.02,-18.85 3.09,-9 4.63,-21.35 2.05,-16.55 -17.78,-20.74 -25.41,-9.63 -6.57,9.59 1.17,15.81 4.79,20.96zm12 92.06l1.4 0.01c10.94,0.07 13.94,-3.61 10.25,-12.41l-8.81 -1.33c-18.56,-2.21 -21.09,13.6 -2.83,13.73zm-213.7 -12.7c-13.26,6.61 4.32,17.67 17.54,11.93 4.65,-2.02 5.93,-9.15 0.4,-11.83 -3.74,-1.81 -14.61,-1.77 -17.94,-0.11zm73.89 0.48c0.83,6.2 3.38,5.1 9.35,5.09l53.36 0.04c8.6,0.13 11.8,2.07 12.67,-5.24 -16.63,-1.57 -55.43,-1.48 -75.38,0.1zm75.51 -12.5c-5.82,-5.53 -30.35,-2.22 -42.31,-2.25 -5.76,-0.02 -25.07,-0.78 -29.35,0.15 -5.04,1.09 -6.55,4.36 -0.1,5.67l67.2 0.16c6.45,-1.23 3.06,0.04 4.55,-3.73zm-161.2 -52.16c-6.08,2.96 -6.93,5.87 -5.57,13.87 1.35,7.94 1.96,9.56 9.31,9.8 5.62,0.19 37.19,0.58 40.67,-0.13 7.53,-1.54 6.51,-12.07 -11.36,-18.82 -6.93,-2.61 -25.52,-8.39 -33.05,-4.72zm52.82 110.3l0.09 -13.48 -65.26 -0.67c0.63,28.94 -0.13,23.8 38.65,23.89 24.83,0.06 21.89,1.96 26.52,-9.74zm207 1.25l-0.57 -14.73 -65.04 -0.65c-0.11,9.07 -1.16,15.94 3.76,22.72 6.91,2.22 48.8,1.83 56.89,0.35l4.97 -7.69zm-109.96 -187.1c-1.52,24.15 0.04,62.62 -0.28,89.86 -0.14,12.6 0.95,17.04 14.11,17.21 19.93,0.25 40.41,-0.13 60.41,-0.17 20.09,-0.04 41.77,0.79 61.71,-0.24 8.17,-8.72 5.41,-14.19 5.4,-28.05 -0.01,-11.69 -0,-23.38 0,-35.07 0.03,-55.36 3.43,-47.91 -20.11,-51.24 -0.51,-23.13 1.95,-32.68 -10.43,-49.85 -7.04,-9.77 -21.45,-20.34 -40.8,-20.14 -18.24,0.19 -33.11,9.78 -40.39,20.51 -12.94,19.06 -8.18,26.19 -10.16,49.92 -10.14,-0 -16.2,-1.61 -19.47,7.26z"/>
 </g>
</svg>
