<svg xmlns="http://www.w3.org/2000/svg" xml:space="preserve" width="0.322709in" height="0.379331in" version="1.1" style="shape-rendering:geometricPrecision; text-rendering:geometricPrecision; image-rendering:optimizeQuality; fill-rule:evenodd; clip-rule:evenodd"
viewBox="0 0 323 379"
 xmlns:xlink="http://www.w3.org/1999/xlink"> 
 <g id="Layer_x0020_1">
  <metadata id="CorelCorpID_0Corel-Layer"/>
  <g id="_879281518880">
   <circle fill="#FEFEFE" cx="161" cy="161" r="161"/>
   <circle fill="#848688" cx="161" cy="161" r="146"/>
   <path fill="#E6E7E8" d="M281 246c-31,-26 -73,-41 -120,-41 -46,0 -88,15 -119,41 27,37 70,62 119,62 50,0 93,-25 120,-62z"/>
   <g transform="matrix(1 0 0 1 -134.165 189.059)">
    <text x="161" y="190"  fill="#FEFEFE" style="font-weight:normal;font-size:55.5591px;font-family:'Arial'">Immobilize</text>
   </g>
   <g transform="matrix(1 0 0 1 -38.7441 86.2402)">
    <text x="161" y="190"  fill="#373435" style="font-weight:normal;font-size:55.5591px;font-family:'Arial'">Off</text>
   </g>
   <path fill="#FEFEFE" d="M170 146c-6,-2 -8,-7 -8,-16 1,-8 1,-16 1,-24l-68 0c2,-6 5,-16 8,-22 3,-7 8,-12 16,-13 12,-1 33,0 46,0 2,0 3,-1 5,-2 4,-1 4,0 4,-4 -3,-1 -50,0 -56,0 -19,3 -21,22 -25,31 -7,1 -13,1 -16,5 -5,6 2,9 6,11 -10,9 -7,23 -7,34 -1,5 -5,6 -3,22 1,9 13,7 27,7 16,0 130,1 133,-1 5,-1 5,-6 5,-12 0,-9 0,-8 -4,-14 -11,-1 -58,1 -64,-2l0 0zm24 -70l32 0c0,-7 1,-14 -2,-19 -6,-11 -21,-11 -28,-1 -3,5 -2,13 -2,20l0 0zm12 38c-1,3 -2,9 -2,12 3,1 8,1 12,0 0,-3 0,-4 -1,-7 -3,-10 2,-5 3,-12 1,-9 -10,-11 -15,-5 -3,5 1,9 3,12zm7 52l1 0c6,0 8,-2 5,-7l-4 -1c-11,-1 -12,8 -2,8l0 0zm-121 -7c-7,3 3,10 10,6 3,-1 4,-5 0,-6 -2,-1 -8,-1 -10,0l0 0zm42 0c0,3 2,3 5,3l30 0c5,0 7,1 8,-3 -10,-1 -32,-1 -43,0l0 0zm43 -7c-4,-3 -18,-1 -24,-1 -4,0 -14,-1 -17,0 -3,0 -4,2 0,3l38 0c4,-1 2,0 3,-2l0 0zm-91 -30c-4,2 -4,4 -3,8 0,5 1,6 5,6 3,0 21,0 23,0 4,-1 3,-7 -7,-11 -4,-1 -14,-5 -18,-3zm29 63l1 -8 -37 0c0,16 0,13 21,13 15,0 13,1 15,-5zm117 0l0 -8 -37 0c0,5 0,9 2,12 4,2 28,1 32,1l3 -5 0 0zm-62 -105c-1,13 0,35 0,50 0,8 1,10 8,10 11,0 23,0 34,0 11,0 24,0 35,0 5,-5 3,-8 3,-16 0,-7 0,-13 0,-20 0,-31 2,-27 -11,-29 -1,-13 1,-18 -6,-28 -4,-5 -12,-11 -23,-11 -11,0 -19,5 -23,11 -7,11 -5,15 -6,29 -6,0 -9,-1 -11,4l0 0z"/>
  </g>
 </g>
</svg>
