<?xml version="1.0" encoding="UTF-8"?>
<!DOCTYPE svg PUBLIC "-//W3C//DTD SVG 1.1//EN" "http://www.w3.org/Graphics/SVG/1.1/DTD/svg11.dtd">
<!-- Creator: CorelDRAW 2018 (64-Bit) -->
<svg xmlns="http://www.w3.org/2000/svg" xml:space="preserve" width="0.166661in" height="0.166661in" version="1.1" style="shape-rendering:geometricPrecision; text-rendering:geometricPrecision; image-rendering:optimizeQuality; fill-rule:evenodd; clip-rule:evenodd"
viewBox="0 0 166.66 166.66"
 xmlns:xlink="http://www.w3.org/1999/xlink">
 <defs>
  <style type="text/css">
   <![CDATA[
    .fil0 {fill:#444444}
   ]]>
  </style>
 </defs>
 <g id="Layer_x0020_1">
  <metadata id="CorelCorpID_0Corel-Layer"/>
  <path class="fil0" d="M108.06 140.34l23.27 17.45 0 -17.45 26.47 0 0 -78.82 -52.65 0 0 -52.65 -96.28 0 0 78.83 26.47 0 0 17.45 23.26 -17.45 2.91 0 0 52.65 46.54 0zm-2.92 -32.46c-4.68,3.94 -9.1,6 -11.33,6l0 8.72c5.62,0 12.37,-4.11 17.45,-8.48 5.08,4.36 11.83,8.48 17.45,8.48l0 -8.72c-2.23,0 -6.65,-2.06 -11.33,-6 2.54,-3.08 5.2,-7.11 6.37,-11.46l9.33 0 0 -8.72 -17.45 0 0 -8.73 -8.73 0 0 8.73 -17.45 0 0 8.72 9.33 0c1.16,4.35 3.83,8.38 6.36,11.46zm6.11 -6.31c-1.37,-1.77 -2.47,-3.52 -3.22,-5.16l6.44 0c-0.75,1.63 -1.85,3.39 -3.22,5.16l0 0zm37.81 30.04l-26.47 0 0 8.72 -11.64 -8.72 -40.72 0 0 -61.37 78.83 0 0 61.37zm-93.37 -52.65l-11.63 8.73 0 -8.73 -26.47 0 0 -61.37 78.83 0 0 43.93 -19.12 0 -20.15 -40.3 -21.36 42.71 7.8 3.9 5.34 -10.67 16.43 0 2.18 4.36 -6.03 0 0 17.45 -5.82 0zm5.3 -30.54l-7.7 0 3.85 -7.7 3.85 7.7z"/>
 </g>
</svg>
