<?xml version="1.0" encoding="utf-8"?>
<!-- Generator: Adobe Illustrator 16.0.0, SVG Export Plug-In . SVG Version: 6.00 Build 0)  -->
<!DOCTYPE svg PUBLIC "-//W3C//DTD SVG 1.1//EN" "http://www.w3.org/Graphics/SVG/1.1/DTD/svg11.dtd">
<svg version="1.1" id="Layer_1" xmlns="http://www.w3.org/2000/svg" xmlns:xlink="http://www.w3.org/1999/xlink" x="0px" y="0px"
	 width="30.312px" height="30.96px" viewBox="0 0 30.312 30.96" enable-background="new 0 0 30.312 30.96" xml:space="preserve">
<g>
	<circle opacity="0.7" fill-rule="evenodd" clip-rule="evenodd" fill="#F9A01B" cx="15.156" cy="15.824" r="15.142"/>
	<circle fill-rule="evenodd" clip-rule="evenodd" fill="#6D6E71" cx="15.156" cy="15.136" r="15.142"/>
	<path opacity="0.7" fill-rule="evenodd" clip-rule="evenodd" fill="#FFC20E" d="M15.156,29.498
		c-8.117,0-14.742-6.387-15.125-14.409c-0.006,0.13-0.011,0.26-0.014,0.391C0.2,23.685,6.908,30.278,15.156,30.278
		c8.249,0,14.957-6.594,15.139-14.798c-0.003-0.13-0.008-0.261-0.014-0.39C29.897,23.111,23.272,29.498,15.156,29.498z"/>
	<path fill-rule="evenodd" clip-rule="evenodd" fill="#FFFFFF" d="M8.469,10.594c-0.214,0-0.388,0.174-0.388,0.387
		c0,0.214,0.174,0.388,0.388,0.388s0.388-0.174,0.388-0.388C8.857,10.768,8.683,10.594,8.469,10.594L8.469,10.594z M21.843,12.583
		c-1.873,0-3.396,1.524-3.396,3.396c0,0.928,0.506,2.14,1.504,3.603c0.714,1.046,1.419,1.838,1.448,1.871
		c0.113,0.126,0.274,0.198,0.444,0.198c0.169,0,0.33-0.072,0.443-0.198c0.03-0.033,0.734-0.825,1.448-1.871
		c0.998-1.463,1.504-2.675,1.504-3.603C25.238,14.106,23.715,12.583,21.843,12.583L21.843,12.583z M21.843,17.557
		c-0.871,0-1.579-0.708-1.579-1.578s0.708-1.578,1.579-1.578c0.87,0,1.578,0.708,1.578,1.578S22.713,17.557,21.843,17.557
		L21.843,17.557z M21.843,15.591c0.213,0,0.388,0.174,0.388,0.388s-0.175,0.388-0.388,0.388c-0.214,0-0.388-0.174-0.388-0.388
		S21.629,15.591,21.843,15.591L21.843,15.591z M19.111,20.46c0.328,0.468,0.647,0.88,0.898,1.19h-2.38
		c-1.707,0-3.095-1.388-3.095-3.094c0-1.05-0.854-1.904-1.903-1.904h-2.33c0.25-0.31,0.57-0.722,0.899-1.19h1.431
		c1.706,0,3.094,1.389,3.094,3.095c0,1.049,0.854,1.903,1.904,1.903H19.111L19.111,20.46z M8.469,7.585
		c1.873,0,3.396,1.523,3.396,3.396c0,0.928-0.506,2.14-1.504,3.603c-0.714,1.046-1.418,1.837-1.448,1.871
		c-0.113,0.127-0.274,0.198-0.444,0.198s-0.331-0.071-0.444-0.198c-0.03-0.033-0.734-0.824-1.448-1.871
		c-0.998-1.463-1.504-2.675-1.504-3.603C5.073,9.109,6.597,7.585,8.469,7.585L8.469,7.585z M8.469,12.56
		c-0.871,0-1.578-0.708-1.578-1.579c0-0.87,0.708-1.578,1.578-1.578s1.578,0.708,1.578,1.578C10.047,11.852,9.34,12.56,8.469,12.56z
		"/>
</g>
</svg>
