<?xml version="1.0" encoding="iso-8859-1"?>
<!-- Generator: Adobe Illustrator 18.0.0, SVG Export Plug-In . SVG Version: 6.00 Build 0)  -->
<!DOCTYPE svg PUBLIC "-//W3C//DTD SVG 1.1//EN" "http://www.w3.org/Graphics/SVG/1.1/DTD/svg11.dtd">
<svg xmlns="http://www.w3.org/2000/svg" xmlns:xlink="http://www.w3.org/1999/xlink" version="1.1" id="Capa_1" x="0px" y="0px" viewBox="0 0 369.529 369.529" style="enable-background:new 0 0 369.529 369.529;" xml:space="preserve" width="512px" height="512px">
<g>
	<path d="M295.543,198.542h1.793c-6.549-9.721-5.527-23.023,3.07-31.622c9.764-9.763,25.592-9.763,35.355,0l10.971,10.971V69.55   c0-16.109-13.105-29.212-29.212-29.212H29.219C13.112,40.338,0,53.44,0,69.55v201.575c0,16.107,13.112,29.213,29.219,29.213   h201.464c-4.298-9.188-6.715-19.426-6.715-30.222C223.969,230.65,256.078,198.542,295.543,198.542z M72.557,79.706h201.622   l-100.813,73.933L72.557,79.706z" fill="#FFFFFF"/>
	<path d="M365.868,214.703l-38.945-38.944c-4.882-4.882-12.797-4.881-17.678,0c-4.881,4.882-4.881,12.796,0,17.678l17.606,17.605   h-31.308c-32.574,0-59.074,26.5-59.074,59.074c0,32.574,26.501,59.075,59.074,59.075c6.903,0,12.5-5.596,12.5-12.5   c0-6.904-5.597-12.5-12.5-12.5c-18.789,0-34.074-15.286-34.074-34.075c0-18.788,15.286-34.074,34.074-34.074h31.309l-17.606,17.606   c-4.881,4.881-4.881,12.796,0,17.678c2.441,2.441,5.64,3.661,8.839,3.661c3.199,0,6.398-1.22,8.839-3.661l38.945-38.945   c2.344-2.344,3.661-5.524,3.661-8.839C369.529,220.227,368.212,217.047,365.868,214.703z" fill="#FFFFFF"/>
</g>
<g>
</g>
<g>
</g>
<g>
</g>
<g>
</g>
<g>
</g>
<g>
</g>
<g>
</g>
<g>
</g>
<g>
</g>
<g>
</g>
<g>
</g>
<g>
</g>
<g>
</g>
<g>
</g>
<g>
</g>
</svg>
