<?xml version="1.0" encoding="UTF-8"?>
<!DOCTYPE svg PUBLIC "-//W3C//DTD SVG 1.1//EN" "http://www.w3.org/Graphics/SVG/1.1/DTD/svg11.dtd">
<!-- Creator: CorelDRAW 2018 (64-Bit Evaluation Version) -->
<svg xmlns="http://www.w3.org/2000/svg" xml:space="preserve" width="0.333331in" height="0.333331in" version="1.1" style="shape-rendering:geometricPrecision; text-rendering:geometricPrecision; image-rendering:optimizeQuality; fill-rule:evenodd; clip-rule:evenodd"
viewBox="0 0 333.33 333.33"
 xmlns:xlink="http://www.w3.org/1999/xlink">
 <defs>
  <style type="text/css">
   <![CDATA[
    .fil0 {fill:#8a7317}
   ]]>
  </style>
 </defs>
 <g id="Layer_x0020_1">
  <metadata id="CorelCorpID_0Corel-Layer"/>
  <path class="fil0" d="M313.69 56.56c0,-0.7 -0.7,-1.41 -1.06,-1.41 -0.71,0 -1.41,0 -1.77,0.35l-31.76 31.05 -32.81 -32.81 31.76 -31.76c0.7,-0.7 0.7,-1.76 0,-2.47 -0.35,-0.35 -0.35,-0.35 -0.71,-0.35 -23.99,-5.29 -48.69,1.77 -66.69,18.35 -16.94,16.94 -12.7,36.7 -9.88,49.75 0.35,1.76 0.71,3.88 1.06,5.29 -11.29,12 -96.68,97.74 -109.38,109.73 -1.41,-0.35 -2.82,-0.7 -4.59,-1.06 -13.06,-3.18 -32.11,-7.76 -49.75,9.52 -16.58,17.65 -23.64,42.34 -18.35,65.98 0.35,1.06 1.06,1.41 2.12,1.41 0.35,0 0.7,-0.35 0.7,-0.35l31.76 -31.05 32.81 32.81 -31.76 31.76c-0.7,0.7 -0.7,1.76 0,2.47 0.35,0.35 0.35,0.35 0.7,0.35 4.94,1.06 10.23,1.76 15.53,1.76 19.05,0 37.4,-7.06 51.16,-20.46 16.94,-16.94 12.7,-36.7 9.88,-49.75 -0.35,-1.76 -0.7,-3.88 -1.06,-5.29 11.29,-12 96.68,-97.74 109.38,-109.74l4.59 1.06c12.7,3.18 32.46,8.11 49.75,-9.17 16.58,-17.64 23.29,-42.34 18.35,-65.98z"/>
 </g>
</svg>
