<?xml version="1.0" encoding="UTF-8"?>
<!DOCTYPE svg PUBLIC "-//W3C//DTD SVG 1.1//EN" "http://www.w3.org/Graphics/SVG/1.1/DTD/svg11.dtd">
<!-- Creator: CorelDRAW 2018 (64-Bit) -->
<svg xmlns="http://www.w3.org/2000/svg" xml:space="preserve" width="0.133in" height="0.133in" version="1.1" style="shape-rendering:geometricPrecision; text-rendering:geometricPrecision; image-rendering:optimizeQuality; fill-rule:evenodd; clip-rule:evenodd"
viewBox="0 0 133 133"
 xmlns:xlink="http://www.w3.org/1999/xlink">
 <defs>
  <style type="text/css">
   <![CDATA[
    .fil1 {fill:#E6E7E8}
    .fil0 {fill:black}
   ]]>
  </style>
 </defs>
 <g id="Layer_x0020_1">
  <metadata id="CorelCorpID_0Corel-Layer"/>
  <path class="fil0" d="M66.5 -0.17c-36.81,0 -66.67,29.85 -66.67,66.67 0,36.81 29.85,66.67 66.67,66.67 36.82,0 66.67,-29.85 66.67,-66.67 0,-36.82 -29.85,-66.67 -66.67,-66.67zm-6.93 86.46c0,4.22 -3.42,7.64 -7.64,7.64 -4.22,0 -7.65,-3.42 -7.65,-7.64l0 -39.59c0,-4.22 3.42,-7.64 7.65,-7.64 4.22,0 7.64,3.42 7.64,7.64l0 39.59zm28.69 0c0,4.22 -3.42,7.64 -7.64,7.64 -4.22,0 -7.65,-3.42 -7.65,-7.64l0 -39.59c0,-4.22 3.43,-7.64 7.65,-7.64 4.22,0 7.64,3.42 7.64,7.64l0 39.59z"/>
  <path class="fil1" d="M44.28 46.7l0 39.59c0,4.22 3.42,7.64 7.65,7.64 4.22,0 7.64,-3.42 7.64,-7.64l0 -39.59c0,-4.22 -3.42,-7.64 -7.64,-7.64 -4.22,0 -7.65,3.42 -7.65,7.64z"/>
  <path class="fil1" d="M72.97 46.7l0 39.59c0,4.22 3.43,7.64 7.65,7.64 4.22,0 7.64,-3.42 7.64,-7.64l0 -39.59c0,-4.22 -3.42,-7.64 -7.64,-7.64 -4.22,0 -7.65,3.42 -7.65,7.64z"/>
 </g>
</svg>
