<?xml version="1.0" encoding="UTF-8"?>
<!DOCTYPE svg PUBLIC "-//W3C//DTD SVG 1.1//EN" "http://www.w3.org/Graphics/SVG/1.1/DTD/svg11.dtd">
<!-- Creator: CorelDRAW 2018 (64-Bit) -->
<svg xmlns="http://www.w3.org/2000/svg" xml:space="preserve" width="0.133in" height="0.133in" version="1.1" style="shape-rendering:geometricPrecision; text-rendering:geometricPrecision; image-rendering:optimizeQuality; fill-rule:evenodd; clip-rule:evenodd"
viewBox="0 0 133 133"
 xmlns:xlink="http://www.w3.org/1999/xlink">
 <defs>
  <style type="text/css">
   <![CDATA[
    .fil1 {fill:#E6E7E8}
    .fil0 {fill:black}
   ]]>
  </style>
 </defs>
 <g id="Layer_x0020_1">
  <metadata id="CorelCorpID_0Corel-Layer"/>
  <path class="fil0" d="M66.5 -0.17c-36.76,0 -66.67,29.91 -66.67,66.67 0,36.76 29.91,66.67 66.67,66.67 36.76,0 66.67,-29.91 66.67,-66.67 0,-36.76 -29.91,-66.67 -66.67,-66.67zm34.59 68.5l-48.89 33.33c-0.38,0.26 -0.81,0.39 -1.25,0.39 -0.35,0 -0.71,-0.08 -1.04,-0.26 -0.73,-0.39 -1.19,-1.14 -1.19,-1.96l0 -66.67c0,-0.82 0.46,-1.58 1.19,-1.96 0.73,-0.39 1.61,-0.33 2.29,0.13l48.89 33.33c0.61,0.41 0.97,1.1 0.97,1.83 0,0.74 -0.36,1.42 -0.97,1.83z"/>
  <path class="fil1" d="M48.72 33.17l0 66.67c0,0.83 0.46,1.58 1.19,1.96 0.33,0.17 0.68,0.26 1.04,0.26 0.44,0 0.87,-0.13 1.25,-0.38l48.89 -33.33c0.61,-0.42 0.97,-1.11 0.97,-1.84 0,-0.73 -0.36,-1.42 -0.97,-1.84l-48.89 -33.33c-0.69,-0.46 -1.57,-0.51 -2.3,-0.12 -0.73,0.38 -1.19,1.13 -1.19,1.96z"/>
 </g>
</svg>
