<?xml version="1.0" encoding="UTF-8"?>
<!DOCTYPE svg PUBLIC "-//W3C//DTD SVG 1.1//EN" "http://www.w3.org/Graphics/SVG/1.1/DTD/svg11.dtd">
<!-- Creator: CorelDRAW 2018 (64-Bit) -->
<svg xmlns="http://www.w3.org/2000/svg" xml:space="preserve" width="8.1968mm" height="8.1968mm" version="1.1" style="shape-rendering:geometricPrecision; text-rendering:geometricPrecision; image-rendering:optimizeQuality; fill-rule:evenodd; clip-rule:evenodd"
viewBox="0 0 819.68 819.68"
 xmlns:xlink="http://www.w3.org/1999/xlink">
 <defs>
  <style type="text/css">
   <![CDATA[
    .fil0 {fill:#FFDA44}
   ]]>
  </style>
 </defs>
 <g id="Layer_x0020_1">
  <metadata id="CorelCorpID_0Corel-Layer"/>
  <path class="fil0" d="M373.98 449.62l0 117.97 -68.59 0 0 -315.51 109.74 0c34.78,0 62.21,5.35 82.53,20.35 52.99,39.12 41.06,132.04 -11.62,160.3 -12.51,6.71 -35.45,11.53 -54.43,11.42l-49.54 -0.12c-12.33,-0.06 -8.09,-0.36 -8.09,5.59zm-2.74 -54.88c31.47,0 90.53,6.33 90.53,-42.52 0,-16.46 0.93,-29.07 -14.25,-40.62 -16.1,-12.27 -52.36,-8.77 -76.28,-8.77l0 91.91zm123.46 -285.33c-51.29,0 -82.22,-20.58 -86.43,-20.58l-39.77 13.73c-52.55,13.99 -95.87,5.81 -141.78,-17.37 -8.42,-4.24 -16.73,-10.55 -24.22,-15.57 -6.27,4.21 -18.11,17.42 -24.35,23.67l-74.42 73.73c21.97,32.81 39.78,91.05 39.78,142.67 0,66.45 -65.82,141.27 -30.2,230.49 6.94,17.4 14.82,33.28 25.87,46.83 23.74,29.1 68.24,64.66 100.36,80.72 26.45,13.23 62.72,29.77 90.27,37.32 5.55,1.52 7.82,3.02 12.64,5.19 8.7,3.91 16.69,7.21 25.59,11.44 9.23,4.39 13.9,6.83 22.09,13.58 14.8,12.2 14.11,15.95 18.14,18.9 17.13,-25.58 38.9,-31.25 64.02,-42.99 89.6,-41.86 81.8,-18.59 166.65,-87.13 56.84,-45.92 90.3,-109.85 67.52,-185.9 -4.09,-13.64 -7.91,-25.15 -12.33,-38.43 -11.82,-35.43 -19.22,-53.67 -21.82,-91.9 -1.28,-18.86 7.37,-55.73 12.78,-75.23 8.32,-30 18.82,-46.43 31.84,-71.04 -6.29,-4.22 -18.09,-17.41 -24.35,-23.67l-18.58 -18.45c-16.6,-13.88 -48.41,-48.94 -55.84,-53.91 -4.1,2.75 -7.37,5.89 -11.54,9.03 -30.8,23.23 -71.38,34.87 -111.92,34.87z"/>
 </g>
</svg>
