<?xml version="1.0" encoding="UTF-8"?>
<!DOCTYPE svg PUBLIC "-//W3C//DTD SVG 1.1//EN" "http://www.w3.org/Graphics/SVG/1.1/DTD/svg11.dtd">
<!-- Creator: CorelDRAW 2018 (64-Bit Evaluation Version) -->
<svg xmlns="http://www.w3.org/2000/svg" xml:space="preserve" width="0.333331in" height="0.333331in" version="1.1" style="shape-rendering:geometricPrecision; text-rendering:geometricPrecision; image-rendering:optimizeQuality; fill-rule:evenodd; clip-rule:evenodd"
viewBox="0 0 333.33 333.33"
 xmlns:xlink="http://www.w3.org/1999/xlink">
 <defs>
  <style type="text/css">
   <![CDATA[
    .fil0 {fill:#8a7317}
   ]]>
  </style>
 </defs>
 <g id="Layer_x0020_1">
  <metadata id="CorelCorpID_0Corel-Layer"/>
  <path class="fil0" d="M31.41 125.06c1.65,5.61 3.91,11.02 6.78,16.1l-8.18 10.32c-2.67,3.37 -2.37,8.18 0.64,11.22l14.1 14.09c3.03,3.04 7.84,3.31 11.21,0.64l10.26 -8.11c5.28,3.04 10.89,5.41 16.73,7.08l1.54 13.19c0.5,4.28 4.11,7.49 8.39,7.49l19.94 0c4.28,0 7.89,-3.21 8.39,-7.49l1.48 -12.72c6.27,-1.63 12.29,-4.07 17.93,-7.25l9.93 7.85c3.37,2.67 8.18,2.37 11.22,-0.63l14.1 -14.1c3.04,-3.04 3.31,-7.84 0.64,-11.22l-7.72 -9.79c3.2,-5.54 5.71,-11.45 7.39,-17.63l11.88 -1.37c4.28,-0.5 7.49,-4.1 7.49,-8.38l0 -19.94c0,-4.27 -3.2,-7.88 -7.49,-8.38l-11.72 -1.37c-1.6,-6.11 -4,-11.96 -7.08,-17.44l7.22 -9.12c2.67,-3.37 2.37,-8.18 -0.64,-11.22l-14.06 -14.06c-3.04,-3.04 -7.85,-3.31 -11.22,-0.64l-8.85 7.01c-5.75,-3.37 -11.89,-5.94 -18.34,-7.68l-1.33 -11.45c-0.5,-4.28 -4.11,-7.48 -8.38,-7.48l-19.94 0c-4.28,0 -7.88,3.2 -8.38,7.48l-1.34 11.45c-6.61,1.77 -12.93,4.44 -18.8,7.95l-9.19 -7.28c-3.37,-2.67 -8.18,-2.37 -11.21,0.64l-14.1 14.09c-3.04,3.04 -3.31,7.85 -0.64,11.22l7.68 9.72c-3.07,5.54 -5.41,11.45 -6.94,17.6l-12.29 1.41c-4.28,0.5 -7.48,4.1 -7.48,8.38l0 19.94c0,4.27 3.2,7.88 7.48,8.39l12.95 1.5zm48.04 121.22c-4.2,0.43 -7.44,3.96 -7.48,8.21l-0.1 8.45c-0.07,4.24 3.07,7.85 7.28,8.39l6.21 0.8c1.04,3.77 2.5,7.38 4.41,10.79l-4.01 4.94c-2.67,3.31 -2.48,8.05 0.5,11.09l5.91 6.04c2.98,3.04 7.72,3.37 11.1,0.77l4.98 -3.84c3.5,2.07 7.21,3.7 11.09,4.84l0.66 6.41c0.44,4.21 3.98,7.45 8.22,7.48l8.45 0.1c4.24,0.07 7.84,-3.07 8.38,-7.28l0.76 -6.08c4.21,-1.04 8.22,-2.6 12.03,-4.68l4.67 3.77c3.31,2.68 8.06,2.48 11.09,-0.5l6.04 -5.91c3.04,-2.97 3.37,-7.71 0.77,-11.09l-3.58 -4.65c2.2,-3.67 3.91,-7.58 5.08,-11.69l5.54 -0.57c4.21,-0.43 7.45,-3.98 7.49,-8.21l0.1 -8.45c0.07,-4.24 -3.07,-7.85 -7.28,-8.39l-5.41 -0.7c-1.04,-4.07 -2.58,-8.01 -4.58,-11.69l3.37 -4.14c2.67,-3.3 2.47,-8.05 -0.5,-11.09l-5.92 -6.04c-2.97,-3.04 -7.71,-3.37 -11.09,-0.77l-4.05 3.1c-3.8,-2.31 -7.87,-4.07 -12.15,-5.28l-0.54 -5.24c-0.43,-4.2 -3.98,-7.44 -8.22,-7.48l-8.45 -0.1c-4.24,-0.07 -7.85,3.07 -8.39,7.28l-0.67 5.2c-4.41,1.14 -8.65,2.87 -12.59,5.15l-4.18 -3.41c-3.31,-2.67 -8.05,-2.47 -11.09,0.5l-6.08 5.95c-3.04,2.97 -3.37,7.72 -0.76,11.09l3.57 4.61c-2.07,3.67 -3.7,7.58 -4.77,11.69l-5.85 0.6zm54.54 -9.56c12.13,0.13 21.85,10.11 21.71,22.24 -0.13,12.12 -10.12,21.84 -22.24,21.71 -12.13,-0.14 -21.84,-10.12 -21.71,-22.25 0.13,-12.13 10.12,-21.85 22.24,-21.71zm166.81 -106.76l-10.52 -8.88c-3.24,-2.74 -8.02,-2.6 -11.09,0.3l-5.81 5.44c-4.91,-2.37 -10.12,-4.04 -15.5,-5.01l-1.63 -8.02c-0.84,-4.14 -4.68,-7.01 -8.89,-6.68l-13.73 1.17c-4.2,0.37 -7.51,3.81 -7.65,8.06l-0.26 8.15c-5.28,1.91 -10.26,4.51 -14.8,7.78l-6.94 -4.61c-3.54,-2.33 -8.25,-1.67 -11,1.57l-8.89 10.59c-2.74,3.24 -2.6,8.01 0.31,11.09l6.08 6.48c-2.1,4.74 -3.61,9.72 -4.48,14.83l-8.68 1.77c-4.15,0.84 -7.02,4.68 -6.68,8.89l1.16 13.73c0.37,4.2 3.81,7.51 8.06,7.65l9.38 0.3c1.7,4.48 3.94,8.72 6.65,12.7l-5.24 7.91c-2.34,3.54 -1.67,8.26 1.57,11l10.52 8.88c3.24,2.74 8.02,2.6 11.09,-0.3l6.88 -6.44c4.51,2.1 9.25,3.67 14.13,4.61l1.91 9.42c0.83,4.14 4.68,7.01 8.89,6.68l13.72 -1.17c4.21,-0.37 7.52,-3.8 7.65,-8.05l0.3 -9.22c5.01,-1.77 9.76,-4.18 14.13,-7.15l7.58 5.01c3.54,2.33 8.25,1.67 10.99,-1.58l8.89 -10.52c2.74,-3.24 2.61,-8.01 -0.3,-11.09l-6.11 -6.48c2.24,-4.75 3.87,-9.76 4.81,-14.89l8.35 -1.7c4.15,-0.84 7.02,-4.68 6.68,-8.89l-1.17 -13.73c-0.36,-4.2 -3.81,-7.51 -8.04,-7.65l-8.39 -0.27c-1.74,-4.87 -4.08,-9.49 -6.98,-13.76l4.58 -6.88c2.41,-3.54 1.74,-8.28 -1.5,-11.02zm-51.74 79.37c-14.83,1.27 -27.93,-9.8 -29.16,-24.62 -1.27,-14.83 9.79,-27.93 24.62,-29.16 14.83,-1.26 27.93,9.79 29.16,24.62 1.26,14.83 -9.79,27.93 -24.62,29.17zm-145.4 -138.22c18.17,0 32.97,14.8 32.97,32.97 0,18.17 -14.8,32.97 -32.97,32.97 -18.18,0 -32.97,-14.8 -32.97,-32.97 0,-18.17 14.79,-32.97 32.97,-32.97z"/>
 </g>
</svg>
