<?xml version="1.0" encoding="UTF-8"?>
<!DOCTYPE svg PUBLIC "-//W3C//DTD SVG 1.1//EN" "http://www.w3.org/Graphics/SVG/1.1/DTD/svg11.dtd">
<!-- Creator: CorelDRAW 2018 (64-Bit Evaluation Version) -->
<svg xmlns="http://www.w3.org/2000/svg" xml:space="preserve" width="0.333331in" height="0.333331in" version="1.1" style="shape-rendering:geometricPrecision; text-rendering:geometricPrecision; image-rendering:optimizeQuality; fill-rule:evenodd; clip-rule:evenodd"
viewBox="0 0 333.33 333.33"
 xmlns:xlink="http://www.w3.org/1999/xlink">
 <defs>
  <style type="text/css">
   <![CDATA[
    .fil0 {fill:#fefefe}
   ]]>
  </style>
 </defs>
 <g id="Layer_x0020_1">
  <metadata id="CorelCorpID_0Corel-Layer"/>
  <path class="fil0" d="M111.54 43.1l26.69 57.22c-16.99,7.3 -30.6,20.9 -37.9,37.89l-57.21 -26.69c-3.67,8.23 -6.54,16.89 -8.55,25.88 9.33,-42.24 38.36,-77.03 76.98,-94.3zm30.49 65.39c7.58,-3.22 15.9,-5.01 24.64,-5.01 8.74,0 17.06,1.78 24.64,4.99 15.07,6.4 27.14,18.47 33.54,33.54 3.2,7.58 4.99,15.9 4.99,24.64 0,8.74 -1.78,17.06 -4.99,24.64 -6.4,15.07 -18.47,27.15 -33.54,33.53 -7.58,3.22 -15.9,5 -24.64,5 -8.74,0 -17.06,-1.78 -24.64,-4.99 -15.07,-6.4 -27.15,-18.47 -33.53,-33.54 -3.22,-7.58 -5,-15.9 -5,-24.64 0,-8.74 1.78,-17.06 5.01,-24.64 6.38,-15.07 18.45,-27.14 33.52,-33.52zm79.76 -65.39c-8.23,-3.67 -16.89,-6.54 -25.86,-8.55 8.99,1.99 17.63,4.88 25.86,8.55zm-26.67 57.21l26.67 -57.21c30.41,13.59 54.85,38.04 68.44,68.43l-57.22 26.69c-7.3,-16.99 -20.92,-30.6 -37.9,-37.9zm106.92 66.35c0,-4.85 -0.28,-9.62 -0.78,-14.35 0.51,4.72 0.78,9.5 0.78,14.35zm-1.69 -20.84c-0.38,-2.57 -0.83,-5.13 -1.38,-7.64 0.55,2.51 1,5.06 1.38,7.64zm-9.89 -33.74c-0.07,-0.16 -0.14,-0.32 -0.21,-0.48 0.07,0.16 0.14,0.32 0.21,0.48zm-106.83 -79.62c-0.2,-0.03 -0.4,-0.05 -0.59,-0.07 0.2,0.02 0.4,0.05 0.59,0.07zm-34.13 0.03c-3.81,0.48 -7.61,1.08 -11.31,1.87 3.7,-0.81 7.5,-1.4 11.31,-1.87zm-12.1 2.07c-8.96,2.01 -17.59,4.86 -25.79,8.53 8.19,-3.67 16.81,-6.54 25.79,-8.53zm-104.91 115.03c-0.03,0.24 -0.06,0.48 -0.09,0.72 0.03,-0.24 0.06,-0.48 0.09,-0.72zm10.63 72.21l57.21 -26.69c7.3,16.99 20.93,30.6 37.9,37.88l-26.69 57.23c-30.39,-13.59 -54.82,-38.02 -68.43,-68.43zm-10.72 -38.79c0.49,4.11 1.13,8.18 1.97,12.16 -0.86,-3.98 -1.48,-8.06 -1.97,-12.16zm105.79 115.96c3.95,0.86 8.02,1.48 12.11,1.97 -4.09,-0.49 -8.15,-1.11 -12.11,-1.97zm-26.58 -8.72c8.18,3.65 16.8,6.5 25.73,8.51 -8.96,-1.97 -17.56,-4.86 -25.73,-8.51zm55.06 11.79c4.85,0 9.62,-0.28 14.35,-0.78 -4.72,0.51 -9.5,0.78 -14.35,0.78zm123.56 -80.25c3.67,-8.23 6.54,-16.89 8.55,-25.86 -1.97,8.99 -4.86,17.63 -8.55,25.86zm-95.11 11.21c16.99,-7.3 30.6,-20.9 37.9,-37.88l57.21 26.67c-13.59,30.41 -38.02,54.83 -68.43,68.44l-26.69 -57.23zm13.78 62.22c4.37,-1.43 8.64,-3.1 12.81,-4.95 -4.18,1.87 -8.44,3.53 -12.81,4.95zm90.07 -100.04c0.87,-3.98 1.48,-8.06 1.99,-12.15 -0.51,4.11 -1.13,8.16 -1.99,12.15zm-132.3 -172.9c-79.74,0 -144.39,64.65 -144.39,144.39 0,79.74 64.65,144.39 144.39,144.39 79.74,0 144.39,-64.65 144.39,-144.39 0,-79.74 -64.65,-144.39 -144.39,-144.39zm134.59 158.74c0.5,-4.72 0.78,-9.5 0.78,-14.35 0,4.85 -0.26,9.63 -0.78,14.35zm-0.31 -30.72c-0.18,-1.5 -0.38,-2.99 -0.6,-4.47 0.22,1.48 0.42,2.98 0.6,4.47zm-2.19 -12.96c-1.97,-8.76 -4.76,-17.22 -8.3,-25.25 3.55,8.04 6.37,16.47 8.3,25.25zm-103.59 -102.97c-3.79,-0.81 -7.64,-1.42 -11.55,-1.9 3.89,0.48 7.76,1.08 11.55,1.9zm-44.86 -1.98c-0.27,0.04 -0.54,0.07 -0.82,0.1 0.28,-0.04 0.55,-0.07 0.82,-0.1zm-115.94 105.78c-0.8,3.75 -1.41,7.56 -1.89,11.42 0.48,-3.86 1.07,-7.69 1.89,-11.42zm0.18 57.72c1.99,9.01 4.9,17.66 8.57,25.91 -3.67,-8.25 -6.56,-16.92 -8.57,-25.91zm117.78 105.37c4.72,0.51 9.5,0.78 14.35,0.78 -4.85,0 -9.63,-0.28 -14.35,-0.78z"/>
 </g>
</svg>
