<?xml version="1.0" encoding="utf-8"?>
<!-- Generator: Adobe Illustrator 16.0.0, SVG Export Plug-In . SVG Version: 6.00 Build 0)  -->
<!DOCTYPE svg PUBLIC "-//W3C//DTD SVG 1.1//EN" "http://www.w3.org/Graphics/SVG/1.1/DTD/svg11.dtd">
<svg version="1.1" id="Layer_1" xmlns="http://www.w3.org/2000/svg" xmlns:xlink="http://www.w3.org/1999/xlink" x="0px" y="0px"
	 width="30.312px" height="30.96px" viewBox="0 0 30.312 30.96" enable-background="new 0 0 30.312 30.96" xml:space="preserve">
<circle opacity="0.7" fill-rule="evenodd" clip-rule="evenodd" fill="#F9A01B" cx="15.156" cy="15.824" r="15.142"/>
<circle fill-rule="evenodd" clip-rule="evenodd" fill="#6D6E71" cx="15.156" cy="15.136" r="15.142"/>
<path opacity="0.7" fill-rule="evenodd" clip-rule="evenodd" fill="#FFC20E" d="M15.156,29.498c-8.117,0-14.742-6.387-15.125-14.409
	c-0.006,0.13-0.011,0.26-0.014,0.391C0.2,23.685,6.908,30.278,15.156,30.278c8.249,0,14.957-6.594,15.139-14.798
	c-0.003-0.13-0.008-0.261-0.014-0.39C29.897,23.111,23.272,29.498,15.156,29.498z"/>
<path fill-rule="evenodd" clip-rule="evenodd" fill="#FFFFFF" d="M16.093,5.946c-5.067,0-9.19,4.123-9.189,9.164
	c-0.004,0.08-0.05,1.414,0.33,2.852L5.995,17.24c-0.308-0.179-0.699-0.074-0.879,0.232c-0.178,0.307-0.075,0.7,0.232,0.879
	l2.901,1.691c0.006,0.003,0.012,0.004,0.018,0.007c0.031,0.017,0.062,0.028,0.096,0.04c0.022,0.008,0.045,0.017,0.067,0.021
	c0.028,0.006,0.055,0.008,0.083,0.011c0.02,0.002,0.04,0.008,0.059,0.008c0.012,0,0.022-0.004,0.033-0.005
	c0.011,0,0.021,0.003,0.031,0.002c0.016-0.002,0.03-0.009,0.046-0.011c0.031-0.006,0.06-0.013,0.09-0.022
	c0.025-0.008,0.049-0.018,0.073-0.029c0.027-0.013,0.052-0.026,0.077-0.043c0.023-0.015,0.044-0.031,0.064-0.048
	c0.023-0.02,0.043-0.04,0.063-0.063c0.019-0.021,0.035-0.043,0.051-0.065c0.009-0.013,0.02-0.021,0.028-0.035
	c0.006-0.01,0.006-0.021,0.011-0.031c0.008-0.018,0.021-0.033,0.029-0.052l1.154-2.857c0.133-0.329-0.026-0.704-0.355-0.837
	c-0.33-0.132-0.704,0.026-0.837,0.355l-0.593,1.468c-0.395-1.323-0.351-2.682-0.349-2.72c0-4.358,3.546-7.904,7.904-7.904
	c4.357,0,7.903,3.546,7.903,7.904c0,4.357-3.546,7.903-7.903,7.903c-0.355,0-0.644,0.288-0.644,0.644
	c0,0.354,0.287,0.643,0.644,0.643c5.067,0,9.189-4.122,9.189-9.189C25.283,10.069,21.16,5.946,16.093,5.946L16.093,5.946z"/>
<path fill-rule="evenodd" clip-rule="evenodd" fill="#FFFFFF" d="M15.847,16.373c0.064,0.026,0.133,0.036,0.202,0.041
	c0.015,0.001,0.028,0.009,0.043,0.009c0.075,0,0.148-0.018,0.218-0.043c0.02-0.007,0.038-0.018,0.057-0.026
	c0.054-0.025,0.103-0.059,0.147-0.099c0.011-0.008,0.023-0.011,0.033-0.021l4.015-4.015c0.252-0.251,0.252-0.658,0-0.909
	c-0.251-0.251-0.657-0.251-0.909,0l-3.71,3.71l-3.33-1.395c-0.33-0.137-0.705,0.017-0.842,0.345
	c-0.137,0.327,0.018,0.704,0.344,0.841l3.728,1.561C15.845,16.372,15.846,16.372,15.847,16.373L15.847,16.373z"/>
</svg>
