<?xml version="1.0" encoding="UTF-8"?>
<!DOCTYPE svg PUBLIC "-//W3C//DTD SVG 1.1//EN" "http://www.w3.org/Graphics/SVG/1.1/DTD/svg11.dtd">
<!-- Creator: CorelDRAW 2018 (64-Bit Evaluation Version) -->
<svg xmlns="http://www.w3.org/2000/svg" xml:space="preserve" width="0.333331in" height="0.333331in" version="1.1" style="shape-rendering:geometricPrecision; text-rendering:geometricPrecision; image-rendering:optimizeQuality; fill-rule:evenodd; clip-rule:evenodd"
viewBox="0 0 333.33 333.33"
 xmlns:xlink="http://www.w3.org/1999/xlink">
 <defs>
  <style type="text/css">
   <![CDATA[
    .fil0 {fill:#FFDA44}
   ]]>
  </style>
 </defs>
 <g id="Layer_x0020_1">
  <metadata id="CorelCorpID_0Corel-Layer"/>
  <path class="fil0" d="M59.43 102.13c-3.43,0 -6.22,2.79 -6.22,6.21 0,3.43 2.79,6.22 6.22,6.22 3.43,0 6.21,-2.79 6.21,-6.22 0,-3.43 -2.79,-6.21 -6.21,-6.21zm214.47 31.9c-30.03,0 -54.46,24.44 -54.46,54.46 0,14.88 8.11,34.31 24.11,57.77 11.45,16.78 22.75,29.47 23.22,30 1.81,2.03 4.4,3.19 7.12,3.19 2.72,0 5.3,-1.16 7.12,-3.19 0.48,-0.54 11.78,-13.22 23.22,-30 16,-23.46 24.11,-42.89 24.11,-57.77 0,-30.02 -24.43,-54.46 -54.46,-54.46zm0 79.77c-13.96,0 -25.31,-11.35 -25.31,-25.31 0,-13.96 11.35,-25.31 25.31,-25.31 13.95,0 25.31,11.35 25.31,25.31 0,13.95 -11.35,25.31 -25.31,25.31zm0 -31.53c-3.43,0 -6.22,2.79 -6.22,6.22 0,3.43 2.79,6.22 6.22,6.22 3.43,0 6.21,-2.79 6.21,-6.22 0,-3.43 -2.79,-6.22 -6.21,-6.22zm-43.81 78.08l-23.76 0c-16.83,0 -30.53,-13.69 -30.53,-30.53 0,-27.36 -22.26,-49.62 -49.62,-49.62l-22.95 0c-5.27,7.52 -10.4,14.13 -14.42,19.09l37.37 0c16.83,0 30.52,13.69 30.52,30.53 0,27.36 22.26,49.62 49.62,49.62l38.18 0c-4.02,-4.98 -9.15,-11.58 -14.42,-19.09zm-170.66 -206.47c-30.03,0 -54.46,24.43 -54.46,54.46 0,14.88 8.12,34.31 24.12,57.77 11.44,16.78 22.74,29.47 23.22,30 1.81,2.03 4.41,3.19 7.12,3.19 2.72,0 5.3,-1.16 7.11,-3.19 0.48,-0.53 11.78,-13.22 23.22,-30 16,-23.46 24.12,-42.89 24.12,-57.77 0,-30.03 -24.43,-54.46 -54.46,-54.46zm0 79.77c-13.96,0 -25.31,-11.35 -25.31,-25.31 0,-13.95 11.35,-25.31 25.31,-25.31 13.95,0 25.31,11.35 25.31,25.31 0,13.96 -11.35,25.31 -25.31,25.31z"/>
 </g>
</svg>
