<?xml version="1.0" encoding="UTF-8"?>
<!DOCTYPE svg PUBLIC "-//W3C//DTD SVG 1.1//EN" "http://www.w3.org/Graphics/SVG/1.1/DTD/svg11.dtd">
<!-- Creator: CorelDRAW 2018 (64-Bit Evaluation Version) -->
<svg xmlns="http://www.w3.org/2000/svg" xml:space="preserve" width="0.333331in" height="0.333331in" version="1.1" style="shape-rendering:geometricPrecision; text-rendering:geometricPrecision; image-rendering:optimizeQuality; fill-rule:evenodd; clip-rule:evenodd"
viewBox="0 0 333.33 333.33"
 xmlns:xlink="http://www.w3.org/1999/xlink">
 <defs>
  <style type="text/css">
   <![CDATA[
    .fil0 {fill:#fefefe}
   ]]>
  </style>
 </defs>
 <g id="Layer_x0020_1">
  <metadata id="CorelCorpID_0Corel-Layer"/>
  <path class="fil0" d="M166.66 78.61c-103.17,0 -157.25,76.01 -157.25,88.06 0,12.06 54.09,88.06 157.25,88.06 103.16,0 157.25,-76.01 157.25,-88.06 0,-12.05 -54.09,-88.06 -157.25,-88.06zm0 155.8c-38.6,0 -69.89,-30.33 -69.89,-67.74 0,-37.41 31.29,-67.74 69.89,-67.74 38.6,0 69.89,30.33 69.89,67.74 0,37.41 -31.29,67.74 -69.89,67.74zm34.94 -67.74c0,18.7 -15.65,33.87 -34.94,33.87 -19.3,0 -34.94,-15.17 -34.94,-33.87 0,-18.7 15.64,-33.87 34.94,-33.87 10.43,0 -6.4,26.84 0,33.87 5.44,5.97 34.94,-8.59 34.94,0z"/>
 </g>
</svg>
