<?xml version="1.0" encoding="UTF-8"?>
<!DOCTYPE svg PUBLIC "-//W3C//DTD SVG 1.1//EN" "http://www.w3.org/Graphics/SVG/1.1/DTD/svg11.dtd">
<!-- Creator: CorelDRAW 2018 (64-Bit Evaluation Version) -->
<svg xmlns="http://www.w3.org/2000/svg" xml:space="preserve" width="0.333331in" height="0.333331in" version="1.1" style="shape-rendering:geometricPrecision; text-rendering:geometricPrecision; image-rendering:optimizeQuality; fill-rule:evenodd; clip-rule:evenodd"
viewBox="0 0 333.33 333.33"
 xmlns:xlink="http://www.w3.org/1999/xlink">
 <defs>
  <style type="text/css">
   <![CDATA[
    .fil0 {fill:#8a7317}
   ]]>
  </style>
 </defs>
 <g id="Layer_x0020_1">
  <metadata id="CorelCorpID_0Corel-Layer"/>
  <path class="fil0" d="M319.49 247.42c-0.09,0.04 -9.19,3.09 -18.86,3.09 -14.8,0 -22.41,-6.96 -22.57,-20.64 0.17,-13.72 7.77,-20.67 22.58,-20.67 9.63,0 18.76,3.05 18.85,3.09 0.18,0.06 0.37,0.1 0.56,0.1 1.02,0.03 1.85,-0.81 1.85,-1.83 0,-0.3 -0.07,-0.59 -0.21,-0.85 -0.47,-1.12 -2.89,-6.63 -8.35,-12.16 -5.52,-5.59 -15.33,-12.27 -30.63,-12.27 -24.18,0 -34.83,20.13 -38.07,28.06l-66.85 0 0 -32.62 33.82 0c1.93,0 3.49,-1.57 3.49,-3.48l0 -41.72c0,-1.93 -1.57,-3.49 -3.49,-3.49l-89.28 0c-1.93,0 -3.48,1.56 -3.48,3.49l0 41.72c0,1.93 1.56,3.48 3.48,3.48l34.93 0 0 32.61 -68.59 0c-3.25,-7.92 -13.89,-28.06 -38.07,-28.06 -15.31,0 -25.11,6.68 -30.63,12.27 -6,6.07 -8.34,12.11 -8.44,12.37 -0.24,0.66 -0.09,1.4 0.39,1.91 0.49,0.51 1.22,0.69 1.89,0.46 0.09,-0.04 9.22,-3.09 18.85,-3.09 14.81,0 22.41,6.96 22.58,20.63 -0.18,13.72 -7.77,20.68 -22.58,20.68 -9.64,0 -18.76,-3.06 -18.85,-3.09 -0.67,-0.22 -1.4,-0.05 -1.89,0.46 -0.48,0.5 -0.64,1.25 -0.39,1.91 0.09,0.25 2.44,6.29 8.44,12.35 5.52,5.6 15.32,12.28 30.63,12.28 24.18,0 34.82,-20.13 38.07,-28.06l68.59 0 0 44.28c0,1 0.81,1.81 1.81,1.81l16.91 0c1.01,0 1.82,-0.81 1.82,-1.81l0 -44.28 66.84 0c3.25,7.93 13.89,28.06 38.07,28.06 15.31,0 25.11,-6.68 30.63,-12.28 5.99,-6.06 8.33,-12.1 8.43,-12.35 0.26,-0.66 0.1,-1.41 -0.39,-1.91 -0.5,-0.5 -1.22,-0.69 -1.89,-0.46zm-131.55 -170.61c-58.19,0 -46.86,9.02 -53.02,-35.94 -28.21,3.43 -54.43,20.24 -71.9,45.91l24.01 30.22c-25.35,33.57 -5.25,33.93 -54.53,14.1 -4.43,12.78 -5.22,27.03 -5.17,36.1 13.3,-6.72 39.2,-9.36 54.97,4.83 1.24,-15.63 6.12,-38.1 22.5,-55.55 36.07,-38.44 138.22,-37.13 145.65,53.83 14.45,-12.84 41.92,-10.56 55,-3.45 0.02,-9.07 -0.81,-23.13 -5.17,-35.76 -27.99,11.27 -36.13,18.41 -40.38,8.03 -14.42,-35.25 -30.24,-12.77 9.85,-52.35 -25.13,-36.84 -59.3,-44.38 -71.9,-45.92l-9.9 35.95z"/>
 </g>
</svg>
