<?xml version="1.0" encoding="UTF-8"?>
<!DOCTYPE svg PUBLIC "-//W3C//DTD SVG 1.1//EN" "http://www.w3.org/Graphics/SVG/1.1/DTD/svg11.dtd">
<!-- Creator: CorelDRAW 2018 (64-Bit) -->
<svg xmlns="http://www.w3.org/2000/svg" xml:space="preserve" width="8.4666mm" height="8.4666mm" version="1.1" style="shape-rendering:geometricPrecision; text-rendering:geometricPrecision; image-rendering:optimizeQuality; fill-rule:evenodd; clip-rule:evenodd"
viewBox="0 0 846.66 846.66"
 xmlns:xlink="http://www.w3.org/1999/xlink">
 <defs>
  <style type="text/css">
   <![CDATA[
    .fil0 {fill:#1eb15d}
   ]]>
  </style>
 </defs>
 <g id="Layer_x0020_1">
  <metadata id="CorelCorpID_0Corel-Layer"/>
  <path class="fil0" d="M819.35 131.57l-62.07 0 0 213.56 24.82 0 0 98.06 -47.18 0.01 0 -324.03c0.02,-65.82 -53.35,-119.17 -119.17,-119.17l-392.31 0c-65.81,0 -119.18,53.35 -119.18,119.17l0 317.82 -40.96 0 0 -104.31 26.07 0 0 -213.51 -62.06 0 0 213.51 26.07 0 0 114.27 50.88 0 0 233.4c0,45.08 25.09,84.38 62.08,104.6l0 61.69 104.27 0 0 -47.14 295.46 0 0 47.16 104.31 0 0 -60.51c38.32,-19.77 64.54,-59.72 64.54,-105.82l0 -227.23 57.11 0 0 -107.98 27.32 0 0 -213.55 0 0zm-536.3 -106.77l278.06 0 0 64.59 -278.06 0 0 -64.59zm29.78 650.55l-153.93 0 0 -69.48 153.93 0 0 69.48zm372.43 0l-153.93 0 0 -69.48 153.93 0 0 69.48zm0 -223.46c0,0 -29.8,94.37 -268.14,94.37 -238.38,0 -263.22,-94.37 -263.22,-94.37l0 -327.78 531.36 0 0 327.78z"/>
 </g>
</svg>
